%TF.GenerationSoftware,KiCad,Pcbnew,8.0.8-8.0.8-0~ubuntu24.04.1*%
%TF.CreationDate,2025-02-21T09:49:17+09:00*%
%TF.ProjectId,led01,6c656430-312e-46b6-9963-61645f706362,rev?*%
%TF.SameCoordinates,Original*%
%TF.FileFunction,Soldermask,Top*%
%TF.FilePolarity,Negative*%
%FSLAX46Y46*%
G04 Gerber Fmt 4.6, Leading zero omitted, Abs format (unit mm)*
G04 Created by KiCad (PCBNEW 8.0.8-8.0.8-0~ubuntu24.04.1) date 2025-02-21 09:49:17*
%MOMM*%
%LPD*%
G01*
G04 APERTURE LIST*
G04 Aperture macros list*
%AMRoundRect*
0 Rectangle with rounded corners*
0 $1 Rounding radius*
0 $2 $3 $4 $5 $6 $7 $8 $9 X,Y pos of 4 corners*
0 Add a 4 corners polygon primitive as box body*
4,1,4,$2,$3,$4,$5,$6,$7,$8,$9,$2,$3,0*
0 Add four circle primitives for the rounded corners*
1,1,$1+$1,$2,$3*
1,1,$1+$1,$4,$5*
1,1,$1+$1,$6,$7*
1,1,$1+$1,$8,$9*
0 Add four rect primitives between the rounded corners*
20,1,$1+$1,$2,$3,$4,$5,0*
20,1,$1+$1,$4,$5,$6,$7,0*
20,1,$1+$1,$6,$7,$8,$9,0*
20,1,$1+$1,$8,$9,$2,$3,0*%
G04 Aperture macros list end*
%ADD10R,1.700000X1.700000*%
%ADD11O,1.700000X1.700000*%
%ADD12C,1.600000*%
%ADD13C,2.000000*%
%ADD14C,1.400000*%
%ADD15RoundRect,0.770000X0.980000X0.980000X-0.980000X0.980000X-0.980000X-0.980000X0.980000X-0.980000X0*%
%ADD16C,3.500000*%
%ADD17R,1.600000X1.600000*%
%ADD18O,1.600000X1.600000*%
%ADD19RoundRect,0.250000X0.600000X0.725000X-0.600000X0.725000X-0.600000X-0.725000X0.600000X-0.725000X0*%
%ADD20O,1.700000X1.950000*%
%ADD21R,1.905000X2.000000*%
%ADD22O,1.905000X2.000000*%
%ADD23C,1.500000*%
G04 APERTURE END LIST*
D10*
%TO.C,J2*%
X122625000Y-51350000D03*
D11*
X122625000Y-53890000D03*
%TD*%
D12*
%TO.C,C1*%
X119725000Y-105150000D03*
X119725000Y-107650000D03*
%TD*%
%TO.C,C4*%
X109525000Y-118050000D03*
X107025000Y-118050000D03*
%TD*%
D13*
%TO.C,SW1*%
X123575000Y-102050000D03*
X123575000Y-95550000D03*
X128075000Y-102050000D03*
X128075000Y-95550000D03*
%TD*%
D14*
%TO.C,J4*%
X112500000Y-133725000D03*
X101500000Y-133725000D03*
D15*
X104500000Y-123725000D03*
D16*
X109500000Y-123725000D03*
%TD*%
D17*
%TO.C,U1*%
X119975000Y-92625000D03*
D18*
X119975000Y-90085000D03*
X119975000Y-87545000D03*
X119975000Y-85005000D03*
X119975000Y-82465000D03*
X119975000Y-79925000D03*
X119975000Y-77385000D03*
X119975000Y-74845000D03*
X119975000Y-72305000D03*
X119975000Y-69765000D03*
X119975000Y-67225000D03*
X119975000Y-64685000D03*
X119975000Y-62145000D03*
X119975000Y-59605000D03*
X112355000Y-59605000D03*
X112355000Y-62145000D03*
X112355000Y-64685000D03*
X112355000Y-67225000D03*
X112355000Y-69765000D03*
X112355000Y-72305000D03*
X112355000Y-74845000D03*
X112355000Y-77385000D03*
X112355000Y-79925000D03*
X112355000Y-82465000D03*
X112355000Y-85005000D03*
X112355000Y-87545000D03*
X112355000Y-90085000D03*
X112355000Y-92625000D03*
%TD*%
D10*
%TO.C,J1*%
X128700000Y-125825000D03*
D11*
X126160000Y-125825000D03*
X123620000Y-125825000D03*
X121080000Y-125825000D03*
X118540000Y-125825000D03*
X116000000Y-125825000D03*
%TD*%
D12*
%TO.C,R1*%
X123500000Y-115255000D03*
D18*
X123500000Y-105095000D03*
%TD*%
D19*
%TO.C,J3*%
X108075000Y-58275000D03*
D20*
X105575000Y-58275000D03*
X103075000Y-58275000D03*
%TD*%
D12*
%TO.C,C5*%
X104575000Y-95875000D03*
X107075000Y-95875000D03*
%TD*%
D21*
%TO.C,U2*%
X109615000Y-106655000D03*
D22*
X107075000Y-106655000D03*
X104535000Y-106655000D03*
%TD*%
D12*
%TO.C,C2*%
X128225000Y-68825000D03*
X128225000Y-71325000D03*
%TD*%
D23*
%TO.C,Y1*%
X124025000Y-73775000D03*
X124025000Y-68875000D03*
%TD*%
D12*
%TO.C,C3*%
X128175000Y-73750000D03*
X128175000Y-76250000D03*
%TD*%
M02*
