%TF.GenerationSoftware,KiCad,Pcbnew,8.0.8-8.0.8-0~ubuntu24.04.1*%
%TF.CreationDate,2025-02-21T09:49:17+09:00*%
%TF.ProjectId,led01,6c656430-312e-46b6-9963-61645f706362,rev?*%
%TF.SameCoordinates,Original*%
%TF.FileFunction,Legend,Top*%
%TF.FilePolarity,Positive*%
%FSLAX46Y46*%
G04 Gerber Fmt 4.6, Leading zero omitted, Abs format (unit mm)*
G04 Created by KiCad (PCBNEW 8.0.8-8.0.8-0~ubuntu24.04.1) date 2025-02-21 09:49:17*
%MOMM*%
%LPD*%
G01*
G04 APERTURE LIST*
%ADD10C,0.150000*%
%ADD11C,0.120000*%
%ADD12C,0.000000*%
G04 APERTURE END LIST*
D10*
X122291666Y-48474819D02*
X122291666Y-49189104D01*
X122291666Y-49189104D02*
X122244047Y-49331961D01*
X122244047Y-49331961D02*
X122148809Y-49427200D01*
X122148809Y-49427200D02*
X122005952Y-49474819D01*
X122005952Y-49474819D02*
X121910714Y-49474819D01*
X122720238Y-48570057D02*
X122767857Y-48522438D01*
X122767857Y-48522438D02*
X122863095Y-48474819D01*
X122863095Y-48474819D02*
X123101190Y-48474819D01*
X123101190Y-48474819D02*
X123196428Y-48522438D01*
X123196428Y-48522438D02*
X123244047Y-48570057D01*
X123244047Y-48570057D02*
X123291666Y-48665295D01*
X123291666Y-48665295D02*
X123291666Y-48760533D01*
X123291666Y-48760533D02*
X123244047Y-48903390D01*
X123244047Y-48903390D02*
X122672619Y-49474819D01*
X122672619Y-49474819D02*
X123291666Y-49474819D01*
X122334580Y-106566666D02*
X122382200Y-106614285D01*
X122382200Y-106614285D02*
X122429819Y-106757142D01*
X122429819Y-106757142D02*
X122429819Y-106852380D01*
X122429819Y-106852380D02*
X122382200Y-106995237D01*
X122382200Y-106995237D02*
X122286961Y-107090475D01*
X122286961Y-107090475D02*
X122191723Y-107138094D01*
X122191723Y-107138094D02*
X122001247Y-107185713D01*
X122001247Y-107185713D02*
X121858390Y-107185713D01*
X121858390Y-107185713D02*
X121667914Y-107138094D01*
X121667914Y-107138094D02*
X121572676Y-107090475D01*
X121572676Y-107090475D02*
X121477438Y-106995237D01*
X121477438Y-106995237D02*
X121429819Y-106852380D01*
X121429819Y-106852380D02*
X121429819Y-106757142D01*
X121429819Y-106757142D02*
X121477438Y-106614285D01*
X121477438Y-106614285D02*
X121525057Y-106566666D01*
X122429819Y-105614285D02*
X122429819Y-106185713D01*
X122429819Y-105899999D02*
X121429819Y-105899999D01*
X121429819Y-105899999D02*
X121572676Y-105995237D01*
X121572676Y-105995237D02*
X121667914Y-106090475D01*
X121667914Y-106090475D02*
X121715533Y-106185713D01*
X108108333Y-120659580D02*
X108060714Y-120707200D01*
X108060714Y-120707200D02*
X107917857Y-120754819D01*
X107917857Y-120754819D02*
X107822619Y-120754819D01*
X107822619Y-120754819D02*
X107679762Y-120707200D01*
X107679762Y-120707200D02*
X107584524Y-120611961D01*
X107584524Y-120611961D02*
X107536905Y-120516723D01*
X107536905Y-120516723D02*
X107489286Y-120326247D01*
X107489286Y-120326247D02*
X107489286Y-120183390D01*
X107489286Y-120183390D02*
X107536905Y-119992914D01*
X107536905Y-119992914D02*
X107584524Y-119897676D01*
X107584524Y-119897676D02*
X107679762Y-119802438D01*
X107679762Y-119802438D02*
X107822619Y-119754819D01*
X107822619Y-119754819D02*
X107917857Y-119754819D01*
X107917857Y-119754819D02*
X108060714Y-119802438D01*
X108060714Y-119802438D02*
X108108333Y-119850057D01*
X108965476Y-120088152D02*
X108965476Y-120754819D01*
X108727381Y-119707200D02*
X108489286Y-120421485D01*
X108489286Y-120421485D02*
X109108333Y-120421485D01*
X121982200Y-100133332D02*
X122029819Y-99990475D01*
X122029819Y-99990475D02*
X122029819Y-99752380D01*
X122029819Y-99752380D02*
X121982200Y-99657142D01*
X121982200Y-99657142D02*
X121934580Y-99609523D01*
X121934580Y-99609523D02*
X121839342Y-99561904D01*
X121839342Y-99561904D02*
X121744104Y-99561904D01*
X121744104Y-99561904D02*
X121648866Y-99609523D01*
X121648866Y-99609523D02*
X121601247Y-99657142D01*
X121601247Y-99657142D02*
X121553628Y-99752380D01*
X121553628Y-99752380D02*
X121506009Y-99942856D01*
X121506009Y-99942856D02*
X121458390Y-100038094D01*
X121458390Y-100038094D02*
X121410771Y-100085713D01*
X121410771Y-100085713D02*
X121315533Y-100133332D01*
X121315533Y-100133332D02*
X121220295Y-100133332D01*
X121220295Y-100133332D02*
X121125057Y-100085713D01*
X121125057Y-100085713D02*
X121077438Y-100038094D01*
X121077438Y-100038094D02*
X121029819Y-99942856D01*
X121029819Y-99942856D02*
X121029819Y-99704761D01*
X121029819Y-99704761D02*
X121077438Y-99561904D01*
X121029819Y-99228570D02*
X122029819Y-98990475D01*
X122029819Y-98990475D02*
X121315533Y-98799999D01*
X121315533Y-98799999D02*
X122029819Y-98609523D01*
X122029819Y-98609523D02*
X121029819Y-98371428D01*
X122029819Y-97466666D02*
X122029819Y-98038094D01*
X122029819Y-97752380D02*
X121029819Y-97752380D01*
X121029819Y-97752380D02*
X121172676Y-97847618D01*
X121172676Y-97847618D02*
X121267914Y-97942856D01*
X121267914Y-97942856D02*
X121315533Y-98038094D01*
X106666666Y-137679819D02*
X106666666Y-138394104D01*
X106666666Y-138394104D02*
X106619047Y-138536961D01*
X106619047Y-138536961D02*
X106523809Y-138632200D01*
X106523809Y-138632200D02*
X106380952Y-138679819D01*
X106380952Y-138679819D02*
X106285714Y-138679819D01*
X107571428Y-138013152D02*
X107571428Y-138679819D01*
X107333333Y-137632200D02*
X107095238Y-138346485D01*
X107095238Y-138346485D02*
X107714285Y-138346485D01*
X100928571Y-123839700D02*
X102071429Y-123839700D01*
X111928571Y-123839700D02*
X113071429Y-123839700D01*
X112500000Y-124411128D02*
X112500000Y-123268271D01*
X115403095Y-94409819D02*
X115403095Y-95219342D01*
X115403095Y-95219342D02*
X115450714Y-95314580D01*
X115450714Y-95314580D02*
X115498333Y-95362200D01*
X115498333Y-95362200D02*
X115593571Y-95409819D01*
X115593571Y-95409819D02*
X115784047Y-95409819D01*
X115784047Y-95409819D02*
X115879285Y-95362200D01*
X115879285Y-95362200D02*
X115926904Y-95314580D01*
X115926904Y-95314580D02*
X115974523Y-95219342D01*
X115974523Y-95219342D02*
X115974523Y-94409819D01*
X116974523Y-95409819D02*
X116403095Y-95409819D01*
X116688809Y-95409819D02*
X116688809Y-94409819D01*
X116688809Y-94409819D02*
X116593571Y-94552676D01*
X116593571Y-94552676D02*
X116498333Y-94647914D01*
X116498333Y-94647914D02*
X116403095Y-94695533D01*
X130484819Y-126158333D02*
X131199104Y-126158333D01*
X131199104Y-126158333D02*
X131341961Y-126205952D01*
X131341961Y-126205952D02*
X131437200Y-126301190D01*
X131437200Y-126301190D02*
X131484819Y-126444047D01*
X131484819Y-126444047D02*
X131484819Y-126539285D01*
X131484819Y-125158333D02*
X131484819Y-125729761D01*
X131484819Y-125444047D02*
X130484819Y-125444047D01*
X130484819Y-125444047D02*
X130627676Y-125539285D01*
X130627676Y-125539285D02*
X130722914Y-125634523D01*
X130722914Y-125634523D02*
X130770533Y-125729761D01*
X121584819Y-110341666D02*
X121108628Y-110674999D01*
X121584819Y-110913094D02*
X120584819Y-110913094D01*
X120584819Y-110913094D02*
X120584819Y-110532142D01*
X120584819Y-110532142D02*
X120632438Y-110436904D01*
X120632438Y-110436904D02*
X120680057Y-110389285D01*
X120680057Y-110389285D02*
X120775295Y-110341666D01*
X120775295Y-110341666D02*
X120918152Y-110341666D01*
X120918152Y-110341666D02*
X121013390Y-110389285D01*
X121013390Y-110389285D02*
X121061009Y-110436904D01*
X121061009Y-110436904D02*
X121108628Y-110532142D01*
X121108628Y-110532142D02*
X121108628Y-110913094D01*
X121584819Y-109389285D02*
X121584819Y-109960713D01*
X121584819Y-109674999D02*
X120584819Y-109674999D01*
X120584819Y-109674999D02*
X120727676Y-109770237D01*
X120727676Y-109770237D02*
X120822914Y-109865475D01*
X120822914Y-109865475D02*
X120870533Y-109960713D01*
X105241666Y-62829819D02*
X105241666Y-63544104D01*
X105241666Y-63544104D02*
X105194047Y-63686961D01*
X105194047Y-63686961D02*
X105098809Y-63782200D01*
X105098809Y-63782200D02*
X104955952Y-63829819D01*
X104955952Y-63829819D02*
X104860714Y-63829819D01*
X105622619Y-62829819D02*
X106241666Y-62829819D01*
X106241666Y-62829819D02*
X105908333Y-63210771D01*
X105908333Y-63210771D02*
X106051190Y-63210771D01*
X106051190Y-63210771D02*
X106146428Y-63258390D01*
X106146428Y-63258390D02*
X106194047Y-63306009D01*
X106194047Y-63306009D02*
X106241666Y-63401247D01*
X106241666Y-63401247D02*
X106241666Y-63639342D01*
X106241666Y-63639342D02*
X106194047Y-63734580D01*
X106194047Y-63734580D02*
X106146428Y-63782200D01*
X106146428Y-63782200D02*
X106051190Y-63829819D01*
X106051190Y-63829819D02*
X105765476Y-63829819D01*
X105765476Y-63829819D02*
X105670238Y-63782200D01*
X105670238Y-63782200D02*
X105622619Y-63734580D01*
X105658333Y-93984580D02*
X105610714Y-94032200D01*
X105610714Y-94032200D02*
X105467857Y-94079819D01*
X105467857Y-94079819D02*
X105372619Y-94079819D01*
X105372619Y-94079819D02*
X105229762Y-94032200D01*
X105229762Y-94032200D02*
X105134524Y-93936961D01*
X105134524Y-93936961D02*
X105086905Y-93841723D01*
X105086905Y-93841723D02*
X105039286Y-93651247D01*
X105039286Y-93651247D02*
X105039286Y-93508390D01*
X105039286Y-93508390D02*
X105086905Y-93317914D01*
X105086905Y-93317914D02*
X105134524Y-93222676D01*
X105134524Y-93222676D02*
X105229762Y-93127438D01*
X105229762Y-93127438D02*
X105372619Y-93079819D01*
X105372619Y-93079819D02*
X105467857Y-93079819D01*
X105467857Y-93079819D02*
X105610714Y-93127438D01*
X105610714Y-93127438D02*
X105658333Y-93175057D01*
X106563095Y-93079819D02*
X106086905Y-93079819D01*
X106086905Y-93079819D02*
X106039286Y-93556009D01*
X106039286Y-93556009D02*
X106086905Y-93508390D01*
X106086905Y-93508390D02*
X106182143Y-93460771D01*
X106182143Y-93460771D02*
X106420238Y-93460771D01*
X106420238Y-93460771D02*
X106515476Y-93508390D01*
X106515476Y-93508390D02*
X106563095Y-93556009D01*
X106563095Y-93556009D02*
X106610714Y-93651247D01*
X106610714Y-93651247D02*
X106610714Y-93889342D01*
X106610714Y-93889342D02*
X106563095Y-93984580D01*
X106563095Y-93984580D02*
X106515476Y-94032200D01*
X106515476Y-94032200D02*
X106420238Y-94079819D01*
X106420238Y-94079819D02*
X106182143Y-94079819D01*
X106182143Y-94079819D02*
X106086905Y-94032200D01*
X106086905Y-94032200D02*
X106039286Y-93984580D01*
X106313095Y-110379819D02*
X106313095Y-111189342D01*
X106313095Y-111189342D02*
X106360714Y-111284580D01*
X106360714Y-111284580D02*
X106408333Y-111332200D01*
X106408333Y-111332200D02*
X106503571Y-111379819D01*
X106503571Y-111379819D02*
X106694047Y-111379819D01*
X106694047Y-111379819D02*
X106789285Y-111332200D01*
X106789285Y-111332200D02*
X106836904Y-111284580D01*
X106836904Y-111284580D02*
X106884523Y-111189342D01*
X106884523Y-111189342D02*
X106884523Y-110379819D01*
X107313095Y-110475057D02*
X107360714Y-110427438D01*
X107360714Y-110427438D02*
X107455952Y-110379819D01*
X107455952Y-110379819D02*
X107694047Y-110379819D01*
X107694047Y-110379819D02*
X107789285Y-110427438D01*
X107789285Y-110427438D02*
X107836904Y-110475057D01*
X107836904Y-110475057D02*
X107884523Y-110570295D01*
X107884523Y-110570295D02*
X107884523Y-110665533D01*
X107884523Y-110665533D02*
X107836904Y-110808390D01*
X107836904Y-110808390D02*
X107265476Y-111379819D01*
X107265476Y-111379819D02*
X107884523Y-111379819D01*
X130834580Y-70241666D02*
X130882200Y-70289285D01*
X130882200Y-70289285D02*
X130929819Y-70432142D01*
X130929819Y-70432142D02*
X130929819Y-70527380D01*
X130929819Y-70527380D02*
X130882200Y-70670237D01*
X130882200Y-70670237D02*
X130786961Y-70765475D01*
X130786961Y-70765475D02*
X130691723Y-70813094D01*
X130691723Y-70813094D02*
X130501247Y-70860713D01*
X130501247Y-70860713D02*
X130358390Y-70860713D01*
X130358390Y-70860713D02*
X130167914Y-70813094D01*
X130167914Y-70813094D02*
X130072676Y-70765475D01*
X130072676Y-70765475D02*
X129977438Y-70670237D01*
X129977438Y-70670237D02*
X129929819Y-70527380D01*
X129929819Y-70527380D02*
X129929819Y-70432142D01*
X129929819Y-70432142D02*
X129977438Y-70289285D01*
X129977438Y-70289285D02*
X130025057Y-70241666D01*
X130025057Y-69860713D02*
X129977438Y-69813094D01*
X129977438Y-69813094D02*
X129929819Y-69717856D01*
X129929819Y-69717856D02*
X129929819Y-69479761D01*
X129929819Y-69479761D02*
X129977438Y-69384523D01*
X129977438Y-69384523D02*
X130025057Y-69336904D01*
X130025057Y-69336904D02*
X130120295Y-69289285D01*
X130120295Y-69289285D02*
X130215533Y-69289285D01*
X130215533Y-69289285D02*
X130358390Y-69336904D01*
X130358390Y-69336904D02*
X130929819Y-69908332D01*
X130929819Y-69908332D02*
X130929819Y-69289285D01*
X120478628Y-71801190D02*
X120954819Y-71801190D01*
X119954819Y-72134523D02*
X120478628Y-71801190D01*
X120478628Y-71801190D02*
X119954819Y-71467857D01*
X120954819Y-70610714D02*
X120954819Y-71182142D01*
X120954819Y-70896428D02*
X119954819Y-70896428D01*
X119954819Y-70896428D02*
X120097676Y-70991666D01*
X120097676Y-70991666D02*
X120192914Y-71086904D01*
X120192914Y-71086904D02*
X120240533Y-71182142D01*
X130784580Y-75166666D02*
X130832200Y-75214285D01*
X130832200Y-75214285D02*
X130879819Y-75357142D01*
X130879819Y-75357142D02*
X130879819Y-75452380D01*
X130879819Y-75452380D02*
X130832200Y-75595237D01*
X130832200Y-75595237D02*
X130736961Y-75690475D01*
X130736961Y-75690475D02*
X130641723Y-75738094D01*
X130641723Y-75738094D02*
X130451247Y-75785713D01*
X130451247Y-75785713D02*
X130308390Y-75785713D01*
X130308390Y-75785713D02*
X130117914Y-75738094D01*
X130117914Y-75738094D02*
X130022676Y-75690475D01*
X130022676Y-75690475D02*
X129927438Y-75595237D01*
X129927438Y-75595237D02*
X129879819Y-75452380D01*
X129879819Y-75452380D02*
X129879819Y-75357142D01*
X129879819Y-75357142D02*
X129927438Y-75214285D01*
X129927438Y-75214285D02*
X129975057Y-75166666D01*
X129879819Y-74833332D02*
X129879819Y-74214285D01*
X129879819Y-74214285D02*
X130260771Y-74547618D01*
X130260771Y-74547618D02*
X130260771Y-74404761D01*
X130260771Y-74404761D02*
X130308390Y-74309523D01*
X130308390Y-74309523D02*
X130356009Y-74261904D01*
X130356009Y-74261904D02*
X130451247Y-74214285D01*
X130451247Y-74214285D02*
X130689342Y-74214285D01*
X130689342Y-74214285D02*
X130784580Y-74261904D01*
X130784580Y-74261904D02*
X130832200Y-74309523D01*
X130832200Y-74309523D02*
X130879819Y-74404761D01*
X130879819Y-74404761D02*
X130879819Y-74690475D01*
X130879819Y-74690475D02*
X130832200Y-74785713D01*
X130832200Y-74785713D02*
X130784580Y-74833332D01*
D11*
%TO.C,J2*%
X121295000Y-50020000D02*
X122625000Y-50020000D01*
X121295000Y-51350000D02*
X121295000Y-50020000D01*
X121295000Y-52620000D02*
X121295000Y-55220000D01*
X121295000Y-52620000D02*
X123955000Y-52620000D01*
X121295000Y-55220000D02*
X123955000Y-55220000D01*
X123955000Y-52620000D02*
X123955000Y-55220000D01*
%TO.C,C1*%
X118605000Y-104780000D02*
X118605000Y-108020000D01*
X118670000Y-104780000D02*
X118605000Y-104780000D01*
X118670000Y-108020000D02*
X118605000Y-108020000D01*
X120845000Y-104780000D02*
X120780000Y-104780000D01*
X120845000Y-104780000D02*
X120845000Y-108020000D01*
X120845000Y-108020000D02*
X120780000Y-108020000D01*
%TO.C,C4*%
X106655000Y-116995000D02*
X106655000Y-116930000D01*
X106655000Y-119170000D02*
X106655000Y-119105000D01*
X109895000Y-116930000D02*
X106655000Y-116930000D01*
X109895000Y-116995000D02*
X109895000Y-116930000D01*
X109895000Y-119170000D02*
X106655000Y-119170000D01*
X109895000Y-119170000D02*
X109895000Y-119105000D01*
%TO.C,SW1*%
X122575000Y-96550000D02*
X122575000Y-101050000D01*
X125075000Y-102300000D02*
X126575000Y-102300000D01*
X126575000Y-95300000D02*
X125075000Y-95300000D01*
X129075000Y-101050000D02*
X129075000Y-96550000D01*
%TO.C,J4*%
X101940000Y-132615000D02*
X101350000Y-132615000D01*
X101940000Y-132615000D02*
X101940000Y-127715000D01*
X101940000Y-134835000D02*
X101350000Y-134835000D01*
X101940000Y-136935000D02*
X101940000Y-134835000D01*
X112060000Y-127715000D02*
X101940000Y-127715000D01*
X112060000Y-132615000D02*
X112060000Y-127715000D01*
X112060000Y-136935000D02*
X101940000Y-136935000D01*
X112060000Y-136935000D02*
X112060000Y-134835000D01*
X112650000Y-132615000D02*
X112060000Y-132615000D01*
X112650000Y-134835000D02*
X112060000Y-134835000D01*
X101350000Y-134835000D02*
G75*
G02*
X101350000Y-132615000I0J1110000D01*
G01*
X112650000Y-132615000D02*
G75*
G02*
X112650000Y-134835000I0J-1110000D01*
G01*
%TO.C,U1*%
X113515000Y-58275000D02*
X113515000Y-93955000D01*
X113515000Y-93955000D02*
X115165000Y-93955000D01*
X117165000Y-93955000D02*
X118815000Y-93955000D01*
X118815000Y-58275000D02*
X113515000Y-58275000D01*
X118815000Y-93955000D02*
X118815000Y-58275000D01*
X115165000Y-93955000D02*
G75*
G02*
X117165000Y-93955000I1000000J0D01*
G01*
%TO.C,J1*%
X114670000Y-124495000D02*
X114670000Y-127155000D01*
X127430000Y-124495000D02*
X114670000Y-124495000D01*
X127430000Y-124495000D02*
X127430000Y-127155000D01*
X127430000Y-127155000D02*
X114670000Y-127155000D01*
X128700000Y-124495000D02*
X130030000Y-124495000D01*
X130030000Y-124495000D02*
X130030000Y-125825000D01*
%TO.C,R1*%
X122130000Y-106905000D02*
X122130000Y-113445000D01*
X122130000Y-113445000D02*
X124870000Y-113445000D01*
X123500000Y-106135000D02*
X123500000Y-106905000D01*
X123500000Y-114215000D02*
X123500000Y-113445000D01*
X124870000Y-106905000D02*
X122130000Y-106905000D01*
X124870000Y-113445000D02*
X124870000Y-106905000D01*
D12*
%TO.C,G\u002A\u002A\u002A*%
G36*
X106755338Y-66265676D02*
G01*
X107352071Y-66309364D01*
X107906492Y-66389716D01*
X108481610Y-66515876D01*
X109140435Y-66696985D01*
X109143614Y-66697917D01*
X109775792Y-66887418D01*
X110282388Y-67050704D01*
X110702019Y-67202938D01*
X111073304Y-67359285D01*
X111434859Y-67534909D01*
X111825303Y-67744975D01*
X111861621Y-67765218D01*
X112250522Y-67994643D01*
X112583222Y-68224365D01*
X112905034Y-68490623D01*
X113261267Y-68829655D01*
X113513742Y-69086558D01*
X114247605Y-69919260D01*
X114919945Y-70826825D01*
X115494132Y-71757053D01*
X115785638Y-72324126D01*
X116043274Y-72895553D01*
X116229685Y-73377684D01*
X116361872Y-73825759D01*
X116456835Y-74295015D01*
X116513047Y-74687638D01*
X116561972Y-75033992D01*
X116610632Y-75306663D01*
X116651984Y-75469371D01*
X116670563Y-75499126D01*
X116774264Y-75455400D01*
X116912228Y-75368642D01*
X117207013Y-75219353D01*
X117636766Y-75078277D01*
X118167126Y-74952042D01*
X118763735Y-74847274D01*
X119392235Y-74770602D01*
X120018267Y-74728653D01*
X120258918Y-74723093D01*
X121048892Y-74748699D01*
X121865365Y-74834558D01*
X122682723Y-74973317D01*
X123475354Y-75157621D01*
X124217643Y-75380117D01*
X124883977Y-75633451D01*
X125448743Y-75910269D01*
X125886326Y-76203216D01*
X126088796Y-76396915D01*
X126199729Y-76564526D01*
X126334600Y-76821412D01*
X126417072Y-77002772D01*
X126523725Y-77277997D01*
X126561434Y-77478688D01*
X126538086Y-77681209D01*
X126501733Y-77822273D01*
X126405670Y-78101233D01*
X126278847Y-78301904D01*
X126091101Y-78442237D01*
X125812268Y-78540182D01*
X125412183Y-78613689D01*
X125105732Y-78653019D01*
X124185164Y-78761353D01*
X124872151Y-79160520D01*
X125386102Y-79476513D01*
X125765519Y-79754288D01*
X126034253Y-80015526D01*
X126216154Y-80281911D01*
X126293226Y-80452419D01*
X126385386Y-80887596D01*
X126318472Y-81276089D01*
X126098790Y-81607593D01*
X125732646Y-81871806D01*
X125327116Y-82031142D01*
X125058018Y-82078951D01*
X124633710Y-82113657D01*
X124067810Y-82135255D01*
X123373936Y-82143743D01*
X122565703Y-82139115D01*
X121656729Y-82121367D01*
X120660632Y-82090496D01*
X119591027Y-82046498D01*
X119303614Y-82032958D01*
X118507547Y-81991544D01*
X117866041Y-81950448D01*
X117364348Y-81907079D01*
X116987720Y-81858848D01*
X116721410Y-81803164D01*
X116550670Y-81737436D01*
X116460754Y-81659074D01*
X116436912Y-81565488D01*
X116441154Y-81530169D01*
X116510838Y-81457721D01*
X116694110Y-81404039D01*
X116999302Y-81368922D01*
X117434743Y-81352170D01*
X118008763Y-81353582D01*
X118729692Y-81372959D01*
X119605859Y-81410099D01*
X120192614Y-81439923D01*
X121345490Y-81495802D01*
X122340800Y-81531347D01*
X123189151Y-81546016D01*
X123901151Y-81539269D01*
X124487407Y-81510563D01*
X124958526Y-81459359D01*
X125325114Y-81385114D01*
X125597780Y-81287287D01*
X125787129Y-81165338D01*
X125799739Y-81153827D01*
X125955629Y-80946656D01*
X125966254Y-80736049D01*
X125827631Y-80498051D01*
X125661581Y-80322986D01*
X125057010Y-79850849D01*
X124303353Y-79439875D01*
X123428603Y-79101573D01*
X122910092Y-78944799D01*
X122424944Y-78826473D01*
X121940707Y-78743668D01*
X121424930Y-78693458D01*
X120845162Y-78672915D01*
X120168952Y-78679115D01*
X119363849Y-78709130D01*
X119176614Y-78718123D01*
X118395898Y-78766179D01*
X117770368Y-78826548D01*
X117286173Y-78901575D01*
X116929461Y-78993601D01*
X116686378Y-79104970D01*
X116624672Y-79149704D01*
X116479256Y-79194225D01*
X116350315Y-79104181D01*
X116252779Y-78914333D01*
X116201579Y-78659443D01*
X116211644Y-78374271D01*
X116238583Y-78250793D01*
X116340705Y-78062967D01*
X116478067Y-77990972D01*
X116602900Y-78041640D01*
X116664019Y-78189959D01*
X116701433Y-78314260D01*
X116799302Y-78353622D01*
X117002686Y-78331202D01*
X117277530Y-78276016D01*
X117606805Y-78197540D01*
X117737281Y-78163054D01*
X118271208Y-78054531D01*
X118957734Y-77978125D01*
X119783079Y-77934443D01*
X120733466Y-77924089D01*
X121795118Y-77947671D01*
X122224614Y-77965645D01*
X123034183Y-77997758D01*
X123781812Y-78015932D01*
X124448810Y-78020399D01*
X125016489Y-78011387D01*
X125466158Y-77989125D01*
X125779128Y-77953842D01*
X125909436Y-77920459D01*
X126055719Y-77808180D01*
X126145460Y-77694864D01*
X126183785Y-77482759D01*
X126085400Y-77221078D01*
X125865714Y-76934632D01*
X125540137Y-76648233D01*
X125459310Y-76590108D01*
X125168843Y-76424744D01*
X124755100Y-76237004D01*
X124259980Y-76041812D01*
X123725381Y-75854091D01*
X123193202Y-75688766D01*
X122705342Y-75560759D01*
X122393948Y-75498257D01*
X121630794Y-75404214D01*
X120817081Y-75355868D01*
X120021286Y-75355122D01*
X119311887Y-75403876D01*
X119252305Y-75411047D01*
X118834921Y-75472959D01*
X118364696Y-75557928D01*
X117879926Y-75657330D01*
X117418906Y-75762544D01*
X117019929Y-75864947D01*
X116721291Y-75955916D01*
X116586537Y-76011271D01*
X116411100Y-76027953D01*
X116264238Y-75910170D01*
X116179729Y-75692709D01*
X116170948Y-75583280D01*
X116130292Y-75169373D01*
X116017366Y-74650256D01*
X115845732Y-74066685D01*
X115628953Y-73459420D01*
X115380591Y-72869216D01*
X115114208Y-72336831D01*
X115057071Y-72235888D01*
X114559064Y-71464432D01*
X113956575Y-70673705D01*
X113295535Y-69922206D01*
X113017563Y-69638336D01*
X112612936Y-69251282D01*
X112267057Y-68954468D01*
X111928759Y-68709325D01*
X111546872Y-68477283D01*
X111289605Y-68335844D01*
X110539967Y-67975746D01*
X109673269Y-67631303D01*
X108741735Y-67322183D01*
X108169948Y-67160935D01*
X107705160Y-67063750D01*
X107140000Y-66983041D01*
X106534278Y-66924094D01*
X105947809Y-66892190D01*
X105440406Y-66892615D01*
X105261600Y-66904036D01*
X104431533Y-67027422D01*
X103607900Y-67238262D01*
X102818399Y-67523581D01*
X102090728Y-67870405D01*
X101452586Y-68265762D01*
X100931671Y-68696678D01*
X100596185Y-69089250D01*
X100351326Y-69427669D01*
X100136870Y-69693488D01*
X99974138Y-69861810D01*
X99893781Y-69909629D01*
X99838864Y-69839435D01*
X99847621Y-69645693D01*
X99915650Y-69359900D01*
X100008301Y-69090029D01*
X100314177Y-68523608D01*
X100775000Y-67999422D01*
X101379607Y-67526833D01*
X102116834Y-67115202D01*
X102618130Y-66901399D01*
X103452854Y-66609880D01*
X104214491Y-66411842D01*
X104962928Y-66295918D01*
X105758050Y-66250745D01*
X106053281Y-66249509D01*
X106755338Y-66265676D01*
G37*
G36*
X97218019Y-69095537D02*
G01*
X97268298Y-69281716D01*
X97270616Y-69529584D01*
X97222365Y-69788060D01*
X97168508Y-69926086D01*
X97079150Y-70125790D01*
X97036811Y-70260906D01*
X97036281Y-70268938D01*
X97115526Y-70299855D01*
X97333394Y-70312208D01*
X97660085Y-70304967D01*
X97819448Y-70296038D01*
X98348583Y-70276564D01*
X98729052Y-70299233D01*
X98977030Y-70367443D01*
X99108694Y-70484593D01*
X99137670Y-70572992D01*
X99118912Y-70719891D01*
X98998474Y-70757793D01*
X98273292Y-70799256D01*
X97471840Y-70914661D01*
X96662869Y-71090528D01*
X95915130Y-71313378D01*
X95639281Y-71416376D01*
X95228711Y-71617706D01*
X94746630Y-71911432D01*
X94236739Y-72265850D01*
X93742736Y-72649258D01*
X93308323Y-73029954D01*
X93043573Y-73299455D01*
X92708335Y-73705259D01*
X92354019Y-74186507D01*
X92016798Y-74689884D01*
X91732847Y-75162076D01*
X91579824Y-75456793D01*
X91282479Y-76116693D01*
X91064123Y-76673306D01*
X90914700Y-77167374D01*
X90824152Y-77639640D01*
X90782424Y-78130846D01*
X90779459Y-78681736D01*
X90779822Y-78697825D01*
X90778880Y-79007077D01*
X90763082Y-79247347D01*
X90735760Y-79370981D01*
X90732458Y-79375159D01*
X90573278Y-79538589D01*
X90348638Y-79776935D01*
X90084107Y-80062162D01*
X89805251Y-80366234D01*
X89537639Y-80661116D01*
X89306837Y-80918772D01*
X89138414Y-81111166D01*
X89057938Y-81210263D01*
X89055994Y-81213447D01*
X89036199Y-81372426D01*
X89075065Y-81546087D01*
X89217400Y-81733008D01*
X89447784Y-81776060D01*
X89766519Y-81675191D01*
X90173906Y-81430350D01*
X90298942Y-81339700D01*
X90568426Y-81151489D01*
X90791646Y-81019879D01*
X90931813Y-80965697D01*
X90954197Y-80968727D01*
X91003471Y-81081528D01*
X91002441Y-81279877D01*
X91001311Y-81287653D01*
X91017861Y-81508232D01*
X91103870Y-81839096D01*
X91244682Y-82243562D01*
X91425641Y-82684948D01*
X91632091Y-83126575D01*
X91849377Y-83531761D01*
X91986769Y-83754126D01*
X92441548Y-84341885D01*
X93023300Y-84941110D01*
X93694809Y-85521855D01*
X94418857Y-86054172D01*
X95158227Y-86508113D01*
X95799577Y-86822183D01*
X96263873Y-87008767D01*
X96762348Y-87192387D01*
X97260886Y-87362180D01*
X97725369Y-87507286D01*
X98121679Y-87616841D01*
X98415699Y-87679984D01*
X98528748Y-87691073D01*
X98770701Y-87734238D01*
X98920695Y-87843309D01*
X98947904Y-87987814D01*
X98905842Y-88063819D01*
X98678280Y-88211136D01*
X98349799Y-88224925D01*
X97950929Y-88117542D01*
X97623267Y-88010339D01*
X97224340Y-87900323D01*
X96901550Y-87824711D01*
X96183074Y-87619748D01*
X95400000Y-87300000D01*
X94590237Y-86885466D01*
X93791691Y-86396144D01*
X93042272Y-85852032D01*
X92823435Y-85673325D01*
X92314955Y-85171288D01*
X91820184Y-84546263D01*
X91368662Y-83843851D01*
X90989932Y-83109656D01*
X90730051Y-82441793D01*
X90636864Y-82174627D01*
X90552720Y-81972945D01*
X90509960Y-81899112D01*
X90400636Y-81895006D01*
X90202593Y-81983418D01*
X90098849Y-82047279D01*
X89709661Y-82238542D01*
X89358049Y-82267069D01*
X89032875Y-82132296D01*
X88857481Y-81984593D01*
X88667451Y-81761061D01*
X88586002Y-81551869D01*
X88574981Y-81370760D01*
X88597824Y-81104188D01*
X88646632Y-80882040D01*
X88654194Y-80861662D01*
X88742791Y-80722352D01*
X88919840Y-80499178D01*
X89155129Y-80229076D01*
X89299001Y-80073281D01*
X89869964Y-79468031D01*
X89727789Y-79227348D01*
X89602893Y-78869699D01*
X89600867Y-78725548D01*
X90018256Y-78725548D01*
X90089851Y-78924977D01*
X90122571Y-78959358D01*
X90221295Y-79021405D01*
X90273783Y-78984996D01*
X90288477Y-78826671D01*
X90274750Y-78536530D01*
X90253043Y-78284650D01*
X90224554Y-78176843D01*
X90176312Y-78187961D01*
X90126583Y-78249282D01*
X90030643Y-78475052D01*
X90018256Y-78725548D01*
X89600867Y-78725548D01*
X89597261Y-78468979D01*
X89698558Y-78075508D01*
X89894451Y-77739603D01*
X90144802Y-77526219D01*
X90224554Y-77467600D01*
X90298989Y-77412889D01*
X90389769Y-77251950D01*
X90447615Y-76986001D01*
X90453817Y-76944121D01*
X90565397Y-76482633D01*
X90772052Y-75927857D01*
X91056008Y-75312759D01*
X91399497Y-74670304D01*
X91784747Y-74033459D01*
X92193988Y-73435188D01*
X92609448Y-72908458D01*
X92661650Y-72848475D01*
X93219758Y-72297329D01*
X93893504Y-71763621D01*
X94630225Y-71283469D01*
X95377258Y-70892994D01*
X95724190Y-70747965D01*
X96068941Y-70612630D01*
X96295498Y-70503394D01*
X96445173Y-70389513D01*
X96559278Y-70240240D01*
X96668291Y-70045340D01*
X96807247Y-69746595D01*
X96912880Y-69454528D01*
X96946472Y-69318460D01*
X97016598Y-69102457D01*
X97121293Y-69022134D01*
X97122384Y-69022126D01*
X97218019Y-69095537D01*
G37*
G36*
X98158114Y-77927995D02*
G01*
X98510616Y-77969875D01*
X98540312Y-77973403D01*
X98797712Y-78045464D01*
X98973617Y-78155902D01*
X99249729Y-78506994D01*
X99422298Y-78948013D01*
X99482535Y-79428543D01*
X99421650Y-79898171D01*
X99322281Y-80155793D01*
X99194773Y-80532792D01*
X99152948Y-80913205D01*
X99102035Y-81514678D01*
X98940638Y-82120914D01*
X98676906Y-82738962D01*
X98539135Y-83044636D01*
X98441260Y-83309820D01*
X98401460Y-83484173D01*
X98401759Y-83500962D01*
X98406711Y-83858390D01*
X98347432Y-84099204D01*
X98255403Y-84192454D01*
X98104171Y-84178313D01*
X98001547Y-84026477D01*
X97968911Y-83807361D01*
X97934087Y-83663332D01*
X97841068Y-83418242D01*
X97705432Y-83103983D01*
X97542755Y-82752446D01*
X97368613Y-82395521D01*
X97198584Y-82065098D01*
X97048244Y-81793069D01*
X96933169Y-81611324D01*
X96868937Y-81551754D01*
X96867521Y-81552438D01*
X96824426Y-81648987D01*
X96764600Y-81873574D01*
X96697785Y-82186988D01*
X96662502Y-82377797D01*
X96544054Y-83012459D01*
X96437997Y-83497869D01*
X96345870Y-83827740D01*
X96269211Y-83995785D01*
X96265387Y-84000305D01*
X96160122Y-84016939D01*
X96032482Y-83938871D01*
X95949528Y-83815184D01*
X95943790Y-83764926D01*
X95967290Y-83634493D01*
X96019170Y-83399498D01*
X96065664Y-83203793D01*
X96160967Y-82762483D01*
X96266555Y-82182599D01*
X96377108Y-81494184D01*
X96422737Y-81186840D01*
X96420727Y-80952213D01*
X96312626Y-80753462D01*
X96239292Y-80671459D01*
X96096653Y-80462981D01*
X96072156Y-80284805D01*
X96163949Y-80174252D01*
X96264908Y-80155793D01*
X96433955Y-80224199D01*
X96661267Y-80409782D01*
X96920412Y-80683092D01*
X97184957Y-81014678D01*
X97428468Y-81375087D01*
X97551661Y-81589492D01*
X97729924Y-81913831D01*
X97899026Y-82204053D01*
X98028810Y-82408843D01*
X98053070Y-82442662D01*
X98212208Y-82653460D01*
X98407411Y-82230126D01*
X98505605Y-81985112D01*
X98564603Y-81736796D01*
X98592979Y-81430319D01*
X98599306Y-81010820D01*
X98599273Y-81002460D01*
X98591858Y-80609135D01*
X98564505Y-80307947D01*
X98503805Y-80033974D01*
X98396348Y-79722293D01*
X98269785Y-79407209D01*
X98108658Y-79040995D01*
X97944963Y-78709878D01*
X97803394Y-78462143D01*
X97754350Y-78393524D01*
X98490126Y-78393524D01*
X98500890Y-78457000D01*
X98551134Y-78596493D01*
X98649082Y-78841211D01*
X98765064Y-79126826D01*
X98906084Y-79460020D01*
X99003040Y-79649194D01*
X99066372Y-79710648D01*
X99106523Y-79660683D01*
X99106691Y-79660156D01*
X99120495Y-79438022D01*
X99063210Y-79156644D01*
X98955135Y-78863136D01*
X98816570Y-78604609D01*
X98667816Y-78428176D01*
X98554136Y-78377793D01*
X98510616Y-78376858D01*
X98490126Y-78393524D01*
X97754350Y-78393524D01*
X97743960Y-78378987D01*
X97577365Y-78154508D01*
X97536097Y-78009763D01*
X97630844Y-77933115D01*
X97872293Y-77912926D01*
X98158114Y-77927995D01*
G37*
G36*
X116182623Y-83217847D02*
G01*
X116234867Y-83279768D01*
X116247953Y-83419191D01*
X116224649Y-83665754D01*
X116167723Y-84049092D01*
X116167507Y-84050460D01*
X116077111Y-84529042D01*
X115955915Y-84978585D01*
X115790641Y-85430005D01*
X115568007Y-85914220D01*
X115274733Y-86462147D01*
X114897538Y-87104705D01*
X114755423Y-87337835D01*
X114640236Y-87496052D01*
X114439935Y-87743677D01*
X114184647Y-88046052D01*
X113904500Y-88368518D01*
X113629621Y-88676416D01*
X113390139Y-88935087D01*
X113216182Y-89109871D01*
X113210562Y-89115040D01*
X112984801Y-89306121D01*
X112668746Y-89554466D01*
X112310118Y-89824555D01*
X111956642Y-90080866D01*
X111656040Y-90287879D01*
X111514281Y-90377594D01*
X111213095Y-90524223D01*
X110782690Y-90691012D01*
X110260270Y-90866858D01*
X109683039Y-91040657D01*
X109088202Y-91201308D01*
X108512962Y-91337708D01*
X107994523Y-91438755D01*
X107915948Y-91451426D01*
X107021971Y-91538000D01*
X106031345Y-91540335D01*
X104993951Y-91459059D01*
X104621625Y-91409890D01*
X103857245Y-91282235D01*
X103225720Y-91138547D01*
X102690624Y-90966949D01*
X102215532Y-90755565D01*
X101764017Y-90492518D01*
X101720367Y-90463975D01*
X101407837Y-90263003D01*
X101112622Y-90081991D01*
X100891744Y-89955762D01*
X100867871Y-89943361D01*
X100653033Y-89786640D01*
X100393032Y-89528548D01*
X100127300Y-89214406D01*
X99895269Y-88889532D01*
X99781680Y-88695005D01*
X99706906Y-88528044D01*
X99733253Y-88449844D01*
X99870030Y-88403876D01*
X100005536Y-88398112D01*
X100168960Y-88458971D01*
X100394281Y-88603636D01*
X100652541Y-88799581D01*
X101337869Y-89266646D01*
X102152567Y-89701231D01*
X103057331Y-90085758D01*
X104012856Y-90402651D01*
X104551424Y-90543068D01*
X105086158Y-90631578D01*
X105735992Y-90681358D01*
X106451327Y-90693025D01*
X107182566Y-90667197D01*
X107880110Y-90604491D01*
X108494360Y-90505524D01*
X108550948Y-90493289D01*
X109577691Y-90238729D01*
X110462487Y-89956253D01*
X111232341Y-89629290D01*
X111914261Y-89241272D01*
X112535250Y-88775631D01*
X113122316Y-88215797D01*
X113702464Y-87545201D01*
X114015186Y-87140793D01*
X114205606Y-86880513D01*
X114375492Y-86631089D01*
X114545199Y-86358757D01*
X114735086Y-86029751D01*
X114965508Y-85610308D01*
X115189237Y-85193460D01*
X115511575Y-84413266D01*
X115623862Y-83965793D01*
X115731063Y-83595428D01*
X115874833Y-83335104D01*
X116039378Y-83210732D01*
X116088455Y-83203793D01*
X116182623Y-83217847D01*
G37*
G36*
X105553353Y-76870613D02*
G01*
X105574137Y-76998737D01*
X105543378Y-77055914D01*
X105346630Y-77329345D01*
X105236787Y-77505553D01*
X105198084Y-77621969D01*
X105214753Y-77716027D01*
X105241822Y-77771812D01*
X105380786Y-77897212D01*
X105502291Y-77894497D01*
X105719721Y-77909287D01*
X105870772Y-78060399D01*
X105926281Y-78314076D01*
X105912376Y-78486088D01*
X105835871Y-78538904D01*
X105660160Y-78515069D01*
X105389265Y-78518879D01*
X105218325Y-78632464D01*
X105161809Y-78819425D01*
X105234190Y-79043365D01*
X105382239Y-79214102D01*
X105522220Y-79360684D01*
X105535501Y-79468882D01*
X105498872Y-79525703D01*
X105317849Y-79638549D01*
X105105160Y-79590490D01*
X104875474Y-79387297D01*
X104703128Y-79110616D01*
X104668098Y-78824225D01*
X104764908Y-78477843D01*
X104774030Y-78455859D01*
X104845600Y-78196986D01*
X104804779Y-77984919D01*
X104802773Y-77980472D01*
X104715942Y-77827131D01*
X104618706Y-77801216D01*
X104455012Y-77893393D01*
X104421120Y-77916927D01*
X104283718Y-78072026D01*
X104234408Y-78312128D01*
X104232948Y-78382594D01*
X104210406Y-78618485D01*
X104137310Y-78712520D01*
X104108927Y-78716460D01*
X103952442Y-78643346D01*
X103853994Y-78455960D01*
X103822999Y-78202233D01*
X103868876Y-77930095D01*
X103927767Y-77794446D01*
X104112626Y-77578482D01*
X104364407Y-77418099D01*
X104571614Y-77364258D01*
X104696708Y-77294188D01*
X104830488Y-77128376D01*
X104841099Y-77110297D01*
X105005616Y-76918447D01*
X105203821Y-76804618D01*
X105207131Y-76803764D01*
X105417953Y-76795825D01*
X105553353Y-76870613D01*
G37*
G36*
X108096729Y-80839188D02*
G01*
X108244722Y-80861061D01*
X108556911Y-81019601D01*
X108800989Y-81285814D01*
X108937207Y-81624102D01*
X108961147Y-82073411D01*
X108849588Y-82513450D01*
X108623291Y-82901704D01*
X108303018Y-83195661D01*
X108123619Y-83290114D01*
X107780957Y-83345290D01*
X107418627Y-83254329D01*
X107075428Y-83030013D01*
X106950134Y-82903467D01*
X106768893Y-82629139D01*
X106696274Y-82319547D01*
X106712468Y-82116191D01*
X107199368Y-82116191D01*
X107250033Y-82390974D01*
X107379971Y-82576837D01*
X107507380Y-82684040D01*
X107534342Y-82677076D01*
X107493269Y-82568793D01*
X107436509Y-82372080D01*
X107389332Y-82111006D01*
X107384380Y-82071759D01*
X107366960Y-81979732D01*
X107806803Y-81979732D01*
X107807091Y-82110142D01*
X107894649Y-82315430D01*
X107918122Y-82361331D01*
X108028745Y-82531969D01*
X108123829Y-82610541D01*
X108129789Y-82611126D01*
X108279599Y-82541038D01*
X108430651Y-82373378D01*
X108533219Y-82172058D01*
X108550948Y-82069851D01*
X108480811Y-81887504D01*
X108309737Y-81778978D01*
X108096729Y-81762480D01*
X107900788Y-81856218D01*
X107890548Y-81866060D01*
X107806803Y-81979732D01*
X107366960Y-81979732D01*
X107346384Y-81871028D01*
X107296528Y-81832043D01*
X107272379Y-81860093D01*
X107199368Y-82116191D01*
X106712468Y-82116191D01*
X106726983Y-81933914D01*
X106789065Y-81663041D01*
X106958829Y-81291967D01*
X107221475Y-81025648D01*
X107296528Y-80988281D01*
X107544805Y-80864669D01*
X107896621Y-80809612D01*
X108096729Y-80839188D01*
G37*
G36*
X108154055Y-73544379D02*
G01*
X108289754Y-73562868D01*
X108525638Y-73688295D01*
X108775952Y-73939781D01*
X108985280Y-74266798D01*
X109116452Y-74603135D01*
X109142222Y-74786538D01*
X109069097Y-75066675D01*
X108874711Y-75350235D01*
X108600781Y-75594674D01*
X108289019Y-75757445D01*
X108157206Y-75791160D01*
X107743361Y-75786290D01*
X107387865Y-75644896D01*
X107110639Y-75395365D01*
X106931605Y-75066089D01*
X106870686Y-74685458D01*
X106885080Y-74610126D01*
X107372877Y-74610126D01*
X107394787Y-74836386D01*
X107446974Y-74988674D01*
X107534302Y-75084943D01*
X107573594Y-75044566D01*
X107560190Y-74894579D01*
X107498917Y-74687401D01*
X107422555Y-74486268D01*
X107393563Y-74444026D01*
X107958427Y-74444026D01*
X107977509Y-74676146D01*
X108061161Y-74909838D01*
X108122310Y-75002913D01*
X108261310Y-75135551D01*
X108383937Y-75138517D01*
X108439810Y-75109479D01*
X108589169Y-74930547D01*
X108611879Y-74683851D01*
X108513193Y-74435898D01*
X108345822Y-74277949D01*
X108154055Y-74227172D01*
X108014726Y-74285571D01*
X107958427Y-74444026D01*
X107393563Y-74444026D01*
X107386823Y-74434206D01*
X107374996Y-74520964D01*
X107372877Y-74610126D01*
X106885080Y-74610126D01*
X106947802Y-74281861D01*
X107005913Y-74150478D01*
X107252053Y-73819027D01*
X107386823Y-73728282D01*
X107572716Y-73603114D01*
X107930938Y-73513980D01*
X108154055Y-73544379D01*
G37*
G36*
X113602792Y-81079637D02*
G01*
X113708175Y-81291050D01*
X113769353Y-81606517D01*
X113784479Y-81995860D01*
X113751709Y-82428898D01*
X113669196Y-82875450D01*
X113587079Y-83161460D01*
X113388720Y-83628993D01*
X113111056Y-84122801D01*
X112802482Y-84559849D01*
X112705992Y-84673183D01*
X112384876Y-84970656D01*
X111973822Y-85266771D01*
X111514339Y-85539463D01*
X111047935Y-85766670D01*
X110616118Y-85926329D01*
X110260397Y-85996375D01*
X110213970Y-85997793D01*
X109976334Y-85970385D01*
X109715899Y-85901150D01*
X109485749Y-85809575D01*
X109338967Y-85715144D01*
X109312948Y-85667048D01*
X109380586Y-85576448D01*
X109446873Y-85541185D01*
X109629702Y-85502789D01*
X109826337Y-85489793D01*
X110068096Y-85444955D01*
X110407793Y-85323945D01*
X110804170Y-85147023D01*
X111215970Y-84934444D01*
X111601935Y-84706466D01*
X111920807Y-84483347D01*
X111987743Y-84428538D01*
X112518820Y-83866317D01*
X112920976Y-83207964D01*
X113182088Y-82479955D01*
X113290032Y-81708763D01*
X113292281Y-81579759D01*
X113297401Y-81272495D01*
X113319590Y-81098084D01*
X113369095Y-81020187D01*
X113455048Y-81002460D01*
X113602792Y-81079637D01*
G37*
G36*
X110890534Y-71303180D02*
G01*
X111246893Y-71384500D01*
X111537999Y-71484696D01*
X112032120Y-71759341D01*
X112531798Y-72158300D01*
X113000830Y-72641786D01*
X113403010Y-73170012D01*
X113702135Y-73703188D01*
X113808200Y-73979588D01*
X113913779Y-74418850D01*
X113961892Y-74846447D01*
X113951431Y-75218170D01*
X113881287Y-75489805D01*
X113847497Y-75546444D01*
X113754976Y-75653393D01*
X113673984Y-75648435D01*
X113539403Y-75527333D01*
X113538390Y-75526334D01*
X113413951Y-75373301D01*
X113406895Y-75225616D01*
X113452680Y-75097364D01*
X113502037Y-74797924D01*
X113456849Y-74410292D01*
X113325297Y-73980893D01*
X113211478Y-73728700D01*
X113044984Y-73470390D01*
X112788052Y-73149247D01*
X112476066Y-72802146D01*
X112144409Y-72465961D01*
X111828465Y-72177566D01*
X111563615Y-71973835D01*
X111480210Y-71924464D01*
X111193614Y-71814596D01*
X110837599Y-71727416D01*
X110626234Y-71696493D01*
X110310155Y-71650092D01*
X110139920Y-71583433D01*
X110094141Y-71515664D01*
X110104771Y-71365123D01*
X110128465Y-71325164D01*
X110284851Y-71268253D01*
X110554364Y-71262678D01*
X110890534Y-71303180D01*
G37*
G36*
X105845919Y-84945724D02*
G01*
X106057958Y-85070065D01*
X106308212Y-85237972D01*
X106550544Y-85417268D01*
X106738818Y-85575775D01*
X106818680Y-85664625D01*
X106828381Y-85793824D01*
X106716330Y-85880143D01*
X106529808Y-85890760D01*
X106501709Y-85884657D01*
X106279890Y-85790520D01*
X106057783Y-85634269D01*
X105857509Y-85443784D01*
X105701188Y-85246948D01*
X105610938Y-85071639D01*
X105608881Y-84945739D01*
X105717136Y-84897128D01*
X105718230Y-84897126D01*
X105845919Y-84945724D01*
G37*
G36*
X106044685Y-83910024D02*
G01*
X106267393Y-84046309D01*
X106438478Y-84191324D01*
X106722429Y-84470378D01*
X106873305Y-84681227D01*
X106902249Y-84844404D01*
X106849714Y-84948979D01*
X106773947Y-85004394D01*
X106674936Y-84976429D01*
X106517374Y-84848188D01*
X106396133Y-84731901D01*
X106183022Y-84544574D01*
X105998767Y-84420071D01*
X105910968Y-84389126D01*
X105764675Y-84324575D01*
X105723293Y-84166322D01*
X105769972Y-84024179D01*
X105885788Y-83904375D01*
X106044685Y-83910024D01*
G37*
G36*
X106090640Y-69798015D02*
G01*
X106304647Y-69901867D01*
X106557228Y-70057488D01*
X106804280Y-70234830D01*
X107001698Y-70403845D01*
X107105378Y-70534484D01*
X107111614Y-70561051D01*
X107050764Y-70695281D01*
X106887207Y-70721757D01*
X106649435Y-70639780D01*
X106537833Y-70575122D01*
X106300410Y-70426550D01*
X106095875Y-70305049D01*
X106053281Y-70281375D01*
X105912230Y-70144317D01*
X105855952Y-69969406D01*
X105896427Y-69821075D01*
X105959312Y-69775980D01*
X106090640Y-69798015D01*
G37*
G36*
X95508098Y-68126907D02*
G01*
X95589610Y-68310681D01*
X95673906Y-68643501D01*
X95678875Y-68666460D01*
X95746547Y-69034166D01*
X95757931Y-69270862D01*
X95711429Y-69405796D01*
X95635630Y-69458576D01*
X95513857Y-69479683D01*
X95432942Y-69409784D01*
X95374004Y-69220000D01*
X95335616Y-68999734D01*
X95286741Y-68719991D01*
X95235682Y-68486395D01*
X95218066Y-68423545D01*
X95228649Y-68221068D01*
X95301181Y-68132656D01*
X95416309Y-68073719D01*
X95508098Y-68126907D01*
G37*
G36*
X105783145Y-85794687D02*
G01*
X106005301Y-85922918D01*
X106233549Y-86091813D01*
X106419536Y-86264696D01*
X106514911Y-86404892D01*
X106518948Y-86429105D01*
X106460819Y-86561788D01*
X106298596Y-86579332D01*
X106050522Y-86483674D01*
X105845958Y-86357626D01*
X105650421Y-86183131D01*
X105527705Y-85999113D01*
X105491940Y-85843203D01*
X105557259Y-85753028D01*
X105615432Y-85743793D01*
X105783145Y-85794687D01*
G37*
G36*
X105883055Y-71641412D02*
G01*
X106118203Y-71730417D01*
X106366514Y-71872135D01*
X106569804Y-72038384D01*
X106581527Y-72050960D01*
X106667659Y-72193343D01*
X106621356Y-72297918D01*
X106511220Y-72341653D01*
X106324085Y-72298905D01*
X106170685Y-72235132D01*
X105839625Y-72058711D01*
X105643336Y-71893930D01*
X105590545Y-71752422D01*
X105689980Y-71645822D01*
X105719249Y-71633299D01*
X105883055Y-71641412D01*
G37*
G36*
X105972908Y-70795883D02*
G01*
X106227255Y-70896493D01*
X106524657Y-71068563D01*
X106748697Y-71231088D01*
X106908689Y-71414186D01*
X106916859Y-71548588D01*
X106845820Y-71654048D01*
X106726979Y-71674461D01*
X106533579Y-71604114D01*
X106238861Y-71437296D01*
X106156465Y-71386267D01*
X105843671Y-71162468D01*
X105692438Y-70983738D01*
X105703184Y-70850788D01*
X105803916Y-70786632D01*
X105972908Y-70795883D01*
G37*
G36*
X92605619Y-69851863D02*
G01*
X92870984Y-69967469D01*
X92918530Y-70001938D01*
X93107769Y-70196855D01*
X93144921Y-70343776D01*
X93044752Y-70423579D01*
X92822029Y-70417146D01*
X92638256Y-70364851D01*
X92398809Y-70291936D01*
X92207238Y-70254570D01*
X92189114Y-70253509D01*
X92063660Y-70193640D01*
X92056582Y-70057836D01*
X92142548Y-69928060D01*
X92341984Y-69836744D01*
X92605619Y-69851863D01*
G37*
G36*
X93664899Y-68613294D02*
G01*
X93866489Y-68796600D01*
X94037903Y-69018283D01*
X94142185Y-69241513D01*
X94157614Y-69344865D01*
X94115379Y-69469085D01*
X93986999Y-69454091D01*
X93769962Y-69298939D01*
X93589319Y-69131498D01*
X93349615Y-68873352D01*
X93241399Y-68690999D01*
X93256194Y-68564923D01*
X93319021Y-68509137D01*
X93470091Y-68505196D01*
X93664899Y-68613294D01*
G37*
G36*
X105941836Y-86716972D02*
G01*
X106192092Y-86823114D01*
X106373381Y-86964459D01*
X106434281Y-87096796D01*
X106379997Y-87270632D01*
X106216727Y-87315859D01*
X105943846Y-87232572D01*
X105849823Y-87187314D01*
X105631100Y-87038255D01*
X105510845Y-86882401D01*
X105500168Y-86752296D01*
X105610175Y-86680484D01*
X105675001Y-86675126D01*
X105941836Y-86716972D01*
G37*
G36*
X106198848Y-72612258D02*
G01*
X106342670Y-72711864D01*
X106476442Y-72838418D01*
X106486986Y-72927514D01*
X106407092Y-73022601D01*
X106298845Y-73108868D01*
X106194598Y-73097437D01*
X106038376Y-72992361D01*
X105829819Y-72804191D01*
X105774677Y-72661433D01*
X105811628Y-72594001D01*
X105975729Y-72539811D01*
X106198848Y-72612258D01*
G37*
G36*
X92642055Y-71441547D02*
G01*
X92701591Y-71573382D01*
X92663138Y-71745956D01*
X92491336Y-71823112D01*
X92209355Y-71803241D01*
X92015702Y-71713639D01*
X91951888Y-71579812D01*
X92023509Y-71450205D01*
X92161251Y-71386908D01*
X92455711Y-71358345D01*
X92642055Y-71441547D01*
G37*
G36*
X80007064Y-25027361D02*
G01*
X79967875Y-25057836D01*
X79835551Y-25067930D01*
X79805597Y-25051152D01*
X79830848Y-25012670D01*
X79916722Y-25006684D01*
X80007064Y-25027361D01*
G37*
D11*
%TO.C,J3*%
X100515000Y-50565000D02*
X100515000Y-62285000D01*
X100515000Y-62285000D02*
X101935000Y-62285000D01*
X101935000Y-62285000D02*
X101935000Y-57785000D01*
X102825000Y-51175000D02*
X102825000Y-56675000D01*
X102825000Y-56675000D02*
X103325000Y-56675000D01*
X103325000Y-51175000D02*
X102825000Y-51175000D01*
X103325000Y-56675000D02*
X103325000Y-51175000D01*
X105325000Y-51175000D02*
X105325000Y-56675000D01*
X105325000Y-56675000D02*
X105825000Y-56675000D01*
X105575000Y-50565000D02*
X100515000Y-50565000D01*
X105575000Y-50565000D02*
X110635000Y-50565000D01*
X105825000Y-51175000D02*
X105325000Y-51175000D01*
X105825000Y-56675000D02*
X105825000Y-51175000D01*
X107775000Y-60375000D02*
X108075000Y-59775000D01*
X107825000Y-51175000D02*
X107825000Y-56675000D01*
X107825000Y-56675000D02*
X108325000Y-56675000D01*
X108075000Y-59775000D02*
X108375000Y-60375000D01*
X108325000Y-51175000D02*
X107825000Y-51175000D01*
X108325000Y-56675000D02*
X108325000Y-51175000D01*
X108375000Y-60375000D02*
X107775000Y-60375000D01*
X109215000Y-62285000D02*
X109215000Y-57785000D01*
X110635000Y-50565000D02*
X110635000Y-62285000D01*
X110635000Y-62285000D02*
X109215000Y-62285000D01*
%TO.C,C5*%
X104205000Y-94755000D02*
X104205000Y-94820000D01*
X104205000Y-94755000D02*
X107445000Y-94755000D01*
X104205000Y-96930000D02*
X104205000Y-96995000D01*
X104205000Y-96995000D02*
X107445000Y-96995000D01*
X107445000Y-94755000D02*
X107445000Y-94820000D01*
X107445000Y-96930000D02*
X107445000Y-96995000D01*
%TO.C,U2*%
X101955000Y-109925000D02*
X101955000Y-105284000D01*
X105224000Y-109925000D02*
X105224000Y-108415000D01*
X108925000Y-109925000D02*
X108925000Y-108415000D01*
X112195000Y-105284000D02*
X101955000Y-105284000D01*
X112195000Y-108415000D02*
X101955000Y-108415000D01*
X112195000Y-109925000D02*
X101955000Y-109925000D01*
X112195000Y-109925000D02*
X112195000Y-105284000D01*
%TO.C,C2*%
X127105000Y-68455000D02*
X127105000Y-71695000D01*
X127170000Y-68455000D02*
X127105000Y-68455000D01*
X127170000Y-71695000D02*
X127105000Y-71695000D01*
X129345000Y-68455000D02*
X129280000Y-68455000D01*
X129345000Y-68455000D02*
X129345000Y-71695000D01*
X129345000Y-71695000D02*
X129280000Y-71695000D01*
%TO.C,Y1*%
X121500000Y-74450000D02*
X121500000Y-68200000D01*
X126550000Y-74450000D02*
X126550000Y-68200000D01*
X121500000Y-68200000D02*
G75*
G02*
X126550000Y-68200000I2525000J0D01*
G01*
X126550000Y-74450000D02*
G75*
G02*
X121500000Y-74450000I-2525000J0D01*
G01*
%TO.C,C3*%
X127055000Y-73380000D02*
X127055000Y-76620000D01*
X127120000Y-73380000D02*
X127055000Y-73380000D01*
X127120000Y-76620000D02*
X127055000Y-76620000D01*
X129295000Y-73380000D02*
X129230000Y-73380000D01*
X129295000Y-73380000D02*
X129295000Y-76620000D01*
X129295000Y-76620000D02*
X129230000Y-76620000D01*
%TD*%
M02*
