M48
; DRILL file {KiCad 8.0.8-8.0.8-0~ubuntu24.04.1} date 2025-02-21T09:49:20+0900
; FORMAT={-:-/ absolute / inch / decimal}
; #@! TF.CreationDate,2025-02-21T09:49:20+09:00
; #@! TF.GenerationSoftware,Kicad,Pcbnew,8.0.8-8.0.8-0~ubuntu24.04.1
; #@! TF.FileFunction,Plated,1,2,PTH
FMAT,2
INCH
; #@! TA.AperFunction,Plated,PTH,ComponentDrill
T1C0.0315
; #@! TA.AperFunction,Plated,PTH,ComponentDrill
T2C0.0374
; #@! TA.AperFunction,Plated,PTH,ComponentDrill
T3C0.0394
; #@! TA.AperFunction,Plated,PTH,ComponentDrill
T4C0.0433
; #@! TA.AperFunction,Plated,PTH,ComponentDrill
T5C0.0748
%
G90
G05
T1
X4.1171Y-3.7746
X4.2136Y-4.6476
X4.2156Y-3.7746
X4.312Y-4.6476
X4.4234Y-2.3467
X4.4234Y-2.4467
X4.4234Y-2.5467
X4.4234Y-2.6467
X4.4234Y-2.7467
X4.4234Y-2.8467
X4.4234Y-2.9467
X4.4234Y-3.0467
X4.4234Y-3.1467
X4.4234Y-3.2467
X4.4234Y-3.3467
X4.4234Y-3.4467
X4.4234Y-3.5467
X4.4234Y-3.6467
X4.7136Y-4.1398
X4.7136Y-4.2382
X4.7234Y-2.3467
X4.7234Y-2.4467
X4.7234Y-2.5467
X4.7234Y-2.6467
X4.7234Y-2.7467
X4.7234Y-2.8467
X4.7234Y-2.9467
X4.7234Y-3.0467
X4.7234Y-3.1467
X4.7234Y-3.2467
X4.7234Y-3.3467
X4.7234Y-3.4467
X4.7234Y-3.5467
X4.7234Y-3.6467
X4.8622Y-4.1376
X4.8622Y-4.5376
X4.8829Y-2.7116
X4.8829Y-2.9045
X5.0463Y-2.9035
X5.0463Y-3.002
X5.0482Y-2.7096
X5.0482Y-2.8081
T2
X4.0581Y-2.2943
X4.1565Y-2.2943
X4.2549Y-2.2943
T3
X3.9961Y-5.2648
X4.4291Y-5.2648
X4.5669Y-4.9537
X4.6669Y-4.9537
X4.7669Y-4.9537
X4.8278Y-2.0217
X4.8278Y-2.1217
X4.8669Y-4.9537
X4.9669Y-4.9537
X5.0669Y-4.9537
T4
X4.1156Y-4.199
X4.2156Y-4.199
X4.3156Y-4.199
X4.8652Y-3.7618
X4.8652Y-4.0177
X5.0423Y-3.7618
X5.0423Y-4.0177
T5
X4.1142Y-4.8711
X4.311Y-4.8711
M30
