%TF.GenerationSoftware,KiCad,Pcbnew,8.0.8-8.0.8-0~ubuntu24.04.1*%
%TF.CreationDate,2025-02-21T09:49:17+09:00*%
%TF.ProjectId,led01,6c656430-312e-46b6-9963-61645f706362,rev?*%
%TF.SameCoordinates,Original*%
%TF.FileFunction,Copper,L1,Top*%
%TF.FilePolarity,Positive*%
%FSLAX46Y46*%
G04 Gerber Fmt 4.6, Leading zero omitted, Abs format (unit mm)*
G04 Created by KiCad (PCBNEW 8.0.8-8.0.8-0~ubuntu24.04.1) date 2025-02-21 09:49:17*
%MOMM*%
%LPD*%
G01*
G04 APERTURE LIST*
G04 Aperture macros list*
%AMRoundRect*
0 Rectangle with rounded corners*
0 $1 Rounding radius*
0 $2 $3 $4 $5 $6 $7 $8 $9 X,Y pos of 4 corners*
0 Add a 4 corners polygon primitive as box body*
4,1,4,$2,$3,$4,$5,$6,$7,$8,$9,$2,$3,0*
0 Add four circle primitives for the rounded corners*
1,1,$1+$1,$2,$3*
1,1,$1+$1,$4,$5*
1,1,$1+$1,$6,$7*
1,1,$1+$1,$8,$9*
0 Add four rect primitives between the rounded corners*
20,1,$1+$1,$2,$3,$4,$5,0*
20,1,$1+$1,$4,$5,$6,$7,0*
20,1,$1+$1,$6,$7,$8,$9,0*
20,1,$1+$1,$8,$9,$2,$3,0*%
G04 Aperture macros list end*
%TA.AperFunction,ComponentPad*%
%ADD10R,1.700000X1.700000*%
%TD*%
%TA.AperFunction,ComponentPad*%
%ADD11O,1.700000X1.700000*%
%TD*%
%TA.AperFunction,ComponentPad*%
%ADD12C,1.600000*%
%TD*%
%TA.AperFunction,ComponentPad*%
%ADD13C,2.000000*%
%TD*%
%TA.AperFunction,ComponentPad*%
%ADD14C,1.400000*%
%TD*%
%TA.AperFunction,ComponentPad*%
%ADD15RoundRect,0.770000X0.980000X0.980000X-0.980000X0.980000X-0.980000X-0.980000X0.980000X-0.980000X0*%
%TD*%
%TA.AperFunction,ComponentPad*%
%ADD16C,3.500000*%
%TD*%
%TA.AperFunction,ComponentPad*%
%ADD17R,1.600000X1.600000*%
%TD*%
%TA.AperFunction,ComponentPad*%
%ADD18O,1.600000X1.600000*%
%TD*%
%TA.AperFunction,ComponentPad*%
%ADD19RoundRect,0.250000X0.600000X0.725000X-0.600000X0.725000X-0.600000X-0.725000X0.600000X-0.725000X0*%
%TD*%
%TA.AperFunction,ComponentPad*%
%ADD20O,1.700000X1.950000*%
%TD*%
%TA.AperFunction,ComponentPad*%
%ADD21R,1.905000X2.000000*%
%TD*%
%TA.AperFunction,ComponentPad*%
%ADD22O,1.905000X2.000000*%
%TD*%
%TA.AperFunction,ComponentPad*%
%ADD23C,1.500000*%
%TD*%
%TA.AperFunction,Conductor*%
%ADD24C,1.000000*%
%TD*%
%TA.AperFunction,Conductor*%
%ADD25C,2.500000*%
%TD*%
%TA.AperFunction,Conductor*%
%ADD26C,2.000000*%
%TD*%
%TA.AperFunction,Conductor*%
%ADD27C,1.500000*%
%TD*%
G04 APERTURE END LIST*
D10*
%TO.P,J2,1,Pin_1*%
%TO.N,led_5V*%
X122625000Y-51350000D03*
D11*
%TO.P,J2,2,Pin_2*%
%TO.N,VCC*%
X122625000Y-53890000D03*
%TD*%
D12*
%TO.P,C1,1*%
%TO.N,Net-(U1-~{RESET}{slash}PC6)*%
X119725000Y-105150000D03*
%TO.P,C1,2*%
%TO.N,Net-(J1-Pin_6)*%
X119725000Y-107650000D03*
%TD*%
%TO.P,C4,1*%
%TO.N,batt_16V*%
X109525000Y-118050000D03*
%TO.P,C4,2*%
%TO.N,GND*%
X107025000Y-118050000D03*
%TD*%
D13*
%TO.P,SW1,1,1*%
%TO.N,Net-(U1-~{RESET}{slash}PC6)*%
X123575000Y-102050000D03*
X123575000Y-95550000D03*
%TO.P,SW1,2,2*%
%TO.N,GND*%
X128075000Y-102050000D03*
X128075000Y-95550000D03*
%TD*%
D14*
%TO.P,J4,*%
%TO.N,*%
X112500000Y-133725000D03*
X101500000Y-133725000D03*
D15*
%TO.P,J4,1,Pin_1*%
%TO.N,GND*%
X104500000Y-123725000D03*
D16*
%TO.P,J4,2,Pin_2*%
%TO.N,batt_16V*%
X109500000Y-123725000D03*
%TD*%
D17*
%TO.P,U1,1,~{RESET}/PC6*%
%TO.N,Net-(U1-~{RESET}{slash}PC6)*%
X119975000Y-92625000D03*
D18*
%TO.P,U1,2,PD0*%
%TO.N,Net-(J1-Pin_4)*%
X119975000Y-90085000D03*
%TO.P,U1,3,PD1*%
%TO.N,Net-(J1-Pin_5)*%
X119975000Y-87545000D03*
%TO.P,U1,4,PD2*%
%TO.N,unconnected-(U1-PD2-Pad4)*%
X119975000Y-85005000D03*
%TO.P,U1,5,PD3*%
%TO.N,unconnected-(U1-PD3-Pad5)*%
X119975000Y-82465000D03*
%TO.P,U1,6,PD4*%
%TO.N,unconnected-(U1-PD4-Pad6)*%
X119975000Y-79925000D03*
%TO.P,U1,7,VCC*%
%TO.N,VCC*%
X119975000Y-77385000D03*
%TO.P,U1,8,GND*%
%TO.N,GND*%
X119975000Y-74845000D03*
%TO.P,U1,9,XTAL1/PB6*%
%TO.N,Net-(U1-XTAL1{slash}PB6)*%
X119975000Y-72305000D03*
%TO.P,U1,10,XTAL2/PB7*%
%TO.N,Net-(U1-XTAL2{slash}PB7)*%
X119975000Y-69765000D03*
%TO.P,U1,11,PD5*%
%TO.N,unconnected-(U1-PD5-Pad11)*%
X119975000Y-67225000D03*
%TO.P,U1,12,PD6*%
%TO.N,signal*%
X119975000Y-64685000D03*
%TO.P,U1,13,PD7*%
%TO.N,unconnected-(U1-PD7-Pad13)*%
X119975000Y-62145000D03*
%TO.P,U1,14,PB0*%
%TO.N,unconnected-(U1-PB0-Pad14)*%
X119975000Y-59605000D03*
%TO.P,U1,15,PB1*%
%TO.N,unconnected-(U1-PB1-Pad15)*%
X112355000Y-59605000D03*
%TO.P,U1,16,PB2*%
%TO.N,unconnected-(U1-PB2-Pad16)*%
X112355000Y-62145000D03*
%TO.P,U1,17,PB3*%
%TO.N,unconnected-(U1-PB3-Pad17)*%
X112355000Y-64685000D03*
%TO.P,U1,18,PB4*%
%TO.N,unconnected-(U1-PB4-Pad18)*%
X112355000Y-67225000D03*
%TO.P,U1,19,PB5*%
%TO.N,unconnected-(U1-PB5-Pad19)*%
X112355000Y-69765000D03*
%TO.P,U1,20,AVCC*%
%TO.N,VCC*%
X112355000Y-72305000D03*
%TO.P,U1,21,AREF*%
%TO.N,unconnected-(U1-AREF-Pad21)*%
X112355000Y-74845000D03*
%TO.P,U1,22,GND*%
%TO.N,GND*%
X112355000Y-77385000D03*
%TO.P,U1,23,PC0*%
%TO.N,unconnected-(U1-PC0-Pad23)*%
X112355000Y-79925000D03*
%TO.P,U1,24,PC1*%
%TO.N,unconnected-(U1-PC1-Pad24)*%
X112355000Y-82465000D03*
%TO.P,U1,25,PC2*%
%TO.N,unconnected-(U1-PC2-Pad25)*%
X112355000Y-85005000D03*
%TO.P,U1,26,PC3*%
%TO.N,unconnected-(U1-PC3-Pad26)*%
X112355000Y-87545000D03*
%TO.P,U1,27,PC4*%
%TO.N,unconnected-(U1-PC4-Pad27)*%
X112355000Y-90085000D03*
%TO.P,U1,28,PC5*%
%TO.N,unconnected-(U1-PC5-Pad28)*%
X112355000Y-92625000D03*
%TD*%
D10*
%TO.P,J1,1,Pin_1*%
%TO.N,GND*%
X128700000Y-125825000D03*
D11*
%TO.P,J1,2,Pin_2*%
%TO.N,unconnected-(J1-Pin_2-Pad2)*%
X126160000Y-125825000D03*
%TO.P,J1,3,Pin_3*%
%TO.N,VCC*%
X123620000Y-125825000D03*
%TO.P,J1,4,Pin_4*%
%TO.N,Net-(J1-Pin_4)*%
X121080000Y-125825000D03*
%TO.P,J1,5,Pin_5*%
%TO.N,Net-(J1-Pin_5)*%
X118540000Y-125825000D03*
%TO.P,J1,6,Pin_6*%
%TO.N,Net-(J1-Pin_6)*%
X116000000Y-125825000D03*
%TD*%
D12*
%TO.P,R1,1*%
%TO.N,VCC*%
X123500000Y-115255000D03*
D18*
%TO.P,R1,2*%
%TO.N,Net-(U1-~{RESET}{slash}PC6)*%
X123500000Y-105095000D03*
%TD*%
D19*
%TO.P,J3,1,Pin_1*%
%TO.N,GND*%
X108075000Y-58275000D03*
D20*
%TO.P,J3,2,Pin_2*%
%TO.N,signal*%
X105575000Y-58275000D03*
%TO.P,J3,3,Pin_3*%
%TO.N,led_5V*%
X103075000Y-58275000D03*
%TD*%
D12*
%TO.P,C5,1*%
%TO.N,led_5V*%
X104575000Y-95875000D03*
%TO.P,C5,2*%
%TO.N,GND*%
X107075000Y-95875000D03*
%TD*%
D21*
%TO.P,U2,1,VI*%
%TO.N,batt_16V*%
X109615000Y-106655000D03*
D22*
%TO.P,U2,2,GND*%
%TO.N,GND*%
X107075000Y-106655000D03*
%TO.P,U2,3,VO*%
%TO.N,led_5V*%
X104535000Y-106655000D03*
%TD*%
D12*
%TO.P,C2,1*%
%TO.N,Net-(U1-XTAL2{slash}PB7)*%
X128225000Y-68825000D03*
%TO.P,C2,2*%
%TO.N,GND*%
X128225000Y-71325000D03*
%TD*%
D23*
%TO.P,Y1,1,1*%
%TO.N,Net-(U1-XTAL1{slash}PB6)*%
X124025000Y-73775000D03*
%TO.P,Y1,2,2*%
%TO.N,Net-(U1-XTAL2{slash}PB7)*%
X124025000Y-68875000D03*
%TD*%
D12*
%TO.P,C3,1*%
%TO.N,Net-(U1-XTAL1{slash}PB6)*%
X128175000Y-73750000D03*
%TO.P,C3,2*%
%TO.N,GND*%
X128175000Y-76250000D03*
%TD*%
D24*
%TO.N,Net-(U1-~{RESET}{slash}PC6)*%
X119725000Y-105150000D02*
X119725000Y-92875000D01*
X119725000Y-92875000D02*
X119975000Y-92625000D01*
%TO.N,Net-(U1-XTAL2{slash}PB7)*%
X124025000Y-68875000D02*
X128175000Y-68875000D01*
X128175000Y-68875000D02*
X128225000Y-68825000D01*
X119975000Y-69765000D02*
X123135000Y-69765000D01*
X123135000Y-69765000D02*
X124025000Y-68875000D01*
%TO.N,Net-(U1-XTAL1{slash}PB6)*%
X128150000Y-73775000D02*
X128175000Y-73750000D01*
X122555000Y-72305000D02*
X124025000Y-73775000D01*
X119975000Y-72305000D02*
X122555000Y-72305000D01*
X124025000Y-73775000D02*
X128150000Y-73775000D01*
%TO.N,VCC*%
X117435000Y-77385000D02*
X112355000Y-72305000D01*
X125700000Y-77775000D02*
X125310000Y-77385000D01*
X119975000Y-77385000D02*
X117435000Y-77385000D01*
X123620000Y-115375000D02*
X123500000Y-115255000D01*
X125310000Y-77385000D02*
X119975000Y-77385000D01*
X123620000Y-125825000D02*
X123620000Y-115375000D01*
X125655000Y-115255000D02*
X125700000Y-115300000D01*
X123500000Y-115255000D02*
X125655000Y-115255000D01*
X125700000Y-115300000D02*
X125700000Y-77775000D01*
X123500000Y-115255000D02*
X123302500Y-115452500D01*
%TO.N,Net-(J1-Pin_6)*%
X116000000Y-107625000D02*
X116025000Y-107650000D01*
X116025000Y-107650000D02*
X119725000Y-107650000D01*
X116000000Y-125825000D02*
X116000000Y-107625000D01*
%TO.N,Net-(J1-Pin_5)*%
X116590000Y-127775000D02*
X113775000Y-127775000D01*
X112319586Y-126319586D02*
X112319586Y-96755414D01*
X118540000Y-125825000D02*
X116590000Y-127775000D01*
X117350000Y-96725000D02*
X117425000Y-96650000D01*
X117425000Y-87550000D02*
X117430000Y-87545000D01*
X117430000Y-87545000D02*
X119975000Y-87545000D01*
X113775000Y-127775000D02*
X112319586Y-126319586D01*
X112350000Y-96725000D02*
X117350000Y-96725000D01*
X117425000Y-96650000D02*
X117425000Y-87550000D01*
X112319586Y-96755414D02*
X112350000Y-96725000D01*
D25*
%TO.N,batt_16V*%
X109500000Y-118075000D02*
X109525000Y-118050000D01*
X109500000Y-123725000D02*
X109500000Y-118075000D01*
X109525000Y-118050000D02*
X109525000Y-106745000D01*
X109500000Y-106770000D02*
X109615000Y-106655000D01*
X109525000Y-106745000D02*
X109615000Y-106655000D01*
D26*
%TO.N,led_5V*%
X103225000Y-51500000D02*
X109900000Y-51500000D01*
X103075000Y-63225000D02*
X103075000Y-58275000D01*
X103075000Y-51650000D02*
X103225000Y-51500000D01*
X103075000Y-58275000D02*
X103075000Y-51650000D01*
X103450000Y-63500000D02*
X103350000Y-63500000D01*
D27*
X122625000Y-51350000D02*
X108125000Y-51350000D01*
D25*
X104535000Y-106655000D02*
X104535000Y-96085000D01*
X104610000Y-95910000D02*
X104575000Y-95875000D01*
D26*
X103350000Y-63500000D02*
X103075000Y-63225000D01*
X104575000Y-95875000D02*
X104575000Y-64625000D01*
X104575000Y-64625000D02*
X103450000Y-63500000D01*
D25*
X104575000Y-95875000D02*
X104450000Y-96000000D01*
D27*
X108025000Y-51250000D02*
X108075000Y-51300000D01*
D25*
X104535000Y-96085000D02*
X104450000Y-96000000D01*
D27*
X108125000Y-51350000D02*
X108075000Y-51300000D01*
D24*
%TO.N,signal*%
X119975000Y-64685000D02*
X115615000Y-64685000D01*
X110075000Y-57675000D02*
X110050000Y-57650000D01*
X105725000Y-61275000D02*
X105600000Y-61400000D01*
X115450000Y-57656014D02*
X115475977Y-57630037D01*
X115475977Y-57630037D02*
X115480650Y-57629131D01*
X110050000Y-57650000D02*
X110050000Y-61275000D01*
X110050000Y-61275000D02*
X105725000Y-61275000D01*
X115480650Y-57629131D02*
X115434781Y-57675000D01*
X115575000Y-64725000D02*
X115450000Y-64600000D01*
X105575000Y-61375000D02*
X105575000Y-58275000D01*
X105600000Y-61400000D02*
X105575000Y-61375000D01*
X115434781Y-57675000D02*
X110075000Y-57675000D01*
X115450000Y-64600000D02*
X115450000Y-57656014D01*
X115615000Y-64685000D02*
X115575000Y-64725000D01*
%TD*%
M02*
