%TF.GenerationSoftware,KiCad,Pcbnew,8.0.8-8.0.8-0~ubuntu24.04.1*%
%TF.CreationDate,2025-02-07T22:56:00+09:00*%
%TF.ProjectId,PowerDivider,506f7765-7244-4697-9669-6465722e6b69,rev?*%
%TF.SameCoordinates,Original*%
%TF.FileFunction,Legend,Top*%
%TF.FilePolarity,Positive*%
%FSLAX46Y46*%
G04 Gerber Fmt 4.6, Leading zero omitted, Abs format (unit mm)*
G04 Created by KiCad (PCBNEW 8.0.8-8.0.8-0~ubuntu24.04.1) date 2025-02-07 22:56:00*
%MOMM*%
%LPD*%
G01*
G04 APERTURE LIST*
%ADD10C,0.100000*%
%ADD11C,0.150000*%
%ADD12C,0.120000*%
G04 APERTURE END LIST*
D10*
X126756265Y-142882895D02*
X126756265Y-137882895D01*
X126756265Y-137882895D02*
X128661027Y-137882895D01*
X128661027Y-137882895D02*
X129137217Y-138120990D01*
X129137217Y-138120990D02*
X129375312Y-138359085D01*
X129375312Y-138359085D02*
X129613408Y-138835276D01*
X129613408Y-138835276D02*
X129613408Y-139549561D01*
X129613408Y-139549561D02*
X129375312Y-140025752D01*
X129375312Y-140025752D02*
X129137217Y-140263847D01*
X129137217Y-140263847D02*
X128661027Y-140501942D01*
X128661027Y-140501942D02*
X126756265Y-140501942D01*
X132470550Y-142882895D02*
X131994360Y-142644800D01*
X131994360Y-142644800D02*
X131756265Y-142406704D01*
X131756265Y-142406704D02*
X131518169Y-141930514D01*
X131518169Y-141930514D02*
X131518169Y-140501942D01*
X131518169Y-140501942D02*
X131756265Y-140025752D01*
X131756265Y-140025752D02*
X131994360Y-139787657D01*
X131994360Y-139787657D02*
X132470550Y-139549561D01*
X132470550Y-139549561D02*
X133184836Y-139549561D01*
X133184836Y-139549561D02*
X133661027Y-139787657D01*
X133661027Y-139787657D02*
X133899122Y-140025752D01*
X133899122Y-140025752D02*
X134137217Y-140501942D01*
X134137217Y-140501942D02*
X134137217Y-141930514D01*
X134137217Y-141930514D02*
X133899122Y-142406704D01*
X133899122Y-142406704D02*
X133661027Y-142644800D01*
X133661027Y-142644800D02*
X133184836Y-142882895D01*
X133184836Y-142882895D02*
X132470550Y-142882895D01*
X135803884Y-139549561D02*
X136756265Y-142882895D01*
X136756265Y-142882895D02*
X137708646Y-140501942D01*
X137708646Y-140501942D02*
X138661027Y-142882895D01*
X138661027Y-142882895D02*
X139613408Y-139549561D01*
X143422932Y-142644800D02*
X142946741Y-142882895D01*
X142946741Y-142882895D02*
X141994360Y-142882895D01*
X141994360Y-142882895D02*
X141518170Y-142644800D01*
X141518170Y-142644800D02*
X141280074Y-142168609D01*
X141280074Y-142168609D02*
X141280074Y-140263847D01*
X141280074Y-140263847D02*
X141518170Y-139787657D01*
X141518170Y-139787657D02*
X141994360Y-139549561D01*
X141994360Y-139549561D02*
X142946741Y-139549561D01*
X142946741Y-139549561D02*
X143422932Y-139787657D01*
X143422932Y-139787657D02*
X143661027Y-140263847D01*
X143661027Y-140263847D02*
X143661027Y-140740038D01*
X143661027Y-140740038D02*
X141280074Y-141216228D01*
X145803884Y-142882895D02*
X145803884Y-139549561D01*
X145803884Y-140501942D02*
X146041979Y-140025752D01*
X146041979Y-140025752D02*
X146280074Y-139787657D01*
X146280074Y-139787657D02*
X146756265Y-139549561D01*
X146756265Y-139549561D02*
X147232455Y-139549561D01*
X148899122Y-142882895D02*
X148899122Y-137882895D01*
X148899122Y-137882895D02*
X150089598Y-137882895D01*
X150089598Y-137882895D02*
X150803884Y-138120990D01*
X150803884Y-138120990D02*
X151280074Y-138597180D01*
X151280074Y-138597180D02*
X151518169Y-139073371D01*
X151518169Y-139073371D02*
X151756265Y-140025752D01*
X151756265Y-140025752D02*
X151756265Y-140740038D01*
X151756265Y-140740038D02*
X151518169Y-141692419D01*
X151518169Y-141692419D02*
X151280074Y-142168609D01*
X151280074Y-142168609D02*
X150803884Y-142644800D01*
X150803884Y-142644800D02*
X150089598Y-142882895D01*
X150089598Y-142882895D02*
X148899122Y-142882895D01*
X153899122Y-142882895D02*
X153899122Y-139549561D01*
X153899122Y-137882895D02*
X153661026Y-138120990D01*
X153661026Y-138120990D02*
X153899122Y-138359085D01*
X153899122Y-138359085D02*
X154137217Y-138120990D01*
X154137217Y-138120990D02*
X153899122Y-137882895D01*
X153899122Y-137882895D02*
X153899122Y-138359085D01*
X155803883Y-139549561D02*
X156994359Y-142882895D01*
X156994359Y-142882895D02*
X158184836Y-139549561D01*
X160089598Y-142882895D02*
X160089598Y-139549561D01*
X160089598Y-137882895D02*
X159851502Y-138120990D01*
X159851502Y-138120990D02*
X160089598Y-138359085D01*
X160089598Y-138359085D02*
X160327693Y-138120990D01*
X160327693Y-138120990D02*
X160089598Y-137882895D01*
X160089598Y-137882895D02*
X160089598Y-138359085D01*
X164613407Y-142882895D02*
X164613407Y-137882895D01*
X164613407Y-142644800D02*
X164137216Y-142882895D01*
X164137216Y-142882895D02*
X163184835Y-142882895D01*
X163184835Y-142882895D02*
X162708645Y-142644800D01*
X162708645Y-142644800D02*
X162470550Y-142406704D01*
X162470550Y-142406704D02*
X162232454Y-141930514D01*
X162232454Y-141930514D02*
X162232454Y-140501942D01*
X162232454Y-140501942D02*
X162470550Y-140025752D01*
X162470550Y-140025752D02*
X162708645Y-139787657D01*
X162708645Y-139787657D02*
X163184835Y-139549561D01*
X163184835Y-139549561D02*
X164137216Y-139549561D01*
X164137216Y-139549561D02*
X164613407Y-139787657D01*
X168899122Y-142644800D02*
X168422931Y-142882895D01*
X168422931Y-142882895D02*
X167470550Y-142882895D01*
X167470550Y-142882895D02*
X166994360Y-142644800D01*
X166994360Y-142644800D02*
X166756264Y-142168609D01*
X166756264Y-142168609D02*
X166756264Y-140263847D01*
X166756264Y-140263847D02*
X166994360Y-139787657D01*
X166994360Y-139787657D02*
X167470550Y-139549561D01*
X167470550Y-139549561D02*
X168422931Y-139549561D01*
X168422931Y-139549561D02*
X168899122Y-139787657D01*
X168899122Y-139787657D02*
X169137217Y-140263847D01*
X169137217Y-140263847D02*
X169137217Y-140740038D01*
X169137217Y-140740038D02*
X166756264Y-141216228D01*
X171280074Y-142882895D02*
X171280074Y-139549561D01*
X171280074Y-140501942D02*
X171518169Y-140025752D01*
X171518169Y-140025752D02*
X171756264Y-139787657D01*
X171756264Y-139787657D02*
X172232455Y-139549561D01*
X172232455Y-139549561D02*
X172708645Y-139549561D01*
D11*
X167166666Y-53954819D02*
X167166666Y-54669104D01*
X167166666Y-54669104D02*
X167119047Y-54811961D01*
X167119047Y-54811961D02*
X167023809Y-54907200D01*
X167023809Y-54907200D02*
X166880952Y-54954819D01*
X166880952Y-54954819D02*
X166785714Y-54954819D01*
X167547619Y-53954819D02*
X168166666Y-53954819D01*
X168166666Y-53954819D02*
X167833333Y-54335771D01*
X167833333Y-54335771D02*
X167976190Y-54335771D01*
X167976190Y-54335771D02*
X168071428Y-54383390D01*
X168071428Y-54383390D02*
X168119047Y-54431009D01*
X168119047Y-54431009D02*
X168166666Y-54526247D01*
X168166666Y-54526247D02*
X168166666Y-54764342D01*
X168166666Y-54764342D02*
X168119047Y-54859580D01*
X168119047Y-54859580D02*
X168071428Y-54907200D01*
X168071428Y-54907200D02*
X167976190Y-54954819D01*
X167976190Y-54954819D02*
X167690476Y-54954819D01*
X167690476Y-54954819D02*
X167595238Y-54907200D01*
X167595238Y-54907200D02*
X167547619Y-54859580D01*
X161428571Y-70114700D02*
X162571429Y-70114700D01*
X172428571Y-70114700D02*
X173571429Y-70114700D01*
X173000000Y-70686128D02*
X173000000Y-69543271D01*
X152166666Y-53954819D02*
X152166666Y-54669104D01*
X152166666Y-54669104D02*
X152119047Y-54811961D01*
X152119047Y-54811961D02*
X152023809Y-54907200D01*
X152023809Y-54907200D02*
X151880952Y-54954819D01*
X151880952Y-54954819D02*
X151785714Y-54954819D01*
X152595238Y-54050057D02*
X152642857Y-54002438D01*
X152642857Y-54002438D02*
X152738095Y-53954819D01*
X152738095Y-53954819D02*
X152976190Y-53954819D01*
X152976190Y-53954819D02*
X153071428Y-54002438D01*
X153071428Y-54002438D02*
X153119047Y-54050057D01*
X153119047Y-54050057D02*
X153166666Y-54145295D01*
X153166666Y-54145295D02*
X153166666Y-54240533D01*
X153166666Y-54240533D02*
X153119047Y-54383390D01*
X153119047Y-54383390D02*
X152547619Y-54954819D01*
X152547619Y-54954819D02*
X153166666Y-54954819D01*
X157428571Y-70114700D02*
X158571429Y-70114700D01*
X158000000Y-70686128D02*
X158000000Y-69543271D01*
X146428571Y-70114700D02*
X147571429Y-70114700D01*
X117266666Y-102479819D02*
X117266666Y-103194104D01*
X117266666Y-103194104D02*
X117219047Y-103336961D01*
X117219047Y-103336961D02*
X117123809Y-103432200D01*
X117123809Y-103432200D02*
X116980952Y-103479819D01*
X116980952Y-103479819D02*
X116885714Y-103479819D01*
X117790476Y-103479819D02*
X117980952Y-103479819D01*
X117980952Y-103479819D02*
X118076190Y-103432200D01*
X118076190Y-103432200D02*
X118123809Y-103384580D01*
X118123809Y-103384580D02*
X118219047Y-103241723D01*
X118219047Y-103241723D02*
X118266666Y-103051247D01*
X118266666Y-103051247D02*
X118266666Y-102670295D01*
X118266666Y-102670295D02*
X118219047Y-102575057D01*
X118219047Y-102575057D02*
X118171428Y-102527438D01*
X118171428Y-102527438D02*
X118076190Y-102479819D01*
X118076190Y-102479819D02*
X117885714Y-102479819D01*
X117885714Y-102479819D02*
X117790476Y-102527438D01*
X117790476Y-102527438D02*
X117742857Y-102575057D01*
X117742857Y-102575057D02*
X117695238Y-102670295D01*
X117695238Y-102670295D02*
X117695238Y-102908390D01*
X117695238Y-102908390D02*
X117742857Y-103003628D01*
X117742857Y-103003628D02*
X117790476Y-103051247D01*
X117790476Y-103051247D02*
X117885714Y-103098866D01*
X117885714Y-103098866D02*
X118076190Y-103098866D01*
X118076190Y-103098866D02*
X118171428Y-103051247D01*
X118171428Y-103051247D02*
X118219047Y-103003628D01*
X118219047Y-103003628D02*
X118266666Y-102908390D01*
X122528571Y-117639700D02*
X123671429Y-117639700D01*
X111528571Y-117639700D02*
X112671429Y-117639700D01*
X112100000Y-118211128D02*
X112100000Y-117068271D01*
X199954819Y-112833333D02*
X200669104Y-112833333D01*
X200669104Y-112833333D02*
X200811961Y-112880952D01*
X200811961Y-112880952D02*
X200907200Y-112976190D01*
X200907200Y-112976190D02*
X200954819Y-113119047D01*
X200954819Y-113119047D02*
X200954819Y-113214285D01*
X199954819Y-112452380D02*
X199954819Y-111785714D01*
X199954819Y-111785714D02*
X200954819Y-112214285D01*
X185114700Y-118571428D02*
X185114700Y-117428571D01*
X185686128Y-117999999D02*
X184543271Y-117999999D01*
X185114700Y-107571428D02*
X185114700Y-106428571D01*
X117166666Y-51954819D02*
X117166666Y-52669104D01*
X117166666Y-52669104D02*
X117119047Y-52811961D01*
X117119047Y-52811961D02*
X117023809Y-52907200D01*
X117023809Y-52907200D02*
X116880952Y-52954819D01*
X116880952Y-52954819D02*
X116785714Y-52954819D01*
X118166666Y-52954819D02*
X117595238Y-52954819D01*
X117880952Y-52954819D02*
X117880952Y-51954819D01*
X117880952Y-51954819D02*
X117785714Y-52097676D01*
X117785714Y-52097676D02*
X117690476Y-52192914D01*
X117690476Y-52192914D02*
X117595238Y-52240533D01*
X122428571Y-67114700D02*
X123571429Y-67114700D01*
X111428571Y-67114700D02*
X112571429Y-67114700D01*
X112000000Y-67686128D02*
X112000000Y-66543271D01*
X199954819Y-127833333D02*
X200669104Y-127833333D01*
X200669104Y-127833333D02*
X200811961Y-127880952D01*
X200811961Y-127880952D02*
X200907200Y-127976190D01*
X200907200Y-127976190D02*
X200954819Y-128119047D01*
X200954819Y-128119047D02*
X200954819Y-128214285D01*
X200383390Y-127214285D02*
X200335771Y-127309523D01*
X200335771Y-127309523D02*
X200288152Y-127357142D01*
X200288152Y-127357142D02*
X200192914Y-127404761D01*
X200192914Y-127404761D02*
X200145295Y-127404761D01*
X200145295Y-127404761D02*
X200050057Y-127357142D01*
X200050057Y-127357142D02*
X200002438Y-127309523D01*
X200002438Y-127309523D02*
X199954819Y-127214285D01*
X199954819Y-127214285D02*
X199954819Y-127023809D01*
X199954819Y-127023809D02*
X200002438Y-126928571D01*
X200002438Y-126928571D02*
X200050057Y-126880952D01*
X200050057Y-126880952D02*
X200145295Y-126833333D01*
X200145295Y-126833333D02*
X200192914Y-126833333D01*
X200192914Y-126833333D02*
X200288152Y-126880952D01*
X200288152Y-126880952D02*
X200335771Y-126928571D01*
X200335771Y-126928571D02*
X200383390Y-127023809D01*
X200383390Y-127023809D02*
X200383390Y-127214285D01*
X200383390Y-127214285D02*
X200431009Y-127309523D01*
X200431009Y-127309523D02*
X200478628Y-127357142D01*
X200478628Y-127357142D02*
X200573866Y-127404761D01*
X200573866Y-127404761D02*
X200764342Y-127404761D01*
X200764342Y-127404761D02*
X200859580Y-127357142D01*
X200859580Y-127357142D02*
X200907200Y-127309523D01*
X200907200Y-127309523D02*
X200954819Y-127214285D01*
X200954819Y-127214285D02*
X200954819Y-127023809D01*
X200954819Y-127023809D02*
X200907200Y-126928571D01*
X200907200Y-126928571D02*
X200859580Y-126880952D01*
X200859580Y-126880952D02*
X200764342Y-126833333D01*
X200764342Y-126833333D02*
X200573866Y-126833333D01*
X200573866Y-126833333D02*
X200478628Y-126880952D01*
X200478628Y-126880952D02*
X200431009Y-126928571D01*
X200431009Y-126928571D02*
X200383390Y-127023809D01*
X185114700Y-122571428D02*
X185114700Y-121428571D01*
X185114700Y-133571428D02*
X185114700Y-132428571D01*
X185686128Y-132999999D02*
X184543271Y-132999999D01*
X182166666Y-53954819D02*
X182166666Y-54669104D01*
X182166666Y-54669104D02*
X182119047Y-54811961D01*
X182119047Y-54811961D02*
X182023809Y-54907200D01*
X182023809Y-54907200D02*
X181880952Y-54954819D01*
X181880952Y-54954819D02*
X181785714Y-54954819D01*
X183071428Y-54288152D02*
X183071428Y-54954819D01*
X182833333Y-53907200D02*
X182595238Y-54621485D01*
X182595238Y-54621485D02*
X183214285Y-54621485D01*
X176428571Y-70114700D02*
X177571429Y-70114700D01*
X187428571Y-70114700D02*
X188571429Y-70114700D01*
X188000000Y-70686128D02*
X188000000Y-69543271D01*
X199954819Y-82833333D02*
X200669104Y-82833333D01*
X200669104Y-82833333D02*
X200811961Y-82880952D01*
X200811961Y-82880952D02*
X200907200Y-82976190D01*
X200907200Y-82976190D02*
X200954819Y-83119047D01*
X200954819Y-83119047D02*
X200954819Y-83214285D01*
X199954819Y-81880952D02*
X199954819Y-82357142D01*
X199954819Y-82357142D02*
X200431009Y-82404761D01*
X200431009Y-82404761D02*
X200383390Y-82357142D01*
X200383390Y-82357142D02*
X200335771Y-82261904D01*
X200335771Y-82261904D02*
X200335771Y-82023809D01*
X200335771Y-82023809D02*
X200383390Y-81928571D01*
X200383390Y-81928571D02*
X200431009Y-81880952D01*
X200431009Y-81880952D02*
X200526247Y-81833333D01*
X200526247Y-81833333D02*
X200764342Y-81833333D01*
X200764342Y-81833333D02*
X200859580Y-81880952D01*
X200859580Y-81880952D02*
X200907200Y-81928571D01*
X200907200Y-81928571D02*
X200954819Y-82023809D01*
X200954819Y-82023809D02*
X200954819Y-82261904D01*
X200954819Y-82261904D02*
X200907200Y-82357142D01*
X200907200Y-82357142D02*
X200859580Y-82404761D01*
X185114700Y-88571428D02*
X185114700Y-87428571D01*
X185686128Y-87999999D02*
X184543271Y-87999999D01*
X185114700Y-77571428D02*
X185114700Y-76428571D01*
X199954819Y-97833333D02*
X200669104Y-97833333D01*
X200669104Y-97833333D02*
X200811961Y-97880952D01*
X200811961Y-97880952D02*
X200907200Y-97976190D01*
X200907200Y-97976190D02*
X200954819Y-98119047D01*
X200954819Y-98119047D02*
X200954819Y-98214285D01*
X199954819Y-96928571D02*
X199954819Y-97119047D01*
X199954819Y-97119047D02*
X200002438Y-97214285D01*
X200002438Y-97214285D02*
X200050057Y-97261904D01*
X200050057Y-97261904D02*
X200192914Y-97357142D01*
X200192914Y-97357142D02*
X200383390Y-97404761D01*
X200383390Y-97404761D02*
X200764342Y-97404761D01*
X200764342Y-97404761D02*
X200859580Y-97357142D01*
X200859580Y-97357142D02*
X200907200Y-97309523D01*
X200907200Y-97309523D02*
X200954819Y-97214285D01*
X200954819Y-97214285D02*
X200954819Y-97023809D01*
X200954819Y-97023809D02*
X200907200Y-96928571D01*
X200907200Y-96928571D02*
X200859580Y-96880952D01*
X200859580Y-96880952D02*
X200764342Y-96833333D01*
X200764342Y-96833333D02*
X200526247Y-96833333D01*
X200526247Y-96833333D02*
X200431009Y-96880952D01*
X200431009Y-96880952D02*
X200383390Y-96928571D01*
X200383390Y-96928571D02*
X200335771Y-97023809D01*
X200335771Y-97023809D02*
X200335771Y-97214285D01*
X200335771Y-97214285D02*
X200383390Y-97309523D01*
X200383390Y-97309523D02*
X200431009Y-97357142D01*
X200431009Y-97357142D02*
X200526247Y-97404761D01*
X185114700Y-92571428D02*
X185114700Y-91428571D01*
X185114700Y-103571428D02*
X185114700Y-102428571D01*
X185686128Y-102999999D02*
X184543271Y-102999999D01*
D12*
%TO.C,J3*%
X161740000Y-63890000D02*
X162440000Y-63890000D01*
X161740000Y-66110000D02*
X173260000Y-66110000D01*
X162440000Y-61840000D02*
X162440000Y-63890000D01*
X162440000Y-61840000D02*
X162970000Y-61840000D01*
X162970000Y-55840000D02*
X162970000Y-61840000D01*
X162970000Y-55840000D02*
X172000000Y-55840000D01*
X172030000Y-55840000D02*
X172030000Y-61840000D01*
X172030000Y-61840000D02*
X172560000Y-61840000D01*
X172560000Y-61840000D02*
X172560000Y-63890000D01*
X172560000Y-63890000D02*
X173260000Y-63890000D01*
X161678271Y-66096635D02*
G75*
G02*
X161850000Y-63890000I171730J1096635D01*
G01*
X173150000Y-63890000D02*
G75*
G02*
X173150000Y-66110000I0J-1110000D01*
G01*
%TO.C,J2*%
X146740000Y-63890000D02*
X147440000Y-63890000D01*
X146740000Y-66110000D02*
X158260000Y-66110000D01*
X147440000Y-61840000D02*
X147440000Y-63890000D01*
X147440000Y-61840000D02*
X147970000Y-61840000D01*
X147970000Y-55840000D02*
X147970000Y-61840000D01*
X147970000Y-55840000D02*
X157000000Y-55840000D01*
X157030000Y-55840000D02*
X157030000Y-61840000D01*
X157030000Y-61840000D02*
X157560000Y-61840000D01*
X157560000Y-61840000D02*
X157560000Y-63890000D01*
X157560000Y-63890000D02*
X158260000Y-63890000D01*
X146678271Y-66096635D02*
G75*
G02*
X146850000Y-63890000I171730J1096635D01*
G01*
X158150000Y-63890000D02*
G75*
G02*
X158150000Y-66110000I0J-1110000D01*
G01*
%TO.C,J9*%
X111950000Y-106415000D02*
X112540000Y-106415000D01*
X111950000Y-108635000D02*
X112540000Y-108635000D01*
X112540000Y-104315000D02*
X112540000Y-106415000D01*
X112540000Y-104315000D02*
X122660000Y-104315000D01*
X112540000Y-108635000D02*
X112540000Y-113535000D01*
X112540000Y-113535000D02*
X122660000Y-113535000D01*
X122660000Y-104315000D02*
X122660000Y-106415000D01*
X122660000Y-106415000D02*
X123250000Y-106415000D01*
X122660000Y-108635000D02*
X122660000Y-113535000D01*
X122660000Y-108635000D02*
X123250000Y-108635000D01*
X111950000Y-108635000D02*
G75*
G02*
X111950000Y-106415000I0J1110000D01*
G01*
X123250000Y-106415000D02*
G75*
G02*
X123250000Y-108635000I0J-1110000D01*
G01*
%TO.C,J7*%
X188890000Y-106740000D02*
X188890000Y-118260000D01*
X191110000Y-106740000D02*
X191110000Y-107440000D01*
X191110000Y-117560000D02*
X191110000Y-118260000D01*
X193160000Y-107440000D02*
X191110000Y-107440000D01*
X193160000Y-107440000D02*
X193160000Y-107970000D01*
X193160000Y-117030000D02*
X193160000Y-117560000D01*
X193160000Y-117560000D02*
X191110000Y-117560000D01*
X199160000Y-107970000D02*
X193160000Y-107970000D01*
X199160000Y-107970000D02*
X199160000Y-117000000D01*
X199160000Y-117030000D02*
X193160000Y-117030000D01*
X188903365Y-106678271D02*
G75*
G02*
X191110000Y-106850000I1096635J-171730D01*
G01*
X191110000Y-118150000D02*
G75*
G02*
X188890000Y-118150000I-1110000J0D01*
G01*
%TO.C,J1*%
X111850000Y-55890000D02*
X112440000Y-55890000D01*
X111850000Y-58110000D02*
X112440000Y-58110000D01*
X112440000Y-53790000D02*
X112440000Y-55890000D01*
X112440000Y-53790000D02*
X122560000Y-53790000D01*
X112440000Y-58110000D02*
X112440000Y-63010000D01*
X112440000Y-63010000D02*
X122560000Y-63010000D01*
X122560000Y-53790000D02*
X122560000Y-55890000D01*
X122560000Y-55890000D02*
X123150000Y-55890000D01*
X122560000Y-58110000D02*
X122560000Y-63010000D01*
X122560000Y-58110000D02*
X123150000Y-58110000D01*
X111850000Y-58110000D02*
G75*
G02*
X111850000Y-55890000I0J1110000D01*
G01*
X123150000Y-55890000D02*
G75*
G02*
X123150000Y-58110000I0J-1110000D01*
G01*
%TO.C,J8*%
X188890000Y-121740000D02*
X188890000Y-133260000D01*
X191110000Y-121740000D02*
X191110000Y-122440000D01*
X191110000Y-132560000D02*
X191110000Y-133260000D01*
X193160000Y-122440000D02*
X191110000Y-122440000D01*
X193160000Y-122440000D02*
X193160000Y-122970000D01*
X193160000Y-132030000D02*
X193160000Y-132560000D01*
X193160000Y-132560000D02*
X191110000Y-132560000D01*
X199160000Y-122970000D02*
X193160000Y-122970000D01*
X199160000Y-122970000D02*
X199160000Y-132000000D01*
X199160000Y-132030000D02*
X193160000Y-132030000D01*
X188903365Y-121678271D02*
G75*
G02*
X191110000Y-121850000I1096635J-171730D01*
G01*
X191110000Y-133150000D02*
G75*
G02*
X188890000Y-133150000I-1110000J0D01*
G01*
%TO.C,J4*%
X176740000Y-63890000D02*
X177440000Y-63890000D01*
X176740000Y-66110000D02*
X188260000Y-66110000D01*
X177440000Y-61840000D02*
X177440000Y-63890000D01*
X177440000Y-61840000D02*
X177970000Y-61840000D01*
X177970000Y-55840000D02*
X177970000Y-61840000D01*
X177970000Y-55840000D02*
X187000000Y-55840000D01*
X187030000Y-55840000D02*
X187030000Y-61840000D01*
X187030000Y-61840000D02*
X187560000Y-61840000D01*
X187560000Y-61840000D02*
X187560000Y-63890000D01*
X187560000Y-63890000D02*
X188260000Y-63890000D01*
X176678271Y-66096635D02*
G75*
G02*
X176850000Y-63890000I171730J1096635D01*
G01*
X188150000Y-63890000D02*
G75*
G02*
X188150000Y-66110000I0J-1110000D01*
G01*
%TO.C,J5*%
X188890000Y-76740000D02*
X188890000Y-88260000D01*
X191110000Y-76740000D02*
X191110000Y-77440000D01*
X191110000Y-87560000D02*
X191110000Y-88260000D01*
X193160000Y-77440000D02*
X191110000Y-77440000D01*
X193160000Y-77440000D02*
X193160000Y-77970000D01*
X193160000Y-87030000D02*
X193160000Y-87560000D01*
X193160000Y-87560000D02*
X191110000Y-87560000D01*
X199160000Y-77970000D02*
X193160000Y-77970000D01*
X199160000Y-77970000D02*
X199160000Y-87000000D01*
X199160000Y-87030000D02*
X193160000Y-87030000D01*
X188903365Y-76678271D02*
G75*
G02*
X191110000Y-76850000I1096635J-171730D01*
G01*
X191110000Y-88150000D02*
G75*
G02*
X188890000Y-88150000I-1110000J0D01*
G01*
%TO.C,J6*%
X188890000Y-91740000D02*
X188890000Y-103260000D01*
X191110000Y-91740000D02*
X191110000Y-92440000D01*
X191110000Y-102560000D02*
X191110000Y-103260000D01*
X193160000Y-92440000D02*
X191110000Y-92440000D01*
X193160000Y-92440000D02*
X193160000Y-92970000D01*
X193160000Y-102030000D02*
X193160000Y-102560000D01*
X193160000Y-102560000D02*
X191110000Y-102560000D01*
X199160000Y-92970000D02*
X193160000Y-92970000D01*
X199160000Y-92970000D02*
X199160000Y-102000000D01*
X199160000Y-102030000D02*
X193160000Y-102030000D01*
X188903365Y-91678271D02*
G75*
G02*
X191110000Y-91850000I1096635J-171730D01*
G01*
X191110000Y-103150000D02*
G75*
G02*
X188890000Y-103150000I-1110000J0D01*
G01*
%TD*%
M02*
