M48
; DRILL file {KiCad 8.0.8-8.0.8-0~ubuntu24.04.1} date 2025-02-07T22:56:03+0900
; FORMAT={-:-/ absolute / inch / decimal}
; #@! TF.CreationDate,2025-02-07T22:56:03+09:00
; #@! TF.GenerationSoftware,Kicad,Pcbnew,8.0.8-8.0.8-0~ubuntu24.04.1
; #@! TF.FileFunction,Plated,1,2,PTH
FMAT,2
INCH
; #@! TA.AperFunction,Plated,PTH,ComponentDrill
T1C0.0394
; #@! TA.AperFunction,Plated,PTH,ComponentDrill
T2C0.0748
%
G90
G05
T1
X4.4094Y-2.2441
X4.4134Y-4.2333
X4.8425Y-2.2441
X4.8465Y-4.2333
X5.7874Y-2.5591
X6.2205Y-2.5591
X6.378Y-2.5591
X6.811Y-2.5591
X6.9685Y-2.5591
X7.4016Y-2.5591
X7.4803Y-3.0315
X7.4803Y-3.4646
X7.4803Y-3.622
X7.4803Y-4.0551
X7.4803Y-4.2126
X7.4803Y-4.6457
X7.4803Y-4.8031
X7.4803Y-5.2362
T2
X4.5276Y-2.6378
X4.5315Y-4.627
X4.7244Y-2.6378
X4.7283Y-4.627
X5.9055Y-2.7559
X6.1024Y-2.7559
X6.4961Y-2.7559
X6.6929Y-2.7559
X7.0866Y-2.7559
X7.2835Y-2.7559
X7.2835Y-3.1496
X7.2835Y-3.3465
X7.2835Y-3.7402
X7.2835Y-3.937
X7.2835Y-4.3307
X7.2835Y-4.5276
X7.2835Y-4.9213
X7.2835Y-5.1181
M30
