%TF.GenerationSoftware,KiCad,Pcbnew,8.0.8-8.0.8-0~ubuntu24.04.1*%
%TF.CreationDate,2025-02-07T22:49:58+09:00*%
%TF.ProjectId,MainPowerSupply,4d61696e-506f-4776-9572-537570706c79,rev?*%
%TF.SameCoordinates,Original*%
%TF.FileFunction,Copper,L2,Bot*%
%TF.FilePolarity,Positive*%
%FSLAX46Y46*%
G04 Gerber Fmt 4.6, Leading zero omitted, Abs format (unit mm)*
G04 Created by KiCad (PCBNEW 8.0.8-8.0.8-0~ubuntu24.04.1) date 2025-02-07 22:49:58*
%MOMM*%
%LPD*%
G01*
G04 APERTURE LIST*
G04 Aperture macros list*
%AMRoundRect*
0 Rectangle with rounded corners*
0 $1 Rounding radius*
0 $2 $3 $4 $5 $6 $7 $8 $9 X,Y pos of 4 corners*
0 Add a 4 corners polygon primitive as box body*
4,1,4,$2,$3,$4,$5,$6,$7,$8,$9,$2,$3,0*
0 Add four circle primitives for the rounded corners*
1,1,$1+$1,$2,$3*
1,1,$1+$1,$4,$5*
1,1,$1+$1,$6,$7*
1,1,$1+$1,$8,$9*
0 Add four rect primitives between the rounded corners*
20,1,$1+$1,$2,$3,$4,$5,0*
20,1,$1+$1,$4,$5,$6,$7,0*
20,1,$1+$1,$6,$7,$8,$9,0*
20,1,$1+$1,$8,$9,$2,$3,0*%
G04 Aperture macros list end*
%TA.AperFunction,ComponentPad*%
%ADD10R,2.000000X0.900000*%
%TD*%
%TA.AperFunction,ComponentPad*%
%ADD11RoundRect,1.025000X-1.025000X1.025000X-1.025000X-1.025000X1.025000X-1.025000X1.025000X1.025000X0*%
%TD*%
%TA.AperFunction,ComponentPad*%
%ADD12C,4.100000*%
%TD*%
%TA.AperFunction,ComponentPad*%
%ADD13C,1.400000*%
%TD*%
%TA.AperFunction,ComponentPad*%
%ADD14RoundRect,0.770000X-0.980000X-0.980000X0.980000X-0.980000X0.980000X0.980000X-0.980000X0.980000X0*%
%TD*%
%TA.AperFunction,ComponentPad*%
%ADD15C,3.500000*%
%TD*%
%TA.AperFunction,ComponentPad*%
%ADD16R,2.000000X2.000000*%
%TD*%
%TA.AperFunction,ComponentPad*%
%ADD17C,2.000000*%
%TD*%
%TA.AperFunction,ComponentPad*%
%ADD18R,0.900000X2.000000*%
%TD*%
%TA.AperFunction,ComponentPad*%
%ADD19RoundRect,1.025000X-1.025000X-1.025000X1.025000X-1.025000X1.025000X1.025000X-1.025000X1.025000X0*%
%TD*%
%TA.AperFunction,ComponentPad*%
%ADD20C,1.600000*%
%TD*%
%TA.AperFunction,ComponentPad*%
%ADD21R,2.000000X1.905000*%
%TD*%
%TA.AperFunction,ComponentPad*%
%ADD22O,2.000000X1.905000*%
%TD*%
%TA.AperFunction,Conductor*%
%ADD23C,2.500000*%
%TD*%
G04 APERTURE END LIST*
D10*
%TO.P,J4,*%
%TO.N,*%
X186000000Y-66850000D03*
X186000000Y-80350000D03*
D11*
%TO.P,J4,1,Pin_1*%
%TO.N,GND*%
X180000000Y-70000000D03*
D12*
%TO.P,J4,2,Pin_2*%
%TO.N,motor_batt_connect*%
X180000000Y-77200000D03*
%TD*%
D13*
%TO.P,J10,*%
%TO.N,*%
X164000000Y-54675000D03*
X175000000Y-54675000D03*
D14*
%TO.P,J10,1,Pin_1*%
%TO.N,GND*%
X172000000Y-64675000D03*
D15*
%TO.P,J10,2,Pin_2*%
%TO.N,motor_high*%
X167000000Y-64675000D03*
%TD*%
D10*
%TO.P,J1,*%
%TO.N,*%
X186000000Y-106850000D03*
X186000000Y-120350000D03*
D11*
%TO.P,J1,1,Pin_1*%
%TO.N,OrinGND*%
X180000000Y-110000000D03*
D12*
%TO.P,J1,2,Pin_2*%
%TO.N,orin_batt_connect*%
X180000000Y-117200000D03*
%TD*%
D16*
%TO.P,C3,1*%
%TO.N,12V*%
X114082323Y-87500000D03*
D17*
%TO.P,C3,2*%
%TO.N,OrinGND*%
X119082323Y-87500000D03*
%TD*%
D18*
%TO.P,J8,*%
%TO.N,*%
X128750000Y-60650000D03*
X142250000Y-60650000D03*
D19*
%TO.P,J8,1,Pin_1*%
%TO.N,motor_high*%
X139100000Y-66650000D03*
D12*
%TO.P,J8,2,Pin_2*%
%TO.N,16V*%
X131900000Y-66650000D03*
%TD*%
D20*
%TO.P,C2,1*%
%TO.N,12V*%
X147000000Y-125000000D03*
%TO.P,C2,2*%
%TO.N,OrinGND*%
X147000000Y-127500000D03*
%TD*%
D10*
%TO.P,J5,*%
%TO.N,*%
X186000000Y-86850000D03*
X186000000Y-100350000D03*
D11*
%TO.P,J5,1,Pin_1*%
%TO.N,motor_batt_connect*%
X180000000Y-90000000D03*
D12*
%TO.P,J5,2,Pin_2*%
%TO.N,16V*%
X180000000Y-97200000D03*
%TD*%
D13*
%TO.P,J3,*%
%TO.N,*%
X110650000Y-60350000D03*
X121650000Y-60350000D03*
D14*
%TO.P,J3,1,Pin_1*%
%TO.N,OrinGND*%
X113650000Y-65350000D03*
D15*
%TO.P,J3,2,Pin_2*%
%TO.N,12V*%
X118650000Y-65350000D03*
%TD*%
D20*
%TO.P,C4,1*%
%TO.N,orin in*%
X144000000Y-130000000D03*
%TO.P,C4,2*%
%TO.N,OrinGND*%
X144000000Y-127500000D03*
%TD*%
%TO.P,C1,1*%
%TO.N,orin in*%
X164000000Y-130000000D03*
%TO.P,C1,2*%
%TO.N,OrinGND*%
X164000000Y-127500000D03*
%TD*%
D21*
%TO.P,U1,1,VI*%
%TO.N,orin in*%
X160000000Y-130000000D03*
D22*
%TO.P,U1,2,GND*%
%TO.N,OrinGND*%
X160000000Y-127460000D03*
%TO.P,U1,3,VO*%
%TO.N,12V*%
X160000000Y-124920000D03*
%TD*%
D21*
%TO.P,U2,1,VI*%
%TO.N,orin in*%
X140000000Y-130000000D03*
D22*
%TO.P,U2,2,GND*%
%TO.N,OrinGND*%
X140000000Y-127460000D03*
%TO.P,U2,3,VO*%
%TO.N,12V*%
X140000000Y-124920000D03*
%TD*%
D20*
%TO.P,C5,1*%
%TO.N,12V*%
X127000000Y-125000000D03*
%TO.P,C5,2*%
%TO.N,OrinGND*%
X127000000Y-127500000D03*
%TD*%
D10*
%TO.P,J2,*%
%TO.N,*%
X186000000Y-126850000D03*
X186000000Y-140350000D03*
D11*
%TO.P,J2,1,Pin_1*%
%TO.N,orin_batt_connect*%
X180000000Y-130000000D03*
D12*
%TO.P,J2,2,Pin_2*%
%TO.N,orin in*%
X180000000Y-137200000D03*
%TD*%
D13*
%TO.P,J9,*%
%TO.N,*%
X147500000Y-54675000D03*
X158500000Y-54675000D03*
D14*
%TO.P,J9,1,Pin_1*%
%TO.N,GND*%
X155500000Y-64675000D03*
D15*
%TO.P,J9,2,Pin_2*%
%TO.N,motor_high*%
X150500000Y-64675000D03*
%TD*%
D23*
%TO.N,OrinGND*%
X140040000Y-127500000D02*
X140000000Y-127460000D01*
%TD*%
%TA.AperFunction,Conductor*%
%TO.N,GND*%
G36*
X183443039Y-61019685D02*
G01*
X183488794Y-61072489D01*
X183500000Y-61124000D01*
X183500000Y-103876000D01*
X183480315Y-103943039D01*
X183427511Y-103988794D01*
X183376000Y-104000000D01*
X145124000Y-104000000D01*
X145056961Y-103980315D01*
X145011206Y-103927511D01*
X145000000Y-103876000D01*
X145000000Y-97199994D01*
X177444457Y-97199994D01*
X177444457Y-97200005D01*
X177464606Y-97520283D01*
X177464607Y-97520290D01*
X177524745Y-97835542D01*
X177623916Y-98140759D01*
X177623918Y-98140764D01*
X177760558Y-98431138D01*
X177760562Y-98431144D01*
X177932520Y-98702108D01*
X177932522Y-98702111D01*
X178137087Y-98949388D01*
X178371034Y-99169078D01*
X178371044Y-99169086D01*
X178630660Y-99357708D01*
X178630666Y-99357711D01*
X178630672Y-99357716D01*
X178911903Y-99512324D01*
X179210294Y-99630466D01*
X179210293Y-99630466D01*
X179521135Y-99710276D01*
X179521139Y-99710277D01*
X179587935Y-99718715D01*
X179839524Y-99750499D01*
X179839533Y-99750499D01*
X179839536Y-99750500D01*
X179839538Y-99750500D01*
X180160462Y-99750500D01*
X180160464Y-99750500D01*
X180160467Y-99750499D01*
X180160475Y-99750499D01*
X180350463Y-99726497D01*
X180478861Y-99710277D01*
X180789706Y-99630466D01*
X181088097Y-99512324D01*
X181369328Y-99357716D01*
X181628964Y-99169080D01*
X181862911Y-98949390D01*
X182067478Y-98702110D01*
X182239439Y-98431142D01*
X182376084Y-98140758D01*
X182475256Y-97835538D01*
X182535392Y-97520294D01*
X182555543Y-97200000D01*
X182535392Y-96879706D01*
X182475256Y-96564462D01*
X182376084Y-96259242D01*
X182376081Y-96259235D01*
X182239441Y-95968861D01*
X182239437Y-95968855D01*
X182067479Y-95697891D01*
X182067477Y-95697888D01*
X181862912Y-95450611D01*
X181628965Y-95230921D01*
X181628955Y-95230913D01*
X181369339Y-95042291D01*
X181369321Y-95042280D01*
X181088096Y-94887675D01*
X181088093Y-94887674D01*
X180789703Y-94769533D01*
X180789706Y-94769533D01*
X180478864Y-94689723D01*
X180478851Y-94689721D01*
X180160475Y-94649500D01*
X180160464Y-94649500D01*
X179839536Y-94649500D01*
X179839524Y-94649500D01*
X179521148Y-94689721D01*
X179521135Y-94689723D01*
X179210294Y-94769533D01*
X178911906Y-94887674D01*
X178911903Y-94887675D01*
X178630678Y-95042280D01*
X178630660Y-95042291D01*
X178371044Y-95230913D01*
X178371034Y-95230921D01*
X178137087Y-95450611D01*
X177932522Y-95697888D01*
X177932520Y-95697891D01*
X177760562Y-95968855D01*
X177760558Y-95968861D01*
X177623918Y-96259235D01*
X177623916Y-96259240D01*
X177524745Y-96564457D01*
X177464607Y-96879709D01*
X177464606Y-96879716D01*
X177444457Y-97199994D01*
X145000000Y-97199994D01*
X145000000Y-88904702D01*
X177449500Y-88904702D01*
X177449500Y-91095292D01*
X177449501Y-91095298D01*
X177459718Y-91240027D01*
X177459718Y-91240031D01*
X177459719Y-91240034D01*
X177459720Y-91240038D01*
X177513834Y-91480314D01*
X177513835Y-91480319D01*
X177605795Y-91708809D01*
X177733216Y-91919589D01*
X177733219Y-91919592D01*
X177892798Y-92107201D01*
X178002990Y-92200930D01*
X178080411Y-92266784D01*
X178291191Y-92394205D01*
X178519683Y-92486165D01*
X178759966Y-92540281D01*
X178904705Y-92550500D01*
X181095294Y-92550499D01*
X181240034Y-92540281D01*
X181480317Y-92486165D01*
X181708809Y-92394205D01*
X181919589Y-92266784D01*
X182107201Y-92107201D01*
X182266784Y-91919589D01*
X182394205Y-91708809D01*
X182486165Y-91480317D01*
X182540281Y-91240034D01*
X182550500Y-91095295D01*
X182550499Y-88904706D01*
X182540281Y-88759966D01*
X182486165Y-88519683D01*
X182394205Y-88291191D01*
X182266784Y-88080411D01*
X182200930Y-88002990D01*
X182107201Y-87892798D01*
X181977654Y-87782606D01*
X181919589Y-87733216D01*
X181708809Y-87605795D01*
X181480318Y-87513835D01*
X181240036Y-87459719D01*
X181240029Y-87459718D01*
X181095296Y-87449500D01*
X178904707Y-87449500D01*
X178904701Y-87449501D01*
X178759972Y-87459718D01*
X178759966Y-87459718D01*
X178759966Y-87459719D01*
X178759963Y-87459719D01*
X178759961Y-87459720D01*
X178519685Y-87513834D01*
X178519680Y-87513835D01*
X178291190Y-87605795D01*
X178291185Y-87605798D01*
X178080417Y-87733212D01*
X178080407Y-87733219D01*
X177892798Y-87892798D01*
X177733219Y-88080407D01*
X177733212Y-88080417D01*
X177605798Y-88291185D01*
X177605795Y-88291190D01*
X177513835Y-88519680D01*
X177513835Y-88519682D01*
X177459719Y-88759963D01*
X177459718Y-88759970D01*
X177449500Y-88904702D01*
X145000000Y-88904702D01*
X145000000Y-77199994D01*
X177444457Y-77199994D01*
X177444457Y-77200005D01*
X177464606Y-77520283D01*
X177464607Y-77520290D01*
X177524745Y-77835542D01*
X177623916Y-78140759D01*
X177623918Y-78140764D01*
X177760558Y-78431138D01*
X177760562Y-78431144D01*
X177932520Y-78702108D01*
X177932522Y-78702111D01*
X178137087Y-78949388D01*
X178371034Y-79169078D01*
X178371044Y-79169086D01*
X178630660Y-79357708D01*
X178630666Y-79357711D01*
X178630672Y-79357716D01*
X178911903Y-79512324D01*
X179210294Y-79630466D01*
X179210293Y-79630466D01*
X179521135Y-79710276D01*
X179521139Y-79710277D01*
X179587935Y-79718715D01*
X179839524Y-79750499D01*
X179839533Y-79750499D01*
X179839536Y-79750500D01*
X179839538Y-79750500D01*
X180160462Y-79750500D01*
X180160464Y-79750500D01*
X180160467Y-79750499D01*
X180160475Y-79750499D01*
X180350463Y-79726497D01*
X180478861Y-79710277D01*
X180789706Y-79630466D01*
X181088097Y-79512324D01*
X181369328Y-79357716D01*
X181628964Y-79169080D01*
X181862911Y-78949390D01*
X182067478Y-78702110D01*
X182239439Y-78431142D01*
X182376084Y-78140758D01*
X182475256Y-77835538D01*
X182535392Y-77520294D01*
X182555543Y-77200000D01*
X182535392Y-76879706D01*
X182475256Y-76564462D01*
X182376084Y-76259242D01*
X182376081Y-76259235D01*
X182239441Y-75968861D01*
X182239437Y-75968855D01*
X182067479Y-75697891D01*
X182067477Y-75697888D01*
X181862912Y-75450611D01*
X181628965Y-75230921D01*
X181628955Y-75230913D01*
X181369339Y-75042291D01*
X181369321Y-75042280D01*
X181088096Y-74887675D01*
X181088093Y-74887674D01*
X180789703Y-74769533D01*
X180789706Y-74769533D01*
X180478864Y-74689723D01*
X180478851Y-74689721D01*
X180160475Y-74649500D01*
X180160464Y-74649500D01*
X179839536Y-74649500D01*
X179839524Y-74649500D01*
X179521148Y-74689721D01*
X179521135Y-74689723D01*
X179210294Y-74769533D01*
X178911906Y-74887674D01*
X178911903Y-74887675D01*
X178630678Y-75042280D01*
X178630660Y-75042291D01*
X178371044Y-75230913D01*
X178371034Y-75230921D01*
X178137087Y-75450611D01*
X177932522Y-75697888D01*
X177932520Y-75697891D01*
X177760562Y-75968855D01*
X177760558Y-75968861D01*
X177623918Y-76259235D01*
X177623916Y-76259240D01*
X177524745Y-76564457D01*
X177464607Y-76879709D01*
X177464606Y-76879716D01*
X177444457Y-77199994D01*
X145000000Y-77199994D01*
X145000000Y-68904731D01*
X177450000Y-68904731D01*
X177450000Y-69750000D01*
X178672769Y-69750000D01*
X178650000Y-69893753D01*
X178650000Y-70106247D01*
X178672769Y-70250000D01*
X177450000Y-70250000D01*
X177450000Y-71095268D01*
X177460215Y-71239958D01*
X177460217Y-71239968D01*
X177514313Y-71480165D01*
X177514315Y-71480172D01*
X177606244Y-71708585D01*
X177733620Y-71919289D01*
X177733627Y-71919299D01*
X177893153Y-72106846D01*
X178080700Y-72266372D01*
X178080710Y-72266379D01*
X178291414Y-72393755D01*
X178519827Y-72485684D01*
X178519834Y-72485686D01*
X178760031Y-72539782D01*
X178760041Y-72539784D01*
X178904731Y-72549999D01*
X178904734Y-72550000D01*
X179750000Y-72550000D01*
X179750000Y-71327231D01*
X179893753Y-71350000D01*
X180106247Y-71350000D01*
X180250000Y-71327231D01*
X180250000Y-72550000D01*
X181095266Y-72550000D01*
X181095268Y-72549999D01*
X181239958Y-72539784D01*
X181239968Y-72539782D01*
X181480165Y-72485686D01*
X181480172Y-72485684D01*
X181708585Y-72393755D01*
X181919289Y-72266379D01*
X181919299Y-72266372D01*
X182106846Y-72106846D01*
X182266372Y-71919299D01*
X182266379Y-71919289D01*
X182393755Y-71708585D01*
X182485684Y-71480172D01*
X182485686Y-71480165D01*
X182539782Y-71239968D01*
X182539784Y-71239958D01*
X182549999Y-71095268D01*
X182550000Y-71095266D01*
X182550000Y-70250000D01*
X181327231Y-70250000D01*
X181350000Y-70106247D01*
X181350000Y-69893753D01*
X181327231Y-69750000D01*
X182550000Y-69750000D01*
X182550000Y-68904734D01*
X182549999Y-68904731D01*
X182539784Y-68760041D01*
X182539782Y-68760031D01*
X182485686Y-68519834D01*
X182485684Y-68519827D01*
X182393755Y-68291414D01*
X182266379Y-68080710D01*
X182266372Y-68080700D01*
X182106846Y-67893153D01*
X181919299Y-67733627D01*
X181919289Y-67733620D01*
X181708585Y-67606244D01*
X181480172Y-67514315D01*
X181480165Y-67514313D01*
X181239968Y-67460217D01*
X181239958Y-67460215D01*
X181095268Y-67450000D01*
X180250000Y-67450000D01*
X180250000Y-68672768D01*
X180106247Y-68650000D01*
X179893753Y-68650000D01*
X179750000Y-68672768D01*
X179750000Y-67450000D01*
X178904731Y-67450000D01*
X178760041Y-67460215D01*
X178760031Y-67460217D01*
X178519834Y-67514313D01*
X178519827Y-67514315D01*
X178291414Y-67606244D01*
X178080710Y-67733620D01*
X178080700Y-67733627D01*
X177893153Y-67893153D01*
X177733627Y-68080700D01*
X177733620Y-68080710D01*
X177606244Y-68291414D01*
X177514315Y-68519827D01*
X177514313Y-68519834D01*
X177460217Y-68760031D01*
X177460215Y-68760041D01*
X177450000Y-68904731D01*
X145000000Y-68904731D01*
X145000000Y-64674992D01*
X148244671Y-64674992D01*
X148244671Y-64675007D01*
X148263964Y-64969363D01*
X148263965Y-64969373D01*
X148263966Y-64969380D01*
X148263968Y-64969390D01*
X148321518Y-65258716D01*
X148321521Y-65258730D01*
X148416349Y-65538080D01*
X148546825Y-65802660D01*
X148546829Y-65802667D01*
X148710725Y-66047955D01*
X148905241Y-66269758D01*
X149127043Y-66464273D01*
X149372335Y-66628172D01*
X149636923Y-66758652D01*
X149916278Y-66853481D01*
X150205620Y-66911034D01*
X150233888Y-66912886D01*
X150499993Y-66930329D01*
X150500000Y-66930329D01*
X150500007Y-66930329D01*
X150742522Y-66914433D01*
X150794380Y-66911034D01*
X151083722Y-66853481D01*
X151363077Y-66758652D01*
X151627665Y-66628172D01*
X151872957Y-66464273D01*
X152094758Y-66269758D01*
X152289273Y-66047957D01*
X152453172Y-65802665D01*
X152583652Y-65538077D01*
X152678481Y-65258722D01*
X152736034Y-64969380D01*
X152755329Y-64675000D01*
X152755329Y-64674992D01*
X152736035Y-64380636D01*
X152736034Y-64380620D01*
X152678481Y-64091278D01*
X152583652Y-63811923D01*
X152493825Y-63629773D01*
X153250000Y-63629773D01*
X153250000Y-64425000D01*
X154581116Y-64425000D01*
X154550000Y-64581433D01*
X154550000Y-64768567D01*
X154581116Y-64925000D01*
X153250001Y-64925000D01*
X153250001Y-65720227D01*
X153260566Y-65854474D01*
X153316423Y-66076152D01*
X153410962Y-66284287D01*
X153410967Y-66284296D01*
X153541151Y-66472203D01*
X153702796Y-66633848D01*
X153890703Y-66764032D01*
X153890712Y-66764037D01*
X154098847Y-66858576D01*
X154320525Y-66914433D01*
X154454780Y-66924999D01*
X155249999Y-66924999D01*
X155250000Y-66924998D01*
X155250000Y-65593883D01*
X155406433Y-65625000D01*
X155593567Y-65625000D01*
X155750000Y-65593883D01*
X155750000Y-66924999D01*
X156545212Y-66924999D01*
X156545227Y-66924998D01*
X156679474Y-66914433D01*
X156901152Y-66858576D01*
X157109287Y-66764037D01*
X157109296Y-66764032D01*
X157297203Y-66633848D01*
X157458848Y-66472203D01*
X157589032Y-66284296D01*
X157589037Y-66284287D01*
X157683576Y-66076152D01*
X157739433Y-65854474D01*
X157749999Y-65720226D01*
X157750000Y-65720213D01*
X157750000Y-64925000D01*
X156418884Y-64925000D01*
X156450000Y-64768567D01*
X156450000Y-64674992D01*
X164744671Y-64674992D01*
X164744671Y-64675007D01*
X164763964Y-64969363D01*
X164763965Y-64969373D01*
X164763966Y-64969380D01*
X164763968Y-64969390D01*
X164821518Y-65258716D01*
X164821521Y-65258730D01*
X164916349Y-65538080D01*
X165046825Y-65802660D01*
X165046829Y-65802667D01*
X165210725Y-66047955D01*
X165405241Y-66269758D01*
X165627043Y-66464273D01*
X165872335Y-66628172D01*
X166136923Y-66758652D01*
X166416278Y-66853481D01*
X166705620Y-66911034D01*
X166733888Y-66912886D01*
X166999993Y-66930329D01*
X167000000Y-66930329D01*
X167000007Y-66930329D01*
X167242522Y-66914433D01*
X167294380Y-66911034D01*
X167583722Y-66853481D01*
X167863077Y-66758652D01*
X168127665Y-66628172D01*
X168372957Y-66464273D01*
X168594758Y-66269758D01*
X168789273Y-66047957D01*
X168953172Y-65802665D01*
X169083652Y-65538077D01*
X169178481Y-65258722D01*
X169236034Y-64969380D01*
X169255329Y-64675000D01*
X169255329Y-64674992D01*
X169236035Y-64380636D01*
X169236034Y-64380620D01*
X169178481Y-64091278D01*
X169083652Y-63811923D01*
X168993825Y-63629773D01*
X169750000Y-63629773D01*
X169750000Y-64425000D01*
X171081116Y-64425000D01*
X171050000Y-64581433D01*
X171050000Y-64768567D01*
X171081116Y-64925000D01*
X169750001Y-64925000D01*
X169750001Y-65720227D01*
X169760566Y-65854474D01*
X169816423Y-66076152D01*
X169910962Y-66284287D01*
X169910967Y-66284296D01*
X170041151Y-66472203D01*
X170202796Y-66633848D01*
X170390703Y-66764032D01*
X170390712Y-66764037D01*
X170598847Y-66858576D01*
X170820525Y-66914433D01*
X170954780Y-66924999D01*
X171749999Y-66924999D01*
X171750000Y-66924998D01*
X171750000Y-65593883D01*
X171906433Y-65625000D01*
X172093567Y-65625000D01*
X172250000Y-65593883D01*
X172250000Y-66924999D01*
X173045212Y-66924999D01*
X173045227Y-66924998D01*
X173179474Y-66914433D01*
X173401152Y-66858576D01*
X173609287Y-66764037D01*
X173609296Y-66764032D01*
X173797203Y-66633848D01*
X173958848Y-66472203D01*
X174089032Y-66284296D01*
X174089037Y-66284287D01*
X174183576Y-66076152D01*
X174239433Y-65854474D01*
X174249999Y-65720226D01*
X174250000Y-65720213D01*
X174250000Y-64925000D01*
X172918884Y-64925000D01*
X172950000Y-64768567D01*
X172950000Y-64581433D01*
X172918884Y-64425000D01*
X174249999Y-64425000D01*
X174249999Y-63629787D01*
X174249998Y-63629772D01*
X174239433Y-63495525D01*
X174183576Y-63273847D01*
X174089037Y-63065712D01*
X174089032Y-63065703D01*
X173958848Y-62877796D01*
X173797203Y-62716151D01*
X173609296Y-62585967D01*
X173609287Y-62585962D01*
X173401152Y-62491423D01*
X173179474Y-62435566D01*
X173045226Y-62425000D01*
X172250000Y-62425000D01*
X172250000Y-63756116D01*
X172093567Y-63725000D01*
X171906433Y-63725000D01*
X171750000Y-63756116D01*
X171750000Y-62425000D01*
X170954787Y-62425000D01*
X170954772Y-62425001D01*
X170820525Y-62435566D01*
X170598847Y-62491423D01*
X170390712Y-62585962D01*
X170390703Y-62585967D01*
X170202796Y-62716151D01*
X170041151Y-62877796D01*
X169910967Y-63065703D01*
X169910962Y-63065712D01*
X169816423Y-63273847D01*
X169760566Y-63495525D01*
X169750000Y-63629773D01*
X168993825Y-63629773D01*
X168953172Y-63547336D01*
X168789273Y-63302043D01*
X168746655Y-63253447D01*
X168594758Y-63080241D01*
X168372955Y-62885725D01*
X168127667Y-62721829D01*
X168127660Y-62721825D01*
X167863080Y-62591349D01*
X167583730Y-62496521D01*
X167583724Y-62496519D01*
X167583722Y-62496519D01*
X167294380Y-62438966D01*
X167294373Y-62438965D01*
X167294363Y-62438964D01*
X167000007Y-62419671D01*
X166999993Y-62419671D01*
X166705636Y-62438964D01*
X166705624Y-62438965D01*
X166705620Y-62438966D01*
X166705612Y-62438967D01*
X166705609Y-62438968D01*
X166416283Y-62496518D01*
X166416269Y-62496521D01*
X166136919Y-62591349D01*
X165872334Y-62721828D01*
X165627041Y-62885728D01*
X165405241Y-63080241D01*
X165210728Y-63302041D01*
X165046828Y-63547334D01*
X164916349Y-63811919D01*
X164821521Y-64091269D01*
X164821518Y-64091283D01*
X164763968Y-64380609D01*
X164763964Y-64380636D01*
X164744671Y-64674992D01*
X156450000Y-64674992D01*
X156450000Y-64581433D01*
X156418884Y-64425000D01*
X157749999Y-64425000D01*
X157749999Y-63629787D01*
X157749998Y-63629772D01*
X157739433Y-63495525D01*
X157683576Y-63273847D01*
X157589037Y-63065712D01*
X157589032Y-63065703D01*
X157458848Y-62877796D01*
X157297203Y-62716151D01*
X157109296Y-62585967D01*
X157109287Y-62585962D01*
X156901152Y-62491423D01*
X156679474Y-62435566D01*
X156545226Y-62425000D01*
X155750000Y-62425000D01*
X155750000Y-63756116D01*
X155593567Y-63725000D01*
X155406433Y-63725000D01*
X155250000Y-63756116D01*
X155250000Y-62425000D01*
X154454787Y-62425000D01*
X154454772Y-62425001D01*
X154320525Y-62435566D01*
X154098847Y-62491423D01*
X153890712Y-62585962D01*
X153890703Y-62585967D01*
X153702796Y-62716151D01*
X153541151Y-62877796D01*
X153410967Y-63065703D01*
X153410962Y-63065712D01*
X153316423Y-63273847D01*
X153260566Y-63495525D01*
X153250000Y-63629773D01*
X152493825Y-63629773D01*
X152453172Y-63547336D01*
X152289273Y-63302043D01*
X152246655Y-63253447D01*
X152094758Y-63080241D01*
X151872955Y-62885725D01*
X151627667Y-62721829D01*
X151627660Y-62721825D01*
X151363080Y-62591349D01*
X151083730Y-62496521D01*
X151083724Y-62496519D01*
X151083722Y-62496519D01*
X150794380Y-62438966D01*
X150794373Y-62438965D01*
X150794363Y-62438964D01*
X150500007Y-62419671D01*
X150499993Y-62419671D01*
X150205636Y-62438964D01*
X150205624Y-62438965D01*
X150205620Y-62438966D01*
X150205612Y-62438967D01*
X150205609Y-62438968D01*
X149916283Y-62496518D01*
X149916269Y-62496521D01*
X149636919Y-62591349D01*
X149372334Y-62721828D01*
X149127041Y-62885728D01*
X148905241Y-63080241D01*
X148710728Y-63302041D01*
X148546828Y-63547334D01*
X148416349Y-63811919D01*
X148321521Y-64091269D01*
X148321518Y-64091283D01*
X148263968Y-64380609D01*
X148263964Y-64380636D01*
X148244671Y-64674992D01*
X145000000Y-64674992D01*
X145000000Y-61124000D01*
X145019685Y-61056961D01*
X145072489Y-61011206D01*
X145124000Y-61000000D01*
X183376000Y-61000000D01*
X183443039Y-61019685D01*
G37*
%TD.AperFunction*%
%TD*%
%TA.AperFunction,Conductor*%
%TO.N,OrinGND*%
G36*
X124893039Y-50520185D02*
G01*
X124938794Y-50572989D01*
X124950000Y-50624500D01*
X124950000Y-105475049D01*
X124950000Y-107250000D01*
X100500500Y-107201003D01*
X100500500Y-86452135D01*
X112581823Y-86452135D01*
X112581823Y-88547870D01*
X112581824Y-88547876D01*
X112588231Y-88607483D01*
X112638525Y-88742328D01*
X112638529Y-88742335D01*
X112724775Y-88857544D01*
X112724778Y-88857547D01*
X112839987Y-88943793D01*
X112839994Y-88943797D01*
X112974840Y-88994091D01*
X112974839Y-88994091D01*
X112981767Y-88994835D01*
X113034450Y-89000500D01*
X115130195Y-89000499D01*
X115189806Y-88994091D01*
X115324654Y-88943796D01*
X115439869Y-88857546D01*
X115526119Y-88742331D01*
X115576414Y-88607483D01*
X115582823Y-88547873D01*
X115582822Y-87499994D01*
X117577182Y-87499994D01*
X117577182Y-87500005D01*
X117597708Y-87747729D01*
X117597710Y-87747738D01*
X117658735Y-87988717D01*
X117758590Y-88216367D01*
X117858885Y-88369881D01*
X118599360Y-87629408D01*
X118616398Y-87692993D01*
X118682224Y-87807007D01*
X118775316Y-87900099D01*
X118889330Y-87965925D01*
X118952914Y-87982962D01*
X118212266Y-88723609D01*
X118259091Y-88760055D01*
X118259094Y-88760057D01*
X118477708Y-88878364D01*
X118477719Y-88878369D01*
X118712829Y-88959083D01*
X118958030Y-89000000D01*
X119206616Y-89000000D01*
X119451816Y-88959083D01*
X119686926Y-88878369D01*
X119686937Y-88878364D01*
X119905553Y-88760056D01*
X119905559Y-88760051D01*
X119952378Y-88723610D01*
X119952379Y-88723609D01*
X119211731Y-87982962D01*
X119275316Y-87965925D01*
X119389330Y-87900099D01*
X119482422Y-87807007D01*
X119548248Y-87692993D01*
X119565285Y-87629409D01*
X120305758Y-88369882D01*
X120406056Y-88216364D01*
X120505910Y-87988717D01*
X120566935Y-87747738D01*
X120566937Y-87747729D01*
X120587464Y-87500005D01*
X120587464Y-87499994D01*
X120566937Y-87252270D01*
X120566935Y-87252261D01*
X120505910Y-87011282D01*
X120406055Y-86783632D01*
X120305758Y-86630116D01*
X119565285Y-87370590D01*
X119548248Y-87307007D01*
X119482422Y-87192993D01*
X119389330Y-87099901D01*
X119275316Y-87034075D01*
X119211732Y-87017037D01*
X119952378Y-86276389D01*
X119952378Y-86276388D01*
X119905559Y-86239947D01*
X119905554Y-86239944D01*
X119686937Y-86121635D01*
X119686926Y-86121630D01*
X119451816Y-86040916D01*
X119206616Y-86000000D01*
X118958030Y-86000000D01*
X118712829Y-86040916D01*
X118477719Y-86121630D01*
X118477708Y-86121635D01*
X118259093Y-86239943D01*
X118212266Y-86276389D01*
X118952914Y-87017037D01*
X118889330Y-87034075D01*
X118775316Y-87099901D01*
X118682224Y-87192993D01*
X118616398Y-87307007D01*
X118599360Y-87370591D01*
X117858886Y-86630117D01*
X117758590Y-86783633D01*
X117758588Y-86783637D01*
X117658735Y-87011282D01*
X117597710Y-87252261D01*
X117597708Y-87252270D01*
X117577182Y-87499994D01*
X115582822Y-87499994D01*
X115582822Y-86452128D01*
X115576414Y-86392517D01*
X115526119Y-86257669D01*
X115526118Y-86257668D01*
X115526116Y-86257664D01*
X115439870Y-86142455D01*
X115439867Y-86142452D01*
X115324658Y-86056206D01*
X115324651Y-86056202D01*
X115189805Y-86005908D01*
X115189806Y-86005908D01*
X115130206Y-85999501D01*
X115130204Y-85999500D01*
X115130196Y-85999500D01*
X115130187Y-85999500D01*
X113034452Y-85999500D01*
X113034446Y-85999501D01*
X112974839Y-86005908D01*
X112839994Y-86056202D01*
X112839987Y-86056206D01*
X112724778Y-86142452D01*
X112724775Y-86142455D01*
X112638529Y-86257664D01*
X112638525Y-86257671D01*
X112588231Y-86392517D01*
X112581824Y-86452116D01*
X112581824Y-86452123D01*
X112581823Y-86452135D01*
X100500500Y-86452135D01*
X100500500Y-64304773D01*
X111400000Y-64304773D01*
X111400000Y-65100000D01*
X112731116Y-65100000D01*
X112700000Y-65256433D01*
X112700000Y-65443567D01*
X112731116Y-65600000D01*
X111400001Y-65600000D01*
X111400001Y-66395227D01*
X111410566Y-66529474D01*
X111466423Y-66751152D01*
X111560962Y-66959287D01*
X111560967Y-66959296D01*
X111691151Y-67147203D01*
X111852796Y-67308848D01*
X112040703Y-67439032D01*
X112040712Y-67439037D01*
X112248847Y-67533576D01*
X112470525Y-67589433D01*
X112604780Y-67599999D01*
X113399999Y-67599999D01*
X113400000Y-67599998D01*
X113400000Y-66268883D01*
X113556433Y-66300000D01*
X113743567Y-66300000D01*
X113900000Y-66268883D01*
X113900000Y-67599999D01*
X114695212Y-67599999D01*
X114695227Y-67599998D01*
X114829474Y-67589433D01*
X115051152Y-67533576D01*
X115259287Y-67439037D01*
X115259296Y-67439032D01*
X115447203Y-67308848D01*
X115608848Y-67147203D01*
X115739032Y-66959296D01*
X115739037Y-66959287D01*
X115833576Y-66751152D01*
X115889433Y-66529474D01*
X115899999Y-66395226D01*
X115900000Y-66395213D01*
X115900000Y-65600000D01*
X114568884Y-65600000D01*
X114600000Y-65443567D01*
X114600000Y-65349992D01*
X116394671Y-65349992D01*
X116394671Y-65350007D01*
X116413964Y-65644363D01*
X116413965Y-65644373D01*
X116413966Y-65644380D01*
X116413968Y-65644390D01*
X116471518Y-65933716D01*
X116471521Y-65933730D01*
X116566349Y-66213080D01*
X116696825Y-66477660D01*
X116696829Y-66477667D01*
X116860725Y-66722955D01*
X117055241Y-66944758D01*
X117277043Y-67139273D01*
X117522335Y-67303172D01*
X117786923Y-67433652D01*
X118066278Y-67528481D01*
X118355620Y-67586034D01*
X118383888Y-67587886D01*
X118649993Y-67605329D01*
X118650000Y-67605329D01*
X118650007Y-67605329D01*
X118892522Y-67589433D01*
X118944380Y-67586034D01*
X119233722Y-67528481D01*
X119513077Y-67433652D01*
X119777665Y-67303172D01*
X120022957Y-67139273D01*
X120244758Y-66944758D01*
X120439273Y-66722957D01*
X120603172Y-66477665D01*
X120733652Y-66213077D01*
X120828481Y-65933722D01*
X120886034Y-65644380D01*
X120905329Y-65350000D01*
X120905329Y-65349992D01*
X120886035Y-65055636D01*
X120886034Y-65055620D01*
X120828481Y-64766278D01*
X120733652Y-64486923D01*
X120603172Y-64222336D01*
X120439273Y-63977043D01*
X120396655Y-63928447D01*
X120244758Y-63755241D01*
X120022955Y-63560725D01*
X119777667Y-63396829D01*
X119777660Y-63396825D01*
X119513080Y-63266349D01*
X119233730Y-63171521D01*
X119233724Y-63171519D01*
X119233722Y-63171519D01*
X118944380Y-63113966D01*
X118944373Y-63113965D01*
X118944363Y-63113964D01*
X118650007Y-63094671D01*
X118649993Y-63094671D01*
X118355636Y-63113964D01*
X118355624Y-63113965D01*
X118355620Y-63113966D01*
X118355612Y-63113967D01*
X118355609Y-63113968D01*
X118066283Y-63171518D01*
X118066269Y-63171521D01*
X117786919Y-63266349D01*
X117522334Y-63396828D01*
X117277041Y-63560728D01*
X117055241Y-63755241D01*
X116860728Y-63977041D01*
X116696828Y-64222334D01*
X116566349Y-64486919D01*
X116471521Y-64766269D01*
X116471518Y-64766283D01*
X116413968Y-65055609D01*
X116413964Y-65055636D01*
X116394671Y-65349992D01*
X114600000Y-65349992D01*
X114600000Y-65256433D01*
X114568884Y-65100000D01*
X115899999Y-65100000D01*
X115899999Y-64304787D01*
X115899998Y-64304772D01*
X115889433Y-64170525D01*
X115833576Y-63948847D01*
X115739037Y-63740712D01*
X115739032Y-63740703D01*
X115608848Y-63552796D01*
X115447203Y-63391151D01*
X115259296Y-63260967D01*
X115259287Y-63260962D01*
X115051152Y-63166423D01*
X114829474Y-63110566D01*
X114695226Y-63100000D01*
X113900000Y-63100000D01*
X113900000Y-64431116D01*
X113743567Y-64400000D01*
X113556433Y-64400000D01*
X113400000Y-64431116D01*
X113400000Y-63100000D01*
X112604787Y-63100000D01*
X112604772Y-63100001D01*
X112470525Y-63110566D01*
X112248847Y-63166423D01*
X112040712Y-63260962D01*
X112040703Y-63260967D01*
X111852796Y-63391151D01*
X111691151Y-63552796D01*
X111560967Y-63740703D01*
X111560962Y-63740712D01*
X111466423Y-63948847D01*
X111410566Y-64170525D01*
X111400000Y-64304773D01*
X100500500Y-64304773D01*
X100500500Y-60349999D01*
X109444357Y-60349999D01*
X109444357Y-60350000D01*
X109464884Y-60571535D01*
X109464885Y-60571537D01*
X109525769Y-60785523D01*
X109525775Y-60785538D01*
X109624938Y-60984683D01*
X109624943Y-60984691D01*
X109759020Y-61162238D01*
X109923437Y-61312123D01*
X109923439Y-61312125D01*
X110112595Y-61429245D01*
X110112596Y-61429245D01*
X110112599Y-61429247D01*
X110320060Y-61509618D01*
X110538757Y-61550500D01*
X110538759Y-61550500D01*
X110761241Y-61550500D01*
X110761243Y-61550500D01*
X110979940Y-61509618D01*
X111187401Y-61429247D01*
X111376562Y-61312124D01*
X111540981Y-61162236D01*
X111675058Y-60984689D01*
X111774229Y-60785528D01*
X111835115Y-60571536D01*
X111855643Y-60350000D01*
X111855643Y-60349999D01*
X120444357Y-60349999D01*
X120444357Y-60350000D01*
X120464884Y-60571535D01*
X120464885Y-60571537D01*
X120525769Y-60785523D01*
X120525775Y-60785538D01*
X120624938Y-60984683D01*
X120624943Y-60984691D01*
X120759020Y-61162238D01*
X120923437Y-61312123D01*
X120923439Y-61312125D01*
X121112595Y-61429245D01*
X121112596Y-61429245D01*
X121112599Y-61429247D01*
X121320060Y-61509618D01*
X121538757Y-61550500D01*
X121538759Y-61550500D01*
X121761241Y-61550500D01*
X121761243Y-61550500D01*
X121979940Y-61509618D01*
X122187401Y-61429247D01*
X122376562Y-61312124D01*
X122540981Y-61162236D01*
X122675058Y-60984689D01*
X122774229Y-60785528D01*
X122835115Y-60571536D01*
X122855643Y-60350000D01*
X122835115Y-60128464D01*
X122774229Y-59914472D01*
X122774224Y-59914461D01*
X122675061Y-59715316D01*
X122675056Y-59715308D01*
X122540979Y-59537761D01*
X122376562Y-59387876D01*
X122376560Y-59387874D01*
X122187404Y-59270754D01*
X122187398Y-59270752D01*
X121979940Y-59190382D01*
X121761243Y-59149500D01*
X121538757Y-59149500D01*
X121320060Y-59190382D01*
X121188864Y-59241207D01*
X121112601Y-59270752D01*
X121112595Y-59270754D01*
X120923439Y-59387874D01*
X120923437Y-59387876D01*
X120759020Y-59537761D01*
X120624943Y-59715308D01*
X120624938Y-59715316D01*
X120525775Y-59914461D01*
X120525769Y-59914476D01*
X120464885Y-60128462D01*
X120464884Y-60128464D01*
X120444357Y-60349999D01*
X111855643Y-60349999D01*
X111835115Y-60128464D01*
X111774229Y-59914472D01*
X111774224Y-59914461D01*
X111675061Y-59715316D01*
X111675056Y-59715308D01*
X111540979Y-59537761D01*
X111376562Y-59387876D01*
X111376560Y-59387874D01*
X111187404Y-59270754D01*
X111187398Y-59270752D01*
X110979940Y-59190382D01*
X110761243Y-59149500D01*
X110538757Y-59149500D01*
X110320060Y-59190382D01*
X110188864Y-59241207D01*
X110112601Y-59270752D01*
X110112595Y-59270754D01*
X109923439Y-59387874D01*
X109923437Y-59387876D01*
X109759020Y-59537761D01*
X109624943Y-59715308D01*
X109624938Y-59715316D01*
X109525775Y-59914461D01*
X109525769Y-59914476D01*
X109464885Y-60128462D01*
X109464884Y-60128464D01*
X109444357Y-60349999D01*
X100500500Y-60349999D01*
X100500500Y-55000000D01*
X102824428Y-55000000D01*
X102844690Y-55296240D01*
X102844691Y-55296242D01*
X102905100Y-55586950D01*
X102905105Y-55586967D01*
X103004539Y-55866746D01*
X103004538Y-55866746D01*
X103141149Y-56130393D01*
X103141153Y-56130399D01*
X103312378Y-56372970D01*
X103312382Y-56372974D01*
X103312384Y-56372977D01*
X103515056Y-56589986D01*
X103745390Y-56777377D01*
X103745392Y-56777378D01*
X103745393Y-56777379D01*
X103999096Y-56931659D01*
X103999101Y-56931661D01*
X104271440Y-57049954D01*
X104271445Y-57049956D01*
X104557367Y-57130068D01*
X104815986Y-57165614D01*
X104851533Y-57170500D01*
X104851534Y-57170500D01*
X105148467Y-57170500D01*
X105180180Y-57166140D01*
X105442633Y-57130068D01*
X105728555Y-57049956D01*
X106000905Y-56931658D01*
X106254610Y-56777377D01*
X106484944Y-56589986D01*
X106687616Y-56372977D01*
X106858851Y-56130392D01*
X106995459Y-55866750D01*
X107094896Y-55586962D01*
X107094897Y-55586955D01*
X107094899Y-55586950D01*
X107122942Y-55451994D01*
X107155309Y-55296240D01*
X107175572Y-55000000D01*
X107155309Y-54703760D01*
X107129078Y-54577528D01*
X107094899Y-54413049D01*
X107094894Y-54413032D01*
X106995460Y-54133253D01*
X106995461Y-54133253D01*
X106858850Y-53869606D01*
X106858846Y-53869600D01*
X106687621Y-53627029D01*
X106687617Y-53627025D01*
X106687616Y-53627023D01*
X106484944Y-53410014D01*
X106484937Y-53410009D01*
X106484936Y-53410007D01*
X106254606Y-53222620D01*
X106000903Y-53068340D01*
X106000898Y-53068338D01*
X105728559Y-52950045D01*
X105442638Y-52869933D01*
X105442634Y-52869932D01*
X105442633Y-52869932D01*
X105295549Y-52849716D01*
X105148467Y-52829500D01*
X105148466Y-52829500D01*
X104851534Y-52829500D01*
X104851533Y-52829500D01*
X104557367Y-52869932D01*
X104557361Y-52869933D01*
X104271440Y-52950045D01*
X103999101Y-53068338D01*
X103999096Y-53068340D01*
X103745393Y-53222620D01*
X103515063Y-53410007D01*
X103312378Y-53627029D01*
X103141153Y-53869600D01*
X103141149Y-53869606D01*
X103004539Y-54133253D01*
X102905105Y-54413032D01*
X102905100Y-54413049D01*
X102844691Y-54703757D01*
X102844690Y-54703759D01*
X102824428Y-55000000D01*
X100500500Y-55000000D01*
X100500500Y-50624500D01*
X100520185Y-50557461D01*
X100572989Y-50511706D01*
X100624500Y-50500500D01*
X124826000Y-50500500D01*
X124893039Y-50520185D01*
G37*
%TD.AperFunction*%
%TD*%
%TA.AperFunction,Conductor*%
%TO.N,OrinGND*%
G36*
X199442435Y-105420242D02*
G01*
X199488243Y-105473000D01*
X199499500Y-105524624D01*
X199499500Y-149375500D01*
X199479815Y-149442539D01*
X199427011Y-149488294D01*
X199375500Y-149499500D01*
X100624500Y-149499500D01*
X100557461Y-149479815D01*
X100511706Y-149427011D01*
X100500500Y-149375500D01*
X100500500Y-145000000D01*
X102824428Y-145000000D01*
X102844690Y-145296240D01*
X102844691Y-145296242D01*
X102905100Y-145586950D01*
X102905105Y-145586967D01*
X103004539Y-145866746D01*
X103004538Y-145866746D01*
X103141149Y-146130393D01*
X103141153Y-146130399D01*
X103312378Y-146372970D01*
X103312382Y-146372974D01*
X103312384Y-146372977D01*
X103515056Y-146589986D01*
X103745390Y-146777377D01*
X103745392Y-146777378D01*
X103745393Y-146777379D01*
X103999096Y-146931659D01*
X103999101Y-146931661D01*
X104271440Y-147049954D01*
X104271445Y-147049956D01*
X104557367Y-147130068D01*
X104815986Y-147165614D01*
X104851533Y-147170500D01*
X104851534Y-147170500D01*
X105148467Y-147170500D01*
X105180180Y-147166140D01*
X105442633Y-147130068D01*
X105728555Y-147049956D01*
X106000905Y-146931658D01*
X106254610Y-146777377D01*
X106484944Y-146589986D01*
X106687616Y-146372977D01*
X106858851Y-146130392D01*
X106995459Y-145866750D01*
X107094896Y-145586962D01*
X107094897Y-145586955D01*
X107094899Y-145586950D01*
X107122942Y-145451994D01*
X107155309Y-145296240D01*
X107175572Y-145000000D01*
X192824428Y-145000000D01*
X192844690Y-145296240D01*
X192844691Y-145296242D01*
X192905100Y-145586950D01*
X192905105Y-145586967D01*
X193004539Y-145866746D01*
X193004538Y-145866746D01*
X193141149Y-146130393D01*
X193141153Y-146130399D01*
X193312378Y-146372970D01*
X193312382Y-146372974D01*
X193312384Y-146372977D01*
X193515056Y-146589986D01*
X193745390Y-146777377D01*
X193745392Y-146777378D01*
X193745393Y-146777379D01*
X193999096Y-146931659D01*
X193999101Y-146931661D01*
X194271440Y-147049954D01*
X194271445Y-147049956D01*
X194557367Y-147130068D01*
X194815986Y-147165614D01*
X194851533Y-147170500D01*
X194851534Y-147170500D01*
X195148467Y-147170500D01*
X195180180Y-147166140D01*
X195442633Y-147130068D01*
X195728555Y-147049956D01*
X196000905Y-146931658D01*
X196254610Y-146777377D01*
X196484944Y-146589986D01*
X196687616Y-146372977D01*
X196858851Y-146130392D01*
X196995459Y-145866750D01*
X197094896Y-145586962D01*
X197094897Y-145586955D01*
X197094899Y-145586950D01*
X197122942Y-145451994D01*
X197155309Y-145296240D01*
X197175572Y-145000000D01*
X197155309Y-144703760D01*
X197129078Y-144577528D01*
X197094899Y-144413049D01*
X197094894Y-144413032D01*
X196995460Y-144133253D01*
X196995461Y-144133253D01*
X196858850Y-143869606D01*
X196858846Y-143869600D01*
X196687621Y-143627029D01*
X196687617Y-143627025D01*
X196687616Y-143627023D01*
X196484944Y-143410014D01*
X196484937Y-143410009D01*
X196484936Y-143410007D01*
X196254606Y-143222620D01*
X196000903Y-143068340D01*
X196000898Y-143068338D01*
X195728559Y-142950045D01*
X195442638Y-142869933D01*
X195442634Y-142869932D01*
X195442633Y-142869932D01*
X195295549Y-142849716D01*
X195148467Y-142829500D01*
X195148466Y-142829500D01*
X194851534Y-142829500D01*
X194851533Y-142829500D01*
X194557367Y-142869932D01*
X194557361Y-142869933D01*
X194271440Y-142950045D01*
X193999101Y-143068338D01*
X193999096Y-143068340D01*
X193745393Y-143222620D01*
X193515063Y-143410007D01*
X193312378Y-143627029D01*
X193141153Y-143869600D01*
X193141149Y-143869606D01*
X193004539Y-144133253D01*
X192905105Y-144413032D01*
X192905100Y-144413049D01*
X192844691Y-144703757D01*
X192844690Y-144703759D01*
X192824428Y-145000000D01*
X107175572Y-145000000D01*
X107155309Y-144703760D01*
X107129078Y-144577528D01*
X107094899Y-144413049D01*
X107094894Y-144413032D01*
X106995460Y-144133253D01*
X106995461Y-144133253D01*
X106858850Y-143869606D01*
X106858846Y-143869600D01*
X106687621Y-143627029D01*
X106687617Y-143627025D01*
X106687616Y-143627023D01*
X106484944Y-143410014D01*
X106484937Y-143410009D01*
X106484936Y-143410007D01*
X106254606Y-143222620D01*
X106000903Y-143068340D01*
X106000898Y-143068338D01*
X105728559Y-142950045D01*
X105442638Y-142869933D01*
X105442634Y-142869932D01*
X105442633Y-142869932D01*
X105295549Y-142849716D01*
X105148467Y-142829500D01*
X105148466Y-142829500D01*
X104851534Y-142829500D01*
X104851533Y-142829500D01*
X104557367Y-142869932D01*
X104557361Y-142869933D01*
X104271440Y-142950045D01*
X103999101Y-143068338D01*
X103999096Y-143068340D01*
X103745393Y-143222620D01*
X103515063Y-143410007D01*
X103312378Y-143627029D01*
X103141153Y-143869600D01*
X103141149Y-143869606D01*
X103004539Y-144133253D01*
X102905105Y-144413032D01*
X102905100Y-144413049D01*
X102844691Y-144703757D01*
X102844690Y-144703759D01*
X102824428Y-145000000D01*
X100500500Y-145000000D01*
X100500500Y-139852135D01*
X184499500Y-139852135D01*
X184499500Y-140847870D01*
X184499501Y-140847876D01*
X184505908Y-140907483D01*
X184556202Y-141042328D01*
X184556206Y-141042335D01*
X184642452Y-141157544D01*
X184642455Y-141157547D01*
X184757664Y-141243793D01*
X184757671Y-141243797D01*
X184892517Y-141294091D01*
X184892516Y-141294091D01*
X184899444Y-141294835D01*
X184952127Y-141300500D01*
X187047872Y-141300499D01*
X187107483Y-141294091D01*
X187242331Y-141243796D01*
X187357546Y-141157546D01*
X187443796Y-141042331D01*
X187494091Y-140907483D01*
X187500500Y-140847873D01*
X187500499Y-139852128D01*
X187494091Y-139792517D01*
X187478419Y-139750499D01*
X187443797Y-139657671D01*
X187443793Y-139657664D01*
X187357547Y-139542455D01*
X187357544Y-139542452D01*
X187242335Y-139456206D01*
X187242328Y-139456202D01*
X187107482Y-139405908D01*
X187107483Y-139405908D01*
X187047883Y-139399501D01*
X187047881Y-139399500D01*
X187047873Y-139399500D01*
X187047864Y-139399500D01*
X184952129Y-139399500D01*
X184952123Y-139399501D01*
X184892516Y-139405908D01*
X184757671Y-139456202D01*
X184757664Y-139456206D01*
X184642455Y-139542452D01*
X184642452Y-139542455D01*
X184556206Y-139657664D01*
X184556202Y-139657671D01*
X184505908Y-139792517D01*
X184499501Y-139852116D01*
X184499501Y-139852123D01*
X184499500Y-139852135D01*
X100500500Y-139852135D01*
X100500500Y-137199994D01*
X177444457Y-137199994D01*
X177444457Y-137200005D01*
X177464606Y-137520283D01*
X177464607Y-137520290D01*
X177524745Y-137835542D01*
X177623916Y-138140759D01*
X177623918Y-138140764D01*
X177760558Y-138431138D01*
X177760562Y-138431144D01*
X177932520Y-138702108D01*
X177932522Y-138702111D01*
X178137087Y-138949388D01*
X178371034Y-139169078D01*
X178371044Y-139169086D01*
X178630660Y-139357708D01*
X178630666Y-139357711D01*
X178630672Y-139357716D01*
X178911903Y-139512324D01*
X179210294Y-139630466D01*
X179210293Y-139630466D01*
X179521135Y-139710276D01*
X179521139Y-139710277D01*
X179587935Y-139718715D01*
X179839524Y-139750499D01*
X179839533Y-139750499D01*
X179839536Y-139750500D01*
X179839538Y-139750500D01*
X180160462Y-139750500D01*
X180160464Y-139750500D01*
X180160467Y-139750499D01*
X180160475Y-139750499D01*
X180350463Y-139726497D01*
X180478861Y-139710277D01*
X180789706Y-139630466D01*
X181088097Y-139512324D01*
X181369328Y-139357716D01*
X181628964Y-139169080D01*
X181862911Y-138949390D01*
X182067478Y-138702110D01*
X182239439Y-138431142D01*
X182376084Y-138140758D01*
X182475256Y-137835538D01*
X182535392Y-137520294D01*
X182555543Y-137200000D01*
X182535392Y-136879706D01*
X182475256Y-136564462D01*
X182376084Y-136259242D01*
X182376081Y-136259235D01*
X182239441Y-135968861D01*
X182239437Y-135968855D01*
X182067479Y-135697891D01*
X182067477Y-135697888D01*
X181862912Y-135450611D01*
X181628965Y-135230921D01*
X181628955Y-135230913D01*
X181369339Y-135042291D01*
X181369321Y-135042280D01*
X181088096Y-134887675D01*
X181088093Y-134887674D01*
X180789703Y-134769533D01*
X180789706Y-134769533D01*
X180478864Y-134689723D01*
X180478851Y-134689721D01*
X180160475Y-134649500D01*
X180160464Y-134649500D01*
X179839536Y-134649500D01*
X179839524Y-134649500D01*
X179521148Y-134689721D01*
X179521135Y-134689723D01*
X179210294Y-134769533D01*
X178911906Y-134887674D01*
X178911903Y-134887675D01*
X178630678Y-135042280D01*
X178630660Y-135042291D01*
X178371044Y-135230913D01*
X178371034Y-135230921D01*
X178137087Y-135450611D01*
X177932522Y-135697888D01*
X177932520Y-135697891D01*
X177760562Y-135968855D01*
X177760558Y-135968861D01*
X177623918Y-136259235D01*
X177623916Y-136259240D01*
X177524745Y-136564457D01*
X177464607Y-136879709D01*
X177464606Y-136879716D01*
X177444457Y-137199994D01*
X100500500Y-137199994D01*
X100500500Y-124999998D01*
X125694532Y-124999998D01*
X125694532Y-125000001D01*
X125714364Y-125226686D01*
X125714366Y-125226697D01*
X125773258Y-125446488D01*
X125773261Y-125446497D01*
X125869431Y-125652732D01*
X125869432Y-125652734D01*
X125999954Y-125839141D01*
X126160858Y-126000045D01*
X126160861Y-126000047D01*
X126347266Y-126130568D01*
X126362975Y-126137893D01*
X126415414Y-126184064D01*
X126434567Y-126251257D01*
X126414352Y-126318138D01*
X126362979Y-126362656D01*
X126347514Y-126369867D01*
X126347512Y-126369868D01*
X126274526Y-126420973D01*
X126274526Y-126420974D01*
X126953553Y-127100000D01*
X126947339Y-127100000D01*
X126845606Y-127127259D01*
X126754394Y-127179920D01*
X126679920Y-127254394D01*
X126627259Y-127345606D01*
X126600000Y-127447339D01*
X126600000Y-127453552D01*
X125920974Y-126774526D01*
X125920973Y-126774526D01*
X125869868Y-126847512D01*
X125869866Y-126847516D01*
X125773734Y-127053673D01*
X125773730Y-127053682D01*
X125714860Y-127273389D01*
X125714858Y-127273400D01*
X125695034Y-127499997D01*
X125695034Y-127500002D01*
X125714858Y-127726599D01*
X125714860Y-127726610D01*
X125773730Y-127946317D01*
X125773735Y-127946331D01*
X125869863Y-128152478D01*
X125920974Y-128225472D01*
X126600000Y-127546446D01*
X126600000Y-127552661D01*
X126627259Y-127654394D01*
X126679920Y-127745606D01*
X126754394Y-127820080D01*
X126845606Y-127872741D01*
X126947339Y-127900000D01*
X126953553Y-127900000D01*
X126274526Y-128579025D01*
X126347513Y-128630132D01*
X126347521Y-128630136D01*
X126553668Y-128726264D01*
X126553682Y-128726269D01*
X126773389Y-128785139D01*
X126773400Y-128785141D01*
X126999998Y-128804966D01*
X127000002Y-128804966D01*
X127226599Y-128785141D01*
X127226610Y-128785139D01*
X127446317Y-128726269D01*
X127446331Y-128726264D01*
X127652478Y-128630136D01*
X127725471Y-128579024D01*
X127046447Y-127900000D01*
X127052661Y-127900000D01*
X127154394Y-127872741D01*
X127245606Y-127820080D01*
X127320080Y-127745606D01*
X127372741Y-127654394D01*
X127400000Y-127552661D01*
X127400000Y-127546447D01*
X128079024Y-128225471D01*
X128130136Y-128152478D01*
X128226264Y-127946331D01*
X128226269Y-127946317D01*
X128285139Y-127726610D01*
X128285141Y-127726599D01*
X128304966Y-127500002D01*
X128304966Y-127499997D01*
X128285141Y-127273400D01*
X128285139Y-127273389D01*
X128226269Y-127053682D01*
X128226264Y-127053668D01*
X128130136Y-126847521D01*
X128130132Y-126847513D01*
X128079025Y-126774526D01*
X127400000Y-127453551D01*
X127400000Y-127447339D01*
X127372741Y-127345606D01*
X127320080Y-127254394D01*
X127245606Y-127179920D01*
X127154394Y-127127259D01*
X127052661Y-127100000D01*
X127046445Y-127100000D01*
X127725472Y-126420974D01*
X127652480Y-126369864D01*
X127637024Y-126362657D01*
X127584585Y-126316484D01*
X127565433Y-126249290D01*
X127585649Y-126182409D01*
X127637023Y-126137893D01*
X127652734Y-126130568D01*
X127839139Y-126000047D01*
X128000047Y-125839139D01*
X128130568Y-125652734D01*
X128226739Y-125446496D01*
X128285635Y-125226692D01*
X128305468Y-125000000D01*
X128288464Y-124805646D01*
X138499500Y-124805646D01*
X138499500Y-125034353D01*
X138535278Y-125260246D01*
X138535278Y-125260249D01*
X138605950Y-125477755D01*
X138605952Y-125477758D01*
X138709783Y-125681538D01*
X138844214Y-125866566D01*
X139005934Y-126028286D01*
X139090864Y-126089991D01*
X139133529Y-126145321D01*
X139139508Y-126214935D01*
X139106902Y-126276730D01*
X139090864Y-126290627D01*
X139006257Y-126352097D01*
X138844597Y-126513757D01*
X138710211Y-126698723D01*
X138606417Y-126902429D01*
X138535765Y-127119871D01*
X138521491Y-127210000D01*
X139509252Y-127210000D01*
X139487482Y-127247708D01*
X139450000Y-127387591D01*
X139450000Y-127532409D01*
X139487482Y-127672292D01*
X139509252Y-127710000D01*
X138521491Y-127710000D01*
X138535765Y-127800128D01*
X138606417Y-128017570D01*
X138710213Y-128221279D01*
X138843011Y-128404060D01*
X138866491Y-128469866D01*
X138850666Y-128537920D01*
X138800560Y-128586615D01*
X138786026Y-128593127D01*
X138757671Y-128603702D01*
X138757664Y-128603706D01*
X138642455Y-128689952D01*
X138642452Y-128689955D01*
X138556206Y-128805164D01*
X138556202Y-128805171D01*
X138505908Y-128940017D01*
X138499501Y-128999616D01*
X138499501Y-128999623D01*
X138499500Y-128999635D01*
X138499500Y-131000370D01*
X138499501Y-131000376D01*
X138505908Y-131059983D01*
X138556202Y-131194828D01*
X138556206Y-131194835D01*
X138642452Y-131310044D01*
X138642455Y-131310047D01*
X138757664Y-131396293D01*
X138757671Y-131396297D01*
X138892517Y-131446591D01*
X138892516Y-131446591D01*
X138899444Y-131447335D01*
X138952127Y-131453000D01*
X141047872Y-131452999D01*
X141107483Y-131446591D01*
X141242331Y-131396296D01*
X141357546Y-131310046D01*
X141443796Y-131194831D01*
X141494091Y-131059983D01*
X141500500Y-131000373D01*
X141500499Y-129999998D01*
X142694532Y-129999998D01*
X142694532Y-130000001D01*
X142714364Y-130226686D01*
X142714366Y-130226697D01*
X142773258Y-130446488D01*
X142773261Y-130446497D01*
X142869431Y-130652732D01*
X142869432Y-130652734D01*
X142999954Y-130839141D01*
X143160858Y-131000045D01*
X143161331Y-131000376D01*
X143347266Y-131130568D01*
X143553504Y-131226739D01*
X143773308Y-131285635D01*
X143935230Y-131299801D01*
X143999998Y-131305468D01*
X144000000Y-131305468D01*
X144000002Y-131305468D01*
X144056673Y-131300509D01*
X144226692Y-131285635D01*
X144446496Y-131226739D01*
X144652734Y-131130568D01*
X144839139Y-131000047D01*
X145000047Y-130839139D01*
X145130568Y-130652734D01*
X145226739Y-130446496D01*
X145285635Y-130226692D01*
X145305468Y-130000000D01*
X145285635Y-129773308D01*
X145226739Y-129553504D01*
X145130568Y-129347266D01*
X145000047Y-129160861D01*
X145000045Y-129160858D01*
X144839141Y-128999954D01*
X144652734Y-128869432D01*
X144652730Y-128869430D01*
X144637022Y-128862105D01*
X144584583Y-128815931D01*
X144565433Y-128748737D01*
X144585650Y-128681857D01*
X144637028Y-128637340D01*
X144652481Y-128630134D01*
X144725471Y-128579024D01*
X144046447Y-127900000D01*
X144052661Y-127900000D01*
X144154394Y-127872741D01*
X144245606Y-127820080D01*
X144320080Y-127745606D01*
X144372741Y-127654394D01*
X144400000Y-127552661D01*
X144400000Y-127546447D01*
X145079024Y-128225471D01*
X145130136Y-128152478D01*
X145226264Y-127946331D01*
X145226269Y-127946317D01*
X145285139Y-127726610D01*
X145285141Y-127726599D01*
X145304966Y-127500002D01*
X145304966Y-127499997D01*
X145285141Y-127273400D01*
X145285139Y-127273389D01*
X145226269Y-127053682D01*
X145226264Y-127053668D01*
X145130136Y-126847521D01*
X145130132Y-126847513D01*
X145079025Y-126774526D01*
X144400000Y-127453551D01*
X144400000Y-127447339D01*
X144372741Y-127345606D01*
X144320080Y-127254394D01*
X144245606Y-127179920D01*
X144154394Y-127127259D01*
X144052661Y-127100000D01*
X144046445Y-127100000D01*
X144725472Y-126420974D01*
X144652478Y-126369863D01*
X144446331Y-126273735D01*
X144446317Y-126273730D01*
X144226610Y-126214860D01*
X144226599Y-126214858D01*
X144000002Y-126195034D01*
X143999998Y-126195034D01*
X143773400Y-126214858D01*
X143773389Y-126214860D01*
X143553682Y-126273730D01*
X143553673Y-126273734D01*
X143347516Y-126369866D01*
X143347512Y-126369868D01*
X143274526Y-126420973D01*
X143274526Y-126420974D01*
X143953553Y-127100000D01*
X143947339Y-127100000D01*
X143845606Y-127127259D01*
X143754394Y-127179920D01*
X143679920Y-127254394D01*
X143627259Y-127345606D01*
X143600000Y-127447339D01*
X143600000Y-127453553D01*
X142920973Y-126774526D01*
X142869868Y-126847512D01*
X142869866Y-126847516D01*
X142773734Y-127053673D01*
X142773730Y-127053682D01*
X142714860Y-127273389D01*
X142714858Y-127273400D01*
X142695034Y-127499997D01*
X142695034Y-127500002D01*
X142714858Y-127726599D01*
X142714860Y-127726610D01*
X142773730Y-127946317D01*
X142773735Y-127946331D01*
X142869863Y-128152478D01*
X142920974Y-128225472D01*
X143600000Y-127546446D01*
X143600000Y-127552661D01*
X143627259Y-127654394D01*
X143679920Y-127745606D01*
X143754394Y-127820080D01*
X143845606Y-127872741D01*
X143947339Y-127900000D01*
X143953553Y-127900000D01*
X143274526Y-128579025D01*
X143347513Y-128630132D01*
X143347515Y-128630133D01*
X143362973Y-128637341D01*
X143415413Y-128683513D01*
X143434566Y-128750706D01*
X143414351Y-128817587D01*
X143362979Y-128862104D01*
X143347270Y-128869429D01*
X143347265Y-128869432D01*
X143160858Y-128999954D01*
X142999954Y-129160858D01*
X142869432Y-129347265D01*
X142869431Y-129347267D01*
X142773261Y-129553502D01*
X142773258Y-129553511D01*
X142714366Y-129773302D01*
X142714364Y-129773313D01*
X142694532Y-129999998D01*
X141500499Y-129999998D01*
X141500499Y-128999628D01*
X141494091Y-128940017D01*
X141480921Y-128904707D01*
X141443797Y-128805171D01*
X141443793Y-128805164D01*
X141357547Y-128689955D01*
X141357544Y-128689952D01*
X141242335Y-128603706D01*
X141242326Y-128603701D01*
X141213974Y-128593127D01*
X141158040Y-128551257D01*
X141133622Y-128485792D01*
X141148473Y-128417519D01*
X141156988Y-128404059D01*
X141289788Y-128221276D01*
X141393582Y-128017570D01*
X141464234Y-127800128D01*
X141478509Y-127710000D01*
X140490748Y-127710000D01*
X140512518Y-127672292D01*
X140550000Y-127532409D01*
X140550000Y-127387591D01*
X140512518Y-127247708D01*
X140490748Y-127210000D01*
X141478509Y-127210000D01*
X141464234Y-127119871D01*
X141393582Y-126902429D01*
X141289788Y-126698723D01*
X141155402Y-126513757D01*
X140993742Y-126352097D01*
X140909135Y-126290626D01*
X140866470Y-126235296D01*
X140860491Y-126165682D01*
X140893097Y-126103887D01*
X140909125Y-126089999D01*
X140994066Y-126028286D01*
X141155786Y-125866566D01*
X141290217Y-125681538D01*
X141394048Y-125477758D01*
X141464722Y-125260245D01*
X141500500Y-125034354D01*
X141500500Y-124999998D01*
X145694532Y-124999998D01*
X145694532Y-125000001D01*
X145714364Y-125226686D01*
X145714366Y-125226697D01*
X145773258Y-125446488D01*
X145773261Y-125446497D01*
X145869431Y-125652732D01*
X145869432Y-125652734D01*
X145999954Y-125839141D01*
X146160858Y-126000045D01*
X146160861Y-126000047D01*
X146347266Y-126130568D01*
X146362975Y-126137893D01*
X146415414Y-126184064D01*
X146434567Y-126251257D01*
X146414352Y-126318138D01*
X146362979Y-126362656D01*
X146347514Y-126369867D01*
X146347512Y-126369868D01*
X146274526Y-126420973D01*
X146274526Y-126420974D01*
X146953553Y-127100000D01*
X146947339Y-127100000D01*
X146845606Y-127127259D01*
X146754394Y-127179920D01*
X146679920Y-127254394D01*
X146627259Y-127345606D01*
X146600000Y-127447339D01*
X146600000Y-127453553D01*
X145920973Y-126774526D01*
X145869868Y-126847512D01*
X145869866Y-126847516D01*
X145773734Y-127053673D01*
X145773730Y-127053682D01*
X145714860Y-127273389D01*
X145714858Y-127273400D01*
X145695034Y-127499997D01*
X145695034Y-127500002D01*
X145714858Y-127726599D01*
X145714860Y-127726610D01*
X145773730Y-127946317D01*
X145773735Y-127946331D01*
X145869863Y-128152478D01*
X145920974Y-128225472D01*
X146600000Y-127546446D01*
X146600000Y-127552661D01*
X146627259Y-127654394D01*
X146679920Y-127745606D01*
X146754394Y-127820080D01*
X146845606Y-127872741D01*
X146947339Y-127900000D01*
X146953553Y-127900000D01*
X146274526Y-128579025D01*
X146347513Y-128630132D01*
X146347521Y-128630136D01*
X146553668Y-128726264D01*
X146553682Y-128726269D01*
X146773389Y-128785139D01*
X146773400Y-128785141D01*
X146999998Y-128804966D01*
X147000002Y-128804966D01*
X147226599Y-128785141D01*
X147226610Y-128785139D01*
X147446317Y-128726269D01*
X147446331Y-128726264D01*
X147652478Y-128630136D01*
X147725471Y-128579024D01*
X147046447Y-127900000D01*
X147052661Y-127900000D01*
X147154394Y-127872741D01*
X147245606Y-127820080D01*
X147320080Y-127745606D01*
X147372741Y-127654394D01*
X147400000Y-127552661D01*
X147400000Y-127546447D01*
X148079024Y-128225471D01*
X148130136Y-128152478D01*
X148226264Y-127946331D01*
X148226269Y-127946317D01*
X148285139Y-127726610D01*
X148285141Y-127726599D01*
X148304966Y-127500002D01*
X148304966Y-127499997D01*
X148285141Y-127273400D01*
X148285139Y-127273389D01*
X148226269Y-127053682D01*
X148226264Y-127053668D01*
X148130136Y-126847521D01*
X148130132Y-126847513D01*
X148079025Y-126774526D01*
X147400000Y-127453551D01*
X147400000Y-127447339D01*
X147372741Y-127345606D01*
X147320080Y-127254394D01*
X147245606Y-127179920D01*
X147154394Y-127127259D01*
X147052661Y-127100000D01*
X147046445Y-127100000D01*
X147725472Y-126420974D01*
X147652480Y-126369864D01*
X147637024Y-126362657D01*
X147584585Y-126316484D01*
X147565433Y-126249290D01*
X147585649Y-126182409D01*
X147637023Y-126137893D01*
X147652734Y-126130568D01*
X147839139Y-126000047D01*
X148000047Y-125839139D01*
X148130568Y-125652734D01*
X148226739Y-125446496D01*
X148285635Y-125226692D01*
X148305468Y-125000000D01*
X148288464Y-124805646D01*
X158499500Y-124805646D01*
X158499500Y-125034353D01*
X158535278Y-125260246D01*
X158535278Y-125260249D01*
X158605950Y-125477755D01*
X158605952Y-125477758D01*
X158709783Y-125681538D01*
X158844214Y-125866566D01*
X159005934Y-126028286D01*
X159090864Y-126089991D01*
X159133529Y-126145321D01*
X159139508Y-126214935D01*
X159106902Y-126276730D01*
X159090864Y-126290627D01*
X159006257Y-126352097D01*
X158844597Y-126513757D01*
X158710211Y-126698723D01*
X158606417Y-126902429D01*
X158535765Y-127119871D01*
X158521491Y-127210000D01*
X159509252Y-127210000D01*
X159487482Y-127247708D01*
X159450000Y-127387591D01*
X159450000Y-127532409D01*
X159487482Y-127672292D01*
X159509252Y-127710000D01*
X158521491Y-127710000D01*
X158535765Y-127800128D01*
X158606417Y-128017570D01*
X158710213Y-128221279D01*
X158843011Y-128404060D01*
X158866491Y-128469866D01*
X158850666Y-128537920D01*
X158800560Y-128586615D01*
X158786026Y-128593127D01*
X158757671Y-128603702D01*
X158757664Y-128603706D01*
X158642455Y-128689952D01*
X158642452Y-128689955D01*
X158556206Y-128805164D01*
X158556202Y-128805171D01*
X158505908Y-128940017D01*
X158499501Y-128999616D01*
X158499501Y-128999623D01*
X158499500Y-128999635D01*
X158499500Y-131000370D01*
X158499501Y-131000376D01*
X158505908Y-131059983D01*
X158556202Y-131194828D01*
X158556206Y-131194835D01*
X158642452Y-131310044D01*
X158642455Y-131310047D01*
X158757664Y-131396293D01*
X158757671Y-131396297D01*
X158892517Y-131446591D01*
X158892516Y-131446591D01*
X158899444Y-131447335D01*
X158952127Y-131453000D01*
X161047872Y-131452999D01*
X161107483Y-131446591D01*
X161242331Y-131396296D01*
X161357546Y-131310046D01*
X161443796Y-131194831D01*
X161494091Y-131059983D01*
X161500500Y-131000373D01*
X161500499Y-129999998D01*
X162694532Y-129999998D01*
X162694532Y-130000001D01*
X162714364Y-130226686D01*
X162714366Y-130226697D01*
X162773258Y-130446488D01*
X162773261Y-130446497D01*
X162869431Y-130652732D01*
X162869432Y-130652734D01*
X162999954Y-130839141D01*
X163160858Y-131000045D01*
X163161331Y-131000376D01*
X163347266Y-131130568D01*
X163553504Y-131226739D01*
X163773308Y-131285635D01*
X163935230Y-131299801D01*
X163999998Y-131305468D01*
X164000000Y-131305468D01*
X164000002Y-131305468D01*
X164056673Y-131300509D01*
X164226692Y-131285635D01*
X164446496Y-131226739D01*
X164652734Y-131130568D01*
X164839139Y-131000047D01*
X165000047Y-130839139D01*
X165130568Y-130652734D01*
X165226739Y-130446496D01*
X165285635Y-130226692D01*
X165305468Y-130000000D01*
X165285635Y-129773308D01*
X165226739Y-129553504D01*
X165130568Y-129347266D01*
X165000047Y-129160861D01*
X165000045Y-129160858D01*
X164839141Y-128999954D01*
X164703105Y-128904702D01*
X177449500Y-128904702D01*
X177449500Y-131095292D01*
X177449501Y-131095298D01*
X177459718Y-131240027D01*
X177459718Y-131240031D01*
X177459719Y-131240034D01*
X177459720Y-131240038D01*
X177513834Y-131480314D01*
X177513835Y-131480319D01*
X177605795Y-131708809D01*
X177733216Y-131919589D01*
X177733219Y-131919592D01*
X177892798Y-132107201D01*
X178002990Y-132200930D01*
X178080411Y-132266784D01*
X178291191Y-132394205D01*
X178519683Y-132486165D01*
X178759966Y-132540281D01*
X178904705Y-132550500D01*
X181095294Y-132550499D01*
X181240034Y-132540281D01*
X181480317Y-132486165D01*
X181708809Y-132394205D01*
X181919589Y-132266784D01*
X182107201Y-132107201D01*
X182266784Y-131919589D01*
X182394205Y-131708809D01*
X182486165Y-131480317D01*
X182540281Y-131240034D01*
X182550500Y-131095295D01*
X182550499Y-128904706D01*
X182540281Y-128759966D01*
X182486165Y-128519683D01*
X182394205Y-128291191D01*
X182266784Y-128080411D01*
X182175010Y-127972518D01*
X182107201Y-127892798D01*
X181932027Y-127743796D01*
X181919589Y-127733216D01*
X181708809Y-127605795D01*
X181551121Y-127542331D01*
X181480318Y-127513835D01*
X181240036Y-127459719D01*
X181240029Y-127459718D01*
X181095296Y-127449500D01*
X178904707Y-127449500D01*
X178904701Y-127449501D01*
X178759972Y-127459718D01*
X178759966Y-127459718D01*
X178759966Y-127459719D01*
X178759963Y-127459719D01*
X178759961Y-127459720D01*
X178519685Y-127513834D01*
X178519680Y-127513835D01*
X178291190Y-127605795D01*
X178291185Y-127605798D01*
X178080417Y-127733212D01*
X178080407Y-127733219D01*
X177892798Y-127892798D01*
X177733219Y-128080407D01*
X177733212Y-128080417D01*
X177605798Y-128291185D01*
X177605795Y-128291190D01*
X177513835Y-128519680D01*
X177513835Y-128519682D01*
X177459719Y-128759963D01*
X177459718Y-128759970D01*
X177449500Y-128904702D01*
X164703105Y-128904702D01*
X164652734Y-128869432D01*
X164652730Y-128869430D01*
X164637022Y-128862105D01*
X164584583Y-128815931D01*
X164565433Y-128748737D01*
X164585650Y-128681857D01*
X164637028Y-128637340D01*
X164652481Y-128630134D01*
X164725471Y-128579024D01*
X164046447Y-127900000D01*
X164052661Y-127900000D01*
X164154394Y-127872741D01*
X164245606Y-127820080D01*
X164320080Y-127745606D01*
X164372741Y-127654394D01*
X164400000Y-127552661D01*
X164400000Y-127546447D01*
X165079024Y-128225471D01*
X165130136Y-128152478D01*
X165226264Y-127946331D01*
X165226269Y-127946317D01*
X165285139Y-127726610D01*
X165285141Y-127726599D01*
X165304966Y-127500002D01*
X165304966Y-127499997D01*
X165285141Y-127273400D01*
X165285139Y-127273389D01*
X165226269Y-127053682D01*
X165226264Y-127053668D01*
X165130136Y-126847521D01*
X165130132Y-126847513D01*
X165079025Y-126774526D01*
X164400000Y-127453551D01*
X164400000Y-127447339D01*
X164372741Y-127345606D01*
X164320080Y-127254394D01*
X164245606Y-127179920D01*
X164154394Y-127127259D01*
X164052661Y-127100000D01*
X164046445Y-127100000D01*
X164725472Y-126420974D01*
X164652478Y-126369863D01*
X164614460Y-126352135D01*
X184499500Y-126352135D01*
X184499500Y-127347870D01*
X184499501Y-127347876D01*
X184505908Y-127407483D01*
X184556202Y-127542328D01*
X184556206Y-127542335D01*
X184642452Y-127657544D01*
X184642455Y-127657547D01*
X184757664Y-127743793D01*
X184757671Y-127743797D01*
X184892517Y-127794091D01*
X184892516Y-127794091D01*
X184899444Y-127794835D01*
X184952127Y-127800500D01*
X187047872Y-127800499D01*
X187107483Y-127794091D01*
X187242331Y-127743796D01*
X187357546Y-127657546D01*
X187443796Y-127542331D01*
X187494091Y-127407483D01*
X187500500Y-127347873D01*
X187500499Y-126352128D01*
X187494091Y-126292517D01*
X187491524Y-126285635D01*
X187443797Y-126157671D01*
X187443793Y-126157664D01*
X187357547Y-126042455D01*
X187357544Y-126042452D01*
X187242335Y-125956206D01*
X187242328Y-125956202D01*
X187107482Y-125905908D01*
X187107483Y-125905908D01*
X187047883Y-125899501D01*
X187047881Y-125899500D01*
X187047873Y-125899500D01*
X187047864Y-125899500D01*
X184952129Y-125899500D01*
X184952123Y-125899501D01*
X184892516Y-125905908D01*
X184757671Y-125956202D01*
X184757664Y-125956206D01*
X184642455Y-126042452D01*
X184642452Y-126042455D01*
X184556206Y-126157664D01*
X184556202Y-126157671D01*
X184505908Y-126292517D01*
X184499503Y-126352097D01*
X184499501Y-126352123D01*
X184499500Y-126352135D01*
X164614460Y-126352135D01*
X164446331Y-126273735D01*
X164446317Y-126273730D01*
X164226610Y-126214860D01*
X164226599Y-126214858D01*
X164000002Y-126195034D01*
X163999998Y-126195034D01*
X163773400Y-126214858D01*
X163773389Y-126214860D01*
X163553682Y-126273730D01*
X163553673Y-126273734D01*
X163347516Y-126369866D01*
X163347512Y-126369868D01*
X163274526Y-126420973D01*
X163274526Y-126420974D01*
X163953553Y-127100000D01*
X163947339Y-127100000D01*
X163845606Y-127127259D01*
X163754394Y-127179920D01*
X163679920Y-127254394D01*
X163627259Y-127345606D01*
X163600000Y-127447339D01*
X163600000Y-127453552D01*
X162920974Y-126774526D01*
X162920973Y-126774526D01*
X162869868Y-126847512D01*
X162869866Y-126847516D01*
X162773734Y-127053673D01*
X162773730Y-127053682D01*
X162714860Y-127273389D01*
X162714858Y-127273400D01*
X162695034Y-127499997D01*
X162695034Y-127500002D01*
X162714858Y-127726599D01*
X162714860Y-127726610D01*
X162773730Y-127946317D01*
X162773735Y-127946331D01*
X162869863Y-128152478D01*
X162920974Y-128225472D01*
X163600000Y-127546446D01*
X163600000Y-127552661D01*
X163627259Y-127654394D01*
X163679920Y-127745606D01*
X163754394Y-127820080D01*
X163845606Y-127872741D01*
X163947339Y-127900000D01*
X163953553Y-127900000D01*
X163274526Y-128579025D01*
X163347513Y-128630132D01*
X163347515Y-128630133D01*
X163362973Y-128637341D01*
X163415413Y-128683513D01*
X163434566Y-128750706D01*
X163414351Y-128817587D01*
X163362979Y-128862104D01*
X163347270Y-128869429D01*
X163347265Y-128869432D01*
X163160858Y-128999954D01*
X162999954Y-129160858D01*
X162869432Y-129347265D01*
X162869431Y-129347267D01*
X162773261Y-129553502D01*
X162773258Y-129553511D01*
X162714366Y-129773302D01*
X162714364Y-129773313D01*
X162694532Y-129999998D01*
X161500499Y-129999998D01*
X161500499Y-128999628D01*
X161494091Y-128940017D01*
X161480921Y-128904707D01*
X161443797Y-128805171D01*
X161443793Y-128805164D01*
X161357547Y-128689955D01*
X161357544Y-128689952D01*
X161242335Y-128603706D01*
X161242326Y-128603701D01*
X161213974Y-128593127D01*
X161158040Y-128551257D01*
X161133622Y-128485792D01*
X161148473Y-128417519D01*
X161156988Y-128404059D01*
X161289788Y-128221276D01*
X161393582Y-128017570D01*
X161464234Y-127800128D01*
X161478509Y-127710000D01*
X160490748Y-127710000D01*
X160512518Y-127672292D01*
X160550000Y-127532409D01*
X160550000Y-127387591D01*
X160512518Y-127247708D01*
X160490748Y-127210000D01*
X161478509Y-127210000D01*
X161464234Y-127119871D01*
X161393582Y-126902429D01*
X161289788Y-126698723D01*
X161155402Y-126513757D01*
X160993742Y-126352097D01*
X160909135Y-126290626D01*
X160866470Y-126235296D01*
X160860491Y-126165682D01*
X160893097Y-126103887D01*
X160909125Y-126089999D01*
X160994066Y-126028286D01*
X161155786Y-125866566D01*
X161290217Y-125681538D01*
X161394048Y-125477758D01*
X161464722Y-125260245D01*
X161500500Y-125034354D01*
X161500500Y-124805646D01*
X161464722Y-124579755D01*
X161464721Y-124579751D01*
X161464721Y-124579750D01*
X161394049Y-124362244D01*
X161291439Y-124160861D01*
X161290217Y-124158462D01*
X161155786Y-123973434D01*
X160994066Y-123811714D01*
X160809038Y-123677283D01*
X160605255Y-123573450D01*
X160387748Y-123502778D01*
X160218326Y-123475944D01*
X160161854Y-123467000D01*
X159838146Y-123467000D01*
X159762849Y-123478926D01*
X159612253Y-123502778D01*
X159612250Y-123502778D01*
X159394744Y-123573450D01*
X159190961Y-123677283D01*
X159085396Y-123753980D01*
X159005934Y-123811714D01*
X159005932Y-123811716D01*
X159005931Y-123811716D01*
X158844216Y-123973431D01*
X158844216Y-123973432D01*
X158844214Y-123973434D01*
X158824947Y-123999953D01*
X158709783Y-124158461D01*
X158605950Y-124362244D01*
X158535278Y-124579750D01*
X158535278Y-124579753D01*
X158499500Y-124805646D01*
X148288464Y-124805646D01*
X148285635Y-124773308D01*
X148226739Y-124553504D01*
X148130568Y-124347266D01*
X148000047Y-124160861D01*
X148000045Y-124160858D01*
X147839141Y-123999954D01*
X147652734Y-123869432D01*
X147652732Y-123869431D01*
X147446497Y-123773261D01*
X147446488Y-123773258D01*
X147226697Y-123714366D01*
X147226693Y-123714365D01*
X147226692Y-123714365D01*
X147226691Y-123714364D01*
X147226686Y-123714364D01*
X147000002Y-123694532D01*
X146999998Y-123694532D01*
X146773313Y-123714364D01*
X146773302Y-123714366D01*
X146553511Y-123773258D01*
X146553502Y-123773261D01*
X146347267Y-123869431D01*
X146347265Y-123869432D01*
X146160858Y-123999954D01*
X145999954Y-124160858D01*
X145869432Y-124347265D01*
X145869431Y-124347267D01*
X145773261Y-124553502D01*
X145773258Y-124553511D01*
X145714366Y-124773302D01*
X145714364Y-124773313D01*
X145694532Y-124999998D01*
X141500500Y-124999998D01*
X141500500Y-124805646D01*
X141464722Y-124579755D01*
X141464721Y-124579751D01*
X141464721Y-124579750D01*
X141394049Y-124362244D01*
X141291439Y-124160861D01*
X141290217Y-124158462D01*
X141155786Y-123973434D01*
X140994066Y-123811714D01*
X140809038Y-123677283D01*
X140605255Y-123573450D01*
X140387748Y-123502778D01*
X140218326Y-123475944D01*
X140161854Y-123467000D01*
X139838146Y-123467000D01*
X139762849Y-123478926D01*
X139612253Y-123502778D01*
X139612250Y-123502778D01*
X139394744Y-123573450D01*
X139190961Y-123677283D01*
X139085396Y-123753980D01*
X139005934Y-123811714D01*
X139005932Y-123811716D01*
X139005931Y-123811716D01*
X138844216Y-123973431D01*
X138844216Y-123973432D01*
X138844214Y-123973434D01*
X138824947Y-123999953D01*
X138709783Y-124158461D01*
X138605950Y-124362244D01*
X138535278Y-124579750D01*
X138535278Y-124579753D01*
X138499500Y-124805646D01*
X128288464Y-124805646D01*
X128285635Y-124773308D01*
X128226739Y-124553504D01*
X128130568Y-124347266D01*
X128000047Y-124160861D01*
X128000045Y-124160858D01*
X127839141Y-123999954D01*
X127652734Y-123869432D01*
X127652732Y-123869431D01*
X127446497Y-123773261D01*
X127446488Y-123773258D01*
X127226697Y-123714366D01*
X127226693Y-123714365D01*
X127226692Y-123714365D01*
X127226691Y-123714364D01*
X127226686Y-123714364D01*
X127000002Y-123694532D01*
X126999998Y-123694532D01*
X126773313Y-123714364D01*
X126773302Y-123714366D01*
X126553511Y-123773258D01*
X126553502Y-123773261D01*
X126347267Y-123869431D01*
X126347265Y-123869432D01*
X126160858Y-123999954D01*
X125999954Y-124160858D01*
X125869432Y-124347265D01*
X125869431Y-124347267D01*
X125773261Y-124553502D01*
X125773258Y-124553511D01*
X125714366Y-124773302D01*
X125714364Y-124773313D01*
X125694532Y-124999998D01*
X100500500Y-124999998D01*
X100500500Y-119852135D01*
X184499500Y-119852135D01*
X184499500Y-120847870D01*
X184499501Y-120847876D01*
X184505908Y-120907483D01*
X184556202Y-121042328D01*
X184556206Y-121042335D01*
X184642452Y-121157544D01*
X184642455Y-121157547D01*
X184757664Y-121243793D01*
X184757671Y-121243797D01*
X184892517Y-121294091D01*
X184892516Y-121294091D01*
X184899444Y-121294835D01*
X184952127Y-121300500D01*
X187047872Y-121300499D01*
X187107483Y-121294091D01*
X187242331Y-121243796D01*
X187357546Y-121157546D01*
X187443796Y-121042331D01*
X187494091Y-120907483D01*
X187500500Y-120847873D01*
X187500499Y-119852128D01*
X187494091Y-119792517D01*
X187478419Y-119750499D01*
X187443797Y-119657671D01*
X187443793Y-119657664D01*
X187357547Y-119542455D01*
X187357544Y-119542452D01*
X187242335Y-119456206D01*
X187242328Y-119456202D01*
X187107482Y-119405908D01*
X187107483Y-119405908D01*
X187047883Y-119399501D01*
X187047881Y-119399500D01*
X187047873Y-119399500D01*
X187047864Y-119399500D01*
X184952129Y-119399500D01*
X184952123Y-119399501D01*
X184892516Y-119405908D01*
X184757671Y-119456202D01*
X184757664Y-119456206D01*
X184642455Y-119542452D01*
X184642452Y-119542455D01*
X184556206Y-119657664D01*
X184556202Y-119657671D01*
X184505908Y-119792517D01*
X184499501Y-119852116D01*
X184499501Y-119852123D01*
X184499500Y-119852135D01*
X100500500Y-119852135D01*
X100500500Y-117199994D01*
X177444457Y-117199994D01*
X177444457Y-117200005D01*
X177464606Y-117520283D01*
X177464607Y-117520290D01*
X177524745Y-117835542D01*
X177623916Y-118140759D01*
X177623918Y-118140764D01*
X177760558Y-118431138D01*
X177760562Y-118431144D01*
X177932520Y-118702108D01*
X177932522Y-118702111D01*
X178137087Y-118949388D01*
X178371034Y-119169078D01*
X178371044Y-119169086D01*
X178630660Y-119357708D01*
X178630666Y-119357711D01*
X178630672Y-119357716D01*
X178911903Y-119512324D01*
X179210294Y-119630466D01*
X179210293Y-119630466D01*
X179521135Y-119710276D01*
X179521139Y-119710277D01*
X179587935Y-119718715D01*
X179839524Y-119750499D01*
X179839533Y-119750499D01*
X179839536Y-119750500D01*
X179839538Y-119750500D01*
X180160462Y-119750500D01*
X180160464Y-119750500D01*
X180160467Y-119750499D01*
X180160475Y-119750499D01*
X180350463Y-119726497D01*
X180478861Y-119710277D01*
X180789706Y-119630466D01*
X181088097Y-119512324D01*
X181369328Y-119357716D01*
X181628964Y-119169080D01*
X181862911Y-118949390D01*
X182067478Y-118702110D01*
X182239439Y-118431142D01*
X182376084Y-118140758D01*
X182475256Y-117835538D01*
X182535392Y-117520294D01*
X182555543Y-117200000D01*
X182535392Y-116879706D01*
X182475256Y-116564462D01*
X182376084Y-116259242D01*
X182376081Y-116259235D01*
X182239441Y-115968861D01*
X182239437Y-115968855D01*
X182067479Y-115697891D01*
X182067477Y-115697888D01*
X181862912Y-115450611D01*
X181628965Y-115230921D01*
X181628955Y-115230913D01*
X181369339Y-115042291D01*
X181369321Y-115042280D01*
X181088096Y-114887675D01*
X181088093Y-114887674D01*
X180789703Y-114769533D01*
X180789706Y-114769533D01*
X180478864Y-114689723D01*
X180478851Y-114689721D01*
X180160475Y-114649500D01*
X180160464Y-114649500D01*
X179839536Y-114649500D01*
X179839524Y-114649500D01*
X179521148Y-114689721D01*
X179521135Y-114689723D01*
X179210294Y-114769533D01*
X178911906Y-114887674D01*
X178911903Y-114887675D01*
X178630678Y-115042280D01*
X178630660Y-115042291D01*
X178371044Y-115230913D01*
X178371034Y-115230921D01*
X178137087Y-115450611D01*
X177932522Y-115697888D01*
X177932520Y-115697891D01*
X177760562Y-115968855D01*
X177760558Y-115968861D01*
X177623918Y-116259235D01*
X177623916Y-116259240D01*
X177524745Y-116564457D01*
X177464607Y-116879709D01*
X177464606Y-116879716D01*
X177444457Y-117199994D01*
X100500500Y-117199994D01*
X100500500Y-108904731D01*
X177450000Y-108904731D01*
X177450000Y-109750000D01*
X178672769Y-109750000D01*
X178650000Y-109893753D01*
X178650000Y-110106247D01*
X178672769Y-110250000D01*
X177450000Y-110250000D01*
X177450000Y-111095268D01*
X177460215Y-111239958D01*
X177460217Y-111239968D01*
X177514313Y-111480165D01*
X177514315Y-111480172D01*
X177606244Y-111708585D01*
X177733620Y-111919289D01*
X177733627Y-111919299D01*
X177893153Y-112106846D01*
X178080700Y-112266372D01*
X178080710Y-112266379D01*
X178291414Y-112393755D01*
X178519827Y-112485684D01*
X178519834Y-112485686D01*
X178760031Y-112539782D01*
X178760041Y-112539784D01*
X178904731Y-112549999D01*
X178904734Y-112550000D01*
X179750000Y-112550000D01*
X179750000Y-111327231D01*
X179893753Y-111350000D01*
X180106247Y-111350000D01*
X180250000Y-111327231D01*
X180250000Y-112550000D01*
X181095266Y-112550000D01*
X181095268Y-112549999D01*
X181239958Y-112539784D01*
X181239968Y-112539782D01*
X181480165Y-112485686D01*
X181480172Y-112485684D01*
X181708585Y-112393755D01*
X181919289Y-112266379D01*
X181919299Y-112266372D01*
X182106846Y-112106846D01*
X182266372Y-111919299D01*
X182266379Y-111919289D01*
X182393755Y-111708585D01*
X182485684Y-111480172D01*
X182485686Y-111480165D01*
X182539782Y-111239968D01*
X182539784Y-111239958D01*
X182549999Y-111095268D01*
X182550000Y-111095266D01*
X182550000Y-110250000D01*
X181327231Y-110250000D01*
X181350000Y-110106247D01*
X181350000Y-109893753D01*
X181327231Y-109750000D01*
X182550000Y-109750000D01*
X182550000Y-108904734D01*
X182549999Y-108904731D01*
X182539784Y-108760041D01*
X182539782Y-108760031D01*
X182485686Y-108519834D01*
X182485684Y-108519827D01*
X182393755Y-108291414D01*
X182266379Y-108080710D01*
X182266372Y-108080700D01*
X182106846Y-107893153D01*
X181919299Y-107733627D01*
X181919289Y-107733620D01*
X181708585Y-107606244D01*
X181480172Y-107514315D01*
X181480165Y-107514313D01*
X181239968Y-107460217D01*
X181239958Y-107460215D01*
X181095268Y-107450000D01*
X180250000Y-107450000D01*
X180250000Y-108672768D01*
X180106247Y-108650000D01*
X179893753Y-108650000D01*
X179750000Y-108672768D01*
X179750000Y-107450000D01*
X178904731Y-107450000D01*
X178760041Y-107460215D01*
X178760031Y-107460217D01*
X178519834Y-107514313D01*
X178519827Y-107514315D01*
X178291414Y-107606244D01*
X178080710Y-107733620D01*
X178080700Y-107733627D01*
X177893153Y-107893153D01*
X177733627Y-108080700D01*
X177733620Y-108080710D01*
X177606244Y-108291414D01*
X177514315Y-108519827D01*
X177514313Y-108519834D01*
X177460217Y-108760031D01*
X177460215Y-108760041D01*
X177450000Y-108904731D01*
X100500500Y-108904731D01*
X100500500Y-107201003D01*
X124950000Y-107250000D01*
X124950000Y-106352135D01*
X184499500Y-106352135D01*
X184499500Y-107347870D01*
X184499501Y-107347876D01*
X184505908Y-107407483D01*
X184556202Y-107542328D01*
X184556206Y-107542335D01*
X184642452Y-107657544D01*
X184642455Y-107657547D01*
X184757664Y-107743793D01*
X184757671Y-107743797D01*
X184892517Y-107794091D01*
X184892516Y-107794091D01*
X184899444Y-107794835D01*
X184952127Y-107800500D01*
X187047872Y-107800499D01*
X187107483Y-107794091D01*
X187242331Y-107743796D01*
X187357546Y-107657546D01*
X187443796Y-107542331D01*
X187494091Y-107407483D01*
X187500500Y-107347873D01*
X187500499Y-106352128D01*
X187494091Y-106292517D01*
X187443796Y-106157669D01*
X187443795Y-106157668D01*
X187443793Y-106157664D01*
X187357547Y-106042455D01*
X187357544Y-106042452D01*
X187242335Y-105956206D01*
X187242328Y-105956202D01*
X187107482Y-105905908D01*
X187107483Y-105905908D01*
X187047883Y-105899501D01*
X187047881Y-105899500D01*
X187047873Y-105899500D01*
X187047864Y-105899500D01*
X184952129Y-105899500D01*
X184952123Y-105899501D01*
X184892516Y-105905908D01*
X184757671Y-105956202D01*
X184757664Y-105956206D01*
X184642455Y-106042452D01*
X184642452Y-106042455D01*
X184556206Y-106157664D01*
X184556202Y-106157671D01*
X184505908Y-106292517D01*
X184499501Y-106352116D01*
X184499501Y-106352123D01*
X184499500Y-106352135D01*
X124950000Y-106352135D01*
X124950000Y-105475049D01*
X199375378Y-105400624D01*
X199442435Y-105420242D01*
G37*
%TD.AperFunction*%
%TD*%
M02*
