%TF.GenerationSoftware,KiCad,Pcbnew,8.0.8-8.0.8-0~ubuntu24.04.1*%
%TF.CreationDate,2025-02-07T22:49:58+09:00*%
%TF.ProjectId,MainPowerSupply,4d61696e-506f-4776-9572-537570706c79,rev?*%
%TF.SameCoordinates,Original*%
%TF.FileFunction,Soldermask,Bot*%
%TF.FilePolarity,Negative*%
%FSLAX46Y46*%
G04 Gerber Fmt 4.6, Leading zero omitted, Abs format (unit mm)*
G04 Created by KiCad (PCBNEW 8.0.8-8.0.8-0~ubuntu24.04.1) date 2025-02-07 22:49:58*
%MOMM*%
%LPD*%
G01*
G04 APERTURE LIST*
G04 Aperture macros list*
%AMRoundRect*
0 Rectangle with rounded corners*
0 $1 Rounding radius*
0 $2 $3 $4 $5 $6 $7 $8 $9 X,Y pos of 4 corners*
0 Add a 4 corners polygon primitive as box body*
4,1,4,$2,$3,$4,$5,$6,$7,$8,$9,$2,$3,0*
0 Add four circle primitives for the rounded corners*
1,1,$1+$1,$2,$3*
1,1,$1+$1,$4,$5*
1,1,$1+$1,$6,$7*
1,1,$1+$1,$8,$9*
0 Add four rect primitives between the rounded corners*
20,1,$1+$1,$2,$3,$4,$5,0*
20,1,$1+$1,$4,$5,$6,$7,0*
20,1,$1+$1,$6,$7,$8,$9,0*
20,1,$1+$1,$8,$9,$2,$3,0*%
G04 Aperture macros list end*
%ADD10R,2.000000X0.900000*%
%ADD11RoundRect,1.025000X-1.025000X1.025000X-1.025000X-1.025000X1.025000X-1.025000X1.025000X1.025000X0*%
%ADD12C,4.100000*%
%ADD13C,1.400000*%
%ADD14RoundRect,0.770000X-0.980000X-0.980000X0.980000X-0.980000X0.980000X0.980000X-0.980000X0.980000X0*%
%ADD15C,3.500000*%
%ADD16R,2.000000X2.000000*%
%ADD17C,2.000000*%
%ADD18R,0.900000X2.000000*%
%ADD19RoundRect,1.025000X-1.025000X-1.025000X1.025000X-1.025000X1.025000X1.025000X-1.025000X1.025000X0*%
%ADD20C,1.600000*%
%ADD21R,2.000000X1.905000*%
%ADD22O,2.000000X1.905000*%
G04 APERTURE END LIST*
D10*
%TO.C,J4*%
X186000000Y-66850000D03*
X186000000Y-80350000D03*
D11*
X180000000Y-70000000D03*
D12*
X180000000Y-77200000D03*
%TD*%
D13*
%TO.C,J10*%
X164000000Y-54675000D03*
X175000000Y-54675000D03*
D14*
X172000000Y-64675000D03*
D15*
X167000000Y-64675000D03*
%TD*%
D10*
%TO.C,J1*%
X186000000Y-106850000D03*
X186000000Y-120350000D03*
D11*
X180000000Y-110000000D03*
D12*
X180000000Y-117200000D03*
%TD*%
D16*
%TO.C,C3*%
X114082323Y-87500000D03*
D17*
X119082323Y-87500000D03*
%TD*%
D18*
%TO.C,J8*%
X128750000Y-60650000D03*
X142250000Y-60650000D03*
D19*
X139100000Y-66650000D03*
D12*
X131900000Y-66650000D03*
%TD*%
D20*
%TO.C,C2*%
X147000000Y-125000000D03*
X147000000Y-127500000D03*
%TD*%
D10*
%TO.C,J5*%
X186000000Y-86850000D03*
X186000000Y-100350000D03*
D11*
X180000000Y-90000000D03*
D12*
X180000000Y-97200000D03*
%TD*%
D13*
%TO.C,J3*%
X110650000Y-60350000D03*
X121650000Y-60350000D03*
D14*
X113650000Y-65350000D03*
D15*
X118650000Y-65350000D03*
%TD*%
D20*
%TO.C,C4*%
X144000000Y-130000000D03*
X144000000Y-127500000D03*
%TD*%
%TO.C,C1*%
X164000000Y-130000000D03*
X164000000Y-127500000D03*
%TD*%
D21*
%TO.C,U1*%
X160000000Y-130000000D03*
D22*
X160000000Y-127460000D03*
X160000000Y-124920000D03*
%TD*%
D21*
%TO.C,U2*%
X140000000Y-130000000D03*
D22*
X140000000Y-127460000D03*
X140000000Y-124920000D03*
%TD*%
D20*
%TO.C,C5*%
X127000000Y-125000000D03*
X127000000Y-127500000D03*
%TD*%
D10*
%TO.C,J2*%
X186000000Y-126850000D03*
X186000000Y-140350000D03*
D11*
X180000000Y-130000000D03*
D12*
X180000000Y-137200000D03*
%TD*%
D13*
%TO.C,J9*%
X147500000Y-54675000D03*
X158500000Y-54675000D03*
D14*
X155500000Y-64675000D03*
D15*
X150500000Y-64675000D03*
%TD*%
M02*
