%TF.GenerationSoftware,KiCad,Pcbnew,8.0.8-8.0.8-0~ubuntu24.04.1*%
%TF.CreationDate,2025-02-07T22:49:58+09:00*%
%TF.ProjectId,MainPowerSupply,4d61696e-506f-4776-9572-537570706c79,rev?*%
%TF.SameCoordinates,Original*%
%TF.FileFunction,Copper,L1,Top*%
%TF.FilePolarity,Positive*%
%FSLAX46Y46*%
G04 Gerber Fmt 4.6, Leading zero omitted, Abs format (unit mm)*
G04 Created by KiCad (PCBNEW 8.0.8-8.0.8-0~ubuntu24.04.1) date 2025-02-07 22:49:58*
%MOMM*%
%LPD*%
G01*
G04 APERTURE LIST*
G04 Aperture macros list*
%AMRoundRect*
0 Rectangle with rounded corners*
0 $1 Rounding radius*
0 $2 $3 $4 $5 $6 $7 $8 $9 X,Y pos of 4 corners*
0 Add a 4 corners polygon primitive as box body*
4,1,4,$2,$3,$4,$5,$6,$7,$8,$9,$2,$3,0*
0 Add four circle primitives for the rounded corners*
1,1,$1+$1,$2,$3*
1,1,$1+$1,$4,$5*
1,1,$1+$1,$6,$7*
1,1,$1+$1,$8,$9*
0 Add four rect primitives between the rounded corners*
20,1,$1+$1,$2,$3,$4,$5,0*
20,1,$1+$1,$4,$5,$6,$7,0*
20,1,$1+$1,$6,$7,$8,$9,0*
20,1,$1+$1,$8,$9,$2,$3,0*%
G04 Aperture macros list end*
%TA.AperFunction,ComponentPad*%
%ADD10R,2.000000X0.900000*%
%TD*%
%TA.AperFunction,ComponentPad*%
%ADD11RoundRect,1.025000X-1.025000X1.025000X-1.025000X-1.025000X1.025000X-1.025000X1.025000X1.025000X0*%
%TD*%
%TA.AperFunction,ComponentPad*%
%ADD12C,4.100000*%
%TD*%
%TA.AperFunction,ComponentPad*%
%ADD13C,1.400000*%
%TD*%
%TA.AperFunction,ComponentPad*%
%ADD14RoundRect,0.770000X-0.980000X-0.980000X0.980000X-0.980000X0.980000X0.980000X-0.980000X0.980000X0*%
%TD*%
%TA.AperFunction,ComponentPad*%
%ADD15C,3.500000*%
%TD*%
%TA.AperFunction,ComponentPad*%
%ADD16R,2.000000X2.000000*%
%TD*%
%TA.AperFunction,ComponentPad*%
%ADD17C,2.000000*%
%TD*%
%TA.AperFunction,ComponentPad*%
%ADD18R,0.900000X2.000000*%
%TD*%
%TA.AperFunction,ComponentPad*%
%ADD19RoundRect,1.025000X-1.025000X-1.025000X1.025000X-1.025000X1.025000X1.025000X-1.025000X1.025000X0*%
%TD*%
%TA.AperFunction,ComponentPad*%
%ADD20C,1.600000*%
%TD*%
%TA.AperFunction,ComponentPad*%
%ADD21R,2.000000X1.905000*%
%TD*%
%TA.AperFunction,ComponentPad*%
%ADD22O,2.000000X1.905000*%
%TD*%
G04 APERTURE END LIST*
D10*
%TO.P,J4,*%
%TO.N,*%
X186000000Y-66850000D03*
X186000000Y-80350000D03*
D11*
%TO.P,J4,1,Pin_1*%
%TO.N,GND*%
X180000000Y-70000000D03*
D12*
%TO.P,J4,2,Pin_2*%
%TO.N,motor_batt_connect*%
X180000000Y-77200000D03*
%TD*%
D13*
%TO.P,J10,*%
%TO.N,*%
X164000000Y-54675000D03*
X175000000Y-54675000D03*
D14*
%TO.P,J10,1,Pin_1*%
%TO.N,GND*%
X172000000Y-64675000D03*
D15*
%TO.P,J10,2,Pin_2*%
%TO.N,motor_high*%
X167000000Y-64675000D03*
%TD*%
D10*
%TO.P,J1,*%
%TO.N,*%
X186000000Y-106850000D03*
X186000000Y-120350000D03*
D11*
%TO.P,J1,1,Pin_1*%
%TO.N,OrinGND*%
X180000000Y-110000000D03*
D12*
%TO.P,J1,2,Pin_2*%
%TO.N,orin_batt_connect*%
X180000000Y-117200000D03*
%TD*%
D16*
%TO.P,C3,1*%
%TO.N,12V*%
X114082323Y-87500000D03*
D17*
%TO.P,C3,2*%
%TO.N,OrinGND*%
X119082323Y-87500000D03*
%TD*%
D18*
%TO.P,J8,*%
%TO.N,*%
X128750000Y-60650000D03*
X142250000Y-60650000D03*
D19*
%TO.P,J8,1,Pin_1*%
%TO.N,motor_high*%
X139100000Y-66650000D03*
D12*
%TO.P,J8,2,Pin_2*%
%TO.N,16V*%
X131900000Y-66650000D03*
%TD*%
D20*
%TO.P,C2,1*%
%TO.N,12V*%
X147000000Y-125000000D03*
%TO.P,C2,2*%
%TO.N,OrinGND*%
X147000000Y-127500000D03*
%TD*%
D10*
%TO.P,J5,*%
%TO.N,*%
X186000000Y-86850000D03*
X186000000Y-100350000D03*
D11*
%TO.P,J5,1,Pin_1*%
%TO.N,motor_batt_connect*%
X180000000Y-90000000D03*
D12*
%TO.P,J5,2,Pin_2*%
%TO.N,16V*%
X180000000Y-97200000D03*
%TD*%
D13*
%TO.P,J3,*%
%TO.N,*%
X110650000Y-60350000D03*
X121650000Y-60350000D03*
D14*
%TO.P,J3,1,Pin_1*%
%TO.N,OrinGND*%
X113650000Y-65350000D03*
D15*
%TO.P,J3,2,Pin_2*%
%TO.N,12V*%
X118650000Y-65350000D03*
%TD*%
D20*
%TO.P,C4,1*%
%TO.N,orin in*%
X144000000Y-130000000D03*
%TO.P,C4,2*%
%TO.N,OrinGND*%
X144000000Y-127500000D03*
%TD*%
%TO.P,C1,1*%
%TO.N,orin in*%
X164000000Y-130000000D03*
%TO.P,C1,2*%
%TO.N,OrinGND*%
X164000000Y-127500000D03*
%TD*%
D21*
%TO.P,U1,1,VI*%
%TO.N,orin in*%
X160000000Y-130000000D03*
D22*
%TO.P,U1,2,GND*%
%TO.N,OrinGND*%
X160000000Y-127460000D03*
%TO.P,U1,3,VO*%
%TO.N,12V*%
X160000000Y-124920000D03*
%TD*%
D21*
%TO.P,U2,1,VI*%
%TO.N,orin in*%
X140000000Y-130000000D03*
D22*
%TO.P,U2,2,GND*%
%TO.N,OrinGND*%
X140000000Y-127460000D03*
%TO.P,U2,3,VO*%
%TO.N,12V*%
X140000000Y-124920000D03*
%TD*%
D20*
%TO.P,C5,1*%
%TO.N,12V*%
X127000000Y-125000000D03*
%TO.P,C5,2*%
%TO.N,OrinGND*%
X127000000Y-127500000D03*
%TD*%
D10*
%TO.P,J2,*%
%TO.N,*%
X186000000Y-126850000D03*
X186000000Y-140350000D03*
D11*
%TO.P,J2,1,Pin_1*%
%TO.N,orin_batt_connect*%
X180000000Y-130000000D03*
D12*
%TO.P,J2,2,Pin_2*%
%TO.N,orin in*%
X180000000Y-137200000D03*
%TD*%
D13*
%TO.P,J9,*%
%TO.N,*%
X147500000Y-54675000D03*
X158500000Y-54675000D03*
D14*
%TO.P,J9,1,Pin_1*%
%TO.N,GND*%
X155500000Y-64675000D03*
D15*
%TO.P,J9,2,Pin_2*%
%TO.N,motor_high*%
X150500000Y-64675000D03*
%TD*%
%TA.AperFunction,Conductor*%
%TO.N,motor_high*%
G36*
X149363491Y-62519685D02*
G01*
X149409246Y-62572489D01*
X149419190Y-62641647D01*
X149390165Y-62705203D01*
X149365343Y-62727102D01*
X149127346Y-62886126D01*
X149127339Y-62886131D01*
X149093959Y-62915403D01*
X149093959Y-62915405D01*
X150027028Y-63848474D01*
X149894410Y-63937087D01*
X149762087Y-64069410D01*
X149673474Y-64202027D01*
X148740405Y-63268959D01*
X148740403Y-63268959D01*
X148711131Y-63302339D01*
X148711126Y-63302346D01*
X148547265Y-63547580D01*
X148547258Y-63547593D01*
X148416812Y-63812111D01*
X148322005Y-64091400D01*
X148322001Y-64091415D01*
X148264464Y-64380675D01*
X148264462Y-64380687D01*
X148245172Y-64675000D01*
X148264462Y-64969312D01*
X148264464Y-64969324D01*
X148322001Y-65258584D01*
X148322005Y-65258599D01*
X148416812Y-65537888D01*
X148547258Y-65802406D01*
X148547265Y-65802419D01*
X148711123Y-66047649D01*
X148740405Y-66081040D01*
X149673474Y-65147971D01*
X149762087Y-65280590D01*
X149894410Y-65412913D01*
X150027027Y-65501525D01*
X149093958Y-66434593D01*
X149127350Y-66463876D01*
X149372580Y-66627734D01*
X149372593Y-66627741D01*
X149637111Y-66758187D01*
X149916400Y-66852994D01*
X149916415Y-66852998D01*
X150205675Y-66910535D01*
X150205687Y-66910537D01*
X150500000Y-66929827D01*
X150794312Y-66910537D01*
X150794324Y-66910535D01*
X151083584Y-66852998D01*
X151083599Y-66852994D01*
X151362888Y-66758187D01*
X151627406Y-66627741D01*
X151627419Y-66627734D01*
X151872648Y-66463877D01*
X151906039Y-66434593D01*
X150972971Y-65501525D01*
X151105590Y-65412913D01*
X151237913Y-65280590D01*
X151326525Y-65147971D01*
X152259593Y-66081039D01*
X152288877Y-66047648D01*
X152452734Y-65802419D01*
X152452741Y-65802406D01*
X152583187Y-65537888D01*
X152677994Y-65258599D01*
X152677998Y-65258584D01*
X152735535Y-64969324D01*
X152735537Y-64969312D01*
X152754827Y-64675000D01*
X152735537Y-64380687D01*
X152735535Y-64380675D01*
X152677998Y-64091415D01*
X152677994Y-64091400D01*
X152583187Y-63812111D01*
X152452741Y-63547593D01*
X152452734Y-63547580D01*
X152288876Y-63302350D01*
X152259593Y-63268958D01*
X151326525Y-64202027D01*
X151237913Y-64069410D01*
X151105590Y-63937087D01*
X150972971Y-63848474D01*
X151906040Y-62915405D01*
X151872649Y-62886123D01*
X151634657Y-62727102D01*
X151589852Y-62673490D01*
X151581145Y-62604165D01*
X151611299Y-62541138D01*
X151670742Y-62504418D01*
X151703548Y-62500000D01*
X153618910Y-62500000D01*
X153685949Y-62519685D01*
X153731704Y-62572489D01*
X153741648Y-62641647D01*
X153712623Y-62705203D01*
X153706148Y-62711561D01*
X153706415Y-62711828D01*
X153540769Y-62877473D01*
X153540759Y-62877485D01*
X153410531Y-63065456D01*
X153410528Y-63065462D01*
X153315949Y-63273684D01*
X153260070Y-63495447D01*
X153249500Y-63629747D01*
X153249500Y-65720238D01*
X153249501Y-65720253D01*
X153253458Y-65770534D01*
X153260070Y-65854553D01*
X153315949Y-66076316D01*
X153318095Y-66081040D01*
X153410528Y-66284537D01*
X153410531Y-66284543D01*
X153540759Y-66472514D01*
X153540763Y-66472519D01*
X153540766Y-66472523D01*
X153702477Y-66634234D01*
X153702481Y-66634237D01*
X153702485Y-66634240D01*
X153890456Y-66764468D01*
X153890462Y-66764471D01*
X153890463Y-66764471D01*
X153890464Y-66764472D01*
X154098684Y-66859051D01*
X154320447Y-66914930D01*
X154454753Y-66925500D01*
X156545246Y-66925499D01*
X156679553Y-66914930D01*
X156901316Y-66859051D01*
X157109536Y-66764472D01*
X157109538Y-66764470D01*
X157109543Y-66764468D01*
X157297514Y-66634240D01*
X157297523Y-66634234D01*
X157459234Y-66472523D01*
X157509478Y-66400000D01*
X157589468Y-66284543D01*
X157589471Y-66284537D01*
X157589472Y-66284536D01*
X157684051Y-66076316D01*
X157739930Y-65854553D01*
X157750500Y-65720247D01*
X157750499Y-63629754D01*
X157739930Y-63495447D01*
X157684051Y-63273684D01*
X157589472Y-63065464D01*
X157589471Y-63065462D01*
X157589468Y-63065456D01*
X157459240Y-62877485D01*
X157459237Y-62877481D01*
X157459234Y-62877477D01*
X157297523Y-62715766D01*
X157293585Y-62711828D01*
X157295446Y-62709966D01*
X157262766Y-62661088D01*
X157261499Y-62591229D01*
X157298200Y-62531776D01*
X157361219Y-62501603D01*
X157381090Y-62500000D01*
X165796452Y-62500000D01*
X165863491Y-62519685D01*
X165909246Y-62572489D01*
X165919190Y-62641647D01*
X165890165Y-62705203D01*
X165865343Y-62727102D01*
X165627346Y-62886126D01*
X165627339Y-62886131D01*
X165593959Y-62915403D01*
X165593959Y-62915405D01*
X166527028Y-63848474D01*
X166394410Y-63937087D01*
X166262087Y-64069410D01*
X166173474Y-64202028D01*
X165240405Y-63268959D01*
X165240403Y-63268959D01*
X165211131Y-63302339D01*
X165211126Y-63302346D01*
X165047265Y-63547580D01*
X165047258Y-63547593D01*
X164916812Y-63812111D01*
X164822005Y-64091400D01*
X164822001Y-64091415D01*
X164764464Y-64380675D01*
X164764462Y-64380687D01*
X164745172Y-64675000D01*
X164764462Y-64969312D01*
X164764464Y-64969324D01*
X164822001Y-65258584D01*
X164822005Y-65258599D01*
X164916812Y-65537888D01*
X165047258Y-65802406D01*
X165047265Y-65802419D01*
X165211123Y-66047649D01*
X165240405Y-66081040D01*
X166173474Y-65147971D01*
X166262087Y-65280590D01*
X166394410Y-65412913D01*
X166527027Y-65501525D01*
X165593958Y-66434593D01*
X165627350Y-66463876D01*
X165872580Y-66627734D01*
X165872593Y-66627741D01*
X166137111Y-66758187D01*
X166416400Y-66852994D01*
X166416415Y-66852998D01*
X166705675Y-66910535D01*
X166705687Y-66910537D01*
X167000000Y-66929827D01*
X167294312Y-66910537D01*
X167294324Y-66910535D01*
X167583584Y-66852998D01*
X167583599Y-66852994D01*
X167862888Y-66758187D01*
X168127406Y-66627741D01*
X168127419Y-66627734D01*
X168372648Y-66463877D01*
X168406039Y-66434593D01*
X167472971Y-65501525D01*
X167605590Y-65412913D01*
X167737913Y-65280590D01*
X167826525Y-65147971D01*
X168759593Y-66081039D01*
X168788877Y-66047648D01*
X168952734Y-65802419D01*
X168952741Y-65802406D01*
X169083187Y-65537888D01*
X169177994Y-65258599D01*
X169177998Y-65258584D01*
X169235535Y-64969324D01*
X169235537Y-64969312D01*
X169252265Y-64714096D01*
X169265975Y-64676658D01*
X169257023Y-64662728D01*
X169252265Y-64635903D01*
X169235537Y-64380687D01*
X169235535Y-64380675D01*
X169177998Y-64091415D01*
X169177994Y-64091400D01*
X169083187Y-63812111D01*
X168952741Y-63547593D01*
X168952734Y-63547580D01*
X168788876Y-63302350D01*
X168759593Y-63268958D01*
X167826525Y-64202027D01*
X167737913Y-64069410D01*
X167605590Y-63937087D01*
X167472971Y-63848474D01*
X168406040Y-62915405D01*
X168372649Y-62886123D01*
X168134657Y-62727102D01*
X168089852Y-62673490D01*
X168081145Y-62604165D01*
X168111299Y-62541138D01*
X168170742Y-62504418D01*
X168203548Y-62500000D01*
X169376000Y-62500000D01*
X169443039Y-62519685D01*
X169488794Y-62572489D01*
X169500000Y-62624000D01*
X169500000Y-64627793D01*
X169486042Y-64675327D01*
X169497007Y-64695127D01*
X169500000Y-64722206D01*
X169500000Y-74876000D01*
X169480315Y-74943039D01*
X169427511Y-74988794D01*
X169376000Y-75000000D01*
X136124000Y-75000000D01*
X136056961Y-74980315D01*
X136011206Y-74927511D01*
X136000000Y-74876000D01*
X136000000Y-65554731D01*
X136550000Y-65554731D01*
X136550000Y-66400000D01*
X137772769Y-66400000D01*
X137750000Y-66543753D01*
X137750000Y-66756247D01*
X137772769Y-66900000D01*
X136550000Y-66900000D01*
X136550000Y-67745268D01*
X136560215Y-67889958D01*
X136560217Y-67889968D01*
X136614313Y-68130165D01*
X136614315Y-68130172D01*
X136706244Y-68358585D01*
X136833620Y-68569289D01*
X136833627Y-68569299D01*
X136993153Y-68756846D01*
X137180700Y-68916372D01*
X137180710Y-68916379D01*
X137391414Y-69043755D01*
X137619827Y-69135684D01*
X137619834Y-69135686D01*
X137860031Y-69189782D01*
X137860041Y-69189784D01*
X138004731Y-69199999D01*
X138004734Y-69200000D01*
X138850000Y-69200000D01*
X138850000Y-67977231D01*
X138993753Y-68000000D01*
X139206247Y-68000000D01*
X139350000Y-67977231D01*
X139350000Y-69200000D01*
X140195266Y-69200000D01*
X140195268Y-69199999D01*
X140339958Y-69189784D01*
X140339968Y-69189782D01*
X140580165Y-69135686D01*
X140580172Y-69135684D01*
X140808585Y-69043755D01*
X141019289Y-68916379D01*
X141019299Y-68916372D01*
X141206846Y-68756846D01*
X141366372Y-68569299D01*
X141366379Y-68569289D01*
X141493755Y-68358585D01*
X141585684Y-68130172D01*
X141585686Y-68130165D01*
X141639782Y-67889968D01*
X141639784Y-67889958D01*
X141649999Y-67745268D01*
X141650000Y-67745266D01*
X141650000Y-66900000D01*
X140427231Y-66900000D01*
X140450000Y-66756247D01*
X140450000Y-66543753D01*
X140427231Y-66400000D01*
X141650000Y-66400000D01*
X141650000Y-65554734D01*
X141649999Y-65554731D01*
X141639784Y-65410041D01*
X141639782Y-65410031D01*
X141585686Y-65169834D01*
X141585684Y-65169827D01*
X141493755Y-64941414D01*
X141366379Y-64730710D01*
X141366372Y-64730700D01*
X141206846Y-64543153D01*
X141019299Y-64383627D01*
X141019289Y-64383620D01*
X140808585Y-64256244D01*
X140580172Y-64164315D01*
X140580165Y-64164313D01*
X140339968Y-64110217D01*
X140339958Y-64110215D01*
X140195268Y-64100000D01*
X139350000Y-64100000D01*
X139350000Y-65322768D01*
X139206247Y-65300000D01*
X138993753Y-65300000D01*
X138850000Y-65322768D01*
X138850000Y-64100000D01*
X138004731Y-64100000D01*
X137860041Y-64110215D01*
X137860031Y-64110217D01*
X137619834Y-64164313D01*
X137619827Y-64164315D01*
X137391414Y-64256244D01*
X137180710Y-64383620D01*
X137180700Y-64383627D01*
X136993153Y-64543153D01*
X136833627Y-64730700D01*
X136833620Y-64730710D01*
X136706244Y-64941414D01*
X136614315Y-65169827D01*
X136614313Y-65169834D01*
X136560217Y-65410031D01*
X136560215Y-65410041D01*
X136550000Y-65554731D01*
X136000000Y-65554731D01*
X136000000Y-62624000D01*
X136019685Y-62556961D01*
X136072489Y-62511206D01*
X136124000Y-62500000D01*
X149296452Y-62500000D01*
X149363491Y-62519685D01*
G37*
%TD.AperFunction*%
%TD*%
%TA.AperFunction,Conductor*%
%TO.N,12V*%
G36*
X122841920Y-61020307D02*
G01*
X122888237Y-61072619D01*
X122900000Y-61125333D01*
X122900000Y-72377319D01*
X122880315Y-72444358D01*
X122827511Y-72490113D01*
X122777326Y-72501312D01*
X116434235Y-72569151D01*
X116434235Y-72569152D01*
X116434234Y-72569152D01*
X104221334Y-72699771D01*
X104221333Y-72699771D01*
X104221289Y-72686969D01*
X104203024Y-72654076D01*
X104200000Y-72626859D01*
X104200000Y-64304747D01*
X111399500Y-64304747D01*
X111399500Y-66395238D01*
X111399501Y-66395253D01*
X111405966Y-66477406D01*
X111410070Y-66529553D01*
X111465949Y-66751316D01*
X111468095Y-66756040D01*
X111560528Y-66959537D01*
X111560531Y-66959543D01*
X111690759Y-67147514D01*
X111690763Y-67147519D01*
X111690766Y-67147523D01*
X111852477Y-67309234D01*
X111852481Y-67309237D01*
X111852485Y-67309240D01*
X112040456Y-67439468D01*
X112040462Y-67439471D01*
X112040463Y-67439471D01*
X112040464Y-67439472D01*
X112248684Y-67534051D01*
X112470447Y-67589930D01*
X112604753Y-67600500D01*
X114695246Y-67600499D01*
X114829553Y-67589930D01*
X115051316Y-67534051D01*
X115259536Y-67439472D01*
X115259538Y-67439470D01*
X115259543Y-67439468D01*
X115447514Y-67309240D01*
X115447523Y-67309234D01*
X115609234Y-67147523D01*
X115637477Y-67106756D01*
X115739468Y-66959543D01*
X115739471Y-66959537D01*
X115739472Y-66959536D01*
X115834051Y-66751316D01*
X115889930Y-66529553D01*
X115900500Y-66395247D01*
X115900499Y-65350000D01*
X116395172Y-65350000D01*
X116414462Y-65644312D01*
X116414464Y-65644324D01*
X116472001Y-65933584D01*
X116472005Y-65933599D01*
X116566812Y-66212888D01*
X116697258Y-66477406D01*
X116697265Y-66477419D01*
X116861123Y-66722649D01*
X116890405Y-66756040D01*
X117823474Y-65822971D01*
X117912087Y-65955590D01*
X118044410Y-66087913D01*
X118177027Y-66176525D01*
X117243958Y-67109593D01*
X117277350Y-67138876D01*
X117522580Y-67302734D01*
X117522593Y-67302741D01*
X117787111Y-67433187D01*
X118066400Y-67527994D01*
X118066415Y-67527998D01*
X118355675Y-67585535D01*
X118355687Y-67585537D01*
X118650000Y-67604827D01*
X118944312Y-67585537D01*
X118944324Y-67585535D01*
X119233584Y-67527998D01*
X119233599Y-67527994D01*
X119512888Y-67433187D01*
X119777406Y-67302741D01*
X119777419Y-67302734D01*
X120022648Y-67138877D01*
X120056039Y-67109593D01*
X119122971Y-66176525D01*
X119255590Y-66087913D01*
X119387913Y-65955590D01*
X119476525Y-65822971D01*
X120409593Y-66756039D01*
X120438877Y-66722648D01*
X120602734Y-66477419D01*
X120602741Y-66477406D01*
X120733187Y-66212888D01*
X120827994Y-65933599D01*
X120827998Y-65933584D01*
X120885535Y-65644324D01*
X120885537Y-65644312D01*
X120904827Y-65350000D01*
X120885537Y-65055687D01*
X120885535Y-65055675D01*
X120827998Y-64766415D01*
X120827994Y-64766400D01*
X120733187Y-64487111D01*
X120602741Y-64222593D01*
X120602734Y-64222580D01*
X120438876Y-63977350D01*
X120409593Y-63943958D01*
X119476525Y-64877027D01*
X119387913Y-64744410D01*
X119255590Y-64612087D01*
X119122971Y-64523474D01*
X120056040Y-63590405D01*
X120022649Y-63561123D01*
X119777419Y-63397265D01*
X119777406Y-63397258D01*
X119512888Y-63266812D01*
X119233599Y-63172005D01*
X119233584Y-63172001D01*
X118944324Y-63114464D01*
X118944312Y-63114462D01*
X118650000Y-63095172D01*
X118355687Y-63114462D01*
X118355675Y-63114464D01*
X118066415Y-63172001D01*
X118066400Y-63172005D01*
X117787111Y-63266812D01*
X117522593Y-63397258D01*
X117522580Y-63397265D01*
X117277346Y-63561126D01*
X117277339Y-63561131D01*
X117243959Y-63590403D01*
X117243959Y-63590405D01*
X118177028Y-64523474D01*
X118044410Y-64612087D01*
X117912087Y-64744410D01*
X117823474Y-64877028D01*
X116890405Y-63943959D01*
X116890403Y-63943959D01*
X116861131Y-63977339D01*
X116861126Y-63977346D01*
X116697265Y-64222580D01*
X116697258Y-64222593D01*
X116566812Y-64487111D01*
X116472005Y-64766400D01*
X116472001Y-64766415D01*
X116414464Y-65055675D01*
X116414462Y-65055687D01*
X116395172Y-65350000D01*
X115900499Y-65350000D01*
X115900499Y-64304754D01*
X115889930Y-64170447D01*
X115834051Y-63948684D01*
X115739472Y-63740464D01*
X115739471Y-63740462D01*
X115739468Y-63740456D01*
X115609240Y-63552485D01*
X115609237Y-63552481D01*
X115609234Y-63552477D01*
X115447523Y-63390766D01*
X115447519Y-63390763D01*
X115447514Y-63390759D01*
X115259543Y-63260531D01*
X115259537Y-63260528D01*
X115155426Y-63213238D01*
X115051316Y-63165949D01*
X114829553Y-63110070D01*
X114695247Y-63099500D01*
X114695245Y-63099500D01*
X112604761Y-63099500D01*
X112604746Y-63099501D01*
X112470447Y-63110070D01*
X112248684Y-63165949D01*
X112040462Y-63260528D01*
X112040456Y-63260531D01*
X111852485Y-63390759D01*
X111852473Y-63390769D01*
X111690769Y-63552473D01*
X111690759Y-63552485D01*
X111560531Y-63740456D01*
X111560528Y-63740462D01*
X111465949Y-63948684D01*
X111410070Y-64170447D01*
X111399500Y-64304747D01*
X104200000Y-64304747D01*
X104200000Y-61322680D01*
X104219685Y-61255641D01*
X104272489Y-61209886D01*
X104322669Y-61198688D01*
X109686704Y-61141318D01*
X109753948Y-61160285D01*
X109771560Y-61173668D01*
X109923438Y-61312124D01*
X109923440Y-61312125D01*
X109923441Y-61312126D01*
X110112595Y-61429245D01*
X110112596Y-61429245D01*
X110112599Y-61429247D01*
X110320060Y-61509618D01*
X110538757Y-61550500D01*
X110538759Y-61550500D01*
X110761241Y-61550500D01*
X110761243Y-61550500D01*
X110979940Y-61509618D01*
X111187401Y-61429247D01*
X111376562Y-61312124D01*
X111540981Y-61162236D01*
X111540993Y-61162218D01*
X111542132Y-61160972D01*
X111542840Y-61160541D01*
X111545218Y-61158374D01*
X111545641Y-61158838D01*
X111601840Y-61124685D01*
X111632447Y-61120508D01*
X120592070Y-61024683D01*
X120659314Y-61043650D01*
X120692347Y-61073948D01*
X120758064Y-61160972D01*
X120759021Y-61162238D01*
X120759025Y-61162242D01*
X120923437Y-61312123D01*
X120923439Y-61312125D01*
X121112595Y-61429245D01*
X121112596Y-61429245D01*
X121112599Y-61429247D01*
X121320060Y-61509618D01*
X121538757Y-61550500D01*
X121538759Y-61550500D01*
X121761241Y-61550500D01*
X121761243Y-61550500D01*
X121979940Y-61509618D01*
X122187401Y-61429247D01*
X122376562Y-61312124D01*
X122540972Y-61162244D01*
X122540979Y-61162238D01*
X122540981Y-61162236D01*
X122624859Y-61051162D01*
X122680965Y-61009529D01*
X122722481Y-61001898D01*
X122774675Y-61001340D01*
X122841920Y-61020307D01*
G37*
%TD.AperFunction*%
%TD*%
%TA.AperFunction,Conductor*%
%TO.N,orin_batt_connect*%
G36*
X182443039Y-114019685D02*
G01*
X182488794Y-114072489D01*
X182500000Y-114124000D01*
X182500000Y-115969008D01*
X182480315Y-116036047D01*
X182427511Y-116081802D01*
X182358353Y-116091746D01*
X182294797Y-116062721D01*
X182263802Y-116021805D01*
X182239002Y-115969102D01*
X182238998Y-115969096D01*
X182067078Y-115698193D01*
X181971224Y-115582326D01*
X181115270Y-116438281D01*
X181029722Y-116320534D01*
X180879466Y-116170278D01*
X180761717Y-116084728D01*
X181620822Y-115225623D01*
X181369063Y-115042709D01*
X181369053Y-115042702D01*
X181087883Y-114888128D01*
X181087875Y-114888124D01*
X180789555Y-114770012D01*
X180478766Y-114690215D01*
X180478757Y-114690213D01*
X180160443Y-114650000D01*
X179839556Y-114650000D01*
X179521242Y-114690213D01*
X179521233Y-114690215D01*
X179210444Y-114770012D01*
X178912124Y-114888124D01*
X178912116Y-114888128D01*
X178630946Y-115042702D01*
X178630928Y-115042714D01*
X178379177Y-115225621D01*
X178379176Y-115225623D01*
X179238282Y-116084728D01*
X179120534Y-116170278D01*
X178970278Y-116320534D01*
X178884729Y-116438282D01*
X178028773Y-115582326D01*
X177932924Y-115698188D01*
X177761001Y-115969096D01*
X177760998Y-115969102D01*
X177624384Y-116259419D01*
X177624382Y-116259424D01*
X177525230Y-116564582D01*
X177465104Y-116879771D01*
X177465103Y-116879778D01*
X177444958Y-117199994D01*
X177444958Y-117200005D01*
X177465103Y-117520221D01*
X177465104Y-117520228D01*
X177525230Y-117835417D01*
X177624382Y-118140575D01*
X177624384Y-118140580D01*
X177760998Y-118430897D01*
X177761001Y-118430903D01*
X177932921Y-118701806D01*
X178028773Y-118817671D01*
X178884728Y-117961716D01*
X178970278Y-118079466D01*
X179120534Y-118229722D01*
X179238281Y-118315270D01*
X178379176Y-119174375D01*
X178630936Y-119357290D01*
X178630946Y-119357297D01*
X178912116Y-119511871D01*
X178912124Y-119511875D01*
X179210444Y-119629987D01*
X179521233Y-119709784D01*
X179521242Y-119709786D01*
X179839556Y-119749999D01*
X179839570Y-119750000D01*
X180160430Y-119750000D01*
X180160443Y-119749999D01*
X180478757Y-119709786D01*
X180478766Y-119709784D01*
X180789555Y-119629987D01*
X181087875Y-119511875D01*
X181087883Y-119511871D01*
X181369047Y-119357300D01*
X181369058Y-119357293D01*
X181620821Y-119174375D01*
X181620822Y-119174375D01*
X180761717Y-118315271D01*
X180879466Y-118229722D01*
X181029722Y-118079466D01*
X181115271Y-117961717D01*
X181971225Y-118817671D01*
X182067068Y-118701819D01*
X182239000Y-118430899D01*
X182263801Y-118378195D01*
X182310156Y-118325917D01*
X182377416Y-118306999D01*
X182444226Y-118327448D01*
X182489375Y-118380771D01*
X182500000Y-118430991D01*
X182500000Y-128022355D01*
X182480315Y-128089394D01*
X182427511Y-128135149D01*
X182358353Y-128145093D01*
X182294797Y-128116068D01*
X182269884Y-128086507D01*
X182266379Y-128080709D01*
X182266372Y-128080700D01*
X182106846Y-127893153D01*
X181919299Y-127733627D01*
X181919289Y-127733620D01*
X181708585Y-127606244D01*
X181480172Y-127514315D01*
X181480165Y-127514313D01*
X181239968Y-127460217D01*
X181239958Y-127460215D01*
X181095268Y-127450000D01*
X180250000Y-127450000D01*
X180250000Y-128672768D01*
X180106247Y-128650000D01*
X179893753Y-128650000D01*
X179750000Y-128672768D01*
X179750000Y-127450000D01*
X178904731Y-127450000D01*
X178760041Y-127460215D01*
X178760031Y-127460217D01*
X178519834Y-127514313D01*
X178519827Y-127514315D01*
X178291414Y-127606244D01*
X178080710Y-127733620D01*
X178080700Y-127733627D01*
X177893153Y-127893153D01*
X177733627Y-128080700D01*
X177733620Y-128080710D01*
X177606244Y-128291414D01*
X177514315Y-128519827D01*
X177514313Y-128519834D01*
X177460217Y-128760031D01*
X177460215Y-128760041D01*
X177450000Y-128904731D01*
X177450000Y-129750000D01*
X178672769Y-129750000D01*
X178650000Y-129893753D01*
X178650000Y-130106247D01*
X178672769Y-130250000D01*
X177450000Y-130250000D01*
X177450000Y-131095268D01*
X177460215Y-131239958D01*
X177460217Y-131239968D01*
X177514313Y-131480165D01*
X177514315Y-131480172D01*
X177606244Y-131708585D01*
X177733620Y-131919289D01*
X177733627Y-131919299D01*
X177893153Y-132106846D01*
X178080700Y-132266372D01*
X178080710Y-132266379D01*
X178291414Y-132393755D01*
X178519827Y-132485684D01*
X178519834Y-132485686D01*
X178760031Y-132539782D01*
X178760041Y-132539784D01*
X178904731Y-132549999D01*
X178904734Y-132550000D01*
X179750000Y-132550000D01*
X179750000Y-131327231D01*
X179893753Y-131350000D01*
X180106247Y-131350000D01*
X180250000Y-131327231D01*
X180250000Y-132550000D01*
X181095266Y-132550000D01*
X181095268Y-132549999D01*
X181239958Y-132539784D01*
X181239968Y-132539782D01*
X181480165Y-132485686D01*
X181480172Y-132485684D01*
X181708585Y-132393755D01*
X181919289Y-132266379D01*
X181919299Y-132266372D01*
X182106846Y-132106846D01*
X182266372Y-131919299D01*
X182266377Y-131919292D01*
X182269881Y-131913497D01*
X182321408Y-131866308D01*
X182390267Y-131854467D01*
X182454596Y-131881735D01*
X182493972Y-131939452D01*
X182500000Y-131977644D01*
X182500000Y-132876000D01*
X182480315Y-132943039D01*
X182427511Y-132988794D01*
X182376000Y-133000000D01*
X170624000Y-133000000D01*
X170556961Y-132980315D01*
X170511206Y-132927511D01*
X170500000Y-132876000D01*
X170500000Y-114124000D01*
X170519685Y-114056961D01*
X170572489Y-114011206D01*
X170624000Y-114000000D01*
X182376000Y-114000000D01*
X182443039Y-114019685D01*
G37*
%TD.AperFunction*%
%TD*%
%TA.AperFunction,Conductor*%
%TO.N,motor_batt_connect*%
G36*
X178375126Y-75019685D02*
G01*
X178420881Y-75072489D01*
X178430825Y-75141647D01*
X178401800Y-75205203D01*
X178380972Y-75224318D01*
X178379177Y-75225622D01*
X178379176Y-75225623D01*
X179238282Y-76084728D01*
X179120534Y-76170278D01*
X178970278Y-76320534D01*
X178884729Y-76438282D01*
X178028773Y-75582326D01*
X177932924Y-75698188D01*
X177761001Y-75969096D01*
X177760998Y-75969102D01*
X177624384Y-76259419D01*
X177624382Y-76259424D01*
X177525230Y-76564582D01*
X177465104Y-76879771D01*
X177465103Y-76879778D01*
X177444958Y-77199994D01*
X177444958Y-77200005D01*
X177465103Y-77520221D01*
X177465104Y-77520228D01*
X177525230Y-77835417D01*
X177624382Y-78140575D01*
X177624384Y-78140580D01*
X177760998Y-78430897D01*
X177761001Y-78430903D01*
X177932921Y-78701806D01*
X178028773Y-78817671D01*
X178884728Y-77961716D01*
X178970278Y-78079466D01*
X179120534Y-78229722D01*
X179238281Y-78315270D01*
X178379176Y-79174375D01*
X178630936Y-79357290D01*
X178630946Y-79357297D01*
X178912116Y-79511871D01*
X178912124Y-79511875D01*
X179210444Y-79629987D01*
X179521233Y-79709784D01*
X179521242Y-79709786D01*
X179839556Y-79749999D01*
X179839570Y-79750000D01*
X180160430Y-79750000D01*
X180160443Y-79749999D01*
X180478757Y-79709786D01*
X180478766Y-79709784D01*
X180789555Y-79629987D01*
X181087875Y-79511875D01*
X181087883Y-79511871D01*
X181369047Y-79357300D01*
X181369058Y-79357293D01*
X181620821Y-79174375D01*
X181620822Y-79174375D01*
X180761717Y-78315271D01*
X180879466Y-78229722D01*
X181029722Y-78079466D01*
X181115271Y-77961717D01*
X181971225Y-78817671D01*
X182067068Y-78701819D01*
X182239002Y-78430896D01*
X182375615Y-78140580D01*
X182375617Y-78140575D01*
X182474769Y-77835417D01*
X182534895Y-77520228D01*
X182534896Y-77520221D01*
X182555042Y-77200005D01*
X182555042Y-77199994D01*
X182534896Y-76879778D01*
X182534895Y-76879771D01*
X182474769Y-76564582D01*
X182375617Y-76259424D01*
X182375615Y-76259419D01*
X182239001Y-75969102D01*
X182238998Y-75969096D01*
X182067078Y-75698193D01*
X181971224Y-75582326D01*
X181115270Y-76438281D01*
X181029722Y-76320534D01*
X180879466Y-76170278D01*
X180761717Y-76084728D01*
X181620822Y-75225623D01*
X181620821Y-75225622D01*
X181619026Y-75224318D01*
X181576360Y-75168988D01*
X181570381Y-75099375D01*
X181602987Y-75037580D01*
X181663825Y-75003223D01*
X181691911Y-75000000D01*
X183376000Y-75000000D01*
X183443039Y-75019685D01*
X183488794Y-75072489D01*
X183500000Y-75124000D01*
X183500000Y-92876000D01*
X183480315Y-92943039D01*
X183427511Y-92988794D01*
X183376000Y-93000000D01*
X175124000Y-93000000D01*
X175056961Y-92980315D01*
X175011206Y-92927511D01*
X175000000Y-92876000D01*
X175000000Y-88904731D01*
X177450000Y-88904731D01*
X177450000Y-89750000D01*
X178672769Y-89750000D01*
X178650000Y-89893753D01*
X178650000Y-90106247D01*
X178672769Y-90250000D01*
X177450000Y-90250000D01*
X177450000Y-91095268D01*
X177460215Y-91239958D01*
X177460217Y-91239968D01*
X177514313Y-91480165D01*
X177514315Y-91480172D01*
X177606244Y-91708585D01*
X177733620Y-91919289D01*
X177733627Y-91919299D01*
X177893153Y-92106846D01*
X178080700Y-92266372D01*
X178080710Y-92266379D01*
X178291414Y-92393755D01*
X178519827Y-92485684D01*
X178519834Y-92485686D01*
X178760031Y-92539782D01*
X178760041Y-92539784D01*
X178904731Y-92549999D01*
X178904734Y-92550000D01*
X179750000Y-92550000D01*
X179750000Y-91327231D01*
X179893753Y-91350000D01*
X180106247Y-91350000D01*
X180250000Y-91327231D01*
X180250000Y-92550000D01*
X181095266Y-92550000D01*
X181095268Y-92549999D01*
X181239958Y-92539784D01*
X181239968Y-92539782D01*
X181480165Y-92485686D01*
X181480172Y-92485684D01*
X181708585Y-92393755D01*
X181919289Y-92266379D01*
X181919299Y-92266372D01*
X182106846Y-92106846D01*
X182266372Y-91919299D01*
X182266379Y-91919289D01*
X182393755Y-91708585D01*
X182485684Y-91480172D01*
X182485686Y-91480165D01*
X182539782Y-91239968D01*
X182539784Y-91239958D01*
X182549999Y-91095268D01*
X182550000Y-91095266D01*
X182550000Y-90250000D01*
X181327231Y-90250000D01*
X181350000Y-90106247D01*
X181350000Y-89893753D01*
X181327231Y-89750000D01*
X182550000Y-89750000D01*
X182550000Y-88904734D01*
X182549999Y-88904731D01*
X182539784Y-88760041D01*
X182539782Y-88760031D01*
X182485686Y-88519834D01*
X182485684Y-88519827D01*
X182393755Y-88291414D01*
X182266379Y-88080710D01*
X182266372Y-88080700D01*
X182106846Y-87893153D01*
X181919299Y-87733627D01*
X181919289Y-87733620D01*
X181708585Y-87606244D01*
X181480172Y-87514315D01*
X181480165Y-87514313D01*
X181239968Y-87460217D01*
X181239958Y-87460215D01*
X181095268Y-87450000D01*
X180250000Y-87450000D01*
X180250000Y-88672768D01*
X180106247Y-88650000D01*
X179893753Y-88650000D01*
X179750000Y-88672768D01*
X179750000Y-87450000D01*
X178904731Y-87450000D01*
X178760041Y-87460215D01*
X178760031Y-87460217D01*
X178519834Y-87514313D01*
X178519827Y-87514315D01*
X178291414Y-87606244D01*
X178080710Y-87733620D01*
X178080700Y-87733627D01*
X177893153Y-87893153D01*
X177733627Y-88080700D01*
X177733620Y-88080710D01*
X177606244Y-88291414D01*
X177514315Y-88519827D01*
X177514313Y-88519834D01*
X177460217Y-88760031D01*
X177460215Y-88760041D01*
X177450000Y-88904731D01*
X175000000Y-88904731D01*
X175000000Y-75124000D01*
X175019685Y-75056961D01*
X175072489Y-75011206D01*
X175124000Y-75000000D01*
X178308087Y-75000000D01*
X178375126Y-75019685D01*
G37*
%TD.AperFunction*%
%TD*%
%TA.AperFunction,Conductor*%
%TO.N,12V*%
G36*
X161843039Y-114569685D02*
G01*
X161888794Y-114622489D01*
X161900000Y-114674000D01*
X161900000Y-125926000D01*
X161880315Y-125993039D01*
X161827511Y-126038794D01*
X161776000Y-126050000D01*
X161265259Y-126050000D01*
X161198220Y-126030315D01*
X161152465Y-125977511D01*
X161142521Y-125908353D01*
X161164941Y-125853114D01*
X161289788Y-125681276D01*
X161393582Y-125477570D01*
X161464234Y-125260128D01*
X161478509Y-125170000D01*
X160490748Y-125170000D01*
X160512518Y-125132292D01*
X160550000Y-124992409D01*
X160550000Y-124847591D01*
X160512518Y-124707708D01*
X160490748Y-124670000D01*
X161478509Y-124670000D01*
X161464234Y-124579871D01*
X161393582Y-124362429D01*
X161289788Y-124158723D01*
X161155402Y-123973757D01*
X160993742Y-123812097D01*
X160808776Y-123677711D01*
X160605068Y-123573917D01*
X160387625Y-123503265D01*
X160387626Y-123503265D01*
X160250000Y-123481467D01*
X160250000Y-124429252D01*
X160212292Y-124407482D01*
X160072409Y-124370000D01*
X159927591Y-124370000D01*
X159787708Y-124407482D01*
X159750000Y-124429252D01*
X159750000Y-123481467D01*
X159612374Y-123503265D01*
X159394931Y-123573917D01*
X159191223Y-123677711D01*
X159006257Y-123812097D01*
X158844597Y-123973757D01*
X158710211Y-124158723D01*
X158606417Y-124362429D01*
X158535765Y-124579871D01*
X158521491Y-124670000D01*
X159509252Y-124670000D01*
X159487482Y-124707708D01*
X159450000Y-124847591D01*
X159450000Y-124992409D01*
X159487482Y-125132292D01*
X159509252Y-125170000D01*
X158521491Y-125170000D01*
X158535765Y-125260128D01*
X158606417Y-125477570D01*
X158710211Y-125681276D01*
X158835059Y-125853114D01*
X158858539Y-125918921D01*
X158842714Y-125986975D01*
X158792608Y-126035670D01*
X158734741Y-126050000D01*
X147696447Y-126050000D01*
X147046447Y-125400000D01*
X147052661Y-125400000D01*
X147154394Y-125372741D01*
X147245606Y-125320080D01*
X147320080Y-125245606D01*
X147372741Y-125154394D01*
X147400000Y-125052661D01*
X147400000Y-125046447D01*
X148079024Y-125725471D01*
X148130136Y-125652478D01*
X148226264Y-125446331D01*
X148226269Y-125446317D01*
X148285139Y-125226610D01*
X148285141Y-125226599D01*
X148304966Y-125000002D01*
X148304966Y-124999997D01*
X148285141Y-124773400D01*
X148285139Y-124773389D01*
X148226269Y-124553682D01*
X148226264Y-124553668D01*
X148130136Y-124347521D01*
X148130132Y-124347513D01*
X148079025Y-124274526D01*
X147400000Y-124953551D01*
X147400000Y-124947339D01*
X147372741Y-124845606D01*
X147320080Y-124754394D01*
X147245606Y-124679920D01*
X147154394Y-124627259D01*
X147052661Y-124600000D01*
X147046445Y-124600000D01*
X147725472Y-123920974D01*
X147652478Y-123869863D01*
X147446331Y-123773735D01*
X147446317Y-123773730D01*
X147226610Y-123714860D01*
X147226599Y-123714858D01*
X147000002Y-123695034D01*
X146999998Y-123695034D01*
X146773400Y-123714858D01*
X146773389Y-123714860D01*
X146553682Y-123773730D01*
X146553673Y-123773734D01*
X146347516Y-123869866D01*
X146347512Y-123869868D01*
X146274526Y-123920973D01*
X146274526Y-123920974D01*
X146953553Y-124600000D01*
X146947339Y-124600000D01*
X146845606Y-124627259D01*
X146754394Y-124679920D01*
X146679920Y-124754394D01*
X146627259Y-124845606D01*
X146600000Y-124947339D01*
X146600000Y-124953552D01*
X145920974Y-124274526D01*
X145920973Y-124274526D01*
X145869868Y-124347512D01*
X145869866Y-124347516D01*
X145773734Y-124553673D01*
X145773730Y-124553682D01*
X145714860Y-124773389D01*
X145714858Y-124773400D01*
X145695034Y-124999997D01*
X145695034Y-125000002D01*
X145714858Y-125226599D01*
X145714860Y-125226610D01*
X145773730Y-125446317D01*
X145773735Y-125446331D01*
X145869863Y-125652478D01*
X145920974Y-125725472D01*
X146600000Y-125046446D01*
X146600000Y-125052661D01*
X146627259Y-125154394D01*
X146679920Y-125245606D01*
X146754394Y-125320080D01*
X146845606Y-125372741D01*
X146947339Y-125400000D01*
X146953553Y-125400000D01*
X146303552Y-126050000D01*
X141265259Y-126050000D01*
X141198220Y-126030315D01*
X141152465Y-125977511D01*
X141142521Y-125908353D01*
X141164941Y-125853114D01*
X141289788Y-125681276D01*
X141393582Y-125477570D01*
X141464234Y-125260128D01*
X141478509Y-125170000D01*
X140490748Y-125170000D01*
X140512518Y-125132292D01*
X140550000Y-124992409D01*
X140550000Y-124847591D01*
X140512518Y-124707708D01*
X140490748Y-124670000D01*
X141478509Y-124670000D01*
X141464234Y-124579871D01*
X141393582Y-124362429D01*
X141289788Y-124158723D01*
X141155402Y-123973757D01*
X140993742Y-123812097D01*
X140808776Y-123677711D01*
X140605068Y-123573917D01*
X140387625Y-123503265D01*
X140387626Y-123503265D01*
X140250000Y-123481467D01*
X140250000Y-124429252D01*
X140212292Y-124407482D01*
X140072409Y-124370000D01*
X139927591Y-124370000D01*
X139787708Y-124407482D01*
X139750000Y-124429252D01*
X139750000Y-123481467D01*
X139612374Y-123503265D01*
X139394931Y-123573917D01*
X139191223Y-123677711D01*
X139006257Y-123812097D01*
X138844597Y-123973757D01*
X138710211Y-124158723D01*
X138606417Y-124362429D01*
X138535765Y-124579871D01*
X138521491Y-124670000D01*
X139509252Y-124670000D01*
X139487482Y-124707708D01*
X139450000Y-124847591D01*
X139450000Y-124992409D01*
X139487482Y-125132292D01*
X139509252Y-125170000D01*
X138521491Y-125170000D01*
X138535765Y-125260128D01*
X138606417Y-125477570D01*
X138710211Y-125681276D01*
X138835059Y-125853114D01*
X138858539Y-125918921D01*
X138842714Y-125986975D01*
X138792608Y-126035670D01*
X138734741Y-126050000D01*
X127696447Y-126050000D01*
X127046447Y-125400000D01*
X127052661Y-125400000D01*
X127154394Y-125372741D01*
X127245606Y-125320080D01*
X127320080Y-125245606D01*
X127372741Y-125154394D01*
X127400000Y-125052661D01*
X127400000Y-125046447D01*
X128079024Y-125725471D01*
X128130136Y-125652478D01*
X128226264Y-125446331D01*
X128226269Y-125446317D01*
X128285139Y-125226610D01*
X128285141Y-125226599D01*
X128304966Y-125000002D01*
X128304966Y-124999997D01*
X128285141Y-124773400D01*
X128285139Y-124773389D01*
X128226269Y-124553682D01*
X128226264Y-124553668D01*
X128130136Y-124347521D01*
X128130132Y-124347513D01*
X128079025Y-124274526D01*
X127400000Y-124953551D01*
X127400000Y-124947339D01*
X127372741Y-124845606D01*
X127320080Y-124754394D01*
X127245606Y-124679920D01*
X127154394Y-124627259D01*
X127052661Y-124600000D01*
X127046445Y-124600000D01*
X127725472Y-123920974D01*
X127652478Y-123869863D01*
X127446331Y-123773735D01*
X127446317Y-123773730D01*
X127226610Y-123714860D01*
X127226599Y-123714858D01*
X127000002Y-123695034D01*
X126999998Y-123695034D01*
X126773400Y-123714858D01*
X126773389Y-123714860D01*
X126553682Y-123773730D01*
X126553673Y-123773734D01*
X126347516Y-123869866D01*
X126347512Y-123869868D01*
X126274526Y-123920973D01*
X126274526Y-123920974D01*
X126953553Y-124600000D01*
X126947339Y-124600000D01*
X126845606Y-124627259D01*
X126754394Y-124679920D01*
X126679920Y-124754394D01*
X126627259Y-124845606D01*
X126600000Y-124947339D01*
X126600000Y-124953552D01*
X125920974Y-124274526D01*
X125920973Y-124274526D01*
X125869868Y-124347512D01*
X125869866Y-124347516D01*
X125773734Y-124553673D01*
X125773730Y-124553682D01*
X125714860Y-124773389D01*
X125714858Y-124773400D01*
X125695034Y-124999997D01*
X125695034Y-125000002D01*
X125714858Y-125226599D01*
X125714860Y-125226610D01*
X125773730Y-125446317D01*
X125773735Y-125446331D01*
X125869863Y-125652478D01*
X125920974Y-125725472D01*
X126600000Y-125046446D01*
X126600000Y-125052661D01*
X126627259Y-125154394D01*
X126679920Y-125245606D01*
X126754394Y-125320080D01*
X126845606Y-125372741D01*
X126947339Y-125400000D01*
X126953553Y-125400000D01*
X126303552Y-126050000D01*
X104524000Y-126050000D01*
X104456961Y-126030315D01*
X104411206Y-125977511D01*
X104400000Y-125926000D01*
X104400000Y-124199785D01*
X104400000Y-114550000D01*
X116325195Y-114550000D01*
X116325196Y-114550000D01*
X161776000Y-114550000D01*
X161843039Y-114569685D01*
G37*
%TD.AperFunction*%
%TD*%
%TA.AperFunction,Conductor*%
%TO.N,16V*%
G36*
X183443039Y-94019685D02*
G01*
X183488794Y-94072489D01*
X183500000Y-94124000D01*
X183500000Y-101876000D01*
X183480315Y-101943039D01*
X183427511Y-101988794D01*
X183376000Y-102000000D01*
X135000000Y-102000000D01*
X135000000Y-97199994D01*
X177444958Y-97199994D01*
X177444958Y-97200005D01*
X177465103Y-97520221D01*
X177465104Y-97520228D01*
X177525230Y-97835417D01*
X177624382Y-98140575D01*
X177624384Y-98140580D01*
X177760998Y-98430897D01*
X177761001Y-98430903D01*
X177932921Y-98701806D01*
X178028773Y-98817671D01*
X178884728Y-97961716D01*
X178970278Y-98079466D01*
X179120534Y-98229722D01*
X179238281Y-98315270D01*
X178379176Y-99174375D01*
X178630936Y-99357290D01*
X178630946Y-99357297D01*
X178912116Y-99511871D01*
X178912124Y-99511875D01*
X179210444Y-99629987D01*
X179521233Y-99709784D01*
X179521242Y-99709786D01*
X179839556Y-99749999D01*
X179839570Y-99750000D01*
X180160430Y-99750000D01*
X180160443Y-99749999D01*
X180478757Y-99709786D01*
X180478766Y-99709784D01*
X180789555Y-99629987D01*
X181087875Y-99511875D01*
X181087883Y-99511871D01*
X181369047Y-99357300D01*
X181369058Y-99357293D01*
X181620821Y-99174375D01*
X181620822Y-99174375D01*
X180761717Y-98315271D01*
X180879466Y-98229722D01*
X181029722Y-98079466D01*
X181115271Y-97961717D01*
X181971225Y-98817671D01*
X182067068Y-98701819D01*
X182239002Y-98430896D01*
X182375615Y-98140580D01*
X182375617Y-98140575D01*
X182474769Y-97835417D01*
X182534895Y-97520228D01*
X182534896Y-97520221D01*
X182555042Y-97200005D01*
X182555042Y-97199994D01*
X182534896Y-96879778D01*
X182534895Y-96879771D01*
X182474769Y-96564582D01*
X182375617Y-96259424D01*
X182375615Y-96259419D01*
X182239001Y-95969102D01*
X182238998Y-95969096D01*
X182067078Y-95698193D01*
X181971224Y-95582326D01*
X181115270Y-96438281D01*
X181029722Y-96320534D01*
X180879466Y-96170278D01*
X180761717Y-96084728D01*
X181620822Y-95225623D01*
X181369063Y-95042709D01*
X181369053Y-95042702D01*
X181087883Y-94888128D01*
X181087875Y-94888124D01*
X180789555Y-94770012D01*
X180478766Y-94690215D01*
X180478757Y-94690213D01*
X180160443Y-94650000D01*
X179839556Y-94650000D01*
X179521242Y-94690213D01*
X179521233Y-94690215D01*
X179210444Y-94770012D01*
X178912124Y-94888124D01*
X178912116Y-94888128D01*
X178630946Y-95042702D01*
X178630928Y-95042714D01*
X178379177Y-95225621D01*
X178379176Y-95225623D01*
X179238282Y-96084728D01*
X179120534Y-96170278D01*
X178970278Y-96320534D01*
X178884729Y-96438282D01*
X178028773Y-95582326D01*
X177932924Y-95698188D01*
X177761001Y-95969096D01*
X177760998Y-95969102D01*
X177624384Y-96259419D01*
X177624382Y-96259424D01*
X177525230Y-96564582D01*
X177465104Y-96879771D01*
X177465103Y-96879778D01*
X177444958Y-97199994D01*
X135000000Y-97199994D01*
X135000000Y-94000000D01*
X183376000Y-94000000D01*
X183443039Y-94019685D01*
G37*
%TD.AperFunction*%
%TD*%
%TA.AperFunction,Conductor*%
%TO.N,orin in*%
G36*
X182943039Y-134019685D02*
G01*
X182988794Y-134072489D01*
X183000000Y-134124000D01*
X183000000Y-139876000D01*
X182980315Y-139943039D01*
X182927511Y-139988794D01*
X182876000Y-140000000D01*
X170000000Y-140000000D01*
X170000000Y-137199994D01*
X177444958Y-137199994D01*
X177444958Y-137200005D01*
X177465103Y-137520221D01*
X177465104Y-137520228D01*
X177525230Y-137835417D01*
X177624382Y-138140575D01*
X177624384Y-138140580D01*
X177760998Y-138430897D01*
X177761001Y-138430903D01*
X177932921Y-138701806D01*
X178028773Y-138817671D01*
X178884728Y-137961716D01*
X178970278Y-138079466D01*
X179120534Y-138229722D01*
X179238281Y-138315270D01*
X178379176Y-139174375D01*
X178630936Y-139357290D01*
X178630946Y-139357297D01*
X178912116Y-139511871D01*
X178912124Y-139511875D01*
X179210444Y-139629987D01*
X179521233Y-139709784D01*
X179521242Y-139709786D01*
X179839556Y-139749999D01*
X179839570Y-139750000D01*
X180160430Y-139750000D01*
X180160443Y-139749999D01*
X180478757Y-139709786D01*
X180478766Y-139709784D01*
X180789555Y-139629987D01*
X181087875Y-139511875D01*
X181087883Y-139511871D01*
X181369047Y-139357300D01*
X181369058Y-139357293D01*
X181620821Y-139174375D01*
X181620822Y-139174375D01*
X180761717Y-138315271D01*
X180879466Y-138229722D01*
X181029722Y-138079466D01*
X181115271Y-137961717D01*
X181971225Y-138817671D01*
X182067068Y-138701819D01*
X182239002Y-138430896D01*
X182375615Y-138140580D01*
X182375617Y-138140575D01*
X182474769Y-137835417D01*
X182534895Y-137520228D01*
X182534896Y-137520221D01*
X182555042Y-137200005D01*
X182555042Y-137199994D01*
X182534896Y-136879778D01*
X182534895Y-136879771D01*
X182474769Y-136564582D01*
X182375617Y-136259424D01*
X182375615Y-136259419D01*
X182239001Y-135969102D01*
X182238998Y-135969096D01*
X182067078Y-135698193D01*
X181971224Y-135582326D01*
X181115270Y-136438281D01*
X181029722Y-136320534D01*
X180879466Y-136170278D01*
X180761717Y-136084728D01*
X181620822Y-135225623D01*
X181369063Y-135042709D01*
X181369053Y-135042702D01*
X181087883Y-134888128D01*
X181087875Y-134888124D01*
X180789555Y-134770012D01*
X180478766Y-134690215D01*
X180478757Y-134690213D01*
X180160443Y-134650000D01*
X179839556Y-134650000D01*
X179521242Y-134690213D01*
X179521233Y-134690215D01*
X179210444Y-134770012D01*
X178912124Y-134888124D01*
X178912116Y-134888128D01*
X178630946Y-135042702D01*
X178630928Y-135042714D01*
X178379177Y-135225621D01*
X178379176Y-135225623D01*
X179238282Y-136084728D01*
X179120534Y-136170278D01*
X178970278Y-136320534D01*
X178884729Y-136438282D01*
X178028773Y-135582326D01*
X177932924Y-135698188D01*
X177761001Y-135969096D01*
X177760998Y-135969102D01*
X177624384Y-136259419D01*
X177624382Y-136259424D01*
X177525230Y-136564582D01*
X177465104Y-136879771D01*
X177465103Y-136879778D01*
X177444958Y-137199994D01*
X170000000Y-137199994D01*
X170000000Y-134000000D01*
X182876000Y-134000000D01*
X182943039Y-134019685D01*
G37*
%TD.AperFunction*%
%TD*%
%TA.AperFunction,Conductor*%
%TO.N,12V*%
G36*
X116434235Y-72569151D02*
G01*
X116434235Y-72569152D01*
X116325195Y-114550000D01*
X116300000Y-124250000D01*
X104400000Y-124200000D01*
X104400000Y-124199785D01*
X104339083Y-106640918D01*
X104269044Y-86452155D01*
X112582323Y-86452155D01*
X112582323Y-87250000D01*
X113649311Y-87250000D01*
X113616398Y-87307007D01*
X113582323Y-87434174D01*
X113582323Y-87565826D01*
X113616398Y-87692993D01*
X113649311Y-87750000D01*
X112582323Y-87750000D01*
X112582323Y-88547844D01*
X112588724Y-88607372D01*
X112588726Y-88607379D01*
X112638968Y-88742086D01*
X112638972Y-88742093D01*
X112725132Y-88857187D01*
X112725135Y-88857190D01*
X112840229Y-88943350D01*
X112840236Y-88943354D01*
X112974943Y-88993596D01*
X112974950Y-88993598D01*
X113034478Y-88999999D01*
X113034495Y-89000000D01*
X113832323Y-89000000D01*
X113832323Y-87933012D01*
X113889330Y-87965925D01*
X114016497Y-88000000D01*
X114148149Y-88000000D01*
X114275316Y-87965925D01*
X114332323Y-87933012D01*
X114332323Y-89000000D01*
X115130151Y-89000000D01*
X115130167Y-88999999D01*
X115189695Y-88993598D01*
X115189702Y-88993596D01*
X115324409Y-88943354D01*
X115324416Y-88943350D01*
X115439510Y-88857190D01*
X115439513Y-88857187D01*
X115525673Y-88742093D01*
X115525677Y-88742086D01*
X115575919Y-88607379D01*
X115575921Y-88607372D01*
X115582322Y-88547844D01*
X115582323Y-88547827D01*
X115582323Y-87750000D01*
X114515335Y-87750000D01*
X114548248Y-87692993D01*
X114582323Y-87565826D01*
X114582323Y-87434174D01*
X114548248Y-87307007D01*
X114515335Y-87250000D01*
X115582323Y-87250000D01*
X115582323Y-86452172D01*
X115582322Y-86452155D01*
X115575921Y-86392627D01*
X115575919Y-86392620D01*
X115525677Y-86257913D01*
X115525673Y-86257906D01*
X115439513Y-86142812D01*
X115439510Y-86142809D01*
X115324416Y-86056649D01*
X115324409Y-86056645D01*
X115189702Y-86006403D01*
X115189695Y-86006401D01*
X115130167Y-86000000D01*
X114332323Y-86000000D01*
X114332323Y-87066988D01*
X114275316Y-87034075D01*
X114148149Y-87000000D01*
X114016497Y-87000000D01*
X113889330Y-87034075D01*
X113832323Y-87066988D01*
X113832323Y-86000000D01*
X113034478Y-86000000D01*
X112974950Y-86006401D01*
X112974943Y-86006403D01*
X112840236Y-86056645D01*
X112840229Y-86056649D01*
X112725135Y-86142809D01*
X112725132Y-86142812D01*
X112638972Y-86257906D01*
X112638968Y-86257913D01*
X112588726Y-86392620D01*
X112588724Y-86392627D01*
X112582323Y-86452155D01*
X104269044Y-86452155D01*
X104200000Y-66550000D01*
X111409363Y-66520574D01*
X111410070Y-66529552D01*
X111465949Y-66751315D01*
X111560528Y-66959537D01*
X111560531Y-66959543D01*
X111690759Y-67147514D01*
X111690763Y-67147519D01*
X111690766Y-67147523D01*
X111852477Y-67309234D01*
X111852481Y-67309237D01*
X111852485Y-67309240D01*
X112040456Y-67439468D01*
X112040462Y-67439471D01*
X112040463Y-67439471D01*
X112040464Y-67439472D01*
X112248684Y-67534051D01*
X112470447Y-67589930D01*
X112604753Y-67600500D01*
X114695246Y-67600499D01*
X114829553Y-67589930D01*
X115051316Y-67534051D01*
X115259536Y-67439472D01*
X115259538Y-67439470D01*
X115259543Y-67439468D01*
X115447514Y-67309240D01*
X115447523Y-67309234D01*
X115609234Y-67147523D01*
X115637477Y-67106756D01*
X115739468Y-66959543D01*
X115739471Y-66959537D01*
X115739472Y-66959536D01*
X115834051Y-66751316D01*
X115889930Y-66529553D01*
X115892076Y-66502276D01*
X116450000Y-66500000D01*
X116434235Y-72569151D01*
G37*
%TD.AperFunction*%
%TD*%
%TA.AperFunction,Conductor*%
%TO.N,16V*%
G36*
X134943039Y-63519685D02*
G01*
X134988794Y-63572489D01*
X135000000Y-63624000D01*
X135000000Y-102000000D01*
X129124000Y-102000000D01*
X129056961Y-101980315D01*
X129011206Y-101927511D01*
X129000000Y-101876000D01*
X129000000Y-66649994D01*
X129344958Y-66649994D01*
X129344958Y-66650005D01*
X129365103Y-66970221D01*
X129365104Y-66970228D01*
X129425230Y-67285417D01*
X129524382Y-67590575D01*
X129524384Y-67590580D01*
X129660998Y-67880897D01*
X129661001Y-67880903D01*
X129832921Y-68151806D01*
X129928773Y-68267671D01*
X130784728Y-67411716D01*
X130870278Y-67529466D01*
X131020534Y-67679722D01*
X131138281Y-67765270D01*
X130279176Y-68624375D01*
X130530936Y-68807290D01*
X130530946Y-68807297D01*
X130812116Y-68961871D01*
X130812124Y-68961875D01*
X131110444Y-69079987D01*
X131421233Y-69159784D01*
X131421242Y-69159786D01*
X131739556Y-69199999D01*
X131739570Y-69200000D01*
X132060430Y-69200000D01*
X132060443Y-69199999D01*
X132378757Y-69159786D01*
X132378766Y-69159784D01*
X132689555Y-69079987D01*
X132987875Y-68961875D01*
X132987883Y-68961871D01*
X133269047Y-68807300D01*
X133269058Y-68807293D01*
X133520821Y-68624375D01*
X133520822Y-68624375D01*
X132661717Y-67765271D01*
X132779466Y-67679722D01*
X132929722Y-67529466D01*
X133015271Y-67411717D01*
X133871225Y-68267671D01*
X133967068Y-68151819D01*
X134139002Y-67880896D01*
X134275615Y-67590580D01*
X134275617Y-67590575D01*
X134374769Y-67285417D01*
X134434895Y-66970228D01*
X134434896Y-66970221D01*
X134455042Y-66650005D01*
X134455042Y-66649994D01*
X134434896Y-66329778D01*
X134434895Y-66329771D01*
X134374769Y-66014582D01*
X134275617Y-65709424D01*
X134275615Y-65709419D01*
X134139001Y-65419102D01*
X134138998Y-65419096D01*
X133967078Y-65148193D01*
X133871224Y-65032326D01*
X133015270Y-65888281D01*
X132929722Y-65770534D01*
X132779466Y-65620278D01*
X132661717Y-65534728D01*
X133520822Y-64675623D01*
X133269063Y-64492709D01*
X133269053Y-64492702D01*
X132987883Y-64338128D01*
X132987875Y-64338124D01*
X132689555Y-64220012D01*
X132378766Y-64140215D01*
X132378757Y-64140213D01*
X132060443Y-64100000D01*
X131739556Y-64100000D01*
X131421242Y-64140213D01*
X131421233Y-64140215D01*
X131110444Y-64220012D01*
X130812124Y-64338124D01*
X130812116Y-64338128D01*
X130530946Y-64492702D01*
X130530928Y-64492714D01*
X130279177Y-64675621D01*
X130279176Y-64675623D01*
X131138282Y-65534728D01*
X131020534Y-65620278D01*
X130870278Y-65770534D01*
X130784729Y-65888282D01*
X129928773Y-65032326D01*
X129832924Y-65148188D01*
X129661001Y-65419096D01*
X129660998Y-65419102D01*
X129524384Y-65709419D01*
X129524382Y-65709424D01*
X129425230Y-66014582D01*
X129365104Y-66329771D01*
X129365103Y-66329778D01*
X129344958Y-66649994D01*
X129000000Y-66649994D01*
X129000000Y-63624000D01*
X129019685Y-63556961D01*
X129072489Y-63511206D01*
X129124000Y-63500000D01*
X134876000Y-63500000D01*
X134943039Y-63519685D01*
G37*
%TD.AperFunction*%
%TD*%
%TA.AperFunction,Conductor*%
%TO.N,orin in*%
G36*
X138638965Y-128414547D02*
G01*
X138705949Y-128434415D01*
X138751560Y-128487343D01*
X138761315Y-128556528D01*
X138732117Y-128620005D01*
X138712938Y-128637813D01*
X138642809Y-128690312D01*
X138556649Y-128805406D01*
X138556645Y-128805413D01*
X138506403Y-128940120D01*
X138506401Y-128940127D01*
X138500000Y-128999655D01*
X138500000Y-129750000D01*
X139509252Y-129750000D01*
X139487482Y-129787708D01*
X139450000Y-129927591D01*
X139450000Y-130072409D01*
X139487482Y-130212292D01*
X139509252Y-130250000D01*
X138500000Y-130250000D01*
X138500000Y-131000344D01*
X138506401Y-131059872D01*
X138506403Y-131059879D01*
X138556645Y-131194586D01*
X138556649Y-131194593D01*
X138642809Y-131309687D01*
X138642812Y-131309690D01*
X138757906Y-131395850D01*
X138757913Y-131395854D01*
X138892620Y-131446096D01*
X138892627Y-131446098D01*
X138952155Y-131452499D01*
X138952172Y-131452500D01*
X139750000Y-131452500D01*
X139750000Y-130490747D01*
X139787708Y-130512518D01*
X139927591Y-130550000D01*
X140072409Y-130550000D01*
X140212292Y-130512518D01*
X140250000Y-130490747D01*
X140250000Y-131452500D01*
X141047828Y-131452500D01*
X141047844Y-131452499D01*
X141107372Y-131446098D01*
X141107379Y-131446096D01*
X141242086Y-131395854D01*
X141242093Y-131395850D01*
X141357187Y-131309690D01*
X141357190Y-131309687D01*
X141443350Y-131194593D01*
X141443354Y-131194586D01*
X141493596Y-131059879D01*
X141493598Y-131059872D01*
X141499999Y-131000344D01*
X141500000Y-131000327D01*
X141500000Y-130250000D01*
X140490748Y-130250000D01*
X140512518Y-130212292D01*
X140550000Y-130072409D01*
X140550000Y-129927591D01*
X140512518Y-129787708D01*
X140490748Y-129750000D01*
X141500000Y-129750000D01*
X141500000Y-128999672D01*
X141499999Y-128999655D01*
X141493598Y-128940127D01*
X141493596Y-128940120D01*
X141443354Y-128805413D01*
X141443350Y-128805406D01*
X141357190Y-128690313D01*
X141297008Y-128645260D01*
X141255137Y-128589326D01*
X141250153Y-128519634D01*
X141283638Y-128458311D01*
X141344962Y-128424827D01*
X141371651Y-128421993D01*
X143036323Y-128426529D01*
X143103303Y-128446396D01*
X143123662Y-128462848D01*
X143160859Y-128500046D01*
X143188687Y-128519531D01*
X143347266Y-128630568D01*
X143362975Y-128637893D01*
X143415414Y-128684064D01*
X143434567Y-128751257D01*
X143414352Y-128818138D01*
X143362979Y-128862656D01*
X143347514Y-128869867D01*
X143347512Y-128869868D01*
X143274526Y-128920973D01*
X143274526Y-128920974D01*
X143953553Y-129600000D01*
X143947339Y-129600000D01*
X143845606Y-129627259D01*
X143754394Y-129679920D01*
X143679920Y-129754394D01*
X143627259Y-129845606D01*
X143600000Y-129947339D01*
X143600000Y-129953552D01*
X142920974Y-129274526D01*
X142920973Y-129274526D01*
X142869868Y-129347512D01*
X142869866Y-129347516D01*
X142773734Y-129553673D01*
X142773730Y-129553682D01*
X142714860Y-129773389D01*
X142714858Y-129773400D01*
X142695034Y-129999997D01*
X142695034Y-130000002D01*
X142714858Y-130226599D01*
X142714860Y-130226610D01*
X142773730Y-130446317D01*
X142773735Y-130446331D01*
X142869863Y-130652478D01*
X142920974Y-130725472D01*
X143600000Y-130046446D01*
X143600000Y-130052661D01*
X143627259Y-130154394D01*
X143679920Y-130245606D01*
X143754394Y-130320080D01*
X143845606Y-130372741D01*
X143947339Y-130400000D01*
X143953553Y-130400000D01*
X143274526Y-131079025D01*
X143347513Y-131130132D01*
X143347521Y-131130136D01*
X143553668Y-131226264D01*
X143553682Y-131226269D01*
X143773389Y-131285139D01*
X143773400Y-131285141D01*
X143999998Y-131304966D01*
X144000002Y-131304966D01*
X144226599Y-131285141D01*
X144226610Y-131285139D01*
X144446317Y-131226269D01*
X144446331Y-131226264D01*
X144652478Y-131130136D01*
X144725471Y-131079024D01*
X144046447Y-130400000D01*
X144052661Y-130400000D01*
X144154394Y-130372741D01*
X144245606Y-130320080D01*
X144320080Y-130245606D01*
X144372741Y-130154394D01*
X144400000Y-130052661D01*
X144400000Y-130046447D01*
X145079024Y-130725471D01*
X145130136Y-130652478D01*
X145226264Y-130446331D01*
X145226269Y-130446317D01*
X145285139Y-130226610D01*
X145285141Y-130226599D01*
X145304966Y-130000002D01*
X145304966Y-129999997D01*
X145285141Y-129773400D01*
X145285139Y-129773389D01*
X145226269Y-129553682D01*
X145226264Y-129553668D01*
X145130136Y-129347521D01*
X145130132Y-129347513D01*
X145079025Y-129274526D01*
X144400000Y-129953551D01*
X144400000Y-129947339D01*
X144372741Y-129845606D01*
X144320080Y-129754394D01*
X144245606Y-129679920D01*
X144154394Y-129627259D01*
X144052661Y-129600000D01*
X144046445Y-129600000D01*
X144725472Y-128920974D01*
X144652480Y-128869864D01*
X144637024Y-128862657D01*
X144584585Y-128816484D01*
X144565433Y-128749290D01*
X144585649Y-128682409D01*
X144637023Y-128637893D01*
X144652734Y-128630568D01*
X144839139Y-128500047D01*
X144871099Y-128468086D01*
X144932419Y-128434602D01*
X144959110Y-128431768D01*
X146044519Y-128434726D01*
X146111500Y-128454593D01*
X146131854Y-128471040D01*
X146146913Y-128486099D01*
X146160862Y-128500048D01*
X146188687Y-128519531D01*
X146347266Y-128630568D01*
X146553504Y-128726739D01*
X146773308Y-128785635D01*
X146935230Y-128799801D01*
X146999998Y-128805468D01*
X147000000Y-128805468D01*
X147000002Y-128805468D01*
X147056673Y-128800509D01*
X147226692Y-128785635D01*
X147446496Y-128726739D01*
X147652734Y-128630568D01*
X147839139Y-128500047D01*
X147862948Y-128476237D01*
X147924267Y-128442754D01*
X147950956Y-128439920D01*
X158566439Y-128468845D01*
X158633418Y-128488712D01*
X158679029Y-128541640D01*
X158688784Y-128610825D01*
X158659586Y-128674302D01*
X158648846Y-128684275D01*
X158642809Y-128690312D01*
X158556649Y-128805406D01*
X158556645Y-128805413D01*
X158506403Y-128940120D01*
X158506401Y-128940127D01*
X158500000Y-128999655D01*
X158500000Y-129750000D01*
X159509252Y-129750000D01*
X159487482Y-129787708D01*
X159450000Y-129927591D01*
X159450000Y-130072409D01*
X159487482Y-130212292D01*
X159509252Y-130250000D01*
X158500000Y-130250000D01*
X158500000Y-131000344D01*
X158506401Y-131059872D01*
X158506403Y-131059879D01*
X158556645Y-131194586D01*
X158556649Y-131194593D01*
X158642809Y-131309687D01*
X158642812Y-131309690D01*
X158757906Y-131395850D01*
X158757913Y-131395854D01*
X158892620Y-131446096D01*
X158892627Y-131446098D01*
X158952155Y-131452499D01*
X158952172Y-131452500D01*
X159750000Y-131452500D01*
X159750000Y-130490747D01*
X159787708Y-130512518D01*
X159927591Y-130550000D01*
X160072409Y-130550000D01*
X160212292Y-130512518D01*
X160250000Y-130490747D01*
X160250000Y-131452500D01*
X161047828Y-131452500D01*
X161047844Y-131452499D01*
X161107372Y-131446098D01*
X161107379Y-131446096D01*
X161242086Y-131395854D01*
X161242093Y-131395850D01*
X161357187Y-131309690D01*
X161357190Y-131309687D01*
X161443350Y-131194593D01*
X161443354Y-131194586D01*
X161493596Y-131059879D01*
X161493598Y-131059872D01*
X161499999Y-131000344D01*
X161500000Y-131000327D01*
X161500000Y-130250000D01*
X160490748Y-130250000D01*
X160512518Y-130212292D01*
X160550000Y-130072409D01*
X160550000Y-129927591D01*
X160512518Y-129787708D01*
X160490748Y-129750000D01*
X161500000Y-129750000D01*
X161500000Y-128999672D01*
X161499999Y-128999655D01*
X161493598Y-128940127D01*
X161493596Y-128940120D01*
X161443354Y-128805413D01*
X161443350Y-128805406D01*
X161357190Y-128690312D01*
X161355242Y-128688364D01*
X161353921Y-128685945D01*
X161351875Y-128683212D01*
X161352268Y-128682917D01*
X161321757Y-128627041D01*
X161326741Y-128557349D01*
X161368613Y-128501416D01*
X161434077Y-128476999D01*
X161443216Y-128476684D01*
X163095166Y-128481185D01*
X163162150Y-128501053D01*
X163165949Y-128503610D01*
X163188687Y-128519531D01*
X163347266Y-128630568D01*
X163362975Y-128637893D01*
X163415414Y-128684064D01*
X163434567Y-128751257D01*
X163414352Y-128818138D01*
X163362979Y-128862656D01*
X163347514Y-128869867D01*
X163347512Y-128869868D01*
X163274526Y-128920973D01*
X163274526Y-128920974D01*
X163953553Y-129600000D01*
X163947339Y-129600000D01*
X163845606Y-129627259D01*
X163754394Y-129679920D01*
X163679920Y-129754394D01*
X163627259Y-129845606D01*
X163600000Y-129947339D01*
X163600000Y-129953552D01*
X162920974Y-129274526D01*
X162920973Y-129274526D01*
X162869868Y-129347512D01*
X162869866Y-129347516D01*
X162773734Y-129553673D01*
X162773730Y-129553682D01*
X162714860Y-129773389D01*
X162714858Y-129773400D01*
X162695034Y-129999997D01*
X162695034Y-130000002D01*
X162714858Y-130226599D01*
X162714860Y-130226610D01*
X162773730Y-130446317D01*
X162773735Y-130446331D01*
X162869863Y-130652478D01*
X162920974Y-130725472D01*
X163600000Y-130046446D01*
X163600000Y-130052661D01*
X163627259Y-130154394D01*
X163679920Y-130245606D01*
X163754394Y-130320080D01*
X163845606Y-130372741D01*
X163947339Y-130400000D01*
X163953553Y-130400000D01*
X163274526Y-131079025D01*
X163347513Y-131130132D01*
X163347521Y-131130136D01*
X163553668Y-131226264D01*
X163553682Y-131226269D01*
X163773389Y-131285139D01*
X163773400Y-131285141D01*
X163999998Y-131304966D01*
X164000002Y-131304966D01*
X164226599Y-131285141D01*
X164226610Y-131285139D01*
X164446317Y-131226269D01*
X164446331Y-131226264D01*
X164652478Y-131130136D01*
X164725471Y-131079024D01*
X164046447Y-130400000D01*
X164052661Y-130400000D01*
X164154394Y-130372741D01*
X164245606Y-130320080D01*
X164320080Y-130245606D01*
X164372741Y-130154394D01*
X164400000Y-130052661D01*
X164400000Y-130046447D01*
X165079024Y-130725471D01*
X165130136Y-130652478D01*
X165226264Y-130446331D01*
X165226269Y-130446317D01*
X165285139Y-130226610D01*
X165285141Y-130226599D01*
X165304966Y-130000002D01*
X165304966Y-129999997D01*
X165285141Y-129773400D01*
X165285139Y-129773389D01*
X165226269Y-129553682D01*
X165226264Y-129553668D01*
X165130136Y-129347521D01*
X165130132Y-129347513D01*
X165079025Y-129274526D01*
X164400000Y-129953551D01*
X164400000Y-129947339D01*
X164372741Y-129845606D01*
X164320080Y-129754394D01*
X164245606Y-129679920D01*
X164154394Y-129627259D01*
X164052661Y-129600000D01*
X164046445Y-129600000D01*
X164725472Y-128920974D01*
X164652480Y-128869864D01*
X164637024Y-128862657D01*
X164584585Y-128816484D01*
X164565433Y-128749290D01*
X164585649Y-128682409D01*
X164637023Y-128637893D01*
X164652734Y-128630568D01*
X164827033Y-128508523D01*
X164893237Y-128486197D01*
X164898471Y-128486099D01*
X169876338Y-128499663D01*
X169943323Y-128519531D01*
X169988934Y-128572459D01*
X170000000Y-128623663D01*
X170000000Y-140000000D01*
X133423662Y-139900336D01*
X133356677Y-139880468D01*
X133311066Y-139827540D01*
X133300000Y-139776336D01*
X133300000Y-128524338D01*
X133319685Y-128457299D01*
X133372489Y-128411544D01*
X133424334Y-128400338D01*
X138638965Y-128414547D01*
G37*
%TD.AperFunction*%
%TD*%
M02*
