M48
; DRILL file {KiCad 8.0.8-8.0.8-0~ubuntu24.04.1} date 2025-02-07T22:50:05+0900
; FORMAT={-:-/ absolute / inch / decimal}
; #@! TF.CreationDate,2025-02-07T22:50:05+09:00
; #@! TF.GenerationSoftware,Kicad,Pcbnew,8.0.8-8.0.8-0~ubuntu24.04.1
; #@! TF.FileFunction,Plated,1,2,PTH
FMAT,2
INCH
; #@! TA.AperFunction,Plated,PTH,ComponentDrill
T1C0.0236
; #@! TA.AperFunction,Plated,PTH,ComponentDrill
T2C0.0315
; #@! TA.AperFunction,Plated,PTH,ComponentDrill
T3C0.0394
; #@! TA.AperFunction,Plated,PTH,ComponentDrill
T4C0.0433
; #@! TA.AperFunction,Plated,PTH,ComponentDrill
T5C0.0748
; #@! TA.AperFunction,Plated,PTH,ComponentDrill
T6C0.1063
%
G90
G05
T2
X5.0Y-4.9213
X5.0Y-5.0197
X5.6693Y-5.0197
X5.6693Y-5.1181
X5.7874Y-4.9213
X5.7874Y-5.0197
X6.4567Y-5.0197
X6.4567Y-5.1181
T3
X4.3563Y-2.376
X4.4914Y-3.4449
X4.6883Y-3.4449
X4.7894Y-2.376
X5.8071Y-2.1526
X6.2402Y-2.1526
X6.4567Y-2.1526
X6.8898Y-2.1526
T4
X5.5118Y-4.9181
X5.5118Y-5.0181
X5.5118Y-5.1181
X6.2992Y-4.9181
X6.2992Y-5.0181
X6.2992Y-5.1181
T5
X4.4744Y-2.5728
X4.6713Y-2.5728
X5.9252Y-2.5463
X6.122Y-2.5463
X6.5748Y-2.5463
X6.7717Y-2.5463
T6
X5.1929Y-2.624
X5.4764Y-2.624
X7.0866Y-2.7559
X7.0866Y-3.0394
X7.0866Y-3.5433
X7.0866Y-3.8268
X7.0866Y-4.3307
X7.0866Y-4.6142
X7.0866Y-5.1181
X7.0866Y-5.4016
T1
G00X5.0689Y-2.3661
M15
G01X5.0689Y-2.4094
M16
G05
G00X5.6004Y-2.3661
M15
G01X5.6004Y-2.4094
M16
G05
G00X7.3445Y-2.6319
M15
G01X7.3012Y-2.6319
M16
G05
G00X7.3445Y-3.1634
M15
G01X7.3012Y-3.1634
M16
G05
G00X7.3445Y-3.4193
M15
G01X7.3012Y-3.4193
M16
G05
G00X7.3445Y-3.9508
M15
G01X7.3012Y-3.9508
M16
G05
G00X7.3445Y-4.2067
M15
G01X7.3012Y-4.2067
M16
G05
G00X7.3445Y-4.7382
M15
G01X7.3012Y-4.7382
M16
G05
G00X7.3445Y-4.9941
M15
G01X7.3012Y-4.9941
M16
G05
G00X7.3445Y-5.5256
M15
G01X7.3012Y-5.5256
M16
G05
M30
