%TF.GenerationSoftware,KiCad,Pcbnew,8.0.8-8.0.8-0~ubuntu24.04.1*%
%TF.CreationDate,2025-02-07T22:42:51+09:00*%
%TF.ProjectId,Accurate,41636375-7261-4746-952e-6b696361645f,rev?*%
%TF.SameCoordinates,Original*%
%TF.FileFunction,Legend,Top*%
%TF.FilePolarity,Positive*%
%FSLAX46Y46*%
G04 Gerber Fmt 4.6, Leading zero omitted, Abs format (unit mm)*
G04 Created by KiCad (PCBNEW 8.0.8-8.0.8-0~ubuntu24.04.1) date 2025-02-07 22:42:51*
%MOMM*%
%LPD*%
G01*
G04 APERTURE LIST*
%ADD10C,0.100000*%
%ADD11C,0.150000*%
%ADD12C,0.120000*%
%ADD13C,0.127000*%
%ADD14C,0.200000*%
G04 APERTURE END LIST*
D10*
X175875312Y-80527180D02*
X175827693Y-80574800D01*
X175827693Y-80574800D02*
X175684836Y-80622419D01*
X175684836Y-80622419D02*
X175589598Y-80622419D01*
X175589598Y-80622419D02*
X175446741Y-80574800D01*
X175446741Y-80574800D02*
X175351503Y-80479561D01*
X175351503Y-80479561D02*
X175303884Y-80384323D01*
X175303884Y-80384323D02*
X175256265Y-80193847D01*
X175256265Y-80193847D02*
X175256265Y-80050990D01*
X175256265Y-80050990D02*
X175303884Y-79860514D01*
X175303884Y-79860514D02*
X175351503Y-79765276D01*
X175351503Y-79765276D02*
X175446741Y-79670038D01*
X175446741Y-79670038D02*
X175589598Y-79622419D01*
X175589598Y-79622419D02*
X175684836Y-79622419D01*
X175684836Y-79622419D02*
X175827693Y-79670038D01*
X175827693Y-79670038D02*
X175875312Y-79717657D01*
X176256265Y-80336704D02*
X176732455Y-80336704D01*
X176161027Y-80622419D02*
X176494360Y-79622419D01*
X176494360Y-79622419D02*
X176827693Y-80622419D01*
X177161027Y-80622419D02*
X177161027Y-79622419D01*
X177161027Y-79622419D02*
X177732455Y-80622419D01*
X177732455Y-80622419D02*
X177732455Y-79622419D01*
X179446741Y-80622419D02*
X178970551Y-80622419D01*
X178970551Y-80622419D02*
X178970551Y-79622419D01*
X179970551Y-79622419D02*
X180161027Y-79622419D01*
X180161027Y-79622419D02*
X180256265Y-79670038D01*
X180256265Y-79670038D02*
X180351503Y-79765276D01*
X180351503Y-79765276D02*
X180399122Y-79955752D01*
X180399122Y-79955752D02*
X180399122Y-80289085D01*
X180399122Y-80289085D02*
X180351503Y-80479561D01*
X180351503Y-80479561D02*
X180256265Y-80574800D01*
X180256265Y-80574800D02*
X180161027Y-80622419D01*
X180161027Y-80622419D02*
X179970551Y-80622419D01*
X179970551Y-80622419D02*
X179875313Y-80574800D01*
X179875313Y-80574800D02*
X179780075Y-80479561D01*
X179780075Y-80479561D02*
X179732456Y-80289085D01*
X179732456Y-80289085D02*
X179732456Y-79955752D01*
X179732456Y-79955752D02*
X179780075Y-79765276D01*
X179780075Y-79765276D02*
X179875313Y-79670038D01*
X179875313Y-79670038D02*
X179970551Y-79622419D01*
X180732456Y-79622419D02*
X180970551Y-80622419D01*
X180970551Y-80622419D02*
X181161027Y-79908133D01*
X181161027Y-79908133D02*
X181351503Y-80622419D01*
X181351503Y-80622419D02*
X181589599Y-79622419D01*
D11*
X128027438Y-66188095D02*
X127979819Y-66283333D01*
X127979819Y-66283333D02*
X127979819Y-66426190D01*
X127979819Y-66426190D02*
X128027438Y-66569047D01*
X128027438Y-66569047D02*
X128122676Y-66664285D01*
X128122676Y-66664285D02*
X128217914Y-66711904D01*
X128217914Y-66711904D02*
X128408390Y-66759523D01*
X128408390Y-66759523D02*
X128551247Y-66759523D01*
X128551247Y-66759523D02*
X128741723Y-66711904D01*
X128741723Y-66711904D02*
X128836961Y-66664285D01*
X128836961Y-66664285D02*
X128932200Y-66569047D01*
X128932200Y-66569047D02*
X128979819Y-66426190D01*
X128979819Y-66426190D02*
X128979819Y-66330952D01*
X128979819Y-66330952D02*
X128932200Y-66188095D01*
X128932200Y-66188095D02*
X128884580Y-66140476D01*
X128884580Y-66140476D02*
X128551247Y-66140476D01*
X128551247Y-66140476D02*
X128551247Y-66330952D01*
X120831009Y-66378571D02*
X120878628Y-66235714D01*
X120878628Y-66235714D02*
X120926247Y-66188095D01*
X120926247Y-66188095D02*
X121021485Y-66140476D01*
X121021485Y-66140476D02*
X121164342Y-66140476D01*
X121164342Y-66140476D02*
X121259580Y-66188095D01*
X121259580Y-66188095D02*
X121307200Y-66235714D01*
X121307200Y-66235714D02*
X121354819Y-66330952D01*
X121354819Y-66330952D02*
X121354819Y-66711904D01*
X121354819Y-66711904D02*
X120354819Y-66711904D01*
X120354819Y-66711904D02*
X120354819Y-66378571D01*
X120354819Y-66378571D02*
X120402438Y-66283333D01*
X120402438Y-66283333D02*
X120450057Y-66235714D01*
X120450057Y-66235714D02*
X120545295Y-66188095D01*
X120545295Y-66188095D02*
X120640533Y-66188095D01*
X120640533Y-66188095D02*
X120735771Y-66235714D01*
X120735771Y-66235714D02*
X120783390Y-66283333D01*
X120783390Y-66283333D02*
X120831009Y-66378571D01*
X120831009Y-66378571D02*
X120831009Y-66711904D01*
D10*
X176690163Y-55975200D02*
X176785401Y-55927580D01*
X176785401Y-55927580D02*
X176975877Y-55927580D01*
X176975877Y-55927580D02*
X177071115Y-55975200D01*
X177071115Y-55975200D02*
X177118734Y-56070438D01*
X177118734Y-56070438D02*
X177118734Y-56451390D01*
X177118734Y-56451390D02*
X177071115Y-56546628D01*
X177071115Y-56546628D02*
X176975877Y-56594247D01*
X176975877Y-56594247D02*
X176785401Y-56594247D01*
X176785401Y-56594247D02*
X176690163Y-56546628D01*
X176690163Y-56546628D02*
X176642544Y-56451390D01*
X176642544Y-56451390D02*
X176642544Y-56356152D01*
X176642544Y-56356152D02*
X177118734Y-56260914D01*
X176309210Y-55927580D02*
X175785401Y-56594247D01*
X176309210Y-56594247D02*
X175785401Y-55927580D01*
X175547305Y-56594247D02*
X175166353Y-56594247D01*
X175404448Y-56927580D02*
X175404448Y-56070438D01*
X175404448Y-56070438D02*
X175356829Y-55975200D01*
X175356829Y-55975200D02*
X175261591Y-55927580D01*
X175261591Y-55927580D02*
X175166353Y-55927580D01*
X174452067Y-55975200D02*
X174547305Y-55927580D01*
X174547305Y-55927580D02*
X174737781Y-55927580D01*
X174737781Y-55927580D02*
X174833019Y-55975200D01*
X174833019Y-55975200D02*
X174880638Y-56070438D01*
X174880638Y-56070438D02*
X174880638Y-56451390D01*
X174880638Y-56451390D02*
X174833019Y-56546628D01*
X174833019Y-56546628D02*
X174737781Y-56594247D01*
X174737781Y-56594247D02*
X174547305Y-56594247D01*
X174547305Y-56594247D02*
X174452067Y-56546628D01*
X174452067Y-56546628D02*
X174404448Y-56451390D01*
X174404448Y-56451390D02*
X174404448Y-56356152D01*
X174404448Y-56356152D02*
X174880638Y-56260914D01*
X173975876Y-55927580D02*
X173975876Y-56594247D01*
X173975876Y-56403771D02*
X173928257Y-56499009D01*
X173928257Y-56499009D02*
X173880638Y-56546628D01*
X173880638Y-56546628D02*
X173785400Y-56594247D01*
X173785400Y-56594247D02*
X173690162Y-56594247D01*
X173356828Y-56594247D02*
X173356828Y-55927580D01*
X173356828Y-56499009D02*
X173309209Y-56546628D01*
X173309209Y-56546628D02*
X173213971Y-56594247D01*
X173213971Y-56594247D02*
X173071114Y-56594247D01*
X173071114Y-56594247D02*
X172975876Y-56546628D01*
X172975876Y-56546628D02*
X172928257Y-56451390D01*
X172928257Y-56451390D02*
X172928257Y-55927580D01*
X172023495Y-55927580D02*
X172023495Y-56451390D01*
X172023495Y-56451390D02*
X172071114Y-56546628D01*
X172071114Y-56546628D02*
X172166352Y-56594247D01*
X172166352Y-56594247D02*
X172356828Y-56594247D01*
X172356828Y-56594247D02*
X172452066Y-56546628D01*
X172023495Y-55975200D02*
X172118733Y-55927580D01*
X172118733Y-55927580D02*
X172356828Y-55927580D01*
X172356828Y-55927580D02*
X172452066Y-55975200D01*
X172452066Y-55975200D02*
X172499685Y-56070438D01*
X172499685Y-56070438D02*
X172499685Y-56165676D01*
X172499685Y-56165676D02*
X172452066Y-56260914D01*
X172452066Y-56260914D02*
X172356828Y-56308533D01*
X172356828Y-56308533D02*
X172118733Y-56308533D01*
X172118733Y-56308533D02*
X172023495Y-56356152D01*
X171404447Y-55927580D02*
X171499685Y-55975200D01*
X171499685Y-55975200D02*
X171547304Y-56070438D01*
X171547304Y-56070438D02*
X171547304Y-56927580D01*
X175875312Y-77777180D02*
X175827693Y-77824800D01*
X175827693Y-77824800D02*
X175684836Y-77872419D01*
X175684836Y-77872419D02*
X175589598Y-77872419D01*
X175589598Y-77872419D02*
X175446741Y-77824800D01*
X175446741Y-77824800D02*
X175351503Y-77729561D01*
X175351503Y-77729561D02*
X175303884Y-77634323D01*
X175303884Y-77634323D02*
X175256265Y-77443847D01*
X175256265Y-77443847D02*
X175256265Y-77300990D01*
X175256265Y-77300990D02*
X175303884Y-77110514D01*
X175303884Y-77110514D02*
X175351503Y-77015276D01*
X175351503Y-77015276D02*
X175446741Y-76920038D01*
X175446741Y-76920038D02*
X175589598Y-76872419D01*
X175589598Y-76872419D02*
X175684836Y-76872419D01*
X175684836Y-76872419D02*
X175827693Y-76920038D01*
X175827693Y-76920038D02*
X175875312Y-76967657D01*
X176256265Y-77586704D02*
X176732455Y-77586704D01*
X176161027Y-77872419D02*
X176494360Y-76872419D01*
X176494360Y-76872419D02*
X176827693Y-77872419D01*
X177161027Y-77872419D02*
X177161027Y-76872419D01*
X177161027Y-76872419D02*
X177732455Y-77872419D01*
X177732455Y-77872419D02*
X177732455Y-76872419D01*
X178970551Y-77872419D02*
X178970551Y-76872419D01*
X178970551Y-77348609D02*
X179541979Y-77348609D01*
X179541979Y-77872419D02*
X179541979Y-76872419D01*
X180018170Y-77872419D02*
X180018170Y-76872419D01*
X181018169Y-76920038D02*
X180922931Y-76872419D01*
X180922931Y-76872419D02*
X180780074Y-76872419D01*
X180780074Y-76872419D02*
X180637217Y-76920038D01*
X180637217Y-76920038D02*
X180541979Y-77015276D01*
X180541979Y-77015276D02*
X180494360Y-77110514D01*
X180494360Y-77110514D02*
X180446741Y-77300990D01*
X180446741Y-77300990D02*
X180446741Y-77443847D01*
X180446741Y-77443847D02*
X180494360Y-77634323D01*
X180494360Y-77634323D02*
X180541979Y-77729561D01*
X180541979Y-77729561D02*
X180637217Y-77824800D01*
X180637217Y-77824800D02*
X180780074Y-77872419D01*
X180780074Y-77872419D02*
X180875312Y-77872419D01*
X180875312Y-77872419D02*
X181018169Y-77824800D01*
X181018169Y-77824800D02*
X181065788Y-77777180D01*
X181065788Y-77777180D02*
X181065788Y-77443847D01*
X181065788Y-77443847D02*
X180875312Y-77443847D01*
X181494360Y-77872419D02*
X181494360Y-76872419D01*
X181494360Y-77348609D02*
X182065788Y-77348609D01*
X182065788Y-77872419D02*
X182065788Y-76872419D01*
X175875312Y-67777180D02*
X175827693Y-67824800D01*
X175827693Y-67824800D02*
X175684836Y-67872419D01*
X175684836Y-67872419D02*
X175589598Y-67872419D01*
X175589598Y-67872419D02*
X175446741Y-67824800D01*
X175446741Y-67824800D02*
X175351503Y-67729561D01*
X175351503Y-67729561D02*
X175303884Y-67634323D01*
X175303884Y-67634323D02*
X175256265Y-67443847D01*
X175256265Y-67443847D02*
X175256265Y-67300990D01*
X175256265Y-67300990D02*
X175303884Y-67110514D01*
X175303884Y-67110514D02*
X175351503Y-67015276D01*
X175351503Y-67015276D02*
X175446741Y-66920038D01*
X175446741Y-66920038D02*
X175589598Y-66872419D01*
X175589598Y-66872419D02*
X175684836Y-66872419D01*
X175684836Y-66872419D02*
X175827693Y-66920038D01*
X175827693Y-66920038D02*
X175875312Y-66967657D01*
X176256265Y-67586704D02*
X176732455Y-67586704D01*
X176161027Y-67872419D02*
X176494360Y-66872419D01*
X176494360Y-66872419D02*
X176827693Y-67872419D01*
X177161027Y-67872419D02*
X177161027Y-66872419D01*
X177161027Y-66872419D02*
X177732455Y-67872419D01*
X177732455Y-67872419D02*
X177732455Y-66872419D01*
X178970551Y-67872419D02*
X178970551Y-66872419D01*
X178970551Y-67348609D02*
X179541979Y-67348609D01*
X179541979Y-67872419D02*
X179541979Y-66872419D01*
X180018170Y-67872419D02*
X180018170Y-66872419D01*
X181018169Y-66920038D02*
X180922931Y-66872419D01*
X180922931Y-66872419D02*
X180780074Y-66872419D01*
X180780074Y-66872419D02*
X180637217Y-66920038D01*
X180637217Y-66920038D02*
X180541979Y-67015276D01*
X180541979Y-67015276D02*
X180494360Y-67110514D01*
X180494360Y-67110514D02*
X180446741Y-67300990D01*
X180446741Y-67300990D02*
X180446741Y-67443847D01*
X180446741Y-67443847D02*
X180494360Y-67634323D01*
X180494360Y-67634323D02*
X180541979Y-67729561D01*
X180541979Y-67729561D02*
X180637217Y-67824800D01*
X180637217Y-67824800D02*
X180780074Y-67872419D01*
X180780074Y-67872419D02*
X180875312Y-67872419D01*
X180875312Y-67872419D02*
X181018169Y-67824800D01*
X181018169Y-67824800D02*
X181065788Y-67777180D01*
X181065788Y-67777180D02*
X181065788Y-67443847D01*
X181065788Y-67443847D02*
X180875312Y-67443847D01*
X181494360Y-67872419D02*
X181494360Y-66872419D01*
X181494360Y-67348609D02*
X182065788Y-67348609D01*
X182065788Y-67872419D02*
X182065788Y-66872419D01*
X175752693Y-119620038D02*
X175657455Y-119572419D01*
X175657455Y-119572419D02*
X175514598Y-119572419D01*
X175514598Y-119572419D02*
X175371741Y-119620038D01*
X175371741Y-119620038D02*
X175276503Y-119715276D01*
X175276503Y-119715276D02*
X175228884Y-119810514D01*
X175228884Y-119810514D02*
X175181265Y-120000990D01*
X175181265Y-120000990D02*
X175181265Y-120143847D01*
X175181265Y-120143847D02*
X175228884Y-120334323D01*
X175228884Y-120334323D02*
X175276503Y-120429561D01*
X175276503Y-120429561D02*
X175371741Y-120524800D01*
X175371741Y-120524800D02*
X175514598Y-120572419D01*
X175514598Y-120572419D02*
X175609836Y-120572419D01*
X175609836Y-120572419D02*
X175752693Y-120524800D01*
X175752693Y-120524800D02*
X175800312Y-120477180D01*
X175800312Y-120477180D02*
X175800312Y-120143847D01*
X175800312Y-120143847D02*
X175609836Y-120143847D01*
X176228884Y-120572419D02*
X176228884Y-119572419D01*
X176228884Y-119572419D02*
X176800312Y-120572419D01*
X176800312Y-120572419D02*
X176800312Y-119572419D01*
X177276503Y-120572419D02*
X177276503Y-119572419D01*
X177276503Y-119572419D02*
X177514598Y-119572419D01*
X177514598Y-119572419D02*
X177657455Y-119620038D01*
X177657455Y-119620038D02*
X177752693Y-119715276D01*
X177752693Y-119715276D02*
X177800312Y-119810514D01*
X177800312Y-119810514D02*
X177847931Y-120000990D01*
X177847931Y-120000990D02*
X177847931Y-120143847D01*
X177847931Y-120143847D02*
X177800312Y-120334323D01*
X177800312Y-120334323D02*
X177752693Y-120429561D01*
X177752693Y-120429561D02*
X177657455Y-120524800D01*
X177657455Y-120524800D02*
X177514598Y-120572419D01*
X177514598Y-120572419D02*
X177276503Y-120572419D01*
X179038408Y-120572419D02*
X179038408Y-119572419D01*
X179038408Y-119572419D02*
X179419360Y-119572419D01*
X179419360Y-119572419D02*
X179514598Y-119620038D01*
X179514598Y-119620038D02*
X179562217Y-119667657D01*
X179562217Y-119667657D02*
X179609836Y-119762895D01*
X179609836Y-119762895D02*
X179609836Y-119905752D01*
X179609836Y-119905752D02*
X179562217Y-120000990D01*
X179562217Y-120000990D02*
X179514598Y-120048609D01*
X179514598Y-120048609D02*
X179419360Y-120096228D01*
X179419360Y-120096228D02*
X179038408Y-120096228D01*
X180038408Y-120572419D02*
X180038408Y-119572419D01*
X180514598Y-120572419D02*
X180514598Y-119572419D01*
X180514598Y-119572419D02*
X181086026Y-120572419D01*
X181086026Y-120572419D02*
X181086026Y-119572419D01*
D11*
X117829819Y-66590476D02*
X117829819Y-67066666D01*
X117829819Y-67066666D02*
X118306009Y-67114285D01*
X118306009Y-67114285D02*
X118258390Y-67066666D01*
X118258390Y-67066666D02*
X118210771Y-66971428D01*
X118210771Y-66971428D02*
X118210771Y-66733333D01*
X118210771Y-66733333D02*
X118258390Y-66638095D01*
X118258390Y-66638095D02*
X118306009Y-66590476D01*
X118306009Y-66590476D02*
X118401247Y-66542857D01*
X118401247Y-66542857D02*
X118639342Y-66542857D01*
X118639342Y-66542857D02*
X118734580Y-66590476D01*
X118734580Y-66590476D02*
X118782200Y-66638095D01*
X118782200Y-66638095D02*
X118829819Y-66733333D01*
X118829819Y-66733333D02*
X118829819Y-66971428D01*
X118829819Y-66971428D02*
X118782200Y-67066666D01*
X118782200Y-67066666D02*
X118734580Y-67114285D01*
X117829819Y-66257142D02*
X118829819Y-65923809D01*
X118829819Y-65923809D02*
X117829819Y-65590476D01*
D10*
X175303884Y-110422419D02*
X175303884Y-109422419D01*
X175303884Y-109422419D02*
X175541979Y-109422419D01*
X175541979Y-109422419D02*
X175684836Y-109470038D01*
X175684836Y-109470038D02*
X175780074Y-109565276D01*
X175780074Y-109565276D02*
X175827693Y-109660514D01*
X175827693Y-109660514D02*
X175875312Y-109850990D01*
X175875312Y-109850990D02*
X175875312Y-109993847D01*
X175875312Y-109993847D02*
X175827693Y-110184323D01*
X175827693Y-110184323D02*
X175780074Y-110279561D01*
X175780074Y-110279561D02*
X175684836Y-110374800D01*
X175684836Y-110374800D02*
X175541979Y-110422419D01*
X175541979Y-110422419D02*
X175303884Y-110422419D01*
X176303884Y-110422419D02*
X176303884Y-109422419D01*
X177351502Y-110422419D02*
X177018169Y-109946228D01*
X176780074Y-110422419D02*
X176780074Y-109422419D01*
X176780074Y-109422419D02*
X177161026Y-109422419D01*
X177161026Y-109422419D02*
X177256264Y-109470038D01*
X177256264Y-109470038D02*
X177303883Y-109517657D01*
X177303883Y-109517657D02*
X177351502Y-109612895D01*
X177351502Y-109612895D02*
X177351502Y-109755752D01*
X177351502Y-109755752D02*
X177303883Y-109850990D01*
X177303883Y-109850990D02*
X177256264Y-109898609D01*
X177256264Y-109898609D02*
X177161026Y-109946228D01*
X177161026Y-109946228D02*
X176780074Y-109946228D01*
X178541979Y-110422419D02*
X178541979Y-109422419D01*
X178541979Y-109422419D02*
X178922931Y-109422419D01*
X178922931Y-109422419D02*
X179018169Y-109470038D01*
X179018169Y-109470038D02*
X179065788Y-109517657D01*
X179065788Y-109517657D02*
X179113407Y-109612895D01*
X179113407Y-109612895D02*
X179113407Y-109755752D01*
X179113407Y-109755752D02*
X179065788Y-109850990D01*
X179065788Y-109850990D02*
X179018169Y-109898609D01*
X179018169Y-109898609D02*
X178922931Y-109946228D01*
X178922931Y-109946228D02*
X178541979Y-109946228D01*
X179541979Y-110422419D02*
X179541979Y-109422419D01*
X180018169Y-110422419D02*
X180018169Y-109422419D01*
X180018169Y-109422419D02*
X180589597Y-110422419D01*
X180589597Y-110422419D02*
X180589597Y-109422419D01*
D11*
X163960714Y-51004819D02*
X164055952Y-51004819D01*
X164055952Y-51004819D02*
X164151190Y-51052438D01*
X164151190Y-51052438D02*
X164198809Y-51100057D01*
X164198809Y-51100057D02*
X164246428Y-51195295D01*
X164246428Y-51195295D02*
X164294047Y-51385771D01*
X164294047Y-51385771D02*
X164294047Y-51623866D01*
X164294047Y-51623866D02*
X164246428Y-51814342D01*
X164246428Y-51814342D02*
X164198809Y-51909580D01*
X164198809Y-51909580D02*
X164151190Y-51957200D01*
X164151190Y-51957200D02*
X164055952Y-52004819D01*
X164055952Y-52004819D02*
X163960714Y-52004819D01*
X163960714Y-52004819D02*
X163865476Y-51957200D01*
X163865476Y-51957200D02*
X163817857Y-51909580D01*
X163817857Y-51909580D02*
X163770238Y-51814342D01*
X163770238Y-51814342D02*
X163722619Y-51623866D01*
X163722619Y-51623866D02*
X163722619Y-51385771D01*
X163722619Y-51385771D02*
X163770238Y-51195295D01*
X163770238Y-51195295D02*
X163817857Y-51100057D01*
X163817857Y-51100057D02*
X163865476Y-51052438D01*
X163865476Y-51052438D02*
X163960714Y-51004819D01*
X164722619Y-51909580D02*
X164770238Y-51957200D01*
X164770238Y-51957200D02*
X164722619Y-52004819D01*
X164722619Y-52004819D02*
X164675000Y-51957200D01*
X164675000Y-51957200D02*
X164722619Y-51909580D01*
X164722619Y-51909580D02*
X164722619Y-52004819D01*
X165722618Y-52004819D02*
X165151190Y-52004819D01*
X165436904Y-52004819D02*
X165436904Y-51004819D01*
X165436904Y-51004819D02*
X165341666Y-51147676D01*
X165341666Y-51147676D02*
X165246428Y-51242914D01*
X165246428Y-51242914D02*
X165151190Y-51290533D01*
X166151190Y-51338152D02*
X166151190Y-52338152D01*
X166627380Y-51861961D02*
X166674999Y-51957200D01*
X166674999Y-51957200D02*
X166770237Y-52004819D01*
X166151190Y-51861961D02*
X166198809Y-51957200D01*
X166198809Y-51957200D02*
X166294047Y-52004819D01*
X166294047Y-52004819D02*
X166484523Y-52004819D01*
X166484523Y-52004819D02*
X166579761Y-51957200D01*
X166579761Y-51957200D02*
X166627380Y-51861961D01*
X166627380Y-51861961D02*
X166627380Y-51338152D01*
X167532142Y-51481009D02*
X167198809Y-51481009D01*
X167198809Y-52004819D02*
X167198809Y-51004819D01*
X167198809Y-51004819D02*
X167674999Y-51004819D01*
D10*
X175178884Y-140347419D02*
X175178884Y-139347419D01*
X175178884Y-139347419D02*
X175416979Y-139347419D01*
X175416979Y-139347419D02*
X175559836Y-139395038D01*
X175559836Y-139395038D02*
X175655074Y-139490276D01*
X175655074Y-139490276D02*
X175702693Y-139585514D01*
X175702693Y-139585514D02*
X175750312Y-139775990D01*
X175750312Y-139775990D02*
X175750312Y-139918847D01*
X175750312Y-139918847D02*
X175702693Y-140109323D01*
X175702693Y-140109323D02*
X175655074Y-140204561D01*
X175655074Y-140204561D02*
X175559836Y-140299800D01*
X175559836Y-140299800D02*
X175416979Y-140347419D01*
X175416979Y-140347419D02*
X175178884Y-140347419D01*
X176178884Y-140347419D02*
X176178884Y-139347419D01*
X177226502Y-140347419D02*
X176893169Y-139871228D01*
X176655074Y-140347419D02*
X176655074Y-139347419D01*
X176655074Y-139347419D02*
X177036026Y-139347419D01*
X177036026Y-139347419D02*
X177131264Y-139395038D01*
X177131264Y-139395038D02*
X177178883Y-139442657D01*
X177178883Y-139442657D02*
X177226502Y-139537895D01*
X177226502Y-139537895D02*
X177226502Y-139680752D01*
X177226502Y-139680752D02*
X177178883Y-139775990D01*
X177178883Y-139775990D02*
X177131264Y-139823609D01*
X177131264Y-139823609D02*
X177036026Y-139871228D01*
X177036026Y-139871228D02*
X176655074Y-139871228D01*
X178416979Y-140347419D02*
X178416979Y-139347419D01*
X178416979Y-139347419D02*
X178797931Y-139347419D01*
X178797931Y-139347419D02*
X178893169Y-139395038D01*
X178893169Y-139395038D02*
X178940788Y-139442657D01*
X178940788Y-139442657D02*
X178988407Y-139537895D01*
X178988407Y-139537895D02*
X178988407Y-139680752D01*
X178988407Y-139680752D02*
X178940788Y-139775990D01*
X178940788Y-139775990D02*
X178893169Y-139823609D01*
X178893169Y-139823609D02*
X178797931Y-139871228D01*
X178797931Y-139871228D02*
X178416979Y-139871228D01*
X179416979Y-140347419D02*
X179416979Y-139347419D01*
X179893169Y-140347419D02*
X179893169Y-139347419D01*
X179893169Y-139347419D02*
X180464597Y-140347419D01*
X180464597Y-140347419D02*
X180464597Y-139347419D01*
X124637217Y-148120514D02*
X126065789Y-148120514D01*
X124351503Y-148977657D02*
X125351503Y-145977657D01*
X125351503Y-145977657D02*
X126351503Y-148977657D01*
X128637218Y-148834800D02*
X128351503Y-148977657D01*
X128351503Y-148977657D02*
X127780075Y-148977657D01*
X127780075Y-148977657D02*
X127494360Y-148834800D01*
X127494360Y-148834800D02*
X127351503Y-148691942D01*
X127351503Y-148691942D02*
X127208646Y-148406228D01*
X127208646Y-148406228D02*
X127208646Y-147549085D01*
X127208646Y-147549085D02*
X127351503Y-147263371D01*
X127351503Y-147263371D02*
X127494360Y-147120514D01*
X127494360Y-147120514D02*
X127780075Y-146977657D01*
X127780075Y-146977657D02*
X128351503Y-146977657D01*
X128351503Y-146977657D02*
X128637218Y-147120514D01*
X131208647Y-148834800D02*
X130922932Y-148977657D01*
X130922932Y-148977657D02*
X130351504Y-148977657D01*
X130351504Y-148977657D02*
X130065789Y-148834800D01*
X130065789Y-148834800D02*
X129922932Y-148691942D01*
X129922932Y-148691942D02*
X129780075Y-148406228D01*
X129780075Y-148406228D02*
X129780075Y-147549085D01*
X129780075Y-147549085D02*
X129922932Y-147263371D01*
X129922932Y-147263371D02*
X130065789Y-147120514D01*
X130065789Y-147120514D02*
X130351504Y-146977657D01*
X130351504Y-146977657D02*
X130922932Y-146977657D01*
X130922932Y-146977657D02*
X131208647Y-147120514D01*
X133780076Y-146977657D02*
X133780076Y-148977657D01*
X132494361Y-146977657D02*
X132494361Y-148549085D01*
X132494361Y-148549085D02*
X132637218Y-148834800D01*
X132637218Y-148834800D02*
X132922933Y-148977657D01*
X132922933Y-148977657D02*
X133351504Y-148977657D01*
X133351504Y-148977657D02*
X133637218Y-148834800D01*
X133637218Y-148834800D02*
X133780076Y-148691942D01*
X135208647Y-148977657D02*
X135208647Y-146977657D01*
X135208647Y-147549085D02*
X135351504Y-147263371D01*
X135351504Y-147263371D02*
X135494362Y-147120514D01*
X135494362Y-147120514D02*
X135780076Y-146977657D01*
X135780076Y-146977657D02*
X136065790Y-146977657D01*
X138351505Y-148977657D02*
X138351505Y-147406228D01*
X138351505Y-147406228D02*
X138208647Y-147120514D01*
X138208647Y-147120514D02*
X137922933Y-146977657D01*
X137922933Y-146977657D02*
X137351505Y-146977657D01*
X137351505Y-146977657D02*
X137065790Y-147120514D01*
X138351505Y-148834800D02*
X138065790Y-148977657D01*
X138065790Y-148977657D02*
X137351505Y-148977657D01*
X137351505Y-148977657D02*
X137065790Y-148834800D01*
X137065790Y-148834800D02*
X136922933Y-148549085D01*
X136922933Y-148549085D02*
X136922933Y-148263371D01*
X136922933Y-148263371D02*
X137065790Y-147977657D01*
X137065790Y-147977657D02*
X137351505Y-147834800D01*
X137351505Y-147834800D02*
X138065790Y-147834800D01*
X138065790Y-147834800D02*
X138351505Y-147691942D01*
X139351505Y-146977657D02*
X140494362Y-146977657D01*
X139780076Y-145977657D02*
X139780076Y-148549085D01*
X139780076Y-148549085D02*
X139922933Y-148834800D01*
X139922933Y-148834800D02*
X140208648Y-148977657D01*
X140208648Y-148977657D02*
X140494362Y-148977657D01*
X142637219Y-148834800D02*
X142351505Y-148977657D01*
X142351505Y-148977657D02*
X141780077Y-148977657D01*
X141780077Y-148977657D02*
X141494362Y-148834800D01*
X141494362Y-148834800D02*
X141351505Y-148549085D01*
X141351505Y-148549085D02*
X141351505Y-147406228D01*
X141351505Y-147406228D02*
X141494362Y-147120514D01*
X141494362Y-147120514D02*
X141780077Y-146977657D01*
X141780077Y-146977657D02*
X142351505Y-146977657D01*
X142351505Y-146977657D02*
X142637219Y-147120514D01*
X142637219Y-147120514D02*
X142780077Y-147406228D01*
X142780077Y-147406228D02*
X142780077Y-147691942D01*
X142780077Y-147691942D02*
X141351505Y-147977657D01*
D11*
X135881009Y-66328571D02*
X135928628Y-66185714D01*
X135928628Y-66185714D02*
X135976247Y-66138095D01*
X135976247Y-66138095D02*
X136071485Y-66090476D01*
X136071485Y-66090476D02*
X136214342Y-66090476D01*
X136214342Y-66090476D02*
X136309580Y-66138095D01*
X136309580Y-66138095D02*
X136357200Y-66185714D01*
X136357200Y-66185714D02*
X136404819Y-66280952D01*
X136404819Y-66280952D02*
X136404819Y-66661904D01*
X136404819Y-66661904D02*
X135404819Y-66661904D01*
X135404819Y-66661904D02*
X135404819Y-66328571D01*
X135404819Y-66328571D02*
X135452438Y-66233333D01*
X135452438Y-66233333D02*
X135500057Y-66185714D01*
X135500057Y-66185714D02*
X135595295Y-66138095D01*
X135595295Y-66138095D02*
X135690533Y-66138095D01*
X135690533Y-66138095D02*
X135785771Y-66185714D01*
X135785771Y-66185714D02*
X135833390Y-66233333D01*
X135833390Y-66233333D02*
X135881009Y-66328571D01*
X135881009Y-66328571D02*
X135881009Y-66661904D01*
D10*
X196559561Y-90315163D02*
X196654800Y-90410401D01*
X196654800Y-90410401D02*
X196750038Y-90696115D01*
X196750038Y-90696115D02*
X196750038Y-90886591D01*
X196750038Y-90886591D02*
X196654800Y-91172306D01*
X196654800Y-91172306D02*
X196464323Y-91362782D01*
X196464323Y-91362782D02*
X196273847Y-91458020D01*
X196273847Y-91458020D02*
X195892895Y-91553258D01*
X195892895Y-91553258D02*
X195607180Y-91553258D01*
X195607180Y-91553258D02*
X195226228Y-91458020D01*
X195226228Y-91458020D02*
X195035752Y-91362782D01*
X195035752Y-91362782D02*
X194845276Y-91172306D01*
X194845276Y-91172306D02*
X194750038Y-90886591D01*
X194750038Y-90886591D02*
X194750038Y-90696115D01*
X194750038Y-90696115D02*
X194845276Y-90410401D01*
X194845276Y-90410401D02*
X194940514Y-90315163D01*
X196178609Y-89553258D02*
X196178609Y-88600877D01*
X196750038Y-89743734D02*
X194750038Y-89077068D01*
X194750038Y-89077068D02*
X196750038Y-88410401D01*
X196750038Y-87743734D02*
X194750038Y-87743734D01*
X194750038Y-87743734D02*
X196750038Y-86600877D01*
X196750038Y-86600877D02*
X194750038Y-86600877D01*
X175875312Y-87777180D02*
X175827693Y-87824800D01*
X175827693Y-87824800D02*
X175684836Y-87872419D01*
X175684836Y-87872419D02*
X175589598Y-87872419D01*
X175589598Y-87872419D02*
X175446741Y-87824800D01*
X175446741Y-87824800D02*
X175351503Y-87729561D01*
X175351503Y-87729561D02*
X175303884Y-87634323D01*
X175303884Y-87634323D02*
X175256265Y-87443847D01*
X175256265Y-87443847D02*
X175256265Y-87300990D01*
X175256265Y-87300990D02*
X175303884Y-87110514D01*
X175303884Y-87110514D02*
X175351503Y-87015276D01*
X175351503Y-87015276D02*
X175446741Y-86920038D01*
X175446741Y-86920038D02*
X175589598Y-86872419D01*
X175589598Y-86872419D02*
X175684836Y-86872419D01*
X175684836Y-86872419D02*
X175827693Y-86920038D01*
X175827693Y-86920038D02*
X175875312Y-86967657D01*
X176256265Y-87586704D02*
X176732455Y-87586704D01*
X176161027Y-87872419D02*
X176494360Y-86872419D01*
X176494360Y-86872419D02*
X176827693Y-87872419D01*
X177161027Y-87872419D02*
X177161027Y-86872419D01*
X177161027Y-86872419D02*
X177732455Y-87872419D01*
X177732455Y-87872419D02*
X177732455Y-86872419D01*
X178970551Y-87872419D02*
X178970551Y-86872419D01*
X178970551Y-87348609D02*
X179541979Y-87348609D01*
X179541979Y-87872419D02*
X179541979Y-86872419D01*
X180018170Y-87872419D02*
X180018170Y-86872419D01*
X181018169Y-86920038D02*
X180922931Y-86872419D01*
X180922931Y-86872419D02*
X180780074Y-86872419D01*
X180780074Y-86872419D02*
X180637217Y-86920038D01*
X180637217Y-86920038D02*
X180541979Y-87015276D01*
X180541979Y-87015276D02*
X180494360Y-87110514D01*
X180494360Y-87110514D02*
X180446741Y-87300990D01*
X180446741Y-87300990D02*
X180446741Y-87443847D01*
X180446741Y-87443847D02*
X180494360Y-87634323D01*
X180494360Y-87634323D02*
X180541979Y-87729561D01*
X180541979Y-87729561D02*
X180637217Y-87824800D01*
X180637217Y-87824800D02*
X180780074Y-87872419D01*
X180780074Y-87872419D02*
X180875312Y-87872419D01*
X180875312Y-87872419D02*
X181018169Y-87824800D01*
X181018169Y-87824800D02*
X181065788Y-87777180D01*
X181065788Y-87777180D02*
X181065788Y-87443847D01*
X181065788Y-87443847D02*
X180875312Y-87443847D01*
X181494360Y-87872419D02*
X181494360Y-86872419D01*
X181494360Y-87348609D02*
X182065788Y-87348609D01*
X182065788Y-87872419D02*
X182065788Y-86872419D01*
X175702693Y-134595038D02*
X175607455Y-134547419D01*
X175607455Y-134547419D02*
X175464598Y-134547419D01*
X175464598Y-134547419D02*
X175321741Y-134595038D01*
X175321741Y-134595038D02*
X175226503Y-134690276D01*
X175226503Y-134690276D02*
X175178884Y-134785514D01*
X175178884Y-134785514D02*
X175131265Y-134975990D01*
X175131265Y-134975990D02*
X175131265Y-135118847D01*
X175131265Y-135118847D02*
X175178884Y-135309323D01*
X175178884Y-135309323D02*
X175226503Y-135404561D01*
X175226503Y-135404561D02*
X175321741Y-135499800D01*
X175321741Y-135499800D02*
X175464598Y-135547419D01*
X175464598Y-135547419D02*
X175559836Y-135547419D01*
X175559836Y-135547419D02*
X175702693Y-135499800D01*
X175702693Y-135499800D02*
X175750312Y-135452180D01*
X175750312Y-135452180D02*
X175750312Y-135118847D01*
X175750312Y-135118847D02*
X175559836Y-135118847D01*
X176178884Y-135547419D02*
X176178884Y-134547419D01*
X176178884Y-134547419D02*
X176750312Y-135547419D01*
X176750312Y-135547419D02*
X176750312Y-134547419D01*
X177226503Y-135547419D02*
X177226503Y-134547419D01*
X177226503Y-134547419D02*
X177464598Y-134547419D01*
X177464598Y-134547419D02*
X177607455Y-134595038D01*
X177607455Y-134595038D02*
X177702693Y-134690276D01*
X177702693Y-134690276D02*
X177750312Y-134785514D01*
X177750312Y-134785514D02*
X177797931Y-134975990D01*
X177797931Y-134975990D02*
X177797931Y-135118847D01*
X177797931Y-135118847D02*
X177750312Y-135309323D01*
X177750312Y-135309323D02*
X177702693Y-135404561D01*
X177702693Y-135404561D02*
X177607455Y-135499800D01*
X177607455Y-135499800D02*
X177464598Y-135547419D01*
X177464598Y-135547419D02*
X177226503Y-135547419D01*
X178988408Y-135547419D02*
X178988408Y-134547419D01*
X178988408Y-134547419D02*
X179369360Y-134547419D01*
X179369360Y-134547419D02*
X179464598Y-134595038D01*
X179464598Y-134595038D02*
X179512217Y-134642657D01*
X179512217Y-134642657D02*
X179559836Y-134737895D01*
X179559836Y-134737895D02*
X179559836Y-134880752D01*
X179559836Y-134880752D02*
X179512217Y-134975990D01*
X179512217Y-134975990D02*
X179464598Y-135023609D01*
X179464598Y-135023609D02*
X179369360Y-135071228D01*
X179369360Y-135071228D02*
X178988408Y-135071228D01*
X179988408Y-135547419D02*
X179988408Y-134547419D01*
X180464598Y-135547419D02*
X180464598Y-134547419D01*
X180464598Y-134547419D02*
X181036026Y-135547419D01*
X181036026Y-135547419D02*
X181036026Y-134547419D01*
D11*
X116094104Y-66688094D02*
X116094104Y-66211904D01*
X116379819Y-66783332D02*
X115379819Y-66449999D01*
X115379819Y-66449999D02*
X116379819Y-66116666D01*
D10*
X196750038Y-126458020D02*
X194750038Y-126458020D01*
X194750038Y-126458020D02*
X194750038Y-125696115D01*
X194750038Y-125696115D02*
X194845276Y-125505639D01*
X194845276Y-125505639D02*
X194940514Y-125410401D01*
X194940514Y-125410401D02*
X195130990Y-125315163D01*
X195130990Y-125315163D02*
X195416704Y-125315163D01*
X195416704Y-125315163D02*
X195607180Y-125410401D01*
X195607180Y-125410401D02*
X195702419Y-125505639D01*
X195702419Y-125505639D02*
X195797657Y-125696115D01*
X195797657Y-125696115D02*
X195797657Y-126458020D01*
X194750038Y-124648496D02*
X196750038Y-124172306D01*
X196750038Y-124172306D02*
X195321466Y-123791353D01*
X195321466Y-123791353D02*
X196750038Y-123410401D01*
X196750038Y-123410401D02*
X194750038Y-122934211D01*
X196750038Y-122172306D02*
X194750038Y-122172306D01*
X194750038Y-122172306D02*
X196178609Y-121505639D01*
X196178609Y-121505639D02*
X194750038Y-120838973D01*
X194750038Y-120838973D02*
X196750038Y-120838973D01*
X196940514Y-120362783D02*
X196940514Y-118838973D01*
X194940514Y-118458020D02*
X194845276Y-118362782D01*
X194845276Y-118362782D02*
X194750038Y-118172306D01*
X194750038Y-118172306D02*
X194750038Y-117696115D01*
X194750038Y-117696115D02*
X194845276Y-117505639D01*
X194845276Y-117505639D02*
X194940514Y-117410401D01*
X194940514Y-117410401D02*
X195130990Y-117315163D01*
X195130990Y-117315163D02*
X195321466Y-117315163D01*
X195321466Y-117315163D02*
X195607180Y-117410401D01*
X195607180Y-117410401D02*
X196750038Y-118553258D01*
X196750038Y-118553258D02*
X196750038Y-117315163D01*
X175303884Y-108122419D02*
X175303884Y-107122419D01*
X175303884Y-107122419D02*
X175684836Y-107122419D01*
X175684836Y-107122419D02*
X175780074Y-107170038D01*
X175780074Y-107170038D02*
X175827693Y-107217657D01*
X175827693Y-107217657D02*
X175875312Y-107312895D01*
X175875312Y-107312895D02*
X175875312Y-107455752D01*
X175875312Y-107455752D02*
X175827693Y-107550990D01*
X175827693Y-107550990D02*
X175780074Y-107598609D01*
X175780074Y-107598609D02*
X175684836Y-107646228D01*
X175684836Y-107646228D02*
X175303884Y-107646228D01*
X176208646Y-107122419D02*
X176446741Y-108122419D01*
X176446741Y-108122419D02*
X176637217Y-107408133D01*
X176637217Y-107408133D02*
X176827693Y-108122419D01*
X176827693Y-108122419D02*
X177065789Y-107122419D01*
X177446741Y-108122419D02*
X177446741Y-107122419D01*
X177446741Y-107122419D02*
X177780074Y-107836704D01*
X177780074Y-107836704D02*
X178113407Y-107122419D01*
X178113407Y-107122419D02*
X178113407Y-108122419D01*
X179351503Y-108122419D02*
X179351503Y-107122419D01*
X179351503Y-107122419D02*
X179732455Y-107122419D01*
X179732455Y-107122419D02*
X179827693Y-107170038D01*
X179827693Y-107170038D02*
X179875312Y-107217657D01*
X179875312Y-107217657D02*
X179922931Y-107312895D01*
X179922931Y-107312895D02*
X179922931Y-107455752D01*
X179922931Y-107455752D02*
X179875312Y-107550990D01*
X179875312Y-107550990D02*
X179827693Y-107598609D01*
X179827693Y-107598609D02*
X179732455Y-107646228D01*
X179732455Y-107646228D02*
X179351503Y-107646228D01*
X180351503Y-108122419D02*
X180351503Y-107122419D01*
X180827693Y-108122419D02*
X180827693Y-107122419D01*
X180827693Y-107122419D02*
X181399121Y-108122419D01*
X181399121Y-108122419D02*
X181399121Y-107122419D01*
X137458020Y-53797580D02*
X136791353Y-53797580D01*
X136505639Y-52749961D02*
X137458020Y-52749961D01*
X137458020Y-52749961D02*
X137458020Y-54749961D01*
X137458020Y-54749961D02*
X136505639Y-54749961D01*
X135648496Y-54083295D02*
X135648496Y-52749961D01*
X135648496Y-53892819D02*
X135553258Y-53988057D01*
X135553258Y-53988057D02*
X135362782Y-54083295D01*
X135362782Y-54083295D02*
X135077067Y-54083295D01*
X135077067Y-54083295D02*
X134886591Y-53988057D01*
X134886591Y-53988057D02*
X134791353Y-53797580D01*
X134791353Y-53797580D02*
X134791353Y-52749961D01*
X132981829Y-52845200D02*
X133172305Y-52749961D01*
X133172305Y-52749961D02*
X133553258Y-52749961D01*
X133553258Y-52749961D02*
X133743734Y-52845200D01*
X133743734Y-52845200D02*
X133838972Y-52940438D01*
X133838972Y-52940438D02*
X133934210Y-53130914D01*
X133934210Y-53130914D02*
X133934210Y-53702342D01*
X133934210Y-53702342D02*
X133838972Y-53892819D01*
X133838972Y-53892819D02*
X133743734Y-53988057D01*
X133743734Y-53988057D02*
X133553258Y-54083295D01*
X133553258Y-54083295D02*
X133172305Y-54083295D01*
X133172305Y-54083295D02*
X132981829Y-53988057D01*
X131838972Y-52749961D02*
X132029448Y-52845200D01*
X132029448Y-52845200D02*
X132124686Y-52940438D01*
X132124686Y-52940438D02*
X132219924Y-53130914D01*
X132219924Y-53130914D02*
X132219924Y-53702342D01*
X132219924Y-53702342D02*
X132124686Y-53892819D01*
X132124686Y-53892819D02*
X132029448Y-53988057D01*
X132029448Y-53988057D02*
X131838972Y-54083295D01*
X131838972Y-54083295D02*
X131553257Y-54083295D01*
X131553257Y-54083295D02*
X131362781Y-53988057D01*
X131362781Y-53988057D02*
X131267543Y-53892819D01*
X131267543Y-53892819D02*
X131172305Y-53702342D01*
X131172305Y-53702342D02*
X131172305Y-53130914D01*
X131172305Y-53130914D02*
X131267543Y-52940438D01*
X131267543Y-52940438D02*
X131362781Y-52845200D01*
X131362781Y-52845200D02*
X131553257Y-52749961D01*
X131553257Y-52749961D02*
X131838972Y-52749961D01*
X129458019Y-52749961D02*
X129458019Y-54749961D01*
X129458019Y-52845200D02*
X129648495Y-52749961D01*
X129648495Y-52749961D02*
X130029448Y-52749961D01*
X130029448Y-52749961D02*
X130219924Y-52845200D01*
X130219924Y-52845200D02*
X130315162Y-52940438D01*
X130315162Y-52940438D02*
X130410400Y-53130914D01*
X130410400Y-53130914D02*
X130410400Y-53702342D01*
X130410400Y-53702342D02*
X130315162Y-53892819D01*
X130315162Y-53892819D02*
X130219924Y-53988057D01*
X130219924Y-53988057D02*
X130029448Y-54083295D01*
X130029448Y-54083295D02*
X129648495Y-54083295D01*
X129648495Y-54083295D02*
X129458019Y-53988057D01*
X127743733Y-52845200D02*
X127934209Y-52749961D01*
X127934209Y-52749961D02*
X128315162Y-52749961D01*
X128315162Y-52749961D02*
X128505638Y-52845200D01*
X128505638Y-52845200D02*
X128600876Y-53035676D01*
X128600876Y-53035676D02*
X128600876Y-53797580D01*
X128600876Y-53797580D02*
X128505638Y-53988057D01*
X128505638Y-53988057D02*
X128315162Y-54083295D01*
X128315162Y-54083295D02*
X127934209Y-54083295D01*
X127934209Y-54083295D02*
X127743733Y-53988057D01*
X127743733Y-53988057D02*
X127648495Y-53797580D01*
X127648495Y-53797580D02*
X127648495Y-53607104D01*
X127648495Y-53607104D02*
X128600876Y-53416628D01*
X126791352Y-52749961D02*
X126791352Y-54083295D01*
X126791352Y-53702342D02*
X126696114Y-53892819D01*
X126696114Y-53892819D02*
X126600876Y-53988057D01*
X126600876Y-53988057D02*
X126410400Y-54083295D01*
X126410400Y-54083295D02*
X126219923Y-54083295D01*
X184296115Y-55927580D02*
X184296115Y-56594247D01*
X184296115Y-56927580D02*
X184343734Y-56879961D01*
X184343734Y-56879961D02*
X184296115Y-56832342D01*
X184296115Y-56832342D02*
X184248496Y-56879961D01*
X184248496Y-56879961D02*
X184296115Y-56927580D01*
X184296115Y-56927580D02*
X184296115Y-56832342D01*
X183819925Y-56594247D02*
X183819925Y-55927580D01*
X183819925Y-56499009D02*
X183772306Y-56546628D01*
X183772306Y-56546628D02*
X183677068Y-56594247D01*
X183677068Y-56594247D02*
X183534211Y-56594247D01*
X183534211Y-56594247D02*
X183438973Y-56546628D01*
X183438973Y-56546628D02*
X183391354Y-56451390D01*
X183391354Y-56451390D02*
X183391354Y-55927580D01*
X183058020Y-56594247D02*
X182677068Y-56594247D01*
X182915163Y-56927580D02*
X182915163Y-56070438D01*
X182915163Y-56070438D02*
X182867544Y-55975200D01*
X182867544Y-55975200D02*
X182772306Y-55927580D01*
X182772306Y-55927580D02*
X182677068Y-55927580D01*
X181962782Y-55975200D02*
X182058020Y-55927580D01*
X182058020Y-55927580D02*
X182248496Y-55927580D01*
X182248496Y-55927580D02*
X182343734Y-55975200D01*
X182343734Y-55975200D02*
X182391353Y-56070438D01*
X182391353Y-56070438D02*
X182391353Y-56451390D01*
X182391353Y-56451390D02*
X182343734Y-56546628D01*
X182343734Y-56546628D02*
X182248496Y-56594247D01*
X182248496Y-56594247D02*
X182058020Y-56594247D01*
X182058020Y-56594247D02*
X181962782Y-56546628D01*
X181962782Y-56546628D02*
X181915163Y-56451390D01*
X181915163Y-56451390D02*
X181915163Y-56356152D01*
X181915163Y-56356152D02*
X182391353Y-56260914D01*
X181486591Y-55927580D02*
X181486591Y-56594247D01*
X181486591Y-56403771D02*
X181438972Y-56499009D01*
X181438972Y-56499009D02*
X181391353Y-56546628D01*
X181391353Y-56546628D02*
X181296115Y-56594247D01*
X181296115Y-56594247D02*
X181200877Y-56594247D01*
X180867543Y-56594247D02*
X180867543Y-55927580D01*
X180867543Y-56499009D02*
X180819924Y-56546628D01*
X180819924Y-56546628D02*
X180724686Y-56594247D01*
X180724686Y-56594247D02*
X180581829Y-56594247D01*
X180581829Y-56594247D02*
X180486591Y-56546628D01*
X180486591Y-56546628D02*
X180438972Y-56451390D01*
X180438972Y-56451390D02*
X180438972Y-55927580D01*
X179534210Y-55927580D02*
X179534210Y-56451390D01*
X179534210Y-56451390D02*
X179581829Y-56546628D01*
X179581829Y-56546628D02*
X179677067Y-56594247D01*
X179677067Y-56594247D02*
X179867543Y-56594247D01*
X179867543Y-56594247D02*
X179962781Y-56546628D01*
X179534210Y-55975200D02*
X179629448Y-55927580D01*
X179629448Y-55927580D02*
X179867543Y-55927580D01*
X179867543Y-55927580D02*
X179962781Y-55975200D01*
X179962781Y-55975200D02*
X180010400Y-56070438D01*
X180010400Y-56070438D02*
X180010400Y-56165676D01*
X180010400Y-56165676D02*
X179962781Y-56260914D01*
X179962781Y-56260914D02*
X179867543Y-56308533D01*
X179867543Y-56308533D02*
X179629448Y-56308533D01*
X179629448Y-56308533D02*
X179534210Y-56356152D01*
X178915162Y-55927580D02*
X179010400Y-55975200D01*
X179010400Y-55975200D02*
X179058019Y-56070438D01*
X179058019Y-56070438D02*
X179058019Y-56927580D01*
X196750038Y-111458020D02*
X194750038Y-111458020D01*
X194750038Y-111458020D02*
X194750038Y-110696115D01*
X194750038Y-110696115D02*
X194845276Y-110505639D01*
X194845276Y-110505639D02*
X194940514Y-110410401D01*
X194940514Y-110410401D02*
X195130990Y-110315163D01*
X195130990Y-110315163D02*
X195416704Y-110315163D01*
X195416704Y-110315163D02*
X195607180Y-110410401D01*
X195607180Y-110410401D02*
X195702419Y-110505639D01*
X195702419Y-110505639D02*
X195797657Y-110696115D01*
X195797657Y-110696115D02*
X195797657Y-111458020D01*
X194750038Y-109648496D02*
X196750038Y-109172306D01*
X196750038Y-109172306D02*
X195321466Y-108791353D01*
X195321466Y-108791353D02*
X196750038Y-108410401D01*
X196750038Y-108410401D02*
X194750038Y-107934211D01*
X196750038Y-107172306D02*
X194750038Y-107172306D01*
X194750038Y-107172306D02*
X196178609Y-106505639D01*
X196178609Y-106505639D02*
X194750038Y-105838973D01*
X194750038Y-105838973D02*
X196750038Y-105838973D01*
X196940514Y-105362783D02*
X196940514Y-103838973D01*
X196750038Y-102315163D02*
X196750038Y-103458020D01*
X196750038Y-102886592D02*
X194750038Y-102886592D01*
X194750038Y-102886592D02*
X195035752Y-103077068D01*
X195035752Y-103077068D02*
X195226228Y-103267544D01*
X195226228Y-103267544D02*
X195321466Y-103458020D01*
X196559561Y-80315163D02*
X196654800Y-80410401D01*
X196654800Y-80410401D02*
X196750038Y-80696115D01*
X196750038Y-80696115D02*
X196750038Y-80886591D01*
X196750038Y-80886591D02*
X196654800Y-81172306D01*
X196654800Y-81172306D02*
X196464323Y-81362782D01*
X196464323Y-81362782D02*
X196273847Y-81458020D01*
X196273847Y-81458020D02*
X195892895Y-81553258D01*
X195892895Y-81553258D02*
X195607180Y-81553258D01*
X195607180Y-81553258D02*
X195226228Y-81458020D01*
X195226228Y-81458020D02*
X195035752Y-81362782D01*
X195035752Y-81362782D02*
X194845276Y-81172306D01*
X194845276Y-81172306D02*
X194750038Y-80886591D01*
X194750038Y-80886591D02*
X194750038Y-80696115D01*
X194750038Y-80696115D02*
X194845276Y-80410401D01*
X194845276Y-80410401D02*
X194940514Y-80315163D01*
X196178609Y-79553258D02*
X196178609Y-78600877D01*
X196750038Y-79743734D02*
X194750038Y-79077068D01*
X194750038Y-79077068D02*
X196750038Y-78410401D01*
X196750038Y-77743734D02*
X194750038Y-77743734D01*
X194750038Y-77743734D02*
X196750038Y-76600877D01*
X196750038Y-76600877D02*
X194750038Y-76600877D01*
D11*
X132904819Y-66565476D02*
X132904819Y-67041666D01*
X132904819Y-67041666D02*
X133381009Y-67089285D01*
X133381009Y-67089285D02*
X133333390Y-67041666D01*
X133333390Y-67041666D02*
X133285771Y-66946428D01*
X133285771Y-66946428D02*
X133285771Y-66708333D01*
X133285771Y-66708333D02*
X133333390Y-66613095D01*
X133333390Y-66613095D02*
X133381009Y-66565476D01*
X133381009Y-66565476D02*
X133476247Y-66517857D01*
X133476247Y-66517857D02*
X133714342Y-66517857D01*
X133714342Y-66517857D02*
X133809580Y-66565476D01*
X133809580Y-66565476D02*
X133857200Y-66613095D01*
X133857200Y-66613095D02*
X133904819Y-66708333D01*
X133904819Y-66708333D02*
X133904819Y-66946428D01*
X133904819Y-66946428D02*
X133857200Y-67041666D01*
X133857200Y-67041666D02*
X133809580Y-67089285D01*
X132904819Y-66232142D02*
X133904819Y-65898809D01*
X133904819Y-65898809D02*
X132904819Y-65565476D01*
D10*
X175827693Y-104670038D02*
X175732455Y-104622419D01*
X175732455Y-104622419D02*
X175589598Y-104622419D01*
X175589598Y-104622419D02*
X175446741Y-104670038D01*
X175446741Y-104670038D02*
X175351503Y-104765276D01*
X175351503Y-104765276D02*
X175303884Y-104860514D01*
X175303884Y-104860514D02*
X175256265Y-105050990D01*
X175256265Y-105050990D02*
X175256265Y-105193847D01*
X175256265Y-105193847D02*
X175303884Y-105384323D01*
X175303884Y-105384323D02*
X175351503Y-105479561D01*
X175351503Y-105479561D02*
X175446741Y-105574800D01*
X175446741Y-105574800D02*
X175589598Y-105622419D01*
X175589598Y-105622419D02*
X175684836Y-105622419D01*
X175684836Y-105622419D02*
X175827693Y-105574800D01*
X175827693Y-105574800D02*
X175875312Y-105527180D01*
X175875312Y-105527180D02*
X175875312Y-105193847D01*
X175875312Y-105193847D02*
X175684836Y-105193847D01*
X176303884Y-105622419D02*
X176303884Y-104622419D01*
X176303884Y-104622419D02*
X176875312Y-105622419D01*
X176875312Y-105622419D02*
X176875312Y-104622419D01*
X177351503Y-105622419D02*
X177351503Y-104622419D01*
X177351503Y-104622419D02*
X177589598Y-104622419D01*
X177589598Y-104622419D02*
X177732455Y-104670038D01*
X177732455Y-104670038D02*
X177827693Y-104765276D01*
X177827693Y-104765276D02*
X177875312Y-104860514D01*
X177875312Y-104860514D02*
X177922931Y-105050990D01*
X177922931Y-105050990D02*
X177922931Y-105193847D01*
X177922931Y-105193847D02*
X177875312Y-105384323D01*
X177875312Y-105384323D02*
X177827693Y-105479561D01*
X177827693Y-105479561D02*
X177732455Y-105574800D01*
X177732455Y-105574800D02*
X177589598Y-105622419D01*
X177589598Y-105622419D02*
X177351503Y-105622419D01*
X179113408Y-105622419D02*
X179113408Y-104622419D01*
X179113408Y-104622419D02*
X179494360Y-104622419D01*
X179494360Y-104622419D02*
X179589598Y-104670038D01*
X179589598Y-104670038D02*
X179637217Y-104717657D01*
X179637217Y-104717657D02*
X179684836Y-104812895D01*
X179684836Y-104812895D02*
X179684836Y-104955752D01*
X179684836Y-104955752D02*
X179637217Y-105050990D01*
X179637217Y-105050990D02*
X179589598Y-105098609D01*
X179589598Y-105098609D02*
X179494360Y-105146228D01*
X179494360Y-105146228D02*
X179113408Y-105146228D01*
X180113408Y-105622419D02*
X180113408Y-104622419D01*
X180589598Y-105622419D02*
X180589598Y-104622419D01*
X180589598Y-104622419D02*
X181161026Y-105622419D01*
X181161026Y-105622419D02*
X181161026Y-104622419D01*
X175228884Y-125372419D02*
X175228884Y-124372419D01*
X175228884Y-124372419D02*
X175466979Y-124372419D01*
X175466979Y-124372419D02*
X175609836Y-124420038D01*
X175609836Y-124420038D02*
X175705074Y-124515276D01*
X175705074Y-124515276D02*
X175752693Y-124610514D01*
X175752693Y-124610514D02*
X175800312Y-124800990D01*
X175800312Y-124800990D02*
X175800312Y-124943847D01*
X175800312Y-124943847D02*
X175752693Y-125134323D01*
X175752693Y-125134323D02*
X175705074Y-125229561D01*
X175705074Y-125229561D02*
X175609836Y-125324800D01*
X175609836Y-125324800D02*
X175466979Y-125372419D01*
X175466979Y-125372419D02*
X175228884Y-125372419D01*
X176228884Y-125372419D02*
X176228884Y-124372419D01*
X177276502Y-125372419D02*
X176943169Y-124896228D01*
X176705074Y-125372419D02*
X176705074Y-124372419D01*
X176705074Y-124372419D02*
X177086026Y-124372419D01*
X177086026Y-124372419D02*
X177181264Y-124420038D01*
X177181264Y-124420038D02*
X177228883Y-124467657D01*
X177228883Y-124467657D02*
X177276502Y-124562895D01*
X177276502Y-124562895D02*
X177276502Y-124705752D01*
X177276502Y-124705752D02*
X177228883Y-124800990D01*
X177228883Y-124800990D02*
X177181264Y-124848609D01*
X177181264Y-124848609D02*
X177086026Y-124896228D01*
X177086026Y-124896228D02*
X176705074Y-124896228D01*
X178466979Y-125372419D02*
X178466979Y-124372419D01*
X178466979Y-124372419D02*
X178847931Y-124372419D01*
X178847931Y-124372419D02*
X178943169Y-124420038D01*
X178943169Y-124420038D02*
X178990788Y-124467657D01*
X178990788Y-124467657D02*
X179038407Y-124562895D01*
X179038407Y-124562895D02*
X179038407Y-124705752D01*
X179038407Y-124705752D02*
X178990788Y-124800990D01*
X178990788Y-124800990D02*
X178943169Y-124848609D01*
X178943169Y-124848609D02*
X178847931Y-124896228D01*
X178847931Y-124896228D02*
X178466979Y-124896228D01*
X179466979Y-125372419D02*
X179466979Y-124372419D01*
X179943169Y-125372419D02*
X179943169Y-124372419D01*
X179943169Y-124372419D02*
X180514597Y-125372419D01*
X180514597Y-125372419D02*
X180514597Y-124372419D01*
X175228884Y-123072419D02*
X175228884Y-122072419D01*
X175228884Y-122072419D02*
X175609836Y-122072419D01*
X175609836Y-122072419D02*
X175705074Y-122120038D01*
X175705074Y-122120038D02*
X175752693Y-122167657D01*
X175752693Y-122167657D02*
X175800312Y-122262895D01*
X175800312Y-122262895D02*
X175800312Y-122405752D01*
X175800312Y-122405752D02*
X175752693Y-122500990D01*
X175752693Y-122500990D02*
X175705074Y-122548609D01*
X175705074Y-122548609D02*
X175609836Y-122596228D01*
X175609836Y-122596228D02*
X175228884Y-122596228D01*
X176133646Y-122072419D02*
X176371741Y-123072419D01*
X176371741Y-123072419D02*
X176562217Y-122358133D01*
X176562217Y-122358133D02*
X176752693Y-123072419D01*
X176752693Y-123072419D02*
X176990789Y-122072419D01*
X177371741Y-123072419D02*
X177371741Y-122072419D01*
X177371741Y-122072419D02*
X177705074Y-122786704D01*
X177705074Y-122786704D02*
X178038407Y-122072419D01*
X178038407Y-122072419D02*
X178038407Y-123072419D01*
X179276503Y-123072419D02*
X179276503Y-122072419D01*
X179276503Y-122072419D02*
X179657455Y-122072419D01*
X179657455Y-122072419D02*
X179752693Y-122120038D01*
X179752693Y-122120038D02*
X179800312Y-122167657D01*
X179800312Y-122167657D02*
X179847931Y-122262895D01*
X179847931Y-122262895D02*
X179847931Y-122405752D01*
X179847931Y-122405752D02*
X179800312Y-122500990D01*
X179800312Y-122500990D02*
X179752693Y-122548609D01*
X179752693Y-122548609D02*
X179657455Y-122596228D01*
X179657455Y-122596228D02*
X179276503Y-122596228D01*
X180276503Y-123072419D02*
X180276503Y-122072419D01*
X180752693Y-123072419D02*
X180752693Y-122072419D01*
X180752693Y-122072419D02*
X181324121Y-123072419D01*
X181324121Y-123072419D02*
X181324121Y-122072419D01*
X196750038Y-141458020D02*
X194750038Y-141458020D01*
X194750038Y-141458020D02*
X194750038Y-140696115D01*
X194750038Y-140696115D02*
X194845276Y-140505639D01*
X194845276Y-140505639D02*
X194940514Y-140410401D01*
X194940514Y-140410401D02*
X195130990Y-140315163D01*
X195130990Y-140315163D02*
X195416704Y-140315163D01*
X195416704Y-140315163D02*
X195607180Y-140410401D01*
X195607180Y-140410401D02*
X195702419Y-140505639D01*
X195702419Y-140505639D02*
X195797657Y-140696115D01*
X195797657Y-140696115D02*
X195797657Y-141458020D01*
X194750038Y-139648496D02*
X196750038Y-139172306D01*
X196750038Y-139172306D02*
X195321466Y-138791353D01*
X195321466Y-138791353D02*
X196750038Y-138410401D01*
X196750038Y-138410401D02*
X194750038Y-137934211D01*
X196750038Y-137172306D02*
X194750038Y-137172306D01*
X194750038Y-137172306D02*
X196178609Y-136505639D01*
X196178609Y-136505639D02*
X194750038Y-135838973D01*
X194750038Y-135838973D02*
X196750038Y-135838973D01*
X196940514Y-135362783D02*
X196940514Y-133838973D01*
X194750038Y-133553258D02*
X194750038Y-132315163D01*
X194750038Y-132315163D02*
X195511942Y-132981830D01*
X195511942Y-132981830D02*
X195511942Y-132696115D01*
X195511942Y-132696115D02*
X195607180Y-132505639D01*
X195607180Y-132505639D02*
X195702419Y-132410401D01*
X195702419Y-132410401D02*
X195892895Y-132315163D01*
X195892895Y-132315163D02*
X196369085Y-132315163D01*
X196369085Y-132315163D02*
X196559561Y-132410401D01*
X196559561Y-132410401D02*
X196654800Y-132505639D01*
X196654800Y-132505639D02*
X196750038Y-132696115D01*
X196750038Y-132696115D02*
X196750038Y-133267544D01*
X196750038Y-133267544D02*
X196654800Y-133458020D01*
X196654800Y-133458020D02*
X196559561Y-133553258D01*
X175178884Y-138047419D02*
X175178884Y-137047419D01*
X175178884Y-137047419D02*
X175559836Y-137047419D01*
X175559836Y-137047419D02*
X175655074Y-137095038D01*
X175655074Y-137095038D02*
X175702693Y-137142657D01*
X175702693Y-137142657D02*
X175750312Y-137237895D01*
X175750312Y-137237895D02*
X175750312Y-137380752D01*
X175750312Y-137380752D02*
X175702693Y-137475990D01*
X175702693Y-137475990D02*
X175655074Y-137523609D01*
X175655074Y-137523609D02*
X175559836Y-137571228D01*
X175559836Y-137571228D02*
X175178884Y-137571228D01*
X176083646Y-137047419D02*
X176321741Y-138047419D01*
X176321741Y-138047419D02*
X176512217Y-137333133D01*
X176512217Y-137333133D02*
X176702693Y-138047419D01*
X176702693Y-138047419D02*
X176940789Y-137047419D01*
X177321741Y-138047419D02*
X177321741Y-137047419D01*
X177321741Y-137047419D02*
X177655074Y-137761704D01*
X177655074Y-137761704D02*
X177988407Y-137047419D01*
X177988407Y-137047419D02*
X177988407Y-138047419D01*
X179226503Y-138047419D02*
X179226503Y-137047419D01*
X179226503Y-137047419D02*
X179607455Y-137047419D01*
X179607455Y-137047419D02*
X179702693Y-137095038D01*
X179702693Y-137095038D02*
X179750312Y-137142657D01*
X179750312Y-137142657D02*
X179797931Y-137237895D01*
X179797931Y-137237895D02*
X179797931Y-137380752D01*
X179797931Y-137380752D02*
X179750312Y-137475990D01*
X179750312Y-137475990D02*
X179702693Y-137523609D01*
X179702693Y-137523609D02*
X179607455Y-137571228D01*
X179607455Y-137571228D02*
X179226503Y-137571228D01*
X180226503Y-138047419D02*
X180226503Y-137047419D01*
X180702693Y-138047419D02*
X180702693Y-137047419D01*
X180702693Y-137047419D02*
X181274121Y-138047419D01*
X181274121Y-138047419D02*
X181274121Y-137047419D01*
D11*
X112977438Y-66188095D02*
X112929819Y-66283333D01*
X112929819Y-66283333D02*
X112929819Y-66426190D01*
X112929819Y-66426190D02*
X112977438Y-66569047D01*
X112977438Y-66569047D02*
X113072676Y-66664285D01*
X113072676Y-66664285D02*
X113167914Y-66711904D01*
X113167914Y-66711904D02*
X113358390Y-66759523D01*
X113358390Y-66759523D02*
X113501247Y-66759523D01*
X113501247Y-66759523D02*
X113691723Y-66711904D01*
X113691723Y-66711904D02*
X113786961Y-66664285D01*
X113786961Y-66664285D02*
X113882200Y-66569047D01*
X113882200Y-66569047D02*
X113929819Y-66426190D01*
X113929819Y-66426190D02*
X113929819Y-66330952D01*
X113929819Y-66330952D02*
X113882200Y-66188095D01*
X113882200Y-66188095D02*
X113834580Y-66140476D01*
X113834580Y-66140476D02*
X113501247Y-66140476D01*
X113501247Y-66140476D02*
X113501247Y-66330952D01*
D10*
X175875312Y-70527180D02*
X175827693Y-70574800D01*
X175827693Y-70574800D02*
X175684836Y-70622419D01*
X175684836Y-70622419D02*
X175589598Y-70622419D01*
X175589598Y-70622419D02*
X175446741Y-70574800D01*
X175446741Y-70574800D02*
X175351503Y-70479561D01*
X175351503Y-70479561D02*
X175303884Y-70384323D01*
X175303884Y-70384323D02*
X175256265Y-70193847D01*
X175256265Y-70193847D02*
X175256265Y-70050990D01*
X175256265Y-70050990D02*
X175303884Y-69860514D01*
X175303884Y-69860514D02*
X175351503Y-69765276D01*
X175351503Y-69765276D02*
X175446741Y-69670038D01*
X175446741Y-69670038D02*
X175589598Y-69622419D01*
X175589598Y-69622419D02*
X175684836Y-69622419D01*
X175684836Y-69622419D02*
X175827693Y-69670038D01*
X175827693Y-69670038D02*
X175875312Y-69717657D01*
X176256265Y-70336704D02*
X176732455Y-70336704D01*
X176161027Y-70622419D02*
X176494360Y-69622419D01*
X176494360Y-69622419D02*
X176827693Y-70622419D01*
X177161027Y-70622419D02*
X177161027Y-69622419D01*
X177161027Y-69622419D02*
X177732455Y-70622419D01*
X177732455Y-70622419D02*
X177732455Y-69622419D01*
X179446741Y-70622419D02*
X178970551Y-70622419D01*
X178970551Y-70622419D02*
X178970551Y-69622419D01*
X179970551Y-69622419D02*
X180161027Y-69622419D01*
X180161027Y-69622419D02*
X180256265Y-69670038D01*
X180256265Y-69670038D02*
X180351503Y-69765276D01*
X180351503Y-69765276D02*
X180399122Y-69955752D01*
X180399122Y-69955752D02*
X180399122Y-70289085D01*
X180399122Y-70289085D02*
X180351503Y-70479561D01*
X180351503Y-70479561D02*
X180256265Y-70574800D01*
X180256265Y-70574800D02*
X180161027Y-70622419D01*
X180161027Y-70622419D02*
X179970551Y-70622419D01*
X179970551Y-70622419D02*
X179875313Y-70574800D01*
X179875313Y-70574800D02*
X179780075Y-70479561D01*
X179780075Y-70479561D02*
X179732456Y-70289085D01*
X179732456Y-70289085D02*
X179732456Y-69955752D01*
X179732456Y-69955752D02*
X179780075Y-69765276D01*
X179780075Y-69765276D02*
X179875313Y-69670038D01*
X179875313Y-69670038D02*
X179970551Y-69622419D01*
X180732456Y-69622419D02*
X180970551Y-70622419D01*
X180970551Y-70622419D02*
X181161027Y-69908133D01*
X181161027Y-69908133D02*
X181351503Y-70622419D01*
X181351503Y-70622419D02*
X181589599Y-69622419D01*
X122458020Y-53797580D02*
X121791353Y-53797580D01*
X121505639Y-52749961D02*
X122458020Y-52749961D01*
X122458020Y-52749961D02*
X122458020Y-54749961D01*
X122458020Y-54749961D02*
X121505639Y-54749961D01*
X120648496Y-54083295D02*
X120648496Y-52749961D01*
X120648496Y-53892819D02*
X120553258Y-53988057D01*
X120553258Y-53988057D02*
X120362782Y-54083295D01*
X120362782Y-54083295D02*
X120077067Y-54083295D01*
X120077067Y-54083295D02*
X119886591Y-53988057D01*
X119886591Y-53988057D02*
X119791353Y-53797580D01*
X119791353Y-53797580D02*
X119791353Y-52749961D01*
X117981829Y-52845200D02*
X118172305Y-52749961D01*
X118172305Y-52749961D02*
X118553258Y-52749961D01*
X118553258Y-52749961D02*
X118743734Y-52845200D01*
X118743734Y-52845200D02*
X118838972Y-52940438D01*
X118838972Y-52940438D02*
X118934210Y-53130914D01*
X118934210Y-53130914D02*
X118934210Y-53702342D01*
X118934210Y-53702342D02*
X118838972Y-53892819D01*
X118838972Y-53892819D02*
X118743734Y-53988057D01*
X118743734Y-53988057D02*
X118553258Y-54083295D01*
X118553258Y-54083295D02*
X118172305Y-54083295D01*
X118172305Y-54083295D02*
X117981829Y-53988057D01*
X116838972Y-52749961D02*
X117029448Y-52845200D01*
X117029448Y-52845200D02*
X117124686Y-52940438D01*
X117124686Y-52940438D02*
X117219924Y-53130914D01*
X117219924Y-53130914D02*
X117219924Y-53702342D01*
X117219924Y-53702342D02*
X117124686Y-53892819D01*
X117124686Y-53892819D02*
X117029448Y-53988057D01*
X117029448Y-53988057D02*
X116838972Y-54083295D01*
X116838972Y-54083295D02*
X116553257Y-54083295D01*
X116553257Y-54083295D02*
X116362781Y-53988057D01*
X116362781Y-53988057D02*
X116267543Y-53892819D01*
X116267543Y-53892819D02*
X116172305Y-53702342D01*
X116172305Y-53702342D02*
X116172305Y-53130914D01*
X116172305Y-53130914D02*
X116267543Y-52940438D01*
X116267543Y-52940438D02*
X116362781Y-52845200D01*
X116362781Y-52845200D02*
X116553257Y-52749961D01*
X116553257Y-52749961D02*
X116838972Y-52749961D01*
X114458019Y-52749961D02*
X114458019Y-54749961D01*
X114458019Y-52845200D02*
X114648495Y-52749961D01*
X114648495Y-52749961D02*
X115029448Y-52749961D01*
X115029448Y-52749961D02*
X115219924Y-52845200D01*
X115219924Y-52845200D02*
X115315162Y-52940438D01*
X115315162Y-52940438D02*
X115410400Y-53130914D01*
X115410400Y-53130914D02*
X115410400Y-53702342D01*
X115410400Y-53702342D02*
X115315162Y-53892819D01*
X115315162Y-53892819D02*
X115219924Y-53988057D01*
X115219924Y-53988057D02*
X115029448Y-54083295D01*
X115029448Y-54083295D02*
X114648495Y-54083295D01*
X114648495Y-54083295D02*
X114458019Y-53988057D01*
X112743733Y-52845200D02*
X112934209Y-52749961D01*
X112934209Y-52749961D02*
X113315162Y-52749961D01*
X113315162Y-52749961D02*
X113505638Y-52845200D01*
X113505638Y-52845200D02*
X113600876Y-53035676D01*
X113600876Y-53035676D02*
X113600876Y-53797580D01*
X113600876Y-53797580D02*
X113505638Y-53988057D01*
X113505638Y-53988057D02*
X113315162Y-54083295D01*
X113315162Y-54083295D02*
X112934209Y-54083295D01*
X112934209Y-54083295D02*
X112743733Y-53988057D01*
X112743733Y-53988057D02*
X112648495Y-53797580D01*
X112648495Y-53797580D02*
X112648495Y-53607104D01*
X112648495Y-53607104D02*
X113600876Y-53416628D01*
X111791352Y-52749961D02*
X111791352Y-54083295D01*
X111791352Y-53702342D02*
X111696114Y-53892819D01*
X111696114Y-53892819D02*
X111600876Y-53988057D01*
X111600876Y-53988057D02*
X111410400Y-54083295D01*
X111410400Y-54083295D02*
X111219923Y-54083295D01*
D11*
X131094104Y-66638094D02*
X131094104Y-66161904D01*
X131379819Y-66733332D02*
X130379819Y-66399999D01*
X130379819Y-66399999D02*
X131379819Y-66066666D01*
D10*
X196559561Y-70315163D02*
X196654800Y-70410401D01*
X196654800Y-70410401D02*
X196750038Y-70696115D01*
X196750038Y-70696115D02*
X196750038Y-70886591D01*
X196750038Y-70886591D02*
X196654800Y-71172306D01*
X196654800Y-71172306D02*
X196464323Y-71362782D01*
X196464323Y-71362782D02*
X196273847Y-71458020D01*
X196273847Y-71458020D02*
X195892895Y-71553258D01*
X195892895Y-71553258D02*
X195607180Y-71553258D01*
X195607180Y-71553258D02*
X195226228Y-71458020D01*
X195226228Y-71458020D02*
X195035752Y-71362782D01*
X195035752Y-71362782D02*
X194845276Y-71172306D01*
X194845276Y-71172306D02*
X194750038Y-70886591D01*
X194750038Y-70886591D02*
X194750038Y-70696115D01*
X194750038Y-70696115D02*
X194845276Y-70410401D01*
X194845276Y-70410401D02*
X194940514Y-70315163D01*
X196178609Y-69553258D02*
X196178609Y-68600877D01*
X196750038Y-69743734D02*
X194750038Y-69077068D01*
X194750038Y-69077068D02*
X196750038Y-68410401D01*
X196750038Y-67743734D02*
X194750038Y-67743734D01*
X194750038Y-67743734D02*
X196750038Y-66600877D01*
X196750038Y-66600877D02*
X194750038Y-66600877D01*
X175875312Y-90527180D02*
X175827693Y-90574800D01*
X175827693Y-90574800D02*
X175684836Y-90622419D01*
X175684836Y-90622419D02*
X175589598Y-90622419D01*
X175589598Y-90622419D02*
X175446741Y-90574800D01*
X175446741Y-90574800D02*
X175351503Y-90479561D01*
X175351503Y-90479561D02*
X175303884Y-90384323D01*
X175303884Y-90384323D02*
X175256265Y-90193847D01*
X175256265Y-90193847D02*
X175256265Y-90050990D01*
X175256265Y-90050990D02*
X175303884Y-89860514D01*
X175303884Y-89860514D02*
X175351503Y-89765276D01*
X175351503Y-89765276D02*
X175446741Y-89670038D01*
X175446741Y-89670038D02*
X175589598Y-89622419D01*
X175589598Y-89622419D02*
X175684836Y-89622419D01*
X175684836Y-89622419D02*
X175827693Y-89670038D01*
X175827693Y-89670038D02*
X175875312Y-89717657D01*
X176256265Y-90336704D02*
X176732455Y-90336704D01*
X176161027Y-90622419D02*
X176494360Y-89622419D01*
X176494360Y-89622419D02*
X176827693Y-90622419D01*
X177161027Y-90622419D02*
X177161027Y-89622419D01*
X177161027Y-89622419D02*
X177732455Y-90622419D01*
X177732455Y-90622419D02*
X177732455Y-89622419D01*
X179446741Y-90622419D02*
X178970551Y-90622419D01*
X178970551Y-90622419D02*
X178970551Y-89622419D01*
X179970551Y-89622419D02*
X180161027Y-89622419D01*
X180161027Y-89622419D02*
X180256265Y-89670038D01*
X180256265Y-89670038D02*
X180351503Y-89765276D01*
X180351503Y-89765276D02*
X180399122Y-89955752D01*
X180399122Y-89955752D02*
X180399122Y-90289085D01*
X180399122Y-90289085D02*
X180351503Y-90479561D01*
X180351503Y-90479561D02*
X180256265Y-90574800D01*
X180256265Y-90574800D02*
X180161027Y-90622419D01*
X180161027Y-90622419D02*
X179970551Y-90622419D01*
X179970551Y-90622419D02*
X179875313Y-90574800D01*
X179875313Y-90574800D02*
X179780075Y-90479561D01*
X179780075Y-90479561D02*
X179732456Y-90289085D01*
X179732456Y-90289085D02*
X179732456Y-89955752D01*
X179732456Y-89955752D02*
X179780075Y-89765276D01*
X179780075Y-89765276D02*
X179875313Y-89670038D01*
X179875313Y-89670038D02*
X179970551Y-89622419D01*
X180732456Y-89622419D02*
X180970551Y-90622419D01*
X180970551Y-90622419D02*
X181161027Y-89908133D01*
X181161027Y-89908133D02*
X181351503Y-90622419D01*
X181351503Y-90622419D02*
X181589599Y-89622419D01*
D11*
X152235714Y-89254819D02*
X152330952Y-89254819D01*
X152330952Y-89254819D02*
X152426190Y-89302438D01*
X152426190Y-89302438D02*
X152473809Y-89350057D01*
X152473809Y-89350057D02*
X152521428Y-89445295D01*
X152521428Y-89445295D02*
X152569047Y-89635771D01*
X152569047Y-89635771D02*
X152569047Y-89873866D01*
X152569047Y-89873866D02*
X152521428Y-90064342D01*
X152521428Y-90064342D02*
X152473809Y-90159580D01*
X152473809Y-90159580D02*
X152426190Y-90207200D01*
X152426190Y-90207200D02*
X152330952Y-90254819D01*
X152330952Y-90254819D02*
X152235714Y-90254819D01*
X152235714Y-90254819D02*
X152140476Y-90207200D01*
X152140476Y-90207200D02*
X152092857Y-90159580D01*
X152092857Y-90159580D02*
X152045238Y-90064342D01*
X152045238Y-90064342D02*
X151997619Y-89873866D01*
X151997619Y-89873866D02*
X151997619Y-89635771D01*
X151997619Y-89635771D02*
X152045238Y-89445295D01*
X152045238Y-89445295D02*
X152092857Y-89350057D01*
X152092857Y-89350057D02*
X152140476Y-89302438D01*
X152140476Y-89302438D02*
X152235714Y-89254819D01*
X152997619Y-90159580D02*
X153045238Y-90207200D01*
X153045238Y-90207200D02*
X152997619Y-90254819D01*
X152997619Y-90254819D02*
X152950000Y-90207200D01*
X152950000Y-90207200D02*
X152997619Y-90159580D01*
X152997619Y-90159580D02*
X152997619Y-90254819D01*
X153997618Y-90254819D02*
X153426190Y-90254819D01*
X153711904Y-90254819D02*
X153711904Y-89254819D01*
X153711904Y-89254819D02*
X153616666Y-89397676D01*
X153616666Y-89397676D02*
X153521428Y-89492914D01*
X153521428Y-89492914D02*
X153426190Y-89540533D01*
X154426190Y-89588152D02*
X154426190Y-90588152D01*
X154902380Y-90111961D02*
X154949999Y-90207200D01*
X154949999Y-90207200D02*
X155045237Y-90254819D01*
X154426190Y-90111961D02*
X154473809Y-90207200D01*
X154473809Y-90207200D02*
X154569047Y-90254819D01*
X154569047Y-90254819D02*
X154759523Y-90254819D01*
X154759523Y-90254819D02*
X154854761Y-90207200D01*
X154854761Y-90207200D02*
X154902380Y-90111961D01*
X154902380Y-90111961D02*
X154902380Y-89588152D01*
X155807142Y-89731009D02*
X155473809Y-89731009D01*
X155473809Y-90254819D02*
X155473809Y-89254819D01*
X155473809Y-89254819D02*
X155949999Y-89254819D01*
X154904819Y-73064285D02*
X154904819Y-72969047D01*
X154904819Y-72969047D02*
X154952438Y-72873809D01*
X154952438Y-72873809D02*
X155000057Y-72826190D01*
X155000057Y-72826190D02*
X155095295Y-72778571D01*
X155095295Y-72778571D02*
X155285771Y-72730952D01*
X155285771Y-72730952D02*
X155523866Y-72730952D01*
X155523866Y-72730952D02*
X155714342Y-72778571D01*
X155714342Y-72778571D02*
X155809580Y-72826190D01*
X155809580Y-72826190D02*
X155857200Y-72873809D01*
X155857200Y-72873809D02*
X155904819Y-72969047D01*
X155904819Y-72969047D02*
X155904819Y-73064285D01*
X155904819Y-73064285D02*
X155857200Y-73159523D01*
X155857200Y-73159523D02*
X155809580Y-73207142D01*
X155809580Y-73207142D02*
X155714342Y-73254761D01*
X155714342Y-73254761D02*
X155523866Y-73302380D01*
X155523866Y-73302380D02*
X155285771Y-73302380D01*
X155285771Y-73302380D02*
X155095295Y-73254761D01*
X155095295Y-73254761D02*
X155000057Y-73207142D01*
X155000057Y-73207142D02*
X154952438Y-73159523D01*
X154952438Y-73159523D02*
X154904819Y-73064285D01*
X155809580Y-72302380D02*
X155857200Y-72254761D01*
X155857200Y-72254761D02*
X155904819Y-72302380D01*
X155904819Y-72302380D02*
X155857200Y-72349999D01*
X155857200Y-72349999D02*
X155809580Y-72302380D01*
X155809580Y-72302380D02*
X155904819Y-72302380D01*
X155904819Y-71302381D02*
X155904819Y-71873809D01*
X155904819Y-71588095D02*
X154904819Y-71588095D01*
X154904819Y-71588095D02*
X155047676Y-71683333D01*
X155047676Y-71683333D02*
X155142914Y-71778571D01*
X155142914Y-71778571D02*
X155190533Y-71873809D01*
X155238152Y-70873809D02*
X156238152Y-70873809D01*
X155761961Y-70397619D02*
X155857200Y-70350000D01*
X155857200Y-70350000D02*
X155904819Y-70254762D01*
X155761961Y-70873809D02*
X155857200Y-70826190D01*
X155857200Y-70826190D02*
X155904819Y-70730952D01*
X155904819Y-70730952D02*
X155904819Y-70540476D01*
X155904819Y-70540476D02*
X155857200Y-70445238D01*
X155857200Y-70445238D02*
X155761961Y-70397619D01*
X155761961Y-70397619D02*
X155238152Y-70397619D01*
X155381009Y-69492857D02*
X155381009Y-69826190D01*
X155904819Y-69826190D02*
X154904819Y-69826190D01*
X154904819Y-69826190D02*
X154904819Y-69350000D01*
X144178571Y-63889700D02*
X145321429Y-63889700D01*
X144750000Y-64461128D02*
X144750000Y-63318271D01*
X155178571Y-63889700D02*
X156321429Y-63889700D01*
X110304761Y-74054819D02*
X109733333Y-74054819D01*
X110019047Y-74054819D02*
X110019047Y-73054819D01*
X110019047Y-73054819D02*
X109923809Y-73197676D01*
X109923809Y-73197676D02*
X109828571Y-73292914D01*
X109828571Y-73292914D02*
X109733333Y-73340533D01*
X110923809Y-73054819D02*
X111019047Y-73054819D01*
X111019047Y-73054819D02*
X111114285Y-73102438D01*
X111114285Y-73102438D02*
X111161904Y-73150057D01*
X111161904Y-73150057D02*
X111209523Y-73245295D01*
X111209523Y-73245295D02*
X111257142Y-73435771D01*
X111257142Y-73435771D02*
X111257142Y-73673866D01*
X111257142Y-73673866D02*
X111209523Y-73864342D01*
X111209523Y-73864342D02*
X111161904Y-73959580D01*
X111161904Y-73959580D02*
X111114285Y-74007200D01*
X111114285Y-74007200D02*
X111019047Y-74054819D01*
X111019047Y-74054819D02*
X110923809Y-74054819D01*
X110923809Y-74054819D02*
X110828571Y-74007200D01*
X110828571Y-74007200D02*
X110780952Y-73959580D01*
X110780952Y-73959580D02*
X110733333Y-73864342D01*
X110733333Y-73864342D02*
X110685714Y-73673866D01*
X110685714Y-73673866D02*
X110685714Y-73435771D01*
X110685714Y-73435771D02*
X110733333Y-73245295D01*
X110733333Y-73245295D02*
X110780952Y-73150057D01*
X110780952Y-73150057D02*
X110828571Y-73102438D01*
X110828571Y-73102438D02*
X110923809Y-73054819D01*
X111685714Y-74054819D02*
X111685714Y-73054819D01*
X111780952Y-73673866D02*
X112066666Y-74054819D01*
X112066666Y-73388152D02*
X111685714Y-73769104D01*
X115204761Y-69054819D02*
X114633333Y-69054819D01*
X114919047Y-69054819D02*
X114919047Y-68054819D01*
X114919047Y-68054819D02*
X114823809Y-68197676D01*
X114823809Y-68197676D02*
X114728571Y-68292914D01*
X114728571Y-68292914D02*
X114633333Y-68340533D01*
X115823809Y-68054819D02*
X115919047Y-68054819D01*
X115919047Y-68054819D02*
X116014285Y-68102438D01*
X116014285Y-68102438D02*
X116061904Y-68150057D01*
X116061904Y-68150057D02*
X116109523Y-68245295D01*
X116109523Y-68245295D02*
X116157142Y-68435771D01*
X116157142Y-68435771D02*
X116157142Y-68673866D01*
X116157142Y-68673866D02*
X116109523Y-68864342D01*
X116109523Y-68864342D02*
X116061904Y-68959580D01*
X116061904Y-68959580D02*
X116014285Y-69007200D01*
X116014285Y-69007200D02*
X115919047Y-69054819D01*
X115919047Y-69054819D02*
X115823809Y-69054819D01*
X115823809Y-69054819D02*
X115728571Y-69007200D01*
X115728571Y-69007200D02*
X115680952Y-68959580D01*
X115680952Y-68959580D02*
X115633333Y-68864342D01*
X115633333Y-68864342D02*
X115585714Y-68673866D01*
X115585714Y-68673866D02*
X115585714Y-68435771D01*
X115585714Y-68435771D02*
X115633333Y-68245295D01*
X115633333Y-68245295D02*
X115680952Y-68150057D01*
X115680952Y-68150057D02*
X115728571Y-68102438D01*
X115728571Y-68102438D02*
X115823809Y-68054819D01*
X116585714Y-69054819D02*
X116585714Y-68054819D01*
X116680952Y-68673866D02*
X116966666Y-69054819D01*
X116966666Y-68388152D02*
X116585714Y-68769104D01*
X148129580Y-81501904D02*
X148177200Y-81549523D01*
X148177200Y-81549523D02*
X148224819Y-81692380D01*
X148224819Y-81692380D02*
X148224819Y-81787618D01*
X148224819Y-81787618D02*
X148177200Y-81930475D01*
X148177200Y-81930475D02*
X148081961Y-82025713D01*
X148081961Y-82025713D02*
X147986723Y-82073332D01*
X147986723Y-82073332D02*
X147796247Y-82120951D01*
X147796247Y-82120951D02*
X147653390Y-82120951D01*
X147653390Y-82120951D02*
X147462914Y-82073332D01*
X147462914Y-82073332D02*
X147367676Y-82025713D01*
X147367676Y-82025713D02*
X147272438Y-81930475D01*
X147272438Y-81930475D02*
X147224819Y-81787618D01*
X147224819Y-81787618D02*
X147224819Y-81692380D01*
X147224819Y-81692380D02*
X147272438Y-81549523D01*
X147272438Y-81549523D02*
X147320057Y-81501904D01*
X147939104Y-81120951D02*
X147939104Y-80644761D01*
X148224819Y-81216189D02*
X147224819Y-80882856D01*
X147224819Y-80882856D02*
X148224819Y-80549523D01*
X148224819Y-80216189D02*
X147224819Y-80216189D01*
X147224819Y-80216189D02*
X148224819Y-79644761D01*
X148224819Y-79644761D02*
X147224819Y-79644761D01*
X148320057Y-79406666D02*
X148320057Y-78644761D01*
X148224819Y-78406665D02*
X147224819Y-78406665D01*
X148129580Y-77359047D02*
X148177200Y-77406666D01*
X148177200Y-77406666D02*
X148224819Y-77549523D01*
X148224819Y-77549523D02*
X148224819Y-77644761D01*
X148224819Y-77644761D02*
X148177200Y-77787618D01*
X148177200Y-77787618D02*
X148081961Y-77882856D01*
X148081961Y-77882856D02*
X147986723Y-77930475D01*
X147986723Y-77930475D02*
X147796247Y-77978094D01*
X147796247Y-77978094D02*
X147653390Y-77978094D01*
X147653390Y-77978094D02*
X147462914Y-77930475D01*
X147462914Y-77930475D02*
X147367676Y-77882856D01*
X147367676Y-77882856D02*
X147272438Y-77787618D01*
X147272438Y-77787618D02*
X147224819Y-77644761D01*
X147224819Y-77644761D02*
X147224819Y-77549523D01*
X147224819Y-77549523D02*
X147272438Y-77406666D01*
X147272438Y-77406666D02*
X147320057Y-77359047D01*
X169654819Y-80216666D02*
X169654819Y-80788094D01*
X169654819Y-80502380D02*
X168654819Y-80502380D01*
X168654819Y-80502380D02*
X168797676Y-80597618D01*
X168797676Y-80597618D02*
X168892914Y-80692856D01*
X168892914Y-80692856D02*
X168940533Y-80788094D01*
X168750057Y-79835713D02*
X168702438Y-79788094D01*
X168702438Y-79788094D02*
X168654819Y-79692856D01*
X168654819Y-79692856D02*
X168654819Y-79454761D01*
X168654819Y-79454761D02*
X168702438Y-79359523D01*
X168702438Y-79359523D02*
X168750057Y-79311904D01*
X168750057Y-79311904D02*
X168845295Y-79264285D01*
X168845295Y-79264285D02*
X168940533Y-79264285D01*
X168940533Y-79264285D02*
X169083390Y-79311904D01*
X169083390Y-79311904D02*
X169654819Y-79883332D01*
X169654819Y-79883332D02*
X169654819Y-79264285D01*
X168654819Y-78645237D02*
X168654819Y-78549999D01*
X168654819Y-78549999D02*
X168702438Y-78454761D01*
X168702438Y-78454761D02*
X168750057Y-78407142D01*
X168750057Y-78407142D02*
X168845295Y-78359523D01*
X168845295Y-78359523D02*
X169035771Y-78311904D01*
X169035771Y-78311904D02*
X169273866Y-78311904D01*
X169273866Y-78311904D02*
X169464342Y-78359523D01*
X169464342Y-78359523D02*
X169559580Y-78407142D01*
X169559580Y-78407142D02*
X169607200Y-78454761D01*
X169607200Y-78454761D02*
X169654819Y-78549999D01*
X169654819Y-78549999D02*
X169654819Y-78645237D01*
X169654819Y-78645237D02*
X169607200Y-78740475D01*
X169607200Y-78740475D02*
X169559580Y-78788094D01*
X169559580Y-78788094D02*
X169464342Y-78835713D01*
X169464342Y-78835713D02*
X169273866Y-78883332D01*
X169273866Y-78883332D02*
X169035771Y-78883332D01*
X169035771Y-78883332D02*
X168845295Y-78835713D01*
X168845295Y-78835713D02*
X168750057Y-78788094D01*
X168750057Y-78788094D02*
X168702438Y-78740475D01*
X168702438Y-78740475D02*
X168654819Y-78645237D01*
X130254761Y-68954819D02*
X129683333Y-68954819D01*
X129969047Y-68954819D02*
X129969047Y-67954819D01*
X129969047Y-67954819D02*
X129873809Y-68097676D01*
X129873809Y-68097676D02*
X129778571Y-68192914D01*
X129778571Y-68192914D02*
X129683333Y-68240533D01*
X130873809Y-67954819D02*
X130969047Y-67954819D01*
X130969047Y-67954819D02*
X131064285Y-68002438D01*
X131064285Y-68002438D02*
X131111904Y-68050057D01*
X131111904Y-68050057D02*
X131159523Y-68145295D01*
X131159523Y-68145295D02*
X131207142Y-68335771D01*
X131207142Y-68335771D02*
X131207142Y-68573866D01*
X131207142Y-68573866D02*
X131159523Y-68764342D01*
X131159523Y-68764342D02*
X131111904Y-68859580D01*
X131111904Y-68859580D02*
X131064285Y-68907200D01*
X131064285Y-68907200D02*
X130969047Y-68954819D01*
X130969047Y-68954819D02*
X130873809Y-68954819D01*
X130873809Y-68954819D02*
X130778571Y-68907200D01*
X130778571Y-68907200D02*
X130730952Y-68859580D01*
X130730952Y-68859580D02*
X130683333Y-68764342D01*
X130683333Y-68764342D02*
X130635714Y-68573866D01*
X130635714Y-68573866D02*
X130635714Y-68335771D01*
X130635714Y-68335771D02*
X130683333Y-68145295D01*
X130683333Y-68145295D02*
X130730952Y-68050057D01*
X130730952Y-68050057D02*
X130778571Y-68002438D01*
X130778571Y-68002438D02*
X130873809Y-67954819D01*
X131635714Y-68954819D02*
X131635714Y-67954819D01*
X131730952Y-68573866D02*
X132016666Y-68954819D01*
X132016666Y-68288152D02*
X131635714Y-68669104D01*
X161309524Y-65704819D02*
X161404762Y-65704819D01*
X161404762Y-65704819D02*
X161500000Y-65752438D01*
X161500000Y-65752438D02*
X161547619Y-65800057D01*
X161547619Y-65800057D02*
X161595238Y-65895295D01*
X161595238Y-65895295D02*
X161642857Y-66085771D01*
X161642857Y-66085771D02*
X161642857Y-66323866D01*
X161642857Y-66323866D02*
X161595238Y-66514342D01*
X161595238Y-66514342D02*
X161547619Y-66609580D01*
X161547619Y-66609580D02*
X161500000Y-66657200D01*
X161500000Y-66657200D02*
X161404762Y-66704819D01*
X161404762Y-66704819D02*
X161309524Y-66704819D01*
X161309524Y-66704819D02*
X161214286Y-66657200D01*
X161214286Y-66657200D02*
X161166667Y-66609580D01*
X161166667Y-66609580D02*
X161119048Y-66514342D01*
X161119048Y-66514342D02*
X161071429Y-66323866D01*
X161071429Y-66323866D02*
X161071429Y-66085771D01*
X161071429Y-66085771D02*
X161119048Y-65895295D01*
X161119048Y-65895295D02*
X161166667Y-65800057D01*
X161166667Y-65800057D02*
X161214286Y-65752438D01*
X161214286Y-65752438D02*
X161309524Y-65704819D01*
X162071429Y-66609580D02*
X162119048Y-66657200D01*
X162119048Y-66657200D02*
X162071429Y-66704819D01*
X162071429Y-66704819D02*
X162023810Y-66657200D01*
X162023810Y-66657200D02*
X162071429Y-66609580D01*
X162071429Y-66609580D02*
X162071429Y-66704819D01*
X162452381Y-65704819D02*
X163071428Y-65704819D01*
X163071428Y-65704819D02*
X162738095Y-66085771D01*
X162738095Y-66085771D02*
X162880952Y-66085771D01*
X162880952Y-66085771D02*
X162976190Y-66133390D01*
X162976190Y-66133390D02*
X163023809Y-66181009D01*
X163023809Y-66181009D02*
X163071428Y-66276247D01*
X163071428Y-66276247D02*
X163071428Y-66514342D01*
X163071428Y-66514342D02*
X163023809Y-66609580D01*
X163023809Y-66609580D02*
X162976190Y-66657200D01*
X162976190Y-66657200D02*
X162880952Y-66704819D01*
X162880952Y-66704819D02*
X162595238Y-66704819D01*
X162595238Y-66704819D02*
X162500000Y-66657200D01*
X162500000Y-66657200D02*
X162452381Y-66609580D01*
X163404762Y-65704819D02*
X164023809Y-65704819D01*
X164023809Y-65704819D02*
X163690476Y-66085771D01*
X163690476Y-66085771D02*
X163833333Y-66085771D01*
X163833333Y-66085771D02*
X163928571Y-66133390D01*
X163928571Y-66133390D02*
X163976190Y-66181009D01*
X163976190Y-66181009D02*
X164023809Y-66276247D01*
X164023809Y-66276247D02*
X164023809Y-66514342D01*
X164023809Y-66514342D02*
X163976190Y-66609580D01*
X163976190Y-66609580D02*
X163928571Y-66657200D01*
X163928571Y-66657200D02*
X163833333Y-66704819D01*
X163833333Y-66704819D02*
X163547619Y-66704819D01*
X163547619Y-66704819D02*
X163452381Y-66657200D01*
X163452381Y-66657200D02*
X163404762Y-66609580D01*
X164452381Y-66038152D02*
X164452381Y-67038152D01*
X164928571Y-66561961D02*
X164976190Y-66657200D01*
X164976190Y-66657200D02*
X165071428Y-66704819D01*
X164452381Y-66561961D02*
X164500000Y-66657200D01*
X164500000Y-66657200D02*
X164595238Y-66704819D01*
X164595238Y-66704819D02*
X164785714Y-66704819D01*
X164785714Y-66704819D02*
X164880952Y-66657200D01*
X164880952Y-66657200D02*
X164928571Y-66561961D01*
X164928571Y-66561961D02*
X164928571Y-66038152D01*
X165833333Y-66181009D02*
X165500000Y-66181009D01*
X165500000Y-66704819D02*
X165500000Y-65704819D01*
X165500000Y-65704819D02*
X165976190Y-65704819D01*
X125204761Y-74054819D02*
X124633333Y-74054819D01*
X124919047Y-74054819D02*
X124919047Y-73054819D01*
X124919047Y-73054819D02*
X124823809Y-73197676D01*
X124823809Y-73197676D02*
X124728571Y-73292914D01*
X124728571Y-73292914D02*
X124633333Y-73340533D01*
X125823809Y-73054819D02*
X125919047Y-73054819D01*
X125919047Y-73054819D02*
X126014285Y-73102438D01*
X126014285Y-73102438D02*
X126061904Y-73150057D01*
X126061904Y-73150057D02*
X126109523Y-73245295D01*
X126109523Y-73245295D02*
X126157142Y-73435771D01*
X126157142Y-73435771D02*
X126157142Y-73673866D01*
X126157142Y-73673866D02*
X126109523Y-73864342D01*
X126109523Y-73864342D02*
X126061904Y-73959580D01*
X126061904Y-73959580D02*
X126014285Y-74007200D01*
X126014285Y-74007200D02*
X125919047Y-74054819D01*
X125919047Y-74054819D02*
X125823809Y-74054819D01*
X125823809Y-74054819D02*
X125728571Y-74007200D01*
X125728571Y-74007200D02*
X125680952Y-73959580D01*
X125680952Y-73959580D02*
X125633333Y-73864342D01*
X125633333Y-73864342D02*
X125585714Y-73673866D01*
X125585714Y-73673866D02*
X125585714Y-73435771D01*
X125585714Y-73435771D02*
X125633333Y-73245295D01*
X125633333Y-73245295D02*
X125680952Y-73150057D01*
X125680952Y-73150057D02*
X125728571Y-73102438D01*
X125728571Y-73102438D02*
X125823809Y-73054819D01*
X126585714Y-74054819D02*
X126585714Y-73054819D01*
X126680952Y-73673866D02*
X126966666Y-74054819D01*
X126966666Y-73388152D02*
X126585714Y-73769104D01*
D12*
%TO.C,0.1\u03BCF*%
X152330000Y-86495000D02*
X152330000Y-86430000D01*
X152330000Y-88670000D02*
X152330000Y-88605000D01*
X155570000Y-86430000D02*
X152330000Y-86430000D01*
X155570000Y-86495000D02*
X155570000Y-86430000D01*
X155570000Y-88670000D02*
X152330000Y-88670000D01*
X155570000Y-88670000D02*
X155570000Y-88605000D01*
X156580000Y-69730000D02*
X156645000Y-69730000D01*
X156580000Y-72970000D02*
X156580000Y-69730000D01*
X156580000Y-72970000D02*
X156645000Y-72970000D01*
X158755000Y-69730000D02*
X158820000Y-69730000D01*
X158755000Y-72970000D02*
X158820000Y-72970000D01*
X158820000Y-72970000D02*
X158820000Y-69730000D01*
%TO.C,J2*%
X180990000Y-74940000D02*
X180990000Y-76360000D01*
X180990000Y-76360000D02*
X185490000Y-76360000D01*
X180990000Y-81140000D02*
X185490000Y-81140000D01*
X180990000Y-82560000D02*
X180990000Y-81140000D01*
X182900000Y-79700000D02*
X183500000Y-80000000D01*
X182900000Y-80300000D02*
X182900000Y-79700000D01*
X183500000Y-80000000D02*
X182900000Y-80300000D01*
X186600000Y-77250000D02*
X186600000Y-77750000D01*
X186600000Y-77750000D02*
X192100000Y-77750000D01*
X186600000Y-79750000D02*
X186600000Y-80250000D01*
X186600000Y-80250000D02*
X192100000Y-80250000D01*
X192100000Y-77250000D02*
X186600000Y-77250000D01*
X192100000Y-77750000D02*
X192100000Y-77250000D01*
X192100000Y-79750000D02*
X186600000Y-79750000D01*
X192100000Y-80250000D02*
X192100000Y-79750000D01*
X192710000Y-74940000D02*
X180990000Y-74940000D01*
X192710000Y-78750000D02*
X192710000Y-74940000D01*
X192710000Y-78750000D02*
X192710000Y-82560000D01*
X192710000Y-82560000D02*
X180990000Y-82560000D01*
%TO.C,U1*%
X159690000Y-55730000D02*
X159690000Y-60371000D01*
X159690000Y-55730000D02*
X169930000Y-55730000D01*
X159690000Y-57240000D02*
X169930000Y-57240000D01*
X159690000Y-60371000D02*
X169930000Y-60371000D01*
X162960000Y-55730000D02*
X162960000Y-57240000D01*
X166661000Y-55730000D02*
X166661000Y-57240000D01*
X169930000Y-55730000D02*
X169930000Y-60371000D01*
%TO.C,J9*%
X144600000Y-52665000D02*
X145190000Y-52665000D01*
X144600000Y-54885000D02*
X145190000Y-54885000D01*
X145190000Y-50565000D02*
X145190000Y-52665000D01*
X145190000Y-50565000D02*
X155310000Y-50565000D01*
X145190000Y-54885000D02*
X145190000Y-59785000D01*
X145190000Y-59785000D02*
X155310000Y-59785000D01*
X155310000Y-50565000D02*
X155310000Y-52665000D01*
X155310000Y-52665000D02*
X155900000Y-52665000D01*
X155310000Y-54885000D02*
X155310000Y-59785000D01*
X155310000Y-54885000D02*
X155900000Y-54885000D01*
X144600000Y-54885000D02*
G75*
G02*
X144600000Y-52665000I0J1110000D01*
G01*
X155900000Y-52665000D02*
G75*
G02*
X155900000Y-54885000I0J-1110000D01*
G01*
%TO.C,J5*%
X180990000Y-117440000D02*
X180990000Y-118860000D01*
X180990000Y-118860000D02*
X185490000Y-118860000D01*
X180990000Y-126140000D02*
X185490000Y-126140000D01*
X180990000Y-127560000D02*
X180990000Y-126140000D01*
X182900000Y-124700000D02*
X183500000Y-125000000D01*
X182900000Y-125300000D02*
X182900000Y-124700000D01*
X183500000Y-125000000D02*
X182900000Y-125300000D01*
X186600000Y-119750000D02*
X186600000Y-120250000D01*
X186600000Y-120250000D02*
X192100000Y-120250000D01*
X186600000Y-122250000D02*
X186600000Y-122750000D01*
X186600000Y-122750000D02*
X192100000Y-122750000D01*
X186600000Y-124750000D02*
X186600000Y-125250000D01*
X186600000Y-125250000D02*
X192100000Y-125250000D01*
X192100000Y-119750000D02*
X186600000Y-119750000D01*
X192100000Y-120250000D02*
X192100000Y-119750000D01*
X192100000Y-122250000D02*
X186600000Y-122250000D01*
X192100000Y-122750000D02*
X192100000Y-122250000D01*
X192100000Y-124750000D02*
X186600000Y-124750000D01*
X192100000Y-125250000D02*
X192100000Y-124750000D01*
X192710000Y-117440000D02*
X180990000Y-117440000D01*
X192710000Y-122500000D02*
X192710000Y-117440000D01*
X192710000Y-122500000D02*
X192710000Y-127560000D01*
X192710000Y-127560000D02*
X180990000Y-127560000D01*
%TO.C,10k*%
X106810000Y-73600000D02*
X107580000Y-73600000D01*
X107580000Y-72230000D02*
X107580000Y-74970000D01*
X107580000Y-74970000D02*
X114120000Y-74970000D01*
X114120000Y-72230000D02*
X107580000Y-72230000D01*
X114120000Y-74970000D02*
X114120000Y-72230000D01*
X114890000Y-73600000D02*
X114120000Y-73600000D01*
X111760000Y-68600000D02*
X112530000Y-68600000D01*
X112530000Y-67230000D02*
X112530000Y-69970000D01*
X112530000Y-69970000D02*
X119070000Y-69970000D01*
X119070000Y-67230000D02*
X112530000Y-67230000D01*
X119070000Y-69970000D02*
X119070000Y-67230000D01*
X119840000Y-68600000D02*
X119070000Y-68600000D01*
%TO.C,J8*%
X110840000Y-55890000D02*
X110840000Y-67610000D01*
X110840000Y-67610000D02*
X112260000Y-67610000D01*
X112260000Y-67610000D02*
X112260000Y-63110000D01*
X113150000Y-56500000D02*
X113150000Y-62000000D01*
X113150000Y-62000000D02*
X113650000Y-62000000D01*
X113650000Y-56500000D02*
X113150000Y-56500000D01*
X113650000Y-62000000D02*
X113650000Y-56500000D01*
X115650000Y-56500000D02*
X115650000Y-62000000D01*
X115650000Y-62000000D02*
X116150000Y-62000000D01*
X116150000Y-56500000D02*
X115650000Y-56500000D01*
X116150000Y-62000000D02*
X116150000Y-56500000D01*
X117150000Y-55890000D02*
X110840000Y-55890000D01*
X117150000Y-55890000D02*
X123460000Y-55890000D01*
X118150000Y-56500000D02*
X118150000Y-62000000D01*
X118150000Y-62000000D02*
X118650000Y-62000000D01*
X118650000Y-56500000D02*
X118150000Y-56500000D01*
X118650000Y-62000000D02*
X118650000Y-56500000D01*
X120600000Y-65700000D02*
X120900000Y-65100000D01*
X120650000Y-56500000D02*
X120650000Y-62000000D01*
X120650000Y-62000000D02*
X121150000Y-62000000D01*
X120900000Y-65100000D02*
X121200000Y-65700000D01*
X121150000Y-56500000D02*
X120650000Y-56500000D01*
X121150000Y-62000000D02*
X121150000Y-56500000D01*
X121200000Y-65700000D02*
X120600000Y-65700000D01*
X122040000Y-67610000D02*
X122040000Y-63110000D01*
X123460000Y-55890000D02*
X123460000Y-67610000D01*
X123460000Y-67610000D02*
X122040000Y-67610000D01*
%TO.C,J7*%
X125840000Y-55890000D02*
X125840000Y-67610000D01*
X125840000Y-67610000D02*
X127260000Y-67610000D01*
X127260000Y-67610000D02*
X127260000Y-63110000D01*
X128150000Y-56500000D02*
X128150000Y-62000000D01*
X128150000Y-62000000D02*
X128650000Y-62000000D01*
X128650000Y-56500000D02*
X128150000Y-56500000D01*
X128650000Y-62000000D02*
X128650000Y-56500000D01*
X130650000Y-56500000D02*
X130650000Y-62000000D01*
X130650000Y-62000000D02*
X131150000Y-62000000D01*
X131150000Y-56500000D02*
X130650000Y-56500000D01*
X131150000Y-62000000D02*
X131150000Y-56500000D01*
X132150000Y-55890000D02*
X125840000Y-55890000D01*
X132150000Y-55890000D02*
X138460000Y-55890000D01*
X133150000Y-56500000D02*
X133150000Y-62000000D01*
X133150000Y-62000000D02*
X133650000Y-62000000D01*
X133650000Y-56500000D02*
X133150000Y-56500000D01*
X133650000Y-62000000D02*
X133650000Y-56500000D01*
X135600000Y-65700000D02*
X135900000Y-65100000D01*
X135650000Y-56500000D02*
X135650000Y-62000000D01*
X135650000Y-62000000D02*
X136150000Y-62000000D01*
X135900000Y-65100000D02*
X136200000Y-65700000D01*
X136150000Y-56500000D02*
X135650000Y-56500000D01*
X136150000Y-62000000D02*
X136150000Y-56500000D01*
X136200000Y-65700000D02*
X135600000Y-65700000D01*
X137040000Y-67610000D02*
X137040000Y-63110000D01*
X138460000Y-55890000D02*
X138460000Y-67610000D01*
X138460000Y-67610000D02*
X137040000Y-67610000D01*
%TO.C,CAN_IC*%
X148770000Y-77090000D02*
X148770000Y-78740000D01*
X148770000Y-80740000D02*
X148770000Y-82390000D01*
X148770000Y-82390000D02*
X159050000Y-82390000D01*
X159050000Y-77090000D02*
X148770000Y-77090000D01*
X159050000Y-82390000D02*
X159050000Y-77090000D01*
X148770000Y-78740000D02*
G75*
G02*
X148770000Y-80740000I0J-1000000D01*
G01*
%TO.C,120*%
X167780000Y-76310000D02*
X167780000Y-82850000D01*
X167780000Y-82850000D02*
X170520000Y-82850000D01*
X169150000Y-75540000D02*
X169150000Y-76310000D01*
X169150000Y-83620000D02*
X169150000Y-82850000D01*
X170520000Y-76310000D02*
X167780000Y-76310000D01*
X170520000Y-82850000D02*
X170520000Y-76310000D01*
%TO.C,J1*%
X180990000Y-84940000D02*
X180990000Y-86360000D01*
X180990000Y-86360000D02*
X185490000Y-86360000D01*
X180990000Y-91140000D02*
X185490000Y-91140000D01*
X180990000Y-92560000D02*
X180990000Y-91140000D01*
X182900000Y-89700000D02*
X183500000Y-90000000D01*
X182900000Y-90300000D02*
X182900000Y-89700000D01*
X183500000Y-90000000D02*
X182900000Y-90300000D01*
X186600000Y-87250000D02*
X186600000Y-87750000D01*
X186600000Y-87750000D02*
X192100000Y-87750000D01*
X186600000Y-89750000D02*
X186600000Y-90250000D01*
X186600000Y-90250000D02*
X192100000Y-90250000D01*
X192100000Y-87250000D02*
X186600000Y-87250000D01*
X192100000Y-87750000D02*
X192100000Y-87250000D01*
X192100000Y-89750000D02*
X186600000Y-89750000D01*
X192100000Y-90250000D02*
X192100000Y-89750000D01*
X192710000Y-84940000D02*
X180990000Y-84940000D01*
X192710000Y-88750000D02*
X192710000Y-84940000D01*
X192710000Y-88750000D02*
X192710000Y-92560000D01*
X192710000Y-92560000D02*
X180990000Y-92560000D01*
D13*
%TO.C,U3*%
X104630000Y-141570000D02*
X104630000Y-64070000D01*
X106130000Y-62570000D02*
X173130000Y-62570000D01*
X106650000Y-93040000D02*
X106650000Y-141300000D01*
X106650000Y-141300000D02*
X111650000Y-141300000D01*
X111650000Y-93040000D02*
X106650000Y-93040000D01*
X111650000Y-141300000D02*
X111650000Y-93040000D01*
X114250000Y-102950000D02*
X114250000Y-123770000D01*
X114250000Y-123770000D02*
X116750000Y-123770000D01*
X114250000Y-125810000D02*
X114250000Y-141550000D01*
X114250000Y-141550000D02*
X116750000Y-141550000D01*
X115630000Y-143070000D02*
X106130000Y-143070000D01*
X116750000Y-102950000D02*
X114250000Y-102950000D01*
X116750000Y-123770000D02*
X116750000Y-102950000D01*
X116750000Y-125810000D02*
X114250000Y-125810000D01*
X116750000Y-141550000D02*
X116750000Y-125810000D01*
X117630000Y-145070000D02*
X115630000Y-143070000D01*
X150630000Y-145070000D02*
X117630000Y-145070000D01*
X152630000Y-143070000D02*
X150630000Y-145070000D01*
X162510000Y-93810000D02*
X162510000Y-119710000D01*
X162510000Y-119710000D02*
X165010000Y-119710000D01*
X162510000Y-120730000D02*
X162510000Y-141550000D01*
X162510000Y-141550000D02*
X165010000Y-141550000D01*
X165010000Y-93810000D02*
X162510000Y-93810000D01*
X165010000Y-119710000D02*
X165010000Y-93810000D01*
X165010000Y-120730000D02*
X162510000Y-120730000D01*
X165010000Y-141550000D02*
X165010000Y-120730000D01*
X167610000Y-93040000D02*
X167610000Y-141300000D01*
X167610000Y-141300000D02*
X172610000Y-141300000D01*
X172610000Y-93040000D02*
X167610000Y-93040000D01*
X172610000Y-141300000D02*
X172610000Y-93040000D01*
X173130000Y-143070000D02*
X152630000Y-143070000D01*
X174630000Y-64070000D02*
X174630000Y-141570000D01*
X104630000Y-64070000D02*
G75*
G02*
X106130000Y-62570000I1500001J-1D01*
G01*
X106130000Y-143070000D02*
G75*
G02*
X104630000Y-141570000I1J1500001D01*
G01*
X173130000Y-62570000D02*
G75*
G02*
X174630000Y-64070000I0J-1500000D01*
G01*
X174630000Y-141570000D02*
G75*
G02*
X173130000Y-143070000I-1500000J0D01*
G01*
D14*
X106230000Y-94310000D02*
G75*
G02*
X106030000Y-94310000I-100000J0D01*
G01*
X106030000Y-94310000D02*
G75*
G02*
X106230000Y-94310000I100000J0D01*
G01*
X113850000Y-104470000D02*
G75*
G02*
X113650000Y-104470000I-100000J0D01*
G01*
X113650000Y-104470000D02*
G75*
G02*
X113850000Y-104470000I100000J0D01*
G01*
X113850000Y-127330000D02*
G75*
G02*
X113650000Y-127330000I-100000J0D01*
G01*
X113650000Y-127330000D02*
G75*
G02*
X113850000Y-127330000I100000J0D01*
G01*
X165610000Y-118190000D02*
G75*
G02*
X165410000Y-118190000I-100000J0D01*
G01*
X165410000Y-118190000D02*
G75*
G02*
X165610000Y-118190000I100000J0D01*
G01*
X165610000Y-140030000D02*
G75*
G02*
X165410000Y-140030000I-100000J0D01*
G01*
X165410000Y-140030000D02*
G75*
G02*
X165610000Y-140030000I100000J0D01*
G01*
X167190000Y-94310000D02*
G75*
G02*
X166990000Y-94310000I-100000J0D01*
G01*
X166990000Y-94310000D02*
G75*
G02*
X167190000Y-94310000I100000J0D01*
G01*
D12*
%TO.C,J4*%
X180990000Y-102440000D02*
X180990000Y-103860000D01*
X180990000Y-103860000D02*
X185490000Y-103860000D01*
X180990000Y-111140000D02*
X185490000Y-111140000D01*
X180990000Y-112560000D02*
X180990000Y-111140000D01*
X182900000Y-109700000D02*
X183500000Y-110000000D01*
X182900000Y-110300000D02*
X182900000Y-109700000D01*
X183500000Y-110000000D02*
X182900000Y-110300000D01*
X186600000Y-104750000D02*
X186600000Y-105250000D01*
X186600000Y-105250000D02*
X192100000Y-105250000D01*
X186600000Y-107250000D02*
X186600000Y-107750000D01*
X186600000Y-107750000D02*
X192100000Y-107750000D01*
X186600000Y-109750000D02*
X186600000Y-110250000D01*
X186600000Y-110250000D02*
X192100000Y-110250000D01*
X192100000Y-104750000D02*
X186600000Y-104750000D01*
X192100000Y-105250000D02*
X192100000Y-104750000D01*
X192100000Y-107250000D02*
X186600000Y-107250000D01*
X192100000Y-107750000D02*
X192100000Y-107250000D01*
X192100000Y-109750000D02*
X186600000Y-109750000D01*
X192100000Y-110250000D02*
X192100000Y-109750000D01*
X192710000Y-102440000D02*
X180990000Y-102440000D01*
X192710000Y-107500000D02*
X192710000Y-102440000D01*
X192710000Y-107500000D02*
X192710000Y-112560000D01*
X192710000Y-112560000D02*
X180990000Y-112560000D01*
%TO.C,10k*%
X126810000Y-68600000D02*
X127580000Y-68600000D01*
X127580000Y-67230000D02*
X127580000Y-69970000D01*
X127580000Y-69970000D02*
X134120000Y-69970000D01*
X134120000Y-67230000D02*
X127580000Y-67230000D01*
X134120000Y-69970000D02*
X134120000Y-67230000D01*
X134890000Y-68600000D02*
X134120000Y-68600000D01*
%TO.C,J11*%
X171520000Y-57620000D02*
X171520000Y-60280000D01*
X174120000Y-57620000D02*
X171520000Y-57620000D01*
X174120000Y-57620000D02*
X174120000Y-60280000D01*
X174120000Y-60280000D02*
X171520000Y-60280000D01*
X175390000Y-57620000D02*
X176720000Y-57620000D01*
X176720000Y-57620000D02*
X176720000Y-58950000D01*
%TO.C,J6*%
X180990000Y-132440000D02*
X180990000Y-133860000D01*
X180990000Y-133860000D02*
X185490000Y-133860000D01*
X180990000Y-141140000D02*
X185490000Y-141140000D01*
X180990000Y-142560000D02*
X180990000Y-141140000D01*
X182900000Y-139700000D02*
X183500000Y-140000000D01*
X182900000Y-140300000D02*
X182900000Y-139700000D01*
X183500000Y-140000000D02*
X182900000Y-140300000D01*
X186600000Y-134750000D02*
X186600000Y-135250000D01*
X186600000Y-135250000D02*
X192100000Y-135250000D01*
X186600000Y-137250000D02*
X186600000Y-137750000D01*
X186600000Y-137750000D02*
X192100000Y-137750000D01*
X186600000Y-139750000D02*
X186600000Y-140250000D01*
X186600000Y-140250000D02*
X192100000Y-140250000D01*
X192100000Y-134750000D02*
X186600000Y-134750000D01*
X192100000Y-135250000D02*
X192100000Y-134750000D01*
X192100000Y-137250000D02*
X186600000Y-137250000D01*
X192100000Y-137750000D02*
X192100000Y-137250000D01*
X192100000Y-139750000D02*
X186600000Y-139750000D01*
X192100000Y-140250000D02*
X192100000Y-139750000D01*
X192710000Y-132440000D02*
X180990000Y-132440000D01*
X192710000Y-137500000D02*
X192710000Y-132440000D01*
X192710000Y-137500000D02*
X192710000Y-142560000D01*
X192710000Y-142560000D02*
X180990000Y-142560000D01*
%TO.C,0.33\u03BCF*%
X161880000Y-62830000D02*
X161880000Y-62895000D01*
X161880000Y-62830000D02*
X165120000Y-62830000D01*
X161880000Y-65005000D02*
X161880000Y-65070000D01*
X161880000Y-65070000D02*
X165120000Y-65070000D01*
X165120000Y-62830000D02*
X165120000Y-62895000D01*
X165120000Y-65005000D02*
X165120000Y-65070000D01*
%TO.C,C4*%
X164480000Y-52645000D02*
X164480000Y-52580000D01*
X164480000Y-54820000D02*
X164480000Y-54755000D01*
X167720000Y-52580000D02*
X164480000Y-52580000D01*
X167720000Y-52645000D02*
X167720000Y-52580000D01*
X167720000Y-54820000D02*
X164480000Y-54820000D01*
X167720000Y-54820000D02*
X167720000Y-54755000D01*
%TO.C,J10*%
X179055000Y-57620000D02*
X179055000Y-60280000D01*
X181655000Y-57620000D02*
X179055000Y-57620000D01*
X181655000Y-57620000D02*
X181655000Y-60280000D01*
X181655000Y-60280000D02*
X179055000Y-60280000D01*
X182925000Y-57620000D02*
X184255000Y-57620000D01*
X184255000Y-57620000D02*
X184255000Y-58950000D01*
%TO.C,10k*%
X121760000Y-73600000D02*
X122530000Y-73600000D01*
X122530000Y-72230000D02*
X122530000Y-74970000D01*
X122530000Y-74970000D02*
X129070000Y-74970000D01*
X129070000Y-72230000D02*
X122530000Y-72230000D01*
X129070000Y-74970000D02*
X129070000Y-72230000D01*
X129840000Y-73600000D02*
X129070000Y-73600000D01*
%TO.C,J3*%
X180990000Y-64940000D02*
X180990000Y-66360000D01*
X180990000Y-66360000D02*
X185490000Y-66360000D01*
X180990000Y-71140000D02*
X185490000Y-71140000D01*
X180990000Y-72560000D02*
X180990000Y-71140000D01*
X182900000Y-69700000D02*
X183500000Y-70000000D01*
X182900000Y-70300000D02*
X182900000Y-69700000D01*
X183500000Y-70000000D02*
X182900000Y-70300000D01*
X186600000Y-67250000D02*
X186600000Y-67750000D01*
X186600000Y-67750000D02*
X192100000Y-67750000D01*
X186600000Y-69750000D02*
X186600000Y-70250000D01*
X186600000Y-70250000D02*
X192100000Y-70250000D01*
X192100000Y-67250000D02*
X186600000Y-67250000D01*
X192100000Y-67750000D02*
X192100000Y-67250000D01*
X192100000Y-69750000D02*
X186600000Y-69750000D01*
X192100000Y-70250000D02*
X192100000Y-69750000D01*
X192710000Y-64940000D02*
X180990000Y-64940000D01*
X192710000Y-68750000D02*
X192710000Y-64940000D01*
X192710000Y-68750000D02*
X192710000Y-72560000D01*
X192710000Y-72560000D02*
X180990000Y-72560000D01*
%TD*%
M02*
