%TF.GenerationSoftware,KiCad,Pcbnew,8.0.8-8.0.8-0~ubuntu24.04.1*%
%TF.CreationDate,2025-02-07T22:42:51+09:00*%
%TF.ProjectId,Accurate,41636375-7261-4746-952e-6b696361645f,rev?*%
%TF.SameCoordinates,Original*%
%TF.FileFunction,Soldermask,Bot*%
%TF.FilePolarity,Negative*%
%FSLAX46Y46*%
G04 Gerber Fmt 4.6, Leading zero omitted, Abs format (unit mm)*
G04 Created by KiCad (PCBNEW 8.0.8-8.0.8-0~ubuntu24.04.1) date 2025-02-07 22:42:51*
%MOMM*%
%LPD*%
G01*
G04 APERTURE LIST*
G04 Aperture macros list*
%AMRoundRect*
0 Rectangle with rounded corners*
0 $1 Rounding radius*
0 $2 $3 $4 $5 $6 $7 $8 $9 X,Y pos of 4 corners*
0 Add a 4 corners polygon primitive as box body*
4,1,4,$2,$3,$4,$5,$6,$7,$8,$9,$2,$3,0*
0 Add four circle primitives for the rounded corners*
1,1,$1+$1,$2,$3*
1,1,$1+$1,$4,$5*
1,1,$1+$1,$6,$7*
1,1,$1+$1,$8,$9*
0 Add four rect primitives between the rounded corners*
20,1,$1+$1,$2,$3,$4,$5,0*
20,1,$1+$1,$4,$5,$6,$7,0*
20,1,$1+$1,$6,$7,$8,$9,0*
20,1,$1+$1,$8,$9,$2,$3,0*%
G04 Aperture macros list end*
%ADD10C,1.600000*%
%ADD11C,1.734000*%
%ADD12RoundRect,0.250000X0.750000X-0.600000X0.750000X0.600000X-0.750000X0.600000X-0.750000X-0.600000X0*%
%ADD13O,2.000000X1.700000*%
%ADD14R,1.905000X2.000000*%
%ADD15O,1.905000X2.000000*%
%ADD16C,1.400000*%
%ADD17RoundRect,0.770000X-0.980000X-0.980000X0.980000X-0.980000X0.980000X0.980000X-0.980000X0.980000X0*%
%ADD18C,3.500000*%
%ADD19RoundRect,0.250000X0.725000X-0.600000X0.725000X0.600000X-0.725000X0.600000X-0.725000X-0.600000X0*%
%ADD20O,1.950000X1.700000*%
%ADD21O,1.600000X1.600000*%
%ADD22RoundRect,0.250000X0.600000X0.725000X-0.600000X0.725000X-0.600000X-0.725000X0.600000X-0.725000X0*%
%ADD23O,1.700000X1.950000*%
%ADD24R,1.600000X1.600000*%
%ADD25C,3.000000*%
%ADD26RoundRect,0.102000X-0.802500X-0.802500X0.802500X-0.802500X0.802500X0.802500X-0.802500X0.802500X0*%
%ADD27C,1.809000*%
%ADD28RoundRect,0.102000X-0.765000X-0.765000X0.765000X-0.765000X0.765000X0.765000X-0.765000X0.765000X0*%
%ADD29R,1.700000X1.700000*%
%ADD30O,1.700000X1.700000*%
G04 APERTURE END LIST*
D10*
%TO.C,0.1\u03BCF*%
X155200000Y-87550000D03*
X152700000Y-87550000D03*
%TD*%
D11*
%TO.C,*%
X163675000Y-145150000D03*
%TD*%
D10*
%TO.C,0.1\u03BCF*%
X157700000Y-72600000D03*
X157700000Y-70100000D03*
%TD*%
D12*
%TO.C,J2*%
X185000000Y-80000000D03*
D13*
X185000000Y-77500000D03*
%TD*%
D14*
%TO.C,U1*%
X162270000Y-59000000D03*
D15*
X164810000Y-59000000D03*
X167350000Y-59000000D03*
%TD*%
D16*
%TO.C,J9*%
X144750000Y-53775000D03*
X155750000Y-53775000D03*
D17*
X152750000Y-63775000D03*
D18*
X147750000Y-63775000D03*
%TD*%
D19*
%TO.C,J5*%
X185000000Y-125000000D03*
D20*
X185000000Y-122500000D03*
X185000000Y-120000000D03*
%TD*%
D10*
%TO.C,10k*%
X105770000Y-73600000D03*
D21*
X115930000Y-73600000D03*
%TD*%
D10*
%TO.C,10k*%
X110720000Y-68600000D03*
D21*
X120880000Y-68600000D03*
%TD*%
D22*
%TO.C,J8*%
X120900000Y-63600000D03*
D23*
X118400000Y-63600000D03*
X115900000Y-63600000D03*
X113400000Y-63600000D03*
%TD*%
D22*
%TO.C,J7*%
X135900000Y-63600000D03*
D23*
X133400000Y-63600000D03*
X130900000Y-63600000D03*
X128400000Y-63600000D03*
%TD*%
D24*
%TO.C,CAN_IC*%
X150100000Y-83550000D03*
D21*
X152640000Y-83550000D03*
X155180000Y-83550000D03*
X157720000Y-83550000D03*
X157720000Y-75930000D03*
X155180000Y-75930000D03*
X152640000Y-75930000D03*
X150100000Y-75930000D03*
%TD*%
D10*
%TO.C,120*%
X169150000Y-84660000D03*
D21*
X169150000Y-74500000D03*
%TD*%
D12*
%TO.C,J1*%
X185000000Y-90000000D03*
D13*
X185000000Y-87500000D03*
%TD*%
D25*
%TO.C,U3*%
X115500000Y-90500000D03*
X148520000Y-142570000D03*
X163760000Y-91770000D03*
D26*
X163760000Y-118190000D03*
D27*
X163760000Y-115650000D03*
X163760000Y-113110000D03*
X163760000Y-110570000D03*
X163760000Y-108030000D03*
X163760000Y-105490000D03*
X163760000Y-102950000D03*
X163760000Y-100410000D03*
X163760000Y-97870000D03*
X163760000Y-95330000D03*
D26*
X115500000Y-104470000D03*
D27*
X115500000Y-107010000D03*
X115500000Y-109550000D03*
X115500000Y-112090000D03*
X115500000Y-114630000D03*
X115500000Y-117170000D03*
X115500000Y-119710000D03*
X115500000Y-122250000D03*
D28*
X107880000Y-94310000D03*
D11*
X110420000Y-94310000D03*
X107880000Y-96850000D03*
X110420000Y-96850000D03*
X107880000Y-99390000D03*
X110420000Y-99390000D03*
X107880000Y-101930000D03*
X110420000Y-101930000D03*
X107880000Y-104470000D03*
X110420000Y-104470000D03*
X107880000Y-107010000D03*
X110420000Y-107010000D03*
X107880000Y-109550000D03*
X110420000Y-109550000D03*
X107880000Y-112090000D03*
X110420000Y-112090000D03*
X107880000Y-114630000D03*
X110420000Y-114630000D03*
X107880000Y-117170000D03*
X110420000Y-117170000D03*
X107880000Y-119710000D03*
X110420000Y-119710000D03*
X107880000Y-122250000D03*
X110420000Y-122250000D03*
X107880000Y-124790000D03*
X110420000Y-124790000D03*
X107880000Y-127330000D03*
X110420000Y-127330000D03*
X107880000Y-129870000D03*
X110420000Y-129870000D03*
X107880000Y-132410000D03*
X110420000Y-132410000D03*
X107880000Y-134950000D03*
X110420000Y-134950000D03*
X107880000Y-137490000D03*
X110420000Y-137490000D03*
X107880000Y-140030000D03*
X110420000Y-140030000D03*
D26*
X115500000Y-127330000D03*
D27*
X115500000Y-129870000D03*
X115500000Y-132410000D03*
X115500000Y-134950000D03*
X115500000Y-137490000D03*
X115500000Y-140030000D03*
D26*
X163760000Y-140030000D03*
D27*
X163760000Y-137490000D03*
X163760000Y-134950000D03*
X163760000Y-132410000D03*
X163760000Y-129870000D03*
X163760000Y-127330000D03*
X163760000Y-124790000D03*
X163760000Y-122250000D03*
D28*
X168840000Y-94310000D03*
D11*
X171380000Y-94310000D03*
X168840000Y-96850000D03*
X171380000Y-96850000D03*
X168840000Y-99390000D03*
X171380000Y-99390000D03*
X168840000Y-101930000D03*
X171380000Y-101930000D03*
X168840000Y-104470000D03*
X171380000Y-104470000D03*
X168840000Y-107010000D03*
X171380000Y-107010000D03*
X168840000Y-109550000D03*
X171380000Y-109550000D03*
X168840000Y-112090000D03*
X171380000Y-112090000D03*
X168840000Y-114630000D03*
X171380000Y-114630000D03*
X168840000Y-117170000D03*
X171380000Y-117170000D03*
X168840000Y-119710000D03*
X171380000Y-119710000D03*
X168840000Y-122250000D03*
X171380000Y-122250000D03*
X168840000Y-124790000D03*
X171380000Y-124790000D03*
X168840000Y-127330000D03*
X171380000Y-127330000D03*
X168840000Y-129870000D03*
X171380000Y-129870000D03*
X168840000Y-132410000D03*
X171380000Y-132410000D03*
X168840000Y-134950000D03*
X171380000Y-134950000D03*
X168840000Y-137490000D03*
X171380000Y-137490000D03*
X168840000Y-140030000D03*
X171380000Y-140030000D03*
%TD*%
D19*
%TO.C,J4*%
X185000000Y-110000000D03*
D20*
X185000000Y-107500000D03*
X185000000Y-105000000D03*
%TD*%
D10*
%TO.C,10k*%
X125770000Y-68600000D03*
D21*
X135930000Y-68600000D03*
%TD*%
D29*
%TO.C,J11*%
X175390000Y-58950000D03*
D30*
X172850000Y-58950000D03*
%TD*%
D11*
%TO.C,*%
X169425000Y-145150000D03*
%TD*%
D19*
%TO.C,J6*%
X185000000Y-140000000D03*
D20*
X185000000Y-137500000D03*
X185000000Y-135000000D03*
%TD*%
D10*
%TO.C,0.33\u03BCF*%
X162250000Y-63950000D03*
X164750000Y-63950000D03*
%TD*%
%TO.C,C4*%
X167350000Y-53700000D03*
X164850000Y-53700000D03*
%TD*%
D29*
%TO.C,J10*%
X182925000Y-58950000D03*
D30*
X180385000Y-58950000D03*
%TD*%
D10*
%TO.C,10k*%
X120720000Y-73600000D03*
D21*
X130880000Y-73600000D03*
%TD*%
D12*
%TO.C,J3*%
X185000000Y-70000000D03*
D13*
X185000000Y-67500000D03*
%TD*%
M02*
