M48
; DRILL file {KiCad 8.0.8-8.0.8-0~ubuntu24.04.1} date 2025-02-07T22:43:00+0900
; FORMAT={-:-/ absolute / inch / decimal}
; #@! TF.CreationDate,2025-02-07T22:43:00+09:00
; #@! TF.GenerationSoftware,Kicad,Pcbnew,8.0.8-8.0.8-0~ubuntu24.04.1
; #@! TF.FileFunction,Plated,1,2,PTH
FMAT,2
INCH
; #@! TA.AperFunction,Plated,PTH,ComponentDrill
T1C0.0315
; #@! TA.AperFunction,Plated,PTH,ComponentDrill
T2C0.0374
; #@! TA.AperFunction,Plated,PTH,ComponentDrill
T3C0.0394
; #@! TA.AperFunction,Plated,PTH,ComponentDrill
T4C0.0402
; #@! TA.AperFunction,Plated,PTH,ComponentDrill
T5C0.0421
; #@! TA.AperFunction,Plated,PTH,ComponentDrill
T6C0.0433
; #@! TA.AperFunction,Plated,PTH,ComponentDrill
T7C0.0748
%
G90
G05
T1
X4.1642Y-2.8976
X4.3591Y-2.7008
X4.5642Y-2.8976
X4.7528Y-2.8976
X4.7591Y-2.7008
X4.9516Y-2.7008
X5.1528Y-2.8976
X5.3516Y-2.7008
X5.9094Y-2.9894
X5.9094Y-3.2894
X6.0094Y-2.9894
X6.0094Y-3.2894
X6.0118Y-3.4469
X6.1094Y-2.9894
X6.1094Y-3.2894
X6.1102Y-3.4469
X6.2087Y-2.7598
X6.2087Y-2.8583
X6.2094Y-2.9894
X6.2094Y-3.2894
X6.3878Y-2.5177
X6.4862Y-2.5177
X6.4902Y-2.1142
X6.5886Y-2.1142
X6.6594Y-2.9331
X6.6594Y-3.3331
T2
X4.4646Y-2.5039
X4.563Y-2.5039
X4.6614Y-2.5039
X4.7598Y-2.5039
X5.0551Y-2.5039
X5.1535Y-2.5039
X5.252Y-2.5039
X5.3504Y-2.5039
X7.2835Y-4.1339
X7.2835Y-4.2323
X7.2835Y-4.3307
X7.2835Y-4.7244
X7.2835Y-4.8228
X7.2835Y-4.9213
X7.2835Y-5.315
X7.2835Y-5.4134
X7.2835Y-5.5118
T3
X5.6988Y-2.1171
X6.1319Y-2.1171
X6.8051Y-2.3209
X6.9051Y-2.3209
X7.1018Y-2.3209
X7.2018Y-2.3209
X7.2835Y-2.6575
X7.2835Y-2.7559
X7.2835Y-3.0512
X7.2835Y-3.1496
X7.2835Y-3.4449
X7.2835Y-3.5433
T4
X4.2472Y-3.713
X4.2472Y-3.813
X4.2472Y-3.913
X4.2472Y-4.013
X4.2472Y-4.113
X4.2472Y-4.213
X4.2472Y-4.313
X4.2472Y-4.413
X4.2472Y-4.513
X4.2472Y-4.613
X4.2472Y-4.713
X4.2472Y-4.813
X4.2472Y-4.913
X4.2472Y-5.013
X4.2472Y-5.113
X4.2472Y-5.213
X4.2472Y-5.313
X4.2472Y-5.413
X4.2472Y-5.513
X4.3472Y-3.713
X4.3472Y-3.813
X4.3472Y-3.913
X4.3472Y-4.013
X4.3472Y-4.113
X4.3472Y-4.213
X4.3472Y-4.313
X4.3472Y-4.413
X4.3472Y-4.513
X4.3472Y-4.613
X4.3472Y-4.713
X4.3472Y-4.813
X4.3472Y-4.913
X4.3472Y-5.013
X4.3472Y-5.113
X4.3472Y-5.213
X4.3472Y-5.313
X4.3472Y-5.413
X4.3472Y-5.513
X6.4439Y-5.7146
X6.6472Y-3.713
X6.6472Y-3.813
X6.6472Y-3.913
X6.6472Y-4.013
X6.6472Y-4.113
X6.6472Y-4.213
X6.6472Y-4.313
X6.6472Y-4.413
X6.6472Y-4.513
X6.6472Y-4.613
X6.6472Y-4.713
X6.6472Y-4.813
X6.6472Y-4.913
X6.6472Y-5.013
X6.6472Y-5.113
X6.6472Y-5.213
X6.6472Y-5.313
X6.6472Y-5.413
X6.6472Y-5.513
X6.6703Y-5.7146
X6.7472Y-3.713
X6.7472Y-3.813
X6.7472Y-3.913
X6.7472Y-4.013
X6.7472Y-4.113
X6.7472Y-4.213
X6.7472Y-4.313
X6.7472Y-4.413
X6.7472Y-4.513
X6.7472Y-4.613
X6.7472Y-4.713
X6.7472Y-4.813
X6.7472Y-4.913
X6.7472Y-5.013
X6.7472Y-5.113
X6.7472Y-5.213
X6.7472Y-5.313
X6.7472Y-5.413
X6.7472Y-5.513
T5
X4.5472Y-4.113
X4.5472Y-4.213
X4.5472Y-4.313
X4.5472Y-4.413
X4.5472Y-4.513
X4.5472Y-4.613
X4.5472Y-4.713
X4.5472Y-4.813
X4.5472Y-5.013
X4.5472Y-5.113
X4.5472Y-5.213
X4.5472Y-5.313
X4.5472Y-5.413
X4.5472Y-5.513
X6.4472Y-3.7531
X6.4472Y-3.8531
X6.4472Y-3.9531
X6.4472Y-4.0531
X6.4472Y-4.1531
X6.4472Y-4.2531
X6.4472Y-4.3531
X6.4472Y-4.4531
X6.4472Y-4.5531
X6.4472Y-4.6531
X6.4472Y-4.813
X6.4472Y-4.913
X6.4472Y-5.013
X6.4472Y-5.113
X6.4472Y-5.213
X6.4472Y-5.313
X6.4472Y-5.413
X6.4472Y-5.513
T6
X6.3886Y-2.3228
X6.4886Y-2.3228
X6.5886Y-2.3228
T7
X5.8169Y-2.5108
X6.0138Y-2.5108
M30
