%TF.GenerationSoftware,KiCad,Pcbnew,8.0.8-8.0.8-0~ubuntu24.04.1*%
%TF.CreationDate,2025-02-07T22:42:51+09:00*%
%TF.ProjectId,Accurate,41636375-7261-4746-952e-6b696361645f,rev?*%
%TF.SameCoordinates,Original*%
%TF.FileFunction,Legend,Bot*%
%TF.FilePolarity,Positive*%
%FSLAX46Y46*%
G04 Gerber Fmt 4.6, Leading zero omitted, Abs format (unit mm)*
G04 Created by KiCad (PCBNEW 8.0.8-8.0.8-0~ubuntu24.04.1) date 2025-02-07 22:42:51*
%MOMM*%
%LPD*%
G01*
G04 APERTURE LIST*
%ADD10C,0.100000*%
G04 APERTURE END LIST*
D10*
X101888728Y-93214287D02*
X101888728Y-93500001D01*
X101888728Y-93500001D02*
X101817300Y-93642858D01*
X101817300Y-93642858D02*
X101745871Y-93714287D01*
X101745871Y-93714287D02*
X101531585Y-93857144D01*
X101531585Y-93857144D02*
X101245871Y-93928573D01*
X101245871Y-93928573D02*
X100674442Y-93928573D01*
X100674442Y-93928573D02*
X100531585Y-93857144D01*
X100531585Y-93857144D02*
X100460157Y-93785716D01*
X100460157Y-93785716D02*
X100388728Y-93642858D01*
X100388728Y-93642858D02*
X100388728Y-93357144D01*
X100388728Y-93357144D02*
X100460157Y-93214287D01*
X100460157Y-93214287D02*
X100531585Y-93142858D01*
X100531585Y-93142858D02*
X100674442Y-93071430D01*
X100674442Y-93071430D02*
X101031585Y-93071430D01*
X101031585Y-93071430D02*
X101174442Y-93142858D01*
X101174442Y-93142858D02*
X101245871Y-93214287D01*
X101245871Y-93214287D02*
X101317300Y-93357144D01*
X101317300Y-93357144D02*
X101317300Y-93642858D01*
X101317300Y-93642858D02*
X101245871Y-93785716D01*
X101245871Y-93785716D02*
X101174442Y-93857144D01*
X101174442Y-93857144D02*
X101031585Y-93928573D01*
X100388728Y-94857144D02*
X100388728Y-95000001D01*
X100388728Y-95000001D02*
X100460157Y-95142858D01*
X100460157Y-95142858D02*
X100531585Y-95214287D01*
X100531585Y-95214287D02*
X100674442Y-95285715D01*
X100674442Y-95285715D02*
X100960157Y-95357144D01*
X100960157Y-95357144D02*
X101317300Y-95357144D01*
X101317300Y-95357144D02*
X101603014Y-95285715D01*
X101603014Y-95285715D02*
X101745871Y-95214287D01*
X101745871Y-95214287D02*
X101817300Y-95142858D01*
X101817300Y-95142858D02*
X101888728Y-95000001D01*
X101888728Y-95000001D02*
X101888728Y-94857144D01*
X101888728Y-94857144D02*
X101817300Y-94714287D01*
X101817300Y-94714287D02*
X101745871Y-94642858D01*
X101745871Y-94642858D02*
X101603014Y-94571429D01*
X101603014Y-94571429D02*
X101317300Y-94500001D01*
X101317300Y-94500001D02*
X100960157Y-94500001D01*
X100960157Y-94500001D02*
X100674442Y-94571429D01*
X100674442Y-94571429D02*
X100531585Y-94642858D01*
X100531585Y-94642858D02*
X100460157Y-94714287D01*
X100460157Y-94714287D02*
X100388728Y-94857144D01*
X101745871Y-96000000D02*
X101817300Y-96071429D01*
X101817300Y-96071429D02*
X101888728Y-96000000D01*
X101888728Y-96000000D02*
X101817300Y-95928572D01*
X101817300Y-95928572D02*
X101745871Y-96000000D01*
X101745871Y-96000000D02*
X101888728Y-96000000D01*
X100388728Y-97000001D02*
X100388728Y-97142858D01*
X100388728Y-97142858D02*
X100460157Y-97285715D01*
X100460157Y-97285715D02*
X100531585Y-97357144D01*
X100531585Y-97357144D02*
X100674442Y-97428572D01*
X100674442Y-97428572D02*
X100960157Y-97500001D01*
X100960157Y-97500001D02*
X101317300Y-97500001D01*
X101317300Y-97500001D02*
X101603014Y-97428572D01*
X101603014Y-97428572D02*
X101745871Y-97357144D01*
X101745871Y-97357144D02*
X101817300Y-97285715D01*
X101817300Y-97285715D02*
X101888728Y-97142858D01*
X101888728Y-97142858D02*
X101888728Y-97000001D01*
X101888728Y-97000001D02*
X101817300Y-96857144D01*
X101817300Y-96857144D02*
X101745871Y-96785715D01*
X101745871Y-96785715D02*
X101603014Y-96714286D01*
X101603014Y-96714286D02*
X101317300Y-96642858D01*
X101317300Y-96642858D02*
X100960157Y-96642858D01*
X100960157Y-96642858D02*
X100674442Y-96714286D01*
X100674442Y-96714286D02*
X100531585Y-96785715D01*
X100531585Y-96785715D02*
X100460157Y-96857144D01*
X100460157Y-96857144D02*
X100388728Y-97000001D01*
X100388728Y-98428572D02*
X100388728Y-98571429D01*
X100388728Y-98571429D02*
X100460157Y-98714286D01*
X100460157Y-98714286D02*
X100531585Y-98785715D01*
X100531585Y-98785715D02*
X100674442Y-98857143D01*
X100674442Y-98857143D02*
X100960157Y-98928572D01*
X100960157Y-98928572D02*
X101317300Y-98928572D01*
X101317300Y-98928572D02*
X101603014Y-98857143D01*
X101603014Y-98857143D02*
X101745871Y-98785715D01*
X101745871Y-98785715D02*
X101817300Y-98714286D01*
X101817300Y-98714286D02*
X101888728Y-98571429D01*
X101888728Y-98571429D02*
X101888728Y-98428572D01*
X101888728Y-98428572D02*
X101817300Y-98285715D01*
X101817300Y-98285715D02*
X101745871Y-98214286D01*
X101745871Y-98214286D02*
X101603014Y-98142857D01*
X101603014Y-98142857D02*
X101317300Y-98071429D01*
X101317300Y-98071429D02*
X100960157Y-98071429D01*
X100960157Y-98071429D02*
X100674442Y-98142857D01*
X100674442Y-98142857D02*
X100531585Y-98214286D01*
X100531585Y-98214286D02*
X100460157Y-98285715D01*
X100460157Y-98285715D02*
X100388728Y-98428572D01*
X100388728Y-99857143D02*
X100388728Y-100000000D01*
X100388728Y-100000000D02*
X100460157Y-100142857D01*
X100460157Y-100142857D02*
X100531585Y-100214286D01*
X100531585Y-100214286D02*
X100674442Y-100285714D01*
X100674442Y-100285714D02*
X100960157Y-100357143D01*
X100960157Y-100357143D02*
X101317300Y-100357143D01*
X101317300Y-100357143D02*
X101603014Y-100285714D01*
X101603014Y-100285714D02*
X101745871Y-100214286D01*
X101745871Y-100214286D02*
X101817300Y-100142857D01*
X101817300Y-100142857D02*
X101888728Y-100000000D01*
X101888728Y-100000000D02*
X101888728Y-99857143D01*
X101888728Y-99857143D02*
X101817300Y-99714286D01*
X101817300Y-99714286D02*
X101745871Y-99642857D01*
X101745871Y-99642857D02*
X101603014Y-99571428D01*
X101603014Y-99571428D02*
X101317300Y-99500000D01*
X101317300Y-99500000D02*
X100960157Y-99500000D01*
X100960157Y-99500000D02*
X100674442Y-99571428D01*
X100674442Y-99571428D02*
X100531585Y-99642857D01*
X100531585Y-99642857D02*
X100460157Y-99714286D01*
X100460157Y-99714286D02*
X100388728Y-99857143D01*
X100388728Y-101285714D02*
X100388728Y-101428571D01*
X100388728Y-101428571D02*
X100460157Y-101571428D01*
X100460157Y-101571428D02*
X100531585Y-101642857D01*
X100531585Y-101642857D02*
X100674442Y-101714285D01*
X100674442Y-101714285D02*
X100960157Y-101785714D01*
X100960157Y-101785714D02*
X101317300Y-101785714D01*
X101317300Y-101785714D02*
X101603014Y-101714285D01*
X101603014Y-101714285D02*
X101745871Y-101642857D01*
X101745871Y-101642857D02*
X101817300Y-101571428D01*
X101817300Y-101571428D02*
X101888728Y-101428571D01*
X101888728Y-101428571D02*
X101888728Y-101285714D01*
X101888728Y-101285714D02*
X101817300Y-101142857D01*
X101817300Y-101142857D02*
X101745871Y-101071428D01*
X101745871Y-101071428D02*
X101603014Y-100999999D01*
X101603014Y-100999999D02*
X101317300Y-100928571D01*
X101317300Y-100928571D02*
X100960157Y-100928571D01*
X100960157Y-100928571D02*
X100674442Y-100999999D01*
X100674442Y-100999999D02*
X100531585Y-101071428D01*
X100531585Y-101071428D02*
X100460157Y-101142857D01*
X100460157Y-101142857D02*
X100388728Y-101285714D01*
X101888728Y-103571427D02*
X100888728Y-103571427D01*
X101031585Y-103571427D02*
X100960157Y-103642856D01*
X100960157Y-103642856D02*
X100888728Y-103785713D01*
X100888728Y-103785713D02*
X100888728Y-103999999D01*
X100888728Y-103999999D02*
X100960157Y-104142856D01*
X100960157Y-104142856D02*
X101103014Y-104214285D01*
X101103014Y-104214285D02*
X101888728Y-104214285D01*
X101103014Y-104214285D02*
X100960157Y-104285713D01*
X100960157Y-104285713D02*
X100888728Y-104428570D01*
X100888728Y-104428570D02*
X100888728Y-104642856D01*
X100888728Y-104642856D02*
X100960157Y-104785713D01*
X100960157Y-104785713D02*
X101103014Y-104857142D01*
X101103014Y-104857142D02*
X101888728Y-104857142D01*
X101888728Y-105571427D02*
X100888728Y-105571427D01*
X101031585Y-105571427D02*
X100960157Y-105642856D01*
X100960157Y-105642856D02*
X100888728Y-105785713D01*
X100888728Y-105785713D02*
X100888728Y-105999999D01*
X100888728Y-105999999D02*
X100960157Y-106142856D01*
X100960157Y-106142856D02*
X101103014Y-106214285D01*
X101103014Y-106214285D02*
X101888728Y-106214285D01*
X101103014Y-106214285D02*
X100960157Y-106285713D01*
X100960157Y-106285713D02*
X100888728Y-106428570D01*
X100888728Y-106428570D02*
X100888728Y-106642856D01*
X100888728Y-106642856D02*
X100960157Y-106785713D01*
X100960157Y-106785713D02*
X101103014Y-106857142D01*
X101103014Y-106857142D02*
X101888728Y-106857142D01*
X104500000Y-55000000D02*
X102213580Y-55000000D01*
X104500000Y-145000000D02*
X102213580Y-145000000D01*
X102800000Y-55000000D02*
X102800000Y-145000000D01*
X102800000Y-55000000D02*
X102800000Y-145000000D01*
X102800000Y-55000000D02*
X103386421Y-56126504D01*
X102800000Y-55000000D02*
X102213579Y-56126504D01*
X102800000Y-145000000D02*
X102213579Y-143873496D01*
X102800000Y-145000000D02*
X103386421Y-143873496D01*
X156785712Y-147788728D02*
X156499998Y-147788728D01*
X156499998Y-147788728D02*
X156357141Y-147717300D01*
X156357141Y-147717300D02*
X156285712Y-147645871D01*
X156285712Y-147645871D02*
X156142855Y-147431585D01*
X156142855Y-147431585D02*
X156071426Y-147145871D01*
X156071426Y-147145871D02*
X156071426Y-146574442D01*
X156071426Y-146574442D02*
X156142855Y-146431585D01*
X156142855Y-146431585D02*
X156214284Y-146360157D01*
X156214284Y-146360157D02*
X156357141Y-146288728D01*
X156357141Y-146288728D02*
X156642855Y-146288728D01*
X156642855Y-146288728D02*
X156785712Y-146360157D01*
X156785712Y-146360157D02*
X156857141Y-146431585D01*
X156857141Y-146431585D02*
X156928569Y-146574442D01*
X156928569Y-146574442D02*
X156928569Y-146931585D01*
X156928569Y-146931585D02*
X156857141Y-147074442D01*
X156857141Y-147074442D02*
X156785712Y-147145871D01*
X156785712Y-147145871D02*
X156642855Y-147217300D01*
X156642855Y-147217300D02*
X156357141Y-147217300D01*
X156357141Y-147217300D02*
X156214284Y-147145871D01*
X156214284Y-147145871D02*
X156142855Y-147074442D01*
X156142855Y-147074442D02*
X156071426Y-146931585D01*
X155142855Y-146288728D02*
X154999998Y-146288728D01*
X154999998Y-146288728D02*
X154857141Y-146360157D01*
X154857141Y-146360157D02*
X154785713Y-146431585D01*
X154785713Y-146431585D02*
X154714284Y-146574442D01*
X154714284Y-146574442D02*
X154642855Y-146860157D01*
X154642855Y-146860157D02*
X154642855Y-147217300D01*
X154642855Y-147217300D02*
X154714284Y-147503014D01*
X154714284Y-147503014D02*
X154785713Y-147645871D01*
X154785713Y-147645871D02*
X154857141Y-147717300D01*
X154857141Y-147717300D02*
X154999998Y-147788728D01*
X154999998Y-147788728D02*
X155142855Y-147788728D01*
X155142855Y-147788728D02*
X155285713Y-147717300D01*
X155285713Y-147717300D02*
X155357141Y-147645871D01*
X155357141Y-147645871D02*
X155428570Y-147503014D01*
X155428570Y-147503014D02*
X155499998Y-147217300D01*
X155499998Y-147217300D02*
X155499998Y-146860157D01*
X155499998Y-146860157D02*
X155428570Y-146574442D01*
X155428570Y-146574442D02*
X155357141Y-146431585D01*
X155357141Y-146431585D02*
X155285713Y-146360157D01*
X155285713Y-146360157D02*
X155142855Y-146288728D01*
X153999999Y-147645871D02*
X153928570Y-147717300D01*
X153928570Y-147717300D02*
X153999999Y-147788728D01*
X153999999Y-147788728D02*
X154071427Y-147717300D01*
X154071427Y-147717300D02*
X153999999Y-147645871D01*
X153999999Y-147645871D02*
X153999999Y-147788728D01*
X152999998Y-146288728D02*
X152857141Y-146288728D01*
X152857141Y-146288728D02*
X152714284Y-146360157D01*
X152714284Y-146360157D02*
X152642856Y-146431585D01*
X152642856Y-146431585D02*
X152571427Y-146574442D01*
X152571427Y-146574442D02*
X152499998Y-146860157D01*
X152499998Y-146860157D02*
X152499998Y-147217300D01*
X152499998Y-147217300D02*
X152571427Y-147503014D01*
X152571427Y-147503014D02*
X152642856Y-147645871D01*
X152642856Y-147645871D02*
X152714284Y-147717300D01*
X152714284Y-147717300D02*
X152857141Y-147788728D01*
X152857141Y-147788728D02*
X152999998Y-147788728D01*
X152999998Y-147788728D02*
X153142856Y-147717300D01*
X153142856Y-147717300D02*
X153214284Y-147645871D01*
X153214284Y-147645871D02*
X153285713Y-147503014D01*
X153285713Y-147503014D02*
X153357141Y-147217300D01*
X153357141Y-147217300D02*
X153357141Y-146860157D01*
X153357141Y-146860157D02*
X153285713Y-146574442D01*
X153285713Y-146574442D02*
X153214284Y-146431585D01*
X153214284Y-146431585D02*
X153142856Y-146360157D01*
X153142856Y-146360157D02*
X152999998Y-146288728D01*
X151571427Y-146288728D02*
X151428570Y-146288728D01*
X151428570Y-146288728D02*
X151285713Y-146360157D01*
X151285713Y-146360157D02*
X151214285Y-146431585D01*
X151214285Y-146431585D02*
X151142856Y-146574442D01*
X151142856Y-146574442D02*
X151071427Y-146860157D01*
X151071427Y-146860157D02*
X151071427Y-147217300D01*
X151071427Y-147217300D02*
X151142856Y-147503014D01*
X151142856Y-147503014D02*
X151214285Y-147645871D01*
X151214285Y-147645871D02*
X151285713Y-147717300D01*
X151285713Y-147717300D02*
X151428570Y-147788728D01*
X151428570Y-147788728D02*
X151571427Y-147788728D01*
X151571427Y-147788728D02*
X151714285Y-147717300D01*
X151714285Y-147717300D02*
X151785713Y-147645871D01*
X151785713Y-147645871D02*
X151857142Y-147503014D01*
X151857142Y-147503014D02*
X151928570Y-147217300D01*
X151928570Y-147217300D02*
X151928570Y-146860157D01*
X151928570Y-146860157D02*
X151857142Y-146574442D01*
X151857142Y-146574442D02*
X151785713Y-146431585D01*
X151785713Y-146431585D02*
X151714285Y-146360157D01*
X151714285Y-146360157D02*
X151571427Y-146288728D01*
X150142856Y-146288728D02*
X149999999Y-146288728D01*
X149999999Y-146288728D02*
X149857142Y-146360157D01*
X149857142Y-146360157D02*
X149785714Y-146431585D01*
X149785714Y-146431585D02*
X149714285Y-146574442D01*
X149714285Y-146574442D02*
X149642856Y-146860157D01*
X149642856Y-146860157D02*
X149642856Y-147217300D01*
X149642856Y-147217300D02*
X149714285Y-147503014D01*
X149714285Y-147503014D02*
X149785714Y-147645871D01*
X149785714Y-147645871D02*
X149857142Y-147717300D01*
X149857142Y-147717300D02*
X149999999Y-147788728D01*
X149999999Y-147788728D02*
X150142856Y-147788728D01*
X150142856Y-147788728D02*
X150285714Y-147717300D01*
X150285714Y-147717300D02*
X150357142Y-147645871D01*
X150357142Y-147645871D02*
X150428571Y-147503014D01*
X150428571Y-147503014D02*
X150499999Y-147217300D01*
X150499999Y-147217300D02*
X150499999Y-146860157D01*
X150499999Y-146860157D02*
X150428571Y-146574442D01*
X150428571Y-146574442D02*
X150357142Y-146431585D01*
X150357142Y-146431585D02*
X150285714Y-146360157D01*
X150285714Y-146360157D02*
X150142856Y-146288728D01*
X148714285Y-146288728D02*
X148571428Y-146288728D01*
X148571428Y-146288728D02*
X148428571Y-146360157D01*
X148428571Y-146360157D02*
X148357143Y-146431585D01*
X148357143Y-146431585D02*
X148285714Y-146574442D01*
X148285714Y-146574442D02*
X148214285Y-146860157D01*
X148214285Y-146860157D02*
X148214285Y-147217300D01*
X148214285Y-147217300D02*
X148285714Y-147503014D01*
X148285714Y-147503014D02*
X148357143Y-147645871D01*
X148357143Y-147645871D02*
X148428571Y-147717300D01*
X148428571Y-147717300D02*
X148571428Y-147788728D01*
X148571428Y-147788728D02*
X148714285Y-147788728D01*
X148714285Y-147788728D02*
X148857143Y-147717300D01*
X148857143Y-147717300D02*
X148928571Y-147645871D01*
X148928571Y-147645871D02*
X149000000Y-147503014D01*
X149000000Y-147503014D02*
X149071428Y-147217300D01*
X149071428Y-147217300D02*
X149071428Y-146860157D01*
X149071428Y-146860157D02*
X149000000Y-146574442D01*
X149000000Y-146574442D02*
X148928571Y-146431585D01*
X148928571Y-146431585D02*
X148857143Y-146360157D01*
X148857143Y-146360157D02*
X148714285Y-146288728D01*
X146428572Y-147788728D02*
X146428572Y-146788728D01*
X146428572Y-146931585D02*
X146357143Y-146860157D01*
X146357143Y-146860157D02*
X146214286Y-146788728D01*
X146214286Y-146788728D02*
X146000000Y-146788728D01*
X146000000Y-146788728D02*
X145857143Y-146860157D01*
X145857143Y-146860157D02*
X145785715Y-147003014D01*
X145785715Y-147003014D02*
X145785715Y-147788728D01*
X145785715Y-147003014D02*
X145714286Y-146860157D01*
X145714286Y-146860157D02*
X145571429Y-146788728D01*
X145571429Y-146788728D02*
X145357143Y-146788728D01*
X145357143Y-146788728D02*
X145214286Y-146860157D01*
X145214286Y-146860157D02*
X145142857Y-147003014D01*
X145142857Y-147003014D02*
X145142857Y-147788728D01*
X144428572Y-147788728D02*
X144428572Y-146788728D01*
X144428572Y-146931585D02*
X144357143Y-146860157D01*
X144357143Y-146860157D02*
X144214286Y-146788728D01*
X144214286Y-146788728D02*
X144000000Y-146788728D01*
X144000000Y-146788728D02*
X143857143Y-146860157D01*
X143857143Y-146860157D02*
X143785715Y-147003014D01*
X143785715Y-147003014D02*
X143785715Y-147788728D01*
X143785715Y-147003014D02*
X143714286Y-146860157D01*
X143714286Y-146860157D02*
X143571429Y-146788728D01*
X143571429Y-146788728D02*
X143357143Y-146788728D01*
X143357143Y-146788728D02*
X143214286Y-146860157D01*
X143214286Y-146860157D02*
X143142857Y-147003014D01*
X143142857Y-147003014D02*
X143142857Y-147788728D01*
X105000000Y-145500000D02*
X105000000Y-149286420D01*
X195000000Y-145500000D02*
X195000000Y-149286420D01*
X105000000Y-148700000D02*
X195000000Y-148700000D01*
X105000000Y-148700000D02*
X195000000Y-148700000D01*
X105000000Y-148700000D02*
X106126504Y-148113579D01*
X105000000Y-148700000D02*
X106126504Y-149286421D01*
X195000000Y-148700000D02*
X193873496Y-149286421D01*
X195000000Y-148700000D02*
X193873496Y-148113579D01*
M02*
